<?xml version="1.0" encoding="UTF-8"?>
<svg viewBox="0 0 400 400" xmlns="http://www.w3.org/2000/svg" role="img" aria-label="Alta Verapaz">
  <defs>
    <clipPath id="c"><path d="M232.249,96.275L233.545,97.122L234.343,96.275L234.044,94.793L234.243,93.734L234.143,93.31L232.748,93.205L233.645,91.405L234.642,91.193L234.841,92.675L236.037,92.887L236.735,93.099L239.128,94.052L239.626,95.11L238.729,96.699L238.33,97.44L238.53,98.181L240.224,97.334L241.022,97.122L241.121,97.863L240.623,98.604L239.826,98.922L239.526,100.51L239.626,101.145L241.52,101.251L242.517,101.463L243.016,102.627L242.617,103.474L243.215,103.792L244.212,103.051L245.009,102.839L244.91,103.792L245.408,104.533L246.405,103.368L246.405,102.733L247.801,102.945L248.299,103.792L248.897,104.004L249.495,103.792L249.794,103.368L250.592,103.58L250.692,104.639L250.791,105.274L251.29,105.803L252.087,105.486L252.984,105.697L252.984,107.285L254.879,106.65L254.679,104.745L255.178,104.215L256.075,104.533L256.474,106.121L257.371,106.968L257.47,107.92L256.374,108.45L255.875,108.979L258.069,109.402L258.567,110.567L258.268,111.413L257.869,111.731L258.866,111.943L260.361,112.895L261.657,112.684L262.555,114.483L262.156,115.965L261.757,116.705L262.355,117.552L263.153,118.187L263.651,119.245L264.349,119.563L264.947,120.304L266.442,119.669L267.838,118.822L268.835,119.034L269.333,119.669L270.928,119.245L271.826,119.88L273.221,118.61L277.607,118.928L279.9,118.928L280.498,118.822L280.897,117.446L281.396,116.705L282.692,116.917L282.991,115.753L284.287,115.965L285.483,115.118L287.178,116.07L288.972,115.118L289.769,114.589L289.769,113.213L290.966,112.684L291.564,111.519L291.963,110.567L293.159,110.143L293.259,109.191L292.86,108.45L293.059,106.968L294.355,106.227L295.751,105.486L296.847,104.639L297.445,104.004L300.037,104.321L301.034,104.956L301.533,104.004L304.125,106.756L310.505,111.202L318.779,113.53L323.564,113.954L327.153,114.06L330.343,112.789L332.636,112.472L337.52,112.684L339.813,112.366L341.308,112.048L343.302,110.778L347.29,110.249L350.38,110.249L353.271,110.143L353.271,133.107L353.171,134.271L355.265,133.319L355.464,132.578L357.259,132.578L357.159,131.838L357.857,131.626L358.555,130.78L361.944,130.568L362.143,131.626L362.442,132.155L362.941,132.578L363.04,133.319L363.838,133.636L364.735,134.165L366.33,133.531L366.629,133.848L367.826,133.425L368.025,132.578L369.321,132.261L370.916,131.732L372.71,130.991L374.206,131.203L375.003,131.732L375.103,132.79L376,133.954L375.601,134.8L375.003,134.377L374.305,134.589L373.308,137.551L374.206,138.503L373.907,138.926L371.713,139.455L371.614,140.302L371.115,141.148L369.72,140.936L369.121,141.994L367.826,142.735L367.028,143.158L364.835,142.735L363.738,143.475L363.04,143.898L361.745,144.216L361.445,143.687L360.847,143.475L360.05,144.11L359.352,143.581L358.654,143.687L358.255,145.591L359.252,146.014L358.953,147.177L358.555,147.918L359.053,149.293L359.452,150.033L359.053,151.197L358.156,151.62L357.259,151.408L357.059,152.148L355.863,152.889L355.265,152.466L354.667,152.043L353.869,152.254L352.972,153.206L352.773,153.523L352.673,153.946L351.676,155.11L350.879,155.321L350.38,155.216L349.483,155.639L349.084,155.11L348.486,155.639L348.187,155.216L347.389,155.321L347.19,155.004L346.393,155.956L345.296,155.321L344.897,156.485L344.698,157.225L343.502,158.071L342.804,158.6L342.305,159.657L342.903,160.609L343.003,161.878L343.302,162.724L343.601,163.358L342.505,163.887L342.305,164.627L342.505,165.367L341.707,166.107L341.607,166.742L341.707,167.482L340.81,168.116L341.209,169.279L341.607,169.702L341.009,170.654L339.913,171.288L339.115,172.451L330.442,184.185L312.299,208.068L316.785,213.245L326.654,224.547L323.963,230.673L322.467,231.307L321.67,232.785L321.57,234.263L319.776,234.58L318.38,236.587L318.081,237.22L317.084,237.431L316.785,237.537L316.984,238.276L317.682,239.121L316.785,240.282L316.586,241.444L317.283,244.4L318.081,245.245L318.579,247.884L319.178,249.362L319.975,250.312L318.978,254.852L320.573,254.957L319.277,256.435L320.872,257.279L319.975,258.335L320.673,259.179L320.274,259.918L319.078,259.074L318.779,258.652L318.579,259.602L318.879,263.085L319.676,267.517L320.075,271.422L321.769,283.556L320.673,284.4L320.474,285.666L322.467,288.831L320.972,293.684L321.072,295.055L319.277,298.852L321.171,302.016L321.969,305.391L321.171,308.028L321.57,309.188L324.66,312.668L324.96,313.406L322.168,314.038L319.875,312.773L318.779,313.089L311.202,316.147L310.804,317.096L311.601,318.678L311.502,320.892L312,322.79L311.202,323.528L308.312,322.895L307.514,321.946L306.019,318.889L305.321,318.572L301.732,318.783L301.034,318.256L299.14,316.253L297.146,315.304L294.455,316.569L291.165,317.096L289.769,316.253L286.181,315.936L284.984,314.144L283.389,310.559L281.695,310.242L279.302,310.559L277.009,311.613L274.916,310.031L273.022,310.031L271.626,311.191L269.034,312.668L266.841,312.14L262.455,312.984L261.259,316.464L256.773,316.253L255.975,315.198L255.078,315.726L255.277,317.307L254.579,318.256L247.9,318.256L244.112,317.729L240.723,316.885L238.33,314.671L229.857,317.834L230.854,316.675L242.218,299.907L244.212,294.739L245.308,291.574L245.209,288.937L244.312,286.827L243.315,284.717L241.62,283.767L236.735,282.818L235.34,283.767L233.545,284.084L231.85,284.506L230.555,284.717L228.86,285.033L226.766,285.561L225.47,285.772L223.477,285.983L220.984,286.299L219.888,286.299L217.994,286.616L216.498,287.038L214.704,287.46L213.707,288.093L212.212,287.143L205.433,287.354L203.539,286.827L199.053,287.249L196.96,287.46L194.766,287.038L193.47,286.827L192.174,286.721L189.583,288.093L186.193,287.882L182.006,286.721L173.832,284.189L165.558,283.873L157.682,279.019L155.489,278.492L154.791,279.336L154.193,281.552L154.692,282.185L153.994,284.506L153.196,285.983L152.798,287.565L152.399,288.198L152.1,289.359L151.701,290.73L150.903,291.363L149.707,291.68L147.913,292.102L146.118,292.102L146.019,295.055L145.321,296.11L144.324,296.004L140.935,292.312L136.05,288.409L133.458,287.46L127.377,284.928L127.277,284.084L128.075,283.24L127.377,282.185L126.38,282.29L125.184,281.868L123.988,281.446L123.09,282.185L122.193,281.763L121.296,281.763L119.402,281.657L117.607,281.446L116.611,281.552L114.417,281.868L112.324,281.446L109.333,281.024L106.941,281.341L107.24,279.653L108.536,277.964L109.234,276.487L108.735,274.166L108.137,271.739L108.137,271.211L103.352,268.573L101.857,269.1L100.561,267.834L95.975,266.779L94.081,266.779L91.988,267.201L90.193,266.884L89.196,267.306L87.402,266.356L86.305,266.779L84.112,266.568L82.717,265.934L81.62,266.356L79.925,266.04L79.427,266.779L77.832,266.462L76.137,266.673L75.04,266.04L73.745,265.618L72.748,265.512L72.15,265.09L69.857,264.879L68.461,264.984L66.966,264.879L66.168,264.035L64.972,263.401L64.274,262.768L63.576,262.663L61.782,262.979L59.688,261.607L58.393,261.713L56.498,260.974L55.502,260.657L54.903,259.285L54.804,258.335L53.907,257.807L52.81,256.963L52.611,256.118L51.315,255.274L51.016,253.69L51.016,253.057L50.717,251.685L50.417,250.84L50.617,249.679L51.016,247.99L50.118,247.462L50.417,245.773L52.312,243.555L52.81,242.394L53.508,241.338L53.508,240.599L55.402,240.916L60.287,241.655L61.483,241.972L62.579,243.028L64.474,242.394L66.866,239.332L66.966,237.537L66.766,234.58L67.664,232.996L68.86,231.518L69.757,229.722L72.05,228.983L73.545,226.871L74.143,225.709L76.137,225.92L76.935,224.759L77.533,223.385L76.935,222.118L77.333,220.956L76.935,219.16L76.735,216.837L76.636,215.675L76.436,214.829L75.838,213.773L75.439,212.717L75.24,211.554L75.14,210.709L74.741,209.547L74.442,209.336L73.944,208.491L73.346,206.272L72.449,205.849L72.249,205.744L71.352,205.638L70.156,205.215L69.259,204.687L67.863,203.102L67.863,202.785L68.561,201.729L69.159,201.623L70.056,201.412L70.953,200.249L70.953,196.762L69.558,196.022L69.458,194.966L67.963,194.331L67.464,193.169L67.664,192.535L67.664,190.95L66.168,189.576L64.374,189.364L63.875,188.096L64.573,187.25L64.773,186.722L61.583,186.405L58.791,186.299L56.798,186.194L55.402,185.982L55.103,185.454L52.611,184.925L49.421,183.762L47.327,183.551L45.832,182.917L39.153,180.908L38.156,180.908L36.361,179.111L34.567,179.217L33.57,178.583L31.875,178.794L31.078,178.371L30.679,177.737L30.679,176.891L30.679,176.363L34.467,172.346L35.763,172.134L36.062,171.711L35.364,170.865L33.271,168.434L32.374,168.222L30.38,168.434L29.682,168.116L29.682,167.588L30.181,166.848L33.271,166.636L34.168,165.05L33.869,163.993L33.072,163.464L33.171,162.618L32.174,161.772L29.882,161.138L28.885,161.878L26.991,162.407L25.595,161.772L24,160.503L25.296,159.763L26.393,158.177L26.293,157.859L26.791,155.744L27.19,154.581L28.486,154.475L29.682,154.052L30.28,153.418L30.779,151.725L31.377,151.302L32.075,150.562L31.975,149.716L33.271,149.61L33.57,148.764L34.667,147.283L33.869,146.543L33.57,145.273L33.869,144.744L34.268,144.427L34.766,143.369L36.162,142.735L36.361,141.359L36.461,140.513L39.252,137.657L41.545,137.868L42.243,136.705L43.34,136.07L44.137,134.906L44.636,134.06L45.234,133.107L45.832,132.049L46.829,130.674L46.829,130.568L44.536,128.875L45.234,126.23L44.536,125.383L43.14,125.066L42.044,125.066L40.349,125.172L39.751,124.431L40.05,123.161L40.349,122.632L41.545,120.727L41.146,117.658L41.146,116.388L41.844,115.647L43.24,115.118L44.935,114.589L46.031,111.943L46.031,110.461L44.835,109.296L43.639,109.932L42.741,109.614L42.243,108.344L41.346,107.92L40.05,107.285L39.751,106.333L40.05,105.803L42.343,103.686L43.639,103.898L44.935,103.686L45.533,102.522L45.333,101.145L45.632,100.087L46.33,99.557L48.224,99.663L49.421,100.404L50.517,100.934L50.816,101.992L52.411,102.522L53.508,102.098L54.006,100.828L53.508,99.663L52.611,98.393L52.611,97.016L53.209,96.487L54.903,96.593L56.199,96.593L55.9,95.428L55.601,93.522L53.707,91.405L53.607,90.24L55.402,90.663L58.093,89.71L60.685,87.592L62.181,85.686L63.975,86.216L64.773,86.216L65.371,85.263L67.664,86.11L69.757,85.157L71.153,85.263L74.442,89.287L75.738,89.287L77.034,88.016L79.526,86.428L80.125,89.604L79.726,90.24L78.928,90.557L77.832,90.769L77.333,90.875L76.436,91.299L77.234,92.146L79.526,91.828L81.421,91.722L82.417,91.722L83.813,92.887L84.71,93.205L84.91,94.475L85.009,95.534L85.209,96.699L86.305,96.805L88.1,95.64L88.598,96.169L88.199,97.122L89.196,97.546L91.09,95.958L90.692,94.687L91.19,94.052L91.788,93.946L93.682,96.275L94.978,95.958L95.078,94.899L95.975,94.581L96.972,95.428L96.872,96.169L97.371,96.487L98.268,95.216L98.567,94.369L99.364,95.005L99.265,96.593L99.165,97.122L99.963,97.228L100.76,97.016L101.558,97.44L102.953,96.593L103.651,95.852L104.249,96.169L103.95,97.122L103.053,97.652L102.754,98.393L101.657,98.922L101.757,100.087L102.156,99.134L102.754,98.816L103.252,99.663L105.445,97.969L106.442,92.146L108.636,91.405L109.732,91.934L110.43,93.416L110.231,94.158L112.125,94.052L114.417,91.722L117.807,91.193L118.604,88.546L119.202,88.016L119.701,88.122L121.894,89.287L122.393,89.604L122.393,86.745L120.897,84.945L118.804,85.475L117.707,85.051L117.907,84.31L120.798,83.462L121.097,82.192L122.093,80.921L123.29,79.862L124.087,79.014L123.489,78.061L121.894,78.591L120.498,79.12L119.402,78.591L118.804,77.531L118.305,76.472L118.405,76.472L120.199,76.578L172.336,83.356L217.695,98.181L218.991,96.063L218.093,93.416L219.19,92.569L221.184,93.946L224.075,93.522L224.972,94.793L225.869,95.852L224.474,97.122L225.67,97.863L227.763,96.381L230.255,95.64L231.95,95.958Z"/></clipPath>
    <pattern id="mesh" width="14" height="14" patternUnits="userSpaceOnUse">
      <path d="M0 14 L14 0 M-2 2 L2 -2 M12 16 L16 12" stroke="rgba(255,255,255,0.2)" stroke-width="0.6" fill="none"/>
    </pattern>
  </defs>
  <g clip-path="url(#c)">
    <rect width="400" height="400" fill="url(#mesh)"/>
    <path d="M232.249,96.275L233.545,97.122L234.343,96.275L234.044,94.793L234.243,93.734L234.143,93.31L232.748,93.205L233.645,91.405L234.642,91.193L234.841,92.675L236.037,92.887L236.735,93.099L239.128,94.052L239.626,95.11L238.729,96.699L238.33,97.44L238.53,98.181L240.224,97.334L241.022,97.122L241.121,97.863L240.623,98.604L239.826,98.922L239.526,100.51L239.626,101.145L241.52,101.251L242.517,101.463L243.016,102.627L242.617,103.474L243.215,103.792L244.212,103.051L245.009,102.839L244.91,103.792L245.408,104.533L246.405,103.368L246.405,102.733L247.801,102.945L248.299,103.792L248.897,104.004L249.495,103.792L249.794,103.368L250.592,103.58L250.692,104.639L250.791,105.274L251.29,105.803L252.087,105.486L252.984,105.697L252.984,107.285L254.879,106.65L254.679,104.745L255.178,104.215L256.075,104.533L256.474,106.121L257.371,106.968L257.47,107.92L256.374,108.45L255.875,108.979L258.069,109.402L258.567,110.567L258.268,111.413L257.869,111.731L258.866,111.943L260.361,112.895L261.657,112.684L262.555,114.483L262.156,115.965L261.757,116.705L262.355,117.552L263.153,118.187L263.651,119.245L264.349,119.563L264.947,120.304L266.442,119.669L267.838,118.822L268.835,119.034L269.333,119.669L270.928,119.245L271.826,119.88L273.221,118.61L277.607,118.928L279.9,118.928L280.498,118.822L280.897,117.446L281.396,116.705L282.692,116.917L282.991,115.753L284.287,115.965L285.483,115.118L287.178,116.07L288.972,115.118L289.769,114.589L289.769,113.213L290.966,112.684L291.564,111.519L291.963,110.567L293.159,110.143L293.259,109.191L292.86,108.45L293.059,106.968L294.355,106.227L295.751,105.486L296.847,104.639L297.445,104.004L300.037,104.321L301.034,104.956L301.533,104.004L304.125,106.756L310.505,111.202L318.779,113.53L323.564,113.954L327.153,114.06L330.343,112.789L332.636,112.472L337.52,112.684L339.813,112.366L341.308,112.048L343.302,110.778L347.29,110.249L350.38,110.249L353.271,110.143L353.271,133.107L353.171,134.271L355.265,133.319L355.464,132.578L357.259,132.578L357.159,131.838L357.857,131.626L358.555,130.78L361.944,130.568L362.143,131.626L362.442,132.155L362.941,132.578L363.04,133.319L363.838,133.636L364.735,134.165L366.33,133.531L366.629,133.848L367.826,133.425L368.025,132.578L369.321,132.261L370.916,131.732L372.71,130.991L374.206,131.203L375.003,131.732L375.103,132.79L376,133.954L375.601,134.8L375.003,134.377L374.305,134.589L373.308,137.551L374.206,138.503L373.907,138.926L371.713,139.455L371.614,140.302L371.115,141.148L369.72,140.936L369.121,141.994L367.826,142.735L367.028,143.158L364.835,142.735L363.738,143.475L363.04,143.898L361.745,144.216L361.445,143.687L360.847,143.475L360.05,144.11L359.352,143.581L358.654,143.687L358.255,145.591L359.252,146.014L358.953,147.177L358.555,147.918L359.053,149.293L359.452,150.033L359.053,151.197L358.156,151.62L357.259,151.408L357.059,152.148L355.863,152.889L355.265,152.466L354.667,152.043L353.869,152.254L352.972,153.206L352.773,153.523L352.673,153.946L351.676,155.11L350.879,155.321L350.38,155.216L349.483,155.639L349.084,155.11L348.486,155.639L348.187,155.216L347.389,155.321L347.19,155.004L346.393,155.956L345.296,155.321L344.897,156.485L344.698,157.225L343.502,158.071L342.804,158.6L342.305,159.657L342.903,160.609L343.003,161.878L343.302,162.724L343.601,163.358L342.505,163.887L342.305,164.627L342.505,165.367L341.707,166.107L341.607,166.742L341.707,167.482L340.81,168.116L341.209,169.279L341.607,169.702L341.009,170.654L339.913,171.288L339.115,172.451L330.442,184.185L312.299,208.068L316.785,213.245L326.654,224.547L323.963,230.673L322.467,231.307L321.67,232.785L321.57,234.263L319.776,234.58L318.38,236.587L318.081,237.22L317.084,237.431L316.785,237.537L316.984,238.276L317.682,239.121L316.785,240.282L316.586,241.444L317.283,244.4L318.081,245.245L318.579,247.884L319.178,249.362L319.975,250.312L318.978,254.852L320.573,254.957L319.277,256.435L320.872,257.279L319.975,258.335L320.673,259.179L320.274,259.918L319.078,259.074L318.779,258.652L318.579,259.602L318.879,263.085L319.676,267.517L320.075,271.422L321.769,283.556L320.673,284.4L320.474,285.666L322.467,288.831L320.972,293.684L321.072,295.055L319.277,298.852L321.171,302.016L321.969,305.391L321.171,308.028L321.57,309.188L324.66,312.668L324.96,313.406L322.168,314.038L319.875,312.773L318.779,313.089L311.202,316.147L310.804,317.096L311.601,318.678L311.502,320.892L312,322.79L311.202,323.528L308.312,322.895L307.514,321.946L306.019,318.889L305.321,318.572L301.732,318.783L301.034,318.256L299.14,316.253L297.146,315.304L294.455,316.569L291.165,317.096L289.769,316.253L286.181,315.936L284.984,314.144L283.389,310.559L281.695,310.242L279.302,310.559L277.009,311.613L274.916,310.031L273.022,310.031L271.626,311.191L269.034,312.668L266.841,312.14L262.455,312.984L261.259,316.464L256.773,316.253L255.975,315.198L255.078,315.726L255.277,317.307L254.579,318.256L247.9,318.256L244.112,317.729L240.723,316.885L238.33,314.671L229.857,317.834L230.854,316.675L242.218,299.907L244.212,294.739L245.308,291.574L245.209,288.937L244.312,286.827L243.315,284.717L241.62,283.767L236.735,282.818L235.34,283.767L233.545,284.084L231.85,284.506L230.555,284.717L228.86,285.033L226.766,285.561L225.47,285.772L223.477,285.983L220.984,286.299L219.888,286.299L217.994,286.616L216.498,287.038L214.704,287.46L213.707,288.093L212.212,287.143L205.433,287.354L203.539,286.827L199.053,287.249L196.96,287.46L194.766,287.038L193.47,286.827L192.174,286.721L189.583,288.093L186.193,287.882L182.006,286.721L173.832,284.189L165.558,283.873L157.682,279.019L155.489,278.492L154.791,279.336L154.193,281.552L154.692,282.185L153.994,284.506L153.196,285.983L152.798,287.565L152.399,288.198L152.1,289.359L151.701,290.73L150.903,291.363L149.707,291.68L147.913,292.102L146.118,292.102L146.019,295.055L145.321,296.11L144.324,296.004L140.935,292.312L136.05,288.409L133.458,287.46L127.377,284.928L127.277,284.084L128.075,283.24L127.377,282.185L126.38,282.29L125.184,281.868L123.988,281.446L123.09,282.185L122.193,281.763L121.296,281.763L119.402,281.657L117.607,281.446L116.611,281.552L114.417,281.868L112.324,281.446L109.333,281.024L106.941,281.341L107.24,279.653L108.536,277.964L109.234,276.487L108.735,274.166L108.137,271.739L108.137,271.211L103.352,268.573L101.857,269.1L100.561,267.834L95.975,266.779L94.081,266.779L91.988,267.201L90.193,266.884L89.196,267.306L87.402,266.356L86.305,266.779L84.112,266.568L82.717,265.934L81.62,266.356L79.925,266.04L79.427,266.779L77.832,266.462L76.137,266.673L75.04,266.04L73.745,265.618L72.748,265.512L72.15,265.09L69.857,264.879L68.461,264.984L66.966,264.879L66.168,264.035L64.972,263.401L64.274,262.768L63.576,262.663L61.782,262.979L59.688,261.607L58.393,261.713L56.498,260.974L55.502,260.657L54.903,259.285L54.804,258.335L53.907,257.807L52.81,256.963L52.611,256.118L51.315,255.274L51.016,253.69L51.016,253.057L50.717,251.685L50.417,250.84L50.617,249.679L51.016,247.99L50.118,247.462L50.417,245.773L52.312,243.555L52.81,242.394L53.508,241.338L53.508,240.599L55.402,240.916L60.287,241.655L61.483,241.972L62.579,243.028L64.474,242.394L66.866,239.332L66.966,237.537L66.766,234.58L67.664,232.996L68.86,231.518L69.757,229.722L72.05,228.983L73.545,226.871L74.143,225.709L76.137,225.92L76.935,224.759L77.533,223.385L76.935,222.118L77.333,220.956L76.935,219.16L76.735,216.837L76.636,215.675L76.436,214.829L75.838,213.773L75.439,212.717L75.24,211.554L75.14,210.709L74.741,209.547L74.442,209.336L73.944,208.491L73.346,206.272L72.449,205.849L72.249,205.744L71.352,205.638L70.156,205.215L69.259,204.687L67.863,203.102L67.863,202.785L68.561,201.729L69.159,201.623L70.056,201.412L70.953,200.249L70.953,196.762L69.558,196.022L69.458,194.966L67.963,194.331L67.464,193.169L67.664,192.535L67.664,190.95L66.168,189.576L64.374,189.364L63.875,188.096L64.573,187.25L64.773,186.722L61.583,186.405L58.791,186.299L56.798,186.194L55.402,185.982L55.103,185.454L52.611,184.925L49.421,183.762L47.327,183.551L45.832,182.917L39.153,180.908L38.156,180.908L36.361,179.111L34.567,179.217L33.57,178.583L31.875,178.794L31.078,178.371L30.679,177.737L30.679,176.891L30.679,176.363L34.467,172.346L35.763,172.134L36.062,171.711L35.364,170.865L33.271,168.434L32.374,168.222L30.38,168.434L29.682,168.116L29.682,167.588L30.181,166.848L33.271,166.636L34.168,165.05L33.869,163.993L33.072,163.464L33.171,162.618L32.174,161.772L29.882,161.138L28.885,161.878L26.991,162.407L25.595,161.772L24,160.503L25.296,159.763L26.393,158.177L26.293,157.859L26.791,155.744L27.19,154.581L28.486,154.475L29.682,154.052L30.28,153.418L30.779,151.725L31.377,151.302L32.075,150.562L31.975,149.716L33.271,149.61L33.57,148.764L34.667,147.283L33.869,146.543L33.57,145.273L33.869,144.744L34.268,144.427L34.766,143.369L36.162,142.735L36.361,141.359L36.461,140.513L39.252,137.657L41.545,137.868L42.243,136.705L43.34,136.07L44.137,134.906L44.636,134.06L45.234,133.107L45.832,132.049L46.829,130.674L46.829,130.568L44.536,128.875L45.234,126.23L44.536,125.383L43.14,125.066L42.044,125.066L40.349,125.172L39.751,124.431L40.05,123.161L40.349,122.632L41.545,120.727L41.146,117.658L41.146,116.388L41.844,115.647L43.24,115.118L44.935,114.589L46.031,111.943L46.031,110.461L44.835,109.296L43.639,109.932L42.741,109.614L42.243,108.344L41.346,107.92L40.05,107.285L39.751,106.333L40.05,105.803L42.343,103.686L43.639,103.898L44.935,103.686L45.533,102.522L45.333,101.145L45.632,100.087L46.33,99.557L48.224,99.663L49.421,100.404L50.517,100.934L50.816,101.992L52.411,102.522L53.508,102.098L54.006,100.828L53.508,99.663L52.611,98.393L52.611,97.016L53.209,96.487L54.903,96.593L56.199,96.593L55.9,95.428L55.601,93.522L53.707,91.405L53.607,90.24L55.402,90.663L58.093,89.71L60.685,87.592L62.181,85.686L63.975,86.216L64.773,86.216L65.371,85.263L67.664,86.11L69.757,85.157L71.153,85.263L74.442,89.287L75.738,89.287L77.034,88.016L79.526,86.428L80.125,89.604L79.726,90.24L78.928,90.557L77.832,90.769L77.333,90.875L76.436,91.299L77.234,92.146L79.526,91.828L81.421,91.722L82.417,91.722L83.813,92.887L84.71,93.205L84.91,94.475L85.009,95.534L85.209,96.699L86.305,96.805L88.1,95.64L88.598,96.169L88.199,97.122L89.196,97.546L91.09,95.958L90.692,94.687L91.19,94.052L91.788,93.946L93.682,96.275L94.978,95.958L95.078,94.899L95.975,94.581L96.972,95.428L96.872,96.169L97.371,96.487L98.268,95.216L98.567,94.369L99.364,95.005L99.265,96.593L99.165,97.122L99.963,97.228L100.76,97.016L101.558,97.44L102.953,96.593L103.651,95.852L104.249,96.169L103.95,97.122L103.053,97.652L102.754,98.393L101.657,98.922L101.757,100.087L102.156,99.134L102.754,98.816L103.252,99.663L105.445,97.969L106.442,92.146L108.636,91.405L109.732,91.934L110.43,93.416L110.231,94.158L112.125,94.052L114.417,91.722L117.807,91.193L118.604,88.546L119.202,88.016L119.701,88.122L121.894,89.287L122.393,89.604L122.393,86.745L120.897,84.945L118.804,85.475L117.707,85.051L117.907,84.31L120.798,83.462L121.097,82.192L122.093,80.921L123.29,79.862L124.087,79.014L123.489,78.061L121.894,78.591L120.498,79.12L119.402,78.591L118.804,77.531L118.305,76.472L118.405,76.472L120.199,76.578L172.336,83.356L217.695,98.181L218.991,96.063L218.093,93.416L219.19,92.569L221.184,93.946L224.075,93.522L224.972,94.793L225.869,95.852L224.474,97.122L225.67,97.863L227.763,96.381L230.255,95.64L231.95,95.958Z" fill="rgba(180,200,195,0.35)"/>
  </g>
  <path d="M232.249,96.275L233.545,97.122L234.343,96.275L234.044,94.793L234.243,93.734L234.143,93.31L232.748,93.205L233.645,91.405L234.642,91.193L234.841,92.675L236.037,92.887L236.735,93.099L239.128,94.052L239.626,95.11L238.729,96.699L238.33,97.44L238.53,98.181L240.224,97.334L241.022,97.122L241.121,97.863L240.623,98.604L239.826,98.922L239.526,100.51L239.626,101.145L241.52,101.251L242.517,101.463L243.016,102.627L242.617,103.474L243.215,103.792L244.212,103.051L245.009,102.839L244.91,103.792L245.408,104.533L246.405,103.368L246.405,102.733L247.801,102.945L248.299,103.792L248.897,104.004L249.495,103.792L249.794,103.368L250.592,103.58L250.692,104.639L250.791,105.274L251.29,105.803L252.087,105.486L252.984,105.697L252.984,107.285L254.879,106.65L254.679,104.745L255.178,104.215L256.075,104.533L256.474,106.121L257.371,106.968L257.47,107.92L256.374,108.45L255.875,108.979L258.069,109.402L258.567,110.567L258.268,111.413L257.869,111.731L258.866,111.943L260.361,112.895L261.657,112.684L262.555,114.483L262.156,115.965L261.757,116.705L262.355,117.552L263.153,118.187L263.651,119.245L264.349,119.563L264.947,120.304L266.442,119.669L267.838,118.822L268.835,119.034L269.333,119.669L270.928,119.245L271.826,119.88L273.221,118.61L277.607,118.928L279.9,118.928L280.498,118.822L280.897,117.446L281.396,116.705L282.692,116.917L282.991,115.753L284.287,115.965L285.483,115.118L287.178,116.07L288.972,115.118L289.769,114.589L289.769,113.213L290.966,112.684L291.564,111.519L291.963,110.567L293.159,110.143L293.259,109.191L292.86,108.45L293.059,106.968L294.355,106.227L295.751,105.486L296.847,104.639L297.445,104.004L300.037,104.321L301.034,104.956L301.533,104.004L304.125,106.756L310.505,111.202L318.779,113.53L323.564,113.954L327.153,114.06L330.343,112.789L332.636,112.472L337.52,112.684L339.813,112.366L341.308,112.048L343.302,110.778L347.29,110.249L350.38,110.249L353.271,110.143L353.271,133.107L353.171,134.271L355.265,133.319L355.464,132.578L357.259,132.578L357.159,131.838L357.857,131.626L358.555,130.78L361.944,130.568L362.143,131.626L362.442,132.155L362.941,132.578L363.04,133.319L363.838,133.636L364.735,134.165L366.33,133.531L366.629,133.848L367.826,133.425L368.025,132.578L369.321,132.261L370.916,131.732L372.71,130.991L374.206,131.203L375.003,131.732L375.103,132.79L376,133.954L375.601,134.8L375.003,134.377L374.305,134.589L373.308,137.551L374.206,138.503L373.907,138.926L371.713,139.455L371.614,140.302L371.115,141.148L369.72,140.936L369.121,141.994L367.826,142.735L367.028,143.158L364.835,142.735L363.738,143.475L363.04,143.898L361.745,144.216L361.445,143.687L360.847,143.475L360.05,144.11L359.352,143.581L358.654,143.687L358.255,145.591L359.252,146.014L358.953,147.177L358.555,147.918L359.053,149.293L359.452,150.033L359.053,151.197L358.156,151.62L357.259,151.408L357.059,152.148L355.863,152.889L355.265,152.466L354.667,152.043L353.869,152.254L352.972,153.206L352.773,153.523L352.673,153.946L351.676,155.11L350.879,155.321L350.38,155.216L349.483,155.639L349.084,155.11L348.486,155.639L348.187,155.216L347.389,155.321L347.19,155.004L346.393,155.956L345.296,155.321L344.897,156.485L344.698,157.225L343.502,158.071L342.804,158.6L342.305,159.657L342.903,160.609L343.003,161.878L343.302,162.724L343.601,163.358L342.505,163.887L342.305,164.627L342.505,165.367L341.707,166.107L341.607,166.742L341.707,167.482L340.81,168.116L341.209,169.279L341.607,169.702L341.009,170.654L339.913,171.288L339.115,172.451L330.442,184.185L312.299,208.068L316.785,213.245L326.654,224.547L323.963,230.673L322.467,231.307L321.67,232.785L321.57,234.263L319.776,234.58L318.38,236.587L318.081,237.22L317.084,237.431L316.785,237.537L316.984,238.276L317.682,239.121L316.785,240.282L316.586,241.444L317.283,244.4L318.081,245.245L318.579,247.884L319.178,249.362L319.975,250.312L318.978,254.852L320.573,254.957L319.277,256.435L320.872,257.279L319.975,258.335L320.673,259.179L320.274,259.918L319.078,259.074L318.779,258.652L318.579,259.602L318.879,263.085L319.676,267.517L320.075,271.422L321.769,283.556L320.673,284.4L320.474,285.666L322.467,288.831L320.972,293.684L321.072,295.055L319.277,298.852L321.171,302.016L321.969,305.391L321.171,308.028L321.57,309.188L324.66,312.668L324.96,313.406L322.168,314.038L319.875,312.773L318.779,313.089L311.202,316.147L310.804,317.096L311.601,318.678L311.502,320.892L312,322.79L311.202,323.528L308.312,322.895L307.514,321.946L306.019,318.889L305.321,318.572L301.732,318.783L301.034,318.256L299.14,316.253L297.146,315.304L294.455,316.569L291.165,317.096L289.769,316.253L286.181,315.936L284.984,314.144L283.389,310.559L281.695,310.242L279.302,310.559L277.009,311.613L274.916,310.031L273.022,310.031L271.626,311.191L269.034,312.668L266.841,312.14L262.455,312.984L261.259,316.464L256.773,316.253L255.975,315.198L255.078,315.726L255.277,317.307L254.579,318.256L247.9,318.256L244.112,317.729L240.723,316.885L238.33,314.671L229.857,317.834L230.854,316.675L242.218,299.907L244.212,294.739L245.308,291.574L245.209,288.937L244.312,286.827L243.315,284.717L241.62,283.767L236.735,282.818L235.34,283.767L233.545,284.084L231.85,284.506L230.555,284.717L228.86,285.033L226.766,285.561L225.47,285.772L223.477,285.983L220.984,286.299L219.888,286.299L217.994,286.616L216.498,287.038L214.704,287.46L213.707,288.093L212.212,287.143L205.433,287.354L203.539,286.827L199.053,287.249L196.96,287.46L194.766,287.038L193.47,286.827L192.174,286.721L189.583,288.093L186.193,287.882L182.006,286.721L173.832,284.189L165.558,283.873L157.682,279.019L155.489,278.492L154.791,279.336L154.193,281.552L154.692,282.185L153.994,284.506L153.196,285.983L152.798,287.565L152.399,288.198L152.1,289.359L151.701,290.73L150.903,291.363L149.707,291.68L147.913,292.102L146.118,292.102L146.019,295.055L145.321,296.11L144.324,296.004L140.935,292.312L136.05,288.409L133.458,287.46L127.377,284.928L127.277,284.084L128.075,283.24L127.377,282.185L126.38,282.29L125.184,281.868L123.988,281.446L123.09,282.185L122.193,281.763L121.296,281.763L119.402,281.657L117.607,281.446L116.611,281.552L114.417,281.868L112.324,281.446L109.333,281.024L106.941,281.341L107.24,279.653L108.536,277.964L109.234,276.487L108.735,274.166L108.137,271.739L108.137,271.211L103.352,268.573L101.857,269.1L100.561,267.834L95.975,266.779L94.081,266.779L91.988,267.201L90.193,266.884L89.196,267.306L87.402,266.356L86.305,266.779L84.112,266.568L82.717,265.934L81.62,266.356L79.925,266.04L79.427,266.779L77.832,266.462L76.137,266.673L75.04,266.04L73.745,265.618L72.748,265.512L72.15,265.09L69.857,264.879L68.461,264.984L66.966,264.879L66.168,264.035L64.972,263.401L64.274,262.768L63.576,262.663L61.782,262.979L59.688,261.607L58.393,261.713L56.498,260.974L55.502,260.657L54.903,259.285L54.804,258.335L53.907,257.807L52.81,256.963L52.611,256.118L51.315,255.274L51.016,253.69L51.016,253.057L50.717,251.685L50.417,250.84L50.617,249.679L51.016,247.99L50.118,247.462L50.417,245.773L52.312,243.555L52.81,242.394L53.508,241.338L53.508,240.599L55.402,240.916L60.287,241.655L61.483,241.972L62.579,243.028L64.474,242.394L66.866,239.332L66.966,237.537L66.766,234.58L67.664,232.996L68.86,231.518L69.757,229.722L72.05,228.983L73.545,226.871L74.143,225.709L76.137,225.92L76.935,224.759L77.533,223.385L76.935,222.118L77.333,220.956L76.935,219.16L76.735,216.837L76.636,215.675L76.436,214.829L75.838,213.773L75.439,212.717L75.24,211.554L75.14,210.709L74.741,209.547L74.442,209.336L73.944,208.491L73.346,206.272L72.449,205.849L72.249,205.744L71.352,205.638L70.156,205.215L69.259,204.687L67.863,203.102L67.863,202.785L68.561,201.729L69.159,201.623L70.056,201.412L70.953,200.249L70.953,196.762L69.558,196.022L69.458,194.966L67.963,194.331L67.464,193.169L67.664,192.535L67.664,190.95L66.168,189.576L64.374,189.364L63.875,188.096L64.573,187.25L64.773,186.722L61.583,186.405L58.791,186.299L56.798,186.194L55.402,185.982L55.103,185.454L52.611,184.925L49.421,183.762L47.327,183.551L45.832,182.917L39.153,180.908L38.156,180.908L36.361,179.111L34.567,179.217L33.57,178.583L31.875,178.794L31.078,178.371L30.679,177.737L30.679,176.891L30.679,176.363L34.467,172.346L35.763,172.134L36.062,171.711L35.364,170.865L33.271,168.434L32.374,168.222L30.38,168.434L29.682,168.116L29.682,167.588L30.181,166.848L33.271,166.636L34.168,165.05L33.869,163.993L33.072,163.464L33.171,162.618L32.174,161.772L29.882,161.138L28.885,161.878L26.991,162.407L25.595,161.772L24,160.503L25.296,159.763L26.393,158.177L26.293,157.859L26.791,155.744L27.19,154.581L28.486,154.475L29.682,154.052L30.28,153.418L30.779,151.725L31.377,151.302L32.075,150.562L31.975,149.716L33.271,149.61L33.57,148.764L34.667,147.283L33.869,146.543L33.57,145.273L33.869,144.744L34.268,144.427L34.766,143.369L36.162,142.735L36.361,141.359L36.461,140.513L39.252,137.657L41.545,137.868L42.243,136.705L43.34,136.07L44.137,134.906L44.636,134.06L45.234,133.107L45.832,132.049L46.829,130.674L46.829,130.568L44.536,128.875L45.234,126.23L44.536,125.383L43.14,125.066L42.044,125.066L40.349,125.172L39.751,124.431L40.05,123.161L40.349,122.632L41.545,120.727L41.146,117.658L41.146,116.388L41.844,115.647L43.24,115.118L44.935,114.589L46.031,111.943L46.031,110.461L44.835,109.296L43.639,109.932L42.741,109.614L42.243,108.344L41.346,107.92L40.05,107.285L39.751,106.333L40.05,105.803L42.343,103.686L43.639,103.898L44.935,103.686L45.533,102.522L45.333,101.145L45.632,100.087L46.33,99.557L48.224,99.663L49.421,100.404L50.517,100.934L50.816,101.992L52.411,102.522L53.508,102.098L54.006,100.828L53.508,99.663L52.611,98.393L52.611,97.016L53.209,96.487L54.903,96.593L56.199,96.593L55.9,95.428L55.601,93.522L53.707,91.405L53.607,90.24L55.402,90.663L58.093,89.71L60.685,87.592L62.181,85.686L63.975,86.216L64.773,86.216L65.371,85.263L67.664,86.11L69.757,85.157L71.153,85.263L74.442,89.287L75.738,89.287L77.034,88.016L79.526,86.428L80.125,89.604L79.726,90.24L78.928,90.557L77.832,90.769L77.333,90.875L76.436,91.299L77.234,92.146L79.526,91.828L81.421,91.722L82.417,91.722L83.813,92.887L84.71,93.205L84.91,94.475L85.009,95.534L85.209,96.699L86.305,96.805L88.1,95.64L88.598,96.169L88.199,97.122L89.196,97.546L91.09,95.958L90.692,94.687L91.19,94.052L91.788,93.946L93.682,96.275L94.978,95.958L95.078,94.899L95.975,94.581L96.972,95.428L96.872,96.169L97.371,96.487L98.268,95.216L98.567,94.369L99.364,95.005L99.265,96.593L99.165,97.122L99.963,97.228L100.76,97.016L101.558,97.44L102.953,96.593L103.651,95.852L104.249,96.169L103.95,97.122L103.053,97.652L102.754,98.393L101.657,98.922L101.757,100.087L102.156,99.134L102.754,98.816L103.252,99.663L105.445,97.969L106.442,92.146L108.636,91.405L109.732,91.934L110.43,93.416L110.231,94.158L112.125,94.052L114.417,91.722L117.807,91.193L118.604,88.546L119.202,88.016L119.701,88.122L121.894,89.287L122.393,89.604L122.393,86.745L120.897,84.945L118.804,85.475L117.707,85.051L117.907,84.31L120.798,83.462L121.097,82.192L122.093,80.921L123.29,79.862L124.087,79.014L123.489,78.061L121.894,78.591L120.498,79.12L119.402,78.591L118.804,77.531L118.305,76.472L118.405,76.472L120.199,76.578L172.336,83.356L217.695,98.181L218.991,96.063L218.093,93.416L219.19,92.569L221.184,93.946L224.075,93.522L224.972,94.793L225.869,95.852L224.474,97.122L225.67,97.863L227.763,96.381L230.255,95.64L231.95,95.958Z" fill="none" stroke="rgba(255,255,255,0.9)" stroke-width="2"/>
</svg>