<?xml version="1.0" encoding="UTF-8"?>
<svg viewBox="0 0 400 400" xmlns="http://www.w3.org/2000/svg" role="img" aria-label="Baja Verapaz">
  <defs>
    <clipPath id="c"><path d="M351.655,122.123L359.253,123.6L361.889,125.077L363.44,128.359L364.835,131.641L364.99,135.744L363.285,140.666L360.183,148.706L342.506,174.788L340.955,176.592L354.136,171.671L357.857,175.116L363.13,176.428L369.022,177.248L371.503,186.924L375.225,194.631L376,198.074L374.139,199.714L369.952,200.042L364.06,199.55L358.788,200.37L351.655,202.993L346.072,202.993L337.078,203.321L334.597,202.993L332.892,205.616L331.341,207.092L327.309,208.404L324.363,210.863L320.486,212.83L318.47,215.289L313.974,216.929L311.337,217.092L304.825,215.125L291.179,218.732L292.885,222.994L291.179,222.666L262.802,233.648L251.017,241.515L215.662,267.241L214.421,269.207L214.731,273.139L220.159,276.087L220.004,279.528L219.538,280.51L215.972,281.985L208.839,281.166L206.048,282.64L204.497,282.476L202.791,283.787L201.085,283.131L198.604,283.295L197.054,282.804L193.487,283.787L192.867,283.295L189.611,282.476L185.114,282.804L185.114,281.166L183.253,279.2L181.857,275.924L182.633,273.794L179.531,271.173L179.841,268.388L178.911,268.224L175.034,267.896L174.259,266.258L172.243,266.585L171.933,268.715L171.313,268.715L169.917,270.19L169.297,272.647L168.832,274.122L168.987,275.76L169.142,276.251L168.832,278.053L165.885,279.364L163.87,279.691L159.993,280.183L156.116,279.691L155.496,280.838L153.635,280.674L152.24,279.036L150.689,279.036L151.154,278.053L147.588,277.07L147.122,274.941L146.502,274.122L145.262,274.941L144.176,274.941L137.353,277.726L134.717,277.889L133.477,279.528L129.755,278.053L120.761,283.131L119.676,283.95L119.521,282.804L117.66,282.968L116.574,283.787L114.559,284.606L111.612,283.95L110.062,282.476L108.976,283.295L109.286,284.114L108.511,284.442L102.463,281.657L101.068,281.166L99.052,282.804L97.811,281.33L95.951,280.347L96.571,278.709L98.122,274.613L99.362,273.139L99.362,270.681L98.742,267.732L93.47,265.766L90.989,263.8L91.299,261.67L89.283,258.393L88.818,255.116L87.267,252.658L86.181,252.33L83.545,251.347L82.46,249.381L81.84,248.398L81.685,247.906L81.84,247.251L82.305,242.662L82.77,239.22L84.631,238.565L83.856,237.418L84.166,235.123L46.95,207.912L36.715,192.335L25.241,172.327L24,139.025L26.171,140.174L30.823,138.205L31.908,139.19L33.924,140.174L36.405,145.26L41.833,144.44L43.538,145.424L46.019,144.604L48.19,146.081L52.377,148.214L53.463,151.331L55.323,151.167L56.099,150.674L57.804,151.331L59.355,150.182L61.991,151.495L64.782,150.346L67.574,151.331L69.9,151.167L73.001,151.823L74.396,151.003L76.102,151.003L79.048,150.51L81.84,150.346L82.77,150.838L85.251,149.69L86.647,148.706L88.197,148.542L88.663,150.346L91.454,150.346L92.229,148.542L94.555,149.526L95.02,150.51L97.036,151.003L98.432,151.003L99.827,150.51L101.533,150.674L102.308,152.151L103.549,153.463L105.41,153.627L106.65,151.823L106.96,151.331L108.356,150.51L108.976,147.721L110.372,148.214L111.147,149.69L114.248,149.526L116.264,148.706L118.125,150.346L119.986,151.987L121.226,152.479L123.242,152.315L125.413,151.659L127.739,151.331L129.445,150.51L131.616,148.378L131.771,148.378L133.011,146.737L133.632,144.768L134.872,143.62L135.182,140.994L135.337,139.19L137.974,137.877L137.819,136.072L140.61,134.267L141.54,130.821L143.091,130.165L144.796,129.508L145.882,127.703L147.278,126.554L147.433,126.554L147.588,125.241L146.812,124.749L146.812,123.436L148.518,122.944L149.759,119.826L153.48,119.333L158.132,119.99L161.389,120.646L164.8,120.154L166.351,119.99L169.142,120.318L172.088,120.482L173.484,120.482L174.879,121.139L176.275,119.99L178.136,120.646L179.996,121.303L181.547,121.139L182.633,122.78L181.392,124.093L181.547,125.406L191.006,129.344L195.038,130.821L202.636,136.892L207.908,142.635L209.459,142.799L210.544,141.158L210.7,136.564L213.491,136.564L216.282,135.908L218.143,135.416L219.383,134.431L220.004,132.298L220.469,130.493L221.089,129.508L221.709,127.047L222.95,124.749L224.035,121.139L223.26,120.154L224.19,116.707L225.276,115.394L228.687,116.215L240.937,123.764L253.808,124.257L266.523,128.195L273.036,130L278.308,130.329L282.34,128.195L284.356,128.359L286.372,128.688L289.783,129.344L293.04,129.016L300.018,128.359L302.964,129.18L313.508,128.852L315.834,130.329L317.385,129.344L320.176,128.688L322.502,128.031L325.448,127.539L327.154,127.539L331.031,127.047L334.132,126.718L336.148,126.39L339.404,125.57L342.041,125.077L344.056,124.749L346.693,124.093L349.484,123.6Z"/></clipPath>
    <pattern id="mesh" width="14" height="14" patternUnits="userSpaceOnUse">
      <path d="M0 14 L14 0 M-2 2 L2 -2 M12 16 L16 12" stroke="rgba(255,255,255,0.2)" stroke-width="0.6" fill="none"/>
    </pattern>
  </defs>
  <g clip-path="url(#c)">
    <rect width="400" height="400" fill="url(#mesh)"/>
    <path d="M351.655,122.123L359.253,123.6L361.889,125.077L363.44,128.359L364.835,131.641L364.99,135.744L363.285,140.666L360.183,148.706L342.506,174.788L340.955,176.592L354.136,171.671L357.857,175.116L363.13,176.428L369.022,177.248L371.503,186.924L375.225,194.631L376,198.074L374.139,199.714L369.952,200.042L364.06,199.55L358.788,200.37L351.655,202.993L346.072,202.993L337.078,203.321L334.597,202.993L332.892,205.616L331.341,207.092L327.309,208.404L324.363,210.863L320.486,212.83L318.47,215.289L313.974,216.929L311.337,217.092L304.825,215.125L291.179,218.732L292.885,222.994L291.179,222.666L262.802,233.648L251.017,241.515L215.662,267.241L214.421,269.207L214.731,273.139L220.159,276.087L220.004,279.528L219.538,280.51L215.972,281.985L208.839,281.166L206.048,282.64L204.497,282.476L202.791,283.787L201.085,283.131L198.604,283.295L197.054,282.804L193.487,283.787L192.867,283.295L189.611,282.476L185.114,282.804L185.114,281.166L183.253,279.2L181.857,275.924L182.633,273.794L179.531,271.173L179.841,268.388L178.911,268.224L175.034,267.896L174.259,266.258L172.243,266.585L171.933,268.715L171.313,268.715L169.917,270.19L169.297,272.647L168.832,274.122L168.987,275.76L169.142,276.251L168.832,278.053L165.885,279.364L163.87,279.691L159.993,280.183L156.116,279.691L155.496,280.838L153.635,280.674L152.24,279.036L150.689,279.036L151.154,278.053L147.588,277.07L147.122,274.941L146.502,274.122L145.262,274.941L144.176,274.941L137.353,277.726L134.717,277.889L133.477,279.528L129.755,278.053L120.761,283.131L119.676,283.95L119.521,282.804L117.66,282.968L116.574,283.787L114.559,284.606L111.612,283.95L110.062,282.476L108.976,283.295L109.286,284.114L108.511,284.442L102.463,281.657L101.068,281.166L99.052,282.804L97.811,281.33L95.951,280.347L96.571,278.709L98.122,274.613L99.362,273.139L99.362,270.681L98.742,267.732L93.47,265.766L90.989,263.8L91.299,261.67L89.283,258.393L88.818,255.116L87.267,252.658L86.181,252.33L83.545,251.347L82.46,249.381L81.84,248.398L81.685,247.906L81.84,247.251L82.305,242.662L82.77,239.22L84.631,238.565L83.856,237.418L84.166,235.123L46.95,207.912L36.715,192.335L25.241,172.327L24,139.025L26.171,140.174L30.823,138.205L31.908,139.19L33.924,140.174L36.405,145.26L41.833,144.44L43.538,145.424L46.019,144.604L48.19,146.081L52.377,148.214L53.463,151.331L55.323,151.167L56.099,150.674L57.804,151.331L59.355,150.182L61.991,151.495L64.782,150.346L67.574,151.331L69.9,151.167L73.001,151.823L74.396,151.003L76.102,151.003L79.048,150.51L81.84,150.346L82.77,150.838L85.251,149.69L86.647,148.706L88.197,148.542L88.663,150.346L91.454,150.346L92.229,148.542L94.555,149.526L95.02,150.51L97.036,151.003L98.432,151.003L99.827,150.51L101.533,150.674L102.308,152.151L103.549,153.463L105.41,153.627L106.65,151.823L106.96,151.331L108.356,150.51L108.976,147.721L110.372,148.214L111.147,149.69L114.248,149.526L116.264,148.706L118.125,150.346L119.986,151.987L121.226,152.479L123.242,152.315L125.413,151.659L127.739,151.331L129.445,150.51L131.616,148.378L131.771,148.378L133.011,146.737L133.632,144.768L134.872,143.62L135.182,140.994L135.337,139.19L137.974,137.877L137.819,136.072L140.61,134.267L141.54,130.821L143.091,130.165L144.796,129.508L145.882,127.703L147.278,126.554L147.433,126.554L147.588,125.241L146.812,124.749L146.812,123.436L148.518,122.944L149.759,119.826L153.48,119.333L158.132,119.99L161.389,120.646L164.8,120.154L166.351,119.99L169.142,120.318L172.088,120.482L173.484,120.482L174.879,121.139L176.275,119.99L178.136,120.646L179.996,121.303L181.547,121.139L182.633,122.78L181.392,124.093L181.547,125.406L191.006,129.344L195.038,130.821L202.636,136.892L207.908,142.635L209.459,142.799L210.544,141.158L210.7,136.564L213.491,136.564L216.282,135.908L218.143,135.416L219.383,134.431L220.004,132.298L220.469,130.493L221.089,129.508L221.709,127.047L222.95,124.749L224.035,121.139L223.26,120.154L224.19,116.707L225.276,115.394L228.687,116.215L240.937,123.764L253.808,124.257L266.523,128.195L273.036,130L278.308,130.329L282.34,128.195L284.356,128.359L286.372,128.688L289.783,129.344L293.04,129.016L300.018,128.359L302.964,129.18L313.508,128.852L315.834,130.329L317.385,129.344L320.176,128.688L322.502,128.031L325.448,127.539L327.154,127.539L331.031,127.047L334.132,126.718L336.148,126.39L339.404,125.57L342.041,125.077L344.056,124.749L346.693,124.093L349.484,123.6Z" fill="rgba(180,200,195,0.35)"/>
  </g>
  <path d="M351.655,122.123L359.253,123.6L361.889,125.077L363.44,128.359L364.835,131.641L364.99,135.744L363.285,140.666L360.183,148.706L342.506,174.788L340.955,176.592L354.136,171.671L357.857,175.116L363.13,176.428L369.022,177.248L371.503,186.924L375.225,194.631L376,198.074L374.139,199.714L369.952,200.042L364.06,199.55L358.788,200.37L351.655,202.993L346.072,202.993L337.078,203.321L334.597,202.993L332.892,205.616L331.341,207.092L327.309,208.404L324.363,210.863L320.486,212.83L318.47,215.289L313.974,216.929L311.337,217.092L304.825,215.125L291.179,218.732L292.885,222.994L291.179,222.666L262.802,233.648L251.017,241.515L215.662,267.241L214.421,269.207L214.731,273.139L220.159,276.087L220.004,279.528L219.538,280.51L215.972,281.985L208.839,281.166L206.048,282.64L204.497,282.476L202.791,283.787L201.085,283.131L198.604,283.295L197.054,282.804L193.487,283.787L192.867,283.295L189.611,282.476L185.114,282.804L185.114,281.166L183.253,279.2L181.857,275.924L182.633,273.794L179.531,271.173L179.841,268.388L178.911,268.224L175.034,267.896L174.259,266.258L172.243,266.585L171.933,268.715L171.313,268.715L169.917,270.19L169.297,272.647L168.832,274.122L168.987,275.76L169.142,276.251L168.832,278.053L165.885,279.364L163.87,279.691L159.993,280.183L156.116,279.691L155.496,280.838L153.635,280.674L152.24,279.036L150.689,279.036L151.154,278.053L147.588,277.07L147.122,274.941L146.502,274.122L145.262,274.941L144.176,274.941L137.353,277.726L134.717,277.889L133.477,279.528L129.755,278.053L120.761,283.131L119.676,283.95L119.521,282.804L117.66,282.968L116.574,283.787L114.559,284.606L111.612,283.95L110.062,282.476L108.976,283.295L109.286,284.114L108.511,284.442L102.463,281.657L101.068,281.166L99.052,282.804L97.811,281.33L95.951,280.347L96.571,278.709L98.122,274.613L99.362,273.139L99.362,270.681L98.742,267.732L93.47,265.766L90.989,263.8L91.299,261.67L89.283,258.393L88.818,255.116L87.267,252.658L86.181,252.33L83.545,251.347L82.46,249.381L81.84,248.398L81.685,247.906L81.84,247.251L82.305,242.662L82.77,239.22L84.631,238.565L83.856,237.418L84.166,235.123L46.95,207.912L36.715,192.335L25.241,172.327L24,139.025L26.171,140.174L30.823,138.205L31.908,139.19L33.924,140.174L36.405,145.26L41.833,144.44L43.538,145.424L46.019,144.604L48.19,146.081L52.377,148.214L53.463,151.331L55.323,151.167L56.099,150.674L57.804,151.331L59.355,150.182L61.991,151.495L64.782,150.346L67.574,151.331L69.9,151.167L73.001,151.823L74.396,151.003L76.102,151.003L79.048,150.51L81.84,150.346L82.77,150.838L85.251,149.69L86.647,148.706L88.197,148.542L88.663,150.346L91.454,150.346L92.229,148.542L94.555,149.526L95.02,150.51L97.036,151.003L98.432,151.003L99.827,150.51L101.533,150.674L102.308,152.151L103.549,153.463L105.41,153.627L106.65,151.823L106.96,151.331L108.356,150.51L108.976,147.721L110.372,148.214L111.147,149.69L114.248,149.526L116.264,148.706L118.125,150.346L119.986,151.987L121.226,152.479L123.242,152.315L125.413,151.659L127.739,151.331L129.445,150.51L131.616,148.378L131.771,148.378L133.011,146.737L133.632,144.768L134.872,143.62L135.182,140.994L135.337,139.19L137.974,137.877L137.819,136.072L140.61,134.267L141.54,130.821L143.091,130.165L144.796,129.508L145.882,127.703L147.278,126.554L147.433,126.554L147.588,125.241L146.812,124.749L146.812,123.436L148.518,122.944L149.759,119.826L153.48,119.333L158.132,119.99L161.389,120.646L164.8,120.154L166.351,119.99L169.142,120.318L172.088,120.482L173.484,120.482L174.879,121.139L176.275,119.99L178.136,120.646L179.996,121.303L181.547,121.139L182.633,122.78L181.392,124.093L181.547,125.406L191.006,129.344L195.038,130.821L202.636,136.892L207.908,142.635L209.459,142.799L210.544,141.158L210.7,136.564L213.491,136.564L216.282,135.908L218.143,135.416L219.383,134.431L220.004,132.298L220.469,130.493L221.089,129.508L221.709,127.047L222.95,124.749L224.035,121.139L223.26,120.154L224.19,116.707L225.276,115.394L228.687,116.215L240.937,123.764L253.808,124.257L266.523,128.195L273.036,130L278.308,130.329L282.34,128.195L284.356,128.359L286.372,128.688L289.783,129.344L293.04,129.016L300.018,128.359L302.964,129.18L313.508,128.852L315.834,130.329L317.385,129.344L320.176,128.688L322.502,128.031L325.448,127.539L327.154,127.539L331.031,127.047L334.132,126.718L336.148,126.39L339.404,125.57L342.041,125.077L344.056,124.749L346.693,124.093L349.484,123.6Z" fill="none" stroke="rgba(255,255,255,0.9)" stroke-width="2"/>
</svg>