<?xml version="1.0" encoding="UTF-8"?>
<svg viewBox="0 0 400 400" xmlns="http://www.w3.org/2000/svg" role="img" aria-label="Chimaltenango">
  <defs>
    <clipPath id="c"><path d="M161.226,32.143L164.116,32.143L165.32,35.197L169.414,33.161L172.063,34.433L173.508,33.924L173.508,31.125L176.398,31.634L181.937,28.072L186.995,27.054L190.126,25.527L195.906,27.054L198.314,24.763L200,24.763L202.89,26.799L209.393,26.545L212.283,29.344L215.413,28.835L216.377,30.871L219.267,30.616L228.178,30.362L231.068,32.398L232.994,31.634L234.68,32.907L236.607,31.634L238.774,33.415L245.999,33.67L246.722,32.398L253.465,35.706L262.858,29.598L266.711,31.889L270.083,30.107L276.104,34.433L280.921,37.741L285.737,38.759L288.386,36.978L290.072,37.996L291.758,36.978L294.648,37.996L295.611,37.741L297.538,39.777L301.391,41.049L303.077,42.576L305.967,40.031L306.208,41.304L307.894,42.321L309.098,41.049L311.747,42.83L315.842,44.866L317.768,47.156L324.03,51.227L327.883,54.025L331.255,54.789L334.627,56.57L337.758,52.499L342.574,52.499L343.538,54.789L346.668,53.262L346.909,55.043L350.281,58.351L353.171,59.877L355.098,62.167L350.763,61.658L348.595,64.965L344.983,65.22L342.093,68.781L338.239,69.29L336.313,71.834L332.7,70.562L330.773,71.834L326.679,74.378L328.124,76.413L326.197,79.974L323.548,81.501L318.732,82.009L316.082,85.316L308.617,89.64L309.098,93.456L308.376,97.779L307.172,100.323L307.894,102.103L311.266,105.155L313.192,107.19L311.988,109.987L308.857,112.022L307.894,114.565L303.8,115.074L300.187,120.668L299.946,122.703L298.742,124.228L293.926,124.737L292.962,126.263L283.088,134.908L280.921,135.671L274.177,143.045L268.397,150.418L268.638,153.215L270.324,156.774L272.25,159.062L270.565,161.35L269.36,163.892L268.638,165.926L266.711,167.451L264.544,166.943L263.34,168.977L262.617,173.552L262.858,176.348L261.654,178.89L265.748,189.566L268.638,196.428L267.915,199.224L265.989,203.544L264.062,206.594L263.099,208.373L261.895,209.39L259.245,210.152L258.764,211.169L258.041,212.439L257.319,213.71L258.041,217.268L257.56,218.284L254.429,214.981L252.984,216.251L251.78,218.03L249.612,220.063L250.816,228.194L250.094,229.973L248.649,231.752L248.408,236.579L248.167,238.104L245.518,240.39L244.073,242.169L243.832,245.472L243.591,246.488L241.424,247.758L241.424,252.077L239.738,255.888L237.089,259.445L234.921,261.223L233.235,263.255L232.031,263.255L230.104,261.985L222.398,259.699L213.968,260.461L208.67,272.4L206.984,276.464L202.89,277.734L199.277,295.26L200,298.561L195.906,315.068L191.571,322.686L190.367,324.718L189.162,328.526L186.513,330.812L181.215,333.351L177.843,335.636L173.026,339.952L170.136,342.491L167.728,342.999L164.356,344.014L160.744,347.569L157.372,351.123L155.446,353.662L154.001,356.2L151.592,360.008L149.666,362.293L148.461,362.8L146.775,363.308L145.09,364.577L144.367,366.608L142.922,369.4L143.163,371.685L139.791,376L137.865,366.608L137.142,361.023L138.105,353.915L136.901,352.392L135.697,352.392L134.252,347.569L130.158,346.807L130.88,341.475L126.545,339.952L125.1,340.968L124.137,338.936L125.582,336.651L124.378,335.128L118.598,338.683L117.394,345.03L114.263,346.045L112.818,351.884L104.148,355.439L104.148,354.169L105.593,349.6L103.666,343.253L101.739,342.491L100.535,344.776L99.813,342.237L92.106,341.729L88.012,347.569L81.268,348.838L80.064,352.9L77.897,355.185L75.007,355.946L72.357,358.993L69.227,355.946L66.818,355.439L66.096,352.9L62.965,351.884L64.892,348.33L63.928,344.776L63.206,342.237L65.614,339.19L66.096,337.159L66.337,334.874L66.818,332.335L65.855,329.034L61.761,329.034L59.112,327.003L44.902,323.956L47.792,317.1L47.311,313.799L49.237,311.513L49.478,307.704L50.923,303.641L48.515,299.069L47.792,290.688L52.127,287.64L53.572,285.1L54.054,279.512L55.017,277.988L53.332,271.384L55.017,268.336L54.054,263.001L55.499,259.953L53.813,256.904L55.258,254.872L51.887,251.315L52.609,248.267L53.813,246.488L52.85,243.947L56.944,240.899L57.907,236.579L56.222,233.276L56.944,228.448L58.63,224.891L57.185,222.35L57.426,220.317L58.389,216.759L61.279,215.997L62.242,212.948L64.169,210.914L64.41,208.627L66.818,205.578L68.504,202.02L68.504,199.224L68.504,196.174L69.467,195.412L69.949,191.599L71.876,188.803L74.766,186.262L76.211,183.974L76.211,181.178L76.211,177.365L78.138,173.044L76.452,169.739L77.174,166.434L75.488,161.604L72.839,161.858L72.357,153.723L76.211,152.96L77.656,156.266L79.823,153.723L76.933,149.401L79.583,142.282L77.415,135.163L78.619,128.043L80.064,122.194L82.232,117.362L81.75,116.091L76.933,115.582L78.138,113.039L80.064,109.987L80.305,109.224L86.326,107.444L87.771,105.409L91.383,107.953L104.629,98.542L108.724,95.236L108.483,93.964L103.425,90.912L102.944,88.368L98.368,85.825L99.09,83.281L97.404,80.992L100.776,72.088L103.666,70.562L104.389,66.492L106.797,65.474L106.797,63.439L109.928,62.421L111.854,57.587L111.373,56.315L110.169,56.315L109.687,51.99L109.446,47.919L109.446,44.611L110.409,42.321L109.928,41.304L113.059,40.031L113.059,37.487L114.263,35.197L113.781,33.67L116.671,32.143L116.912,27.054L119.561,25.527L123.655,26.545L125.582,24L132.807,25.781L138.346,24.509L141.959,25.781L144.126,28.835L148.461,31.38L151.351,32.143L153.76,31.889L156.65,31.634L158.817,32.652Z"/></clipPath>
    <pattern id="mesh" width="14" height="14" patternUnits="userSpaceOnUse">
      <path d="M0 14 L14 0 M-2 2 L2 -2 M12 16 L16 12" stroke="rgba(255,255,255,0.2)" stroke-width="0.6" fill="none"/>
    </pattern>
  </defs>
  <g clip-path="url(#c)">
    <rect width="400" height="400" fill="url(#mesh)"/>
    <path d="M161.226,32.143L164.116,32.143L165.32,35.197L169.414,33.161L172.063,34.433L173.508,33.924L173.508,31.125L176.398,31.634L181.937,28.072L186.995,27.054L190.126,25.527L195.906,27.054L198.314,24.763L200,24.763L202.89,26.799L209.393,26.545L212.283,29.344L215.413,28.835L216.377,30.871L219.267,30.616L228.178,30.362L231.068,32.398L232.994,31.634L234.68,32.907L236.607,31.634L238.774,33.415L245.999,33.67L246.722,32.398L253.465,35.706L262.858,29.598L266.711,31.889L270.083,30.107L276.104,34.433L280.921,37.741L285.737,38.759L288.386,36.978L290.072,37.996L291.758,36.978L294.648,37.996L295.611,37.741L297.538,39.777L301.391,41.049L303.077,42.576L305.967,40.031L306.208,41.304L307.894,42.321L309.098,41.049L311.747,42.83L315.842,44.866L317.768,47.156L324.03,51.227L327.883,54.025L331.255,54.789L334.627,56.57L337.758,52.499L342.574,52.499L343.538,54.789L346.668,53.262L346.909,55.043L350.281,58.351L353.171,59.877L355.098,62.167L350.763,61.658L348.595,64.965L344.983,65.22L342.093,68.781L338.239,69.29L336.313,71.834L332.7,70.562L330.773,71.834L326.679,74.378L328.124,76.413L326.197,79.974L323.548,81.501L318.732,82.009L316.082,85.316L308.617,89.64L309.098,93.456L308.376,97.779L307.172,100.323L307.894,102.103L311.266,105.155L313.192,107.19L311.988,109.987L308.857,112.022L307.894,114.565L303.8,115.074L300.187,120.668L299.946,122.703L298.742,124.228L293.926,124.737L292.962,126.263L283.088,134.908L280.921,135.671L274.177,143.045L268.397,150.418L268.638,153.215L270.324,156.774L272.25,159.062L270.565,161.35L269.36,163.892L268.638,165.926L266.711,167.451L264.544,166.943L263.34,168.977L262.617,173.552L262.858,176.348L261.654,178.89L265.748,189.566L268.638,196.428L267.915,199.224L265.989,203.544L264.062,206.594L263.099,208.373L261.895,209.39L259.245,210.152L258.764,211.169L258.041,212.439L257.319,213.71L258.041,217.268L257.56,218.284L254.429,214.981L252.984,216.251L251.78,218.03L249.612,220.063L250.816,228.194L250.094,229.973L248.649,231.752L248.408,236.579L248.167,238.104L245.518,240.39L244.073,242.169L243.832,245.472L243.591,246.488L241.424,247.758L241.424,252.077L239.738,255.888L237.089,259.445L234.921,261.223L233.235,263.255L232.031,263.255L230.104,261.985L222.398,259.699L213.968,260.461L208.67,272.4L206.984,276.464L202.89,277.734L199.277,295.26L200,298.561L195.906,315.068L191.571,322.686L190.367,324.718L189.162,328.526L186.513,330.812L181.215,333.351L177.843,335.636L173.026,339.952L170.136,342.491L167.728,342.999L164.356,344.014L160.744,347.569L157.372,351.123L155.446,353.662L154.001,356.2L151.592,360.008L149.666,362.293L148.461,362.8L146.775,363.308L145.09,364.577L144.367,366.608L142.922,369.4L143.163,371.685L139.791,376L137.865,366.608L137.142,361.023L138.105,353.915L136.901,352.392L135.697,352.392L134.252,347.569L130.158,346.807L130.88,341.475L126.545,339.952L125.1,340.968L124.137,338.936L125.582,336.651L124.378,335.128L118.598,338.683L117.394,345.03L114.263,346.045L112.818,351.884L104.148,355.439L104.148,354.169L105.593,349.6L103.666,343.253L101.739,342.491L100.535,344.776L99.813,342.237L92.106,341.729L88.012,347.569L81.268,348.838L80.064,352.9L77.897,355.185L75.007,355.946L72.357,358.993L69.227,355.946L66.818,355.439L66.096,352.9L62.965,351.884L64.892,348.33L63.928,344.776L63.206,342.237L65.614,339.19L66.096,337.159L66.337,334.874L66.818,332.335L65.855,329.034L61.761,329.034L59.112,327.003L44.902,323.956L47.792,317.1L47.311,313.799L49.237,311.513L49.478,307.704L50.923,303.641L48.515,299.069L47.792,290.688L52.127,287.64L53.572,285.1L54.054,279.512L55.017,277.988L53.332,271.384L55.017,268.336L54.054,263.001L55.499,259.953L53.813,256.904L55.258,254.872L51.887,251.315L52.609,248.267L53.813,246.488L52.85,243.947L56.944,240.899L57.907,236.579L56.222,233.276L56.944,228.448L58.63,224.891L57.185,222.35L57.426,220.317L58.389,216.759L61.279,215.997L62.242,212.948L64.169,210.914L64.41,208.627L66.818,205.578L68.504,202.02L68.504,199.224L68.504,196.174L69.467,195.412L69.949,191.599L71.876,188.803L74.766,186.262L76.211,183.974L76.211,181.178L76.211,177.365L78.138,173.044L76.452,169.739L77.174,166.434L75.488,161.604L72.839,161.858L72.357,153.723L76.211,152.96L77.656,156.266L79.823,153.723L76.933,149.401L79.583,142.282L77.415,135.163L78.619,128.043L80.064,122.194L82.232,117.362L81.75,116.091L76.933,115.582L78.138,113.039L80.064,109.987L80.305,109.224L86.326,107.444L87.771,105.409L91.383,107.953L104.629,98.542L108.724,95.236L108.483,93.964L103.425,90.912L102.944,88.368L98.368,85.825L99.09,83.281L97.404,80.992L100.776,72.088L103.666,70.562L104.389,66.492L106.797,65.474L106.797,63.439L109.928,62.421L111.854,57.587L111.373,56.315L110.169,56.315L109.687,51.99L109.446,47.919L109.446,44.611L110.409,42.321L109.928,41.304L113.059,40.031L113.059,37.487L114.263,35.197L113.781,33.67L116.671,32.143L116.912,27.054L119.561,25.527L123.655,26.545L125.582,24L132.807,25.781L138.346,24.509L141.959,25.781L144.126,28.835L148.461,31.38L151.351,32.143L153.76,31.889L156.65,31.634L158.817,32.652Z" fill="rgba(180,200,195,0.35)"/>
  </g>
  <path d="M161.226,32.143L164.116,32.143L165.32,35.197L169.414,33.161L172.063,34.433L173.508,33.924L173.508,31.125L176.398,31.634L181.937,28.072L186.995,27.054L190.126,25.527L195.906,27.054L198.314,24.763L200,24.763L202.89,26.799L209.393,26.545L212.283,29.344L215.413,28.835L216.377,30.871L219.267,30.616L228.178,30.362L231.068,32.398L232.994,31.634L234.68,32.907L236.607,31.634L238.774,33.415L245.999,33.67L246.722,32.398L253.465,35.706L262.858,29.598L266.711,31.889L270.083,30.107L276.104,34.433L280.921,37.741L285.737,38.759L288.386,36.978L290.072,37.996L291.758,36.978L294.648,37.996L295.611,37.741L297.538,39.777L301.391,41.049L303.077,42.576L305.967,40.031L306.208,41.304L307.894,42.321L309.098,41.049L311.747,42.83L315.842,44.866L317.768,47.156L324.03,51.227L327.883,54.025L331.255,54.789L334.627,56.57L337.758,52.499L342.574,52.499L343.538,54.789L346.668,53.262L346.909,55.043L350.281,58.351L353.171,59.877L355.098,62.167L350.763,61.658L348.595,64.965L344.983,65.22L342.093,68.781L338.239,69.29L336.313,71.834L332.7,70.562L330.773,71.834L326.679,74.378L328.124,76.413L326.197,79.974L323.548,81.501L318.732,82.009L316.082,85.316L308.617,89.64L309.098,93.456L308.376,97.779L307.172,100.323L307.894,102.103L311.266,105.155L313.192,107.19L311.988,109.987L308.857,112.022L307.894,114.565L303.8,115.074L300.187,120.668L299.946,122.703L298.742,124.228L293.926,124.737L292.962,126.263L283.088,134.908L280.921,135.671L274.177,143.045L268.397,150.418L268.638,153.215L270.324,156.774L272.25,159.062L270.565,161.35L269.36,163.892L268.638,165.926L266.711,167.451L264.544,166.943L263.34,168.977L262.617,173.552L262.858,176.348L261.654,178.89L265.748,189.566L268.638,196.428L267.915,199.224L265.989,203.544L264.062,206.594L263.099,208.373L261.895,209.39L259.245,210.152L258.764,211.169L258.041,212.439L257.319,213.71L258.041,217.268L257.56,218.284L254.429,214.981L252.984,216.251L251.78,218.03L249.612,220.063L250.816,228.194L250.094,229.973L248.649,231.752L248.408,236.579L248.167,238.104L245.518,240.39L244.073,242.169L243.832,245.472L243.591,246.488L241.424,247.758L241.424,252.077L239.738,255.888L237.089,259.445L234.921,261.223L233.235,263.255L232.031,263.255L230.104,261.985L222.398,259.699L213.968,260.461L208.67,272.4L206.984,276.464L202.89,277.734L199.277,295.26L200,298.561L195.906,315.068L191.571,322.686L190.367,324.718L189.162,328.526L186.513,330.812L181.215,333.351L177.843,335.636L173.026,339.952L170.136,342.491L167.728,342.999L164.356,344.014L160.744,347.569L157.372,351.123L155.446,353.662L154.001,356.2L151.592,360.008L149.666,362.293L148.461,362.8L146.775,363.308L145.09,364.577L144.367,366.608L142.922,369.4L143.163,371.685L139.791,376L137.865,366.608L137.142,361.023L138.105,353.915L136.901,352.392L135.697,352.392L134.252,347.569L130.158,346.807L130.88,341.475L126.545,339.952L125.1,340.968L124.137,338.936L125.582,336.651L124.378,335.128L118.598,338.683L117.394,345.03L114.263,346.045L112.818,351.884L104.148,355.439L104.148,354.169L105.593,349.6L103.666,343.253L101.739,342.491L100.535,344.776L99.813,342.237L92.106,341.729L88.012,347.569L81.268,348.838L80.064,352.9L77.897,355.185L75.007,355.946L72.357,358.993L69.227,355.946L66.818,355.439L66.096,352.9L62.965,351.884L64.892,348.33L63.928,344.776L63.206,342.237L65.614,339.19L66.096,337.159L66.337,334.874L66.818,332.335L65.855,329.034L61.761,329.034L59.112,327.003L44.902,323.956L47.792,317.1L47.311,313.799L49.237,311.513L49.478,307.704L50.923,303.641L48.515,299.069L47.792,290.688L52.127,287.64L53.572,285.1L54.054,279.512L55.017,277.988L53.332,271.384L55.017,268.336L54.054,263.001L55.499,259.953L53.813,256.904L55.258,254.872L51.887,251.315L52.609,248.267L53.813,246.488L52.85,243.947L56.944,240.899L57.907,236.579L56.222,233.276L56.944,228.448L58.63,224.891L57.185,222.35L57.426,220.317L58.389,216.759L61.279,215.997L62.242,212.948L64.169,210.914L64.41,208.627L66.818,205.578L68.504,202.02L68.504,199.224L68.504,196.174L69.467,195.412L69.949,191.599L71.876,188.803L74.766,186.262L76.211,183.974L76.211,181.178L76.211,177.365L78.138,173.044L76.452,169.739L77.174,166.434L75.488,161.604L72.839,161.858L72.357,153.723L76.211,152.96L77.656,156.266L79.823,153.723L76.933,149.401L79.583,142.282L77.415,135.163L78.619,128.043L80.064,122.194L82.232,117.362L81.75,116.091L76.933,115.582L78.138,113.039L80.064,109.987L80.305,109.224L86.326,107.444L87.771,105.409L91.383,107.953L104.629,98.542L108.724,95.236L108.483,93.964L103.425,90.912L102.944,88.368L98.368,85.825L99.09,83.281L97.404,80.992L100.776,72.088L103.666,70.562L104.389,66.492L106.797,65.474L106.797,63.439L109.928,62.421L111.854,57.587L111.373,56.315L110.169,56.315L109.687,51.99L109.446,47.919L109.446,44.611L110.409,42.321L109.928,41.304L113.059,40.031L113.059,37.487L114.263,35.197L113.781,33.67L116.671,32.143L116.912,27.054L119.561,25.527L123.655,26.545L125.582,24L132.807,25.781L138.346,24.509L141.959,25.781L144.126,28.835L148.461,31.38L151.351,32.143L153.76,31.889L156.65,31.634L158.817,32.652Z" fill="none" stroke="rgba(255,255,255,0.9)" stroke-width="2"/>
</svg>