<?xml version="1.0" encoding="UTF-8"?>
<svg viewBox="0 0 400 400" xmlns="http://www.w3.org/2000/svg" role="img" aria-label="Chiquimula">
  <defs>
    <clipPath id="c"><path d="M347.189,50.804L346.725,52.277L345.331,57.432L343.24,62.096L340.219,65.533L338.593,66.515L330.228,70.933L329.996,71.178L323.026,74.86L322.561,75.351L321.399,76.578L320.47,88.114L322.561,103.575L335.108,121.487L343.937,130.566L354.624,141.36L356.483,154.362L356.716,168.098L376,178.644L371.818,189.19L370.888,189.68L364.15,201.696L363.918,202.187L364.15,202.677L363.686,202.677L362.292,206.355L360.898,210.033L361.362,219.105L363.918,231.364L364.615,246.318L359.736,262.985L359.504,264.456L358.11,264.701L351.836,265.926L346.492,265.191L325.582,258.328L323.258,257.593L320.47,257.838L317.45,258.083L311.409,261.024L310.479,262.005L310.247,262.005L306.065,265.926L304.903,266.907L303.277,273.279L303.277,273.524L301.185,276.71L300.256,277.445L299.559,278.671L298.397,279.161L291.892,284.797L291.195,285.287L290.962,285.777L288.174,290.188L286.548,297.05L281.901,300.97L279.345,302.685L276.325,304.89L277.486,311.261L273.072,313.221L272.607,314.936L270.284,315.671L269.819,316.651L268.193,317.141L266.334,319.346L263.546,319.836L260.758,321.551L256.808,323.021L253.323,324.491L249.838,326.206L248.211,326.941L247.05,328.165L247.282,330.125L246.12,329.88L245.888,333.31L246.817,352.661L246.585,353.641L246.352,354.376L246.352,354.131L246.12,354.62L245.655,355.11L244.494,356.09L242.635,356.58L239.847,356.09L231.483,349.477L230.785,349.232L229.856,349.232L227.3,350.946L227.068,350.702L227.765,341.639L227.533,339.434L225.442,337.474L223.815,339.434L219.865,340.169L217.774,343.353L216.613,348.007L214.521,349.232L212.663,352.661L210.339,354.62L210.107,354.62L204.531,359.764L202.44,360.988L199.651,360.988L198.722,361.478L197.793,360.988L195.934,359.764L195.469,357.07L190.59,355.845L187.57,354.376L186.176,353.151L182.458,352.661L178.276,350.702L174.326,354.62L171.073,356.58L169.215,357.07L168.285,356.825L165.497,360.009L160.385,364.172L159.456,362.948L156.9,360.499L155.971,358.049L155.042,356.58L154.112,353.886L152.486,351.926L150.395,346.782L151.789,345.313L155.506,343.353L158.294,341.639L161.083,338.699L162.012,333.31L161.083,331.35L162.709,325.961L162.012,324.246L160.85,322.286L161.78,321.306L162.012,318.366L159.224,316.651L153.88,312.731L154.809,311.506L157.133,309.546L149.698,306.851L151.092,302.685L148.071,299.255L137.383,299.745L89.521,300.97L92.309,276.955L77.904,269.848L56.063,286.023L54.902,281.856L53.275,281.611L51.184,281.121L50.255,278.18L50.487,274.749L50.255,273.279L50.255,271.318L65.125,236.757L63.963,233.08L63.731,229.893L66.519,224.99L66.054,221.557L68.378,218.125L71.398,213.466L71.63,203.168L72.56,186.492L72.792,184.04L68.61,185.021L65.357,184.776L65.125,181.097L65.589,177.418L66.054,174.23L66.286,170.305L67.448,164.664L68.61,161.966L66.286,159.023L65.357,154.607L60.013,153.381L54.437,153.381L52.114,155.834L50.022,158.777L47.467,161.721L44.911,163.928L42.82,164.419L39.567,165.645L38.638,166.626L35.617,169.079L24,163.192L27.253,163.438L40.729,156.57L42.123,143.078L44.679,139.398L38.173,117.316L39.335,113.636L42.587,101.612L49.325,96.213L65.357,82.469L73.954,84.432L85.803,88.85L154.809,89.586L157.83,93.022L160.85,92.041L161.315,91.059L162.941,88.605L168.053,72.897L178.973,69.951L192.449,66.76L198.257,65.778L204.298,61.36L218.007,66.269L232.18,70.442L248.908,65.778L266.799,58.905L287.477,69.46L302.115,67.006L322.329,36.564L323.026,35.828L325.117,37.055L335.805,36.81L343.472,45.157Z"/></clipPath>
    <pattern id="mesh" width="14" height="14" patternUnits="userSpaceOnUse">
      <path d="M0 14 L14 0 M-2 2 L2 -2 M12 16 L16 12" stroke="rgba(255,255,255,0.2)" stroke-width="0.6" fill="none"/>
    </pattern>
  </defs>
  <g clip-path="url(#c)">
    <rect width="400" height="400" fill="url(#mesh)"/>
    <path d="M347.189,50.804L346.725,52.277L345.331,57.432L343.24,62.096L340.219,65.533L338.593,66.515L330.228,70.933L329.996,71.178L323.026,74.86L322.561,75.351L321.399,76.578L320.47,88.114L322.561,103.575L335.108,121.487L343.937,130.566L354.624,141.36L356.483,154.362L356.716,168.098L376,178.644L371.818,189.19L370.888,189.68L364.15,201.696L363.918,202.187L364.15,202.677L363.686,202.677L362.292,206.355L360.898,210.033L361.362,219.105L363.918,231.364L364.615,246.318L359.736,262.985L359.504,264.456L358.11,264.701L351.836,265.926L346.492,265.191L325.582,258.328L323.258,257.593L320.47,257.838L317.45,258.083L311.409,261.024L310.479,262.005L310.247,262.005L306.065,265.926L304.903,266.907L303.277,273.279L303.277,273.524L301.185,276.71L300.256,277.445L299.559,278.671L298.397,279.161L291.892,284.797L291.195,285.287L290.962,285.777L288.174,290.188L286.548,297.05L281.901,300.97L279.345,302.685L276.325,304.89L277.486,311.261L273.072,313.221L272.607,314.936L270.284,315.671L269.819,316.651L268.193,317.141L266.334,319.346L263.546,319.836L260.758,321.551L256.808,323.021L253.323,324.491L249.838,326.206L248.211,326.941L247.05,328.165L247.282,330.125L246.12,329.88L245.888,333.31L246.817,352.661L246.585,353.641L246.352,354.376L246.352,354.131L246.12,354.62L245.655,355.11L244.494,356.09L242.635,356.58L239.847,356.09L231.483,349.477L230.785,349.232L229.856,349.232L227.3,350.946L227.068,350.702L227.765,341.639L227.533,339.434L225.442,337.474L223.815,339.434L219.865,340.169L217.774,343.353L216.613,348.007L214.521,349.232L212.663,352.661L210.339,354.62L210.107,354.62L204.531,359.764L202.44,360.988L199.651,360.988L198.722,361.478L197.793,360.988L195.934,359.764L195.469,357.07L190.59,355.845L187.57,354.376L186.176,353.151L182.458,352.661L178.276,350.702L174.326,354.62L171.073,356.58L169.215,357.07L168.285,356.825L165.497,360.009L160.385,364.172L159.456,362.948L156.9,360.499L155.971,358.049L155.042,356.58L154.112,353.886L152.486,351.926L150.395,346.782L151.789,345.313L155.506,343.353L158.294,341.639L161.083,338.699L162.012,333.31L161.083,331.35L162.709,325.961L162.012,324.246L160.85,322.286L161.78,321.306L162.012,318.366L159.224,316.651L153.88,312.731L154.809,311.506L157.133,309.546L149.698,306.851L151.092,302.685L148.071,299.255L137.383,299.745L89.521,300.97L92.309,276.955L77.904,269.848L56.063,286.023L54.902,281.856L53.275,281.611L51.184,281.121L50.255,278.18L50.487,274.749L50.255,273.279L50.255,271.318L65.125,236.757L63.963,233.08L63.731,229.893L66.519,224.99L66.054,221.557L68.378,218.125L71.398,213.466L71.63,203.168L72.56,186.492L72.792,184.04L68.61,185.021L65.357,184.776L65.125,181.097L65.589,177.418L66.054,174.23L66.286,170.305L67.448,164.664L68.61,161.966L66.286,159.023L65.357,154.607L60.013,153.381L54.437,153.381L52.114,155.834L50.022,158.777L47.467,161.721L44.911,163.928L42.82,164.419L39.567,165.645L38.638,166.626L35.617,169.079L24,163.192L27.253,163.438L40.729,156.57L42.123,143.078L44.679,139.398L38.173,117.316L39.335,113.636L42.587,101.612L49.325,96.213L65.357,82.469L73.954,84.432L85.803,88.85L154.809,89.586L157.83,93.022L160.85,92.041L161.315,91.059L162.941,88.605L168.053,72.897L178.973,69.951L192.449,66.76L198.257,65.778L204.298,61.36L218.007,66.269L232.18,70.442L248.908,65.778L266.799,58.905L287.477,69.46L302.115,67.006L322.329,36.564L323.026,35.828L325.117,37.055L335.805,36.81L343.472,45.157Z" fill="rgba(180,200,195,0.35)"/>
  </g>
  <path d="M347.189,50.804L346.725,52.277L345.331,57.432L343.24,62.096L340.219,65.533L338.593,66.515L330.228,70.933L329.996,71.178L323.026,74.86L322.561,75.351L321.399,76.578L320.47,88.114L322.561,103.575L335.108,121.487L343.937,130.566L354.624,141.36L356.483,154.362L356.716,168.098L376,178.644L371.818,189.19L370.888,189.68L364.15,201.696L363.918,202.187L364.15,202.677L363.686,202.677L362.292,206.355L360.898,210.033L361.362,219.105L363.918,231.364L364.615,246.318L359.736,262.985L359.504,264.456L358.11,264.701L351.836,265.926L346.492,265.191L325.582,258.328L323.258,257.593L320.47,257.838L317.45,258.083L311.409,261.024L310.479,262.005L310.247,262.005L306.065,265.926L304.903,266.907L303.277,273.279L303.277,273.524L301.185,276.71L300.256,277.445L299.559,278.671L298.397,279.161L291.892,284.797L291.195,285.287L290.962,285.777L288.174,290.188L286.548,297.05L281.901,300.97L279.345,302.685L276.325,304.89L277.486,311.261L273.072,313.221L272.607,314.936L270.284,315.671L269.819,316.651L268.193,317.141L266.334,319.346L263.546,319.836L260.758,321.551L256.808,323.021L253.323,324.491L249.838,326.206L248.211,326.941L247.05,328.165L247.282,330.125L246.12,329.88L245.888,333.31L246.817,352.661L246.585,353.641L246.352,354.376L246.352,354.131L246.12,354.62L245.655,355.11L244.494,356.09L242.635,356.58L239.847,356.09L231.483,349.477L230.785,349.232L229.856,349.232L227.3,350.946L227.068,350.702L227.765,341.639L227.533,339.434L225.442,337.474L223.815,339.434L219.865,340.169L217.774,343.353L216.613,348.007L214.521,349.232L212.663,352.661L210.339,354.62L210.107,354.62L204.531,359.764L202.44,360.988L199.651,360.988L198.722,361.478L197.793,360.988L195.934,359.764L195.469,357.07L190.59,355.845L187.57,354.376L186.176,353.151L182.458,352.661L178.276,350.702L174.326,354.62L171.073,356.58L169.215,357.07L168.285,356.825L165.497,360.009L160.385,364.172L159.456,362.948L156.9,360.499L155.971,358.049L155.042,356.58L154.112,353.886L152.486,351.926L150.395,346.782L151.789,345.313L155.506,343.353L158.294,341.639L161.083,338.699L162.012,333.31L161.083,331.35L162.709,325.961L162.012,324.246L160.85,322.286L161.78,321.306L162.012,318.366L159.224,316.651L153.88,312.731L154.809,311.506L157.133,309.546L149.698,306.851L151.092,302.685L148.071,299.255L137.383,299.745L89.521,300.97L92.309,276.955L77.904,269.848L56.063,286.023L54.902,281.856L53.275,281.611L51.184,281.121L50.255,278.18L50.487,274.749L50.255,273.279L50.255,271.318L65.125,236.757L63.963,233.08L63.731,229.893L66.519,224.99L66.054,221.557L68.378,218.125L71.398,213.466L71.63,203.168L72.56,186.492L72.792,184.04L68.61,185.021L65.357,184.776L65.125,181.097L65.589,177.418L66.054,174.23L66.286,170.305L67.448,164.664L68.61,161.966L66.286,159.023L65.357,154.607L60.013,153.381L54.437,153.381L52.114,155.834L50.022,158.777L47.467,161.721L44.911,163.928L42.82,164.419L39.567,165.645L38.638,166.626L35.617,169.079L24,163.192L27.253,163.438L40.729,156.57L42.123,143.078L44.679,139.398L38.173,117.316L39.335,113.636L42.587,101.612L49.325,96.213L65.357,82.469L73.954,84.432L85.803,88.85L154.809,89.586L157.83,93.022L160.85,92.041L161.315,91.059L162.941,88.605L168.053,72.897L178.973,69.951L192.449,66.76L198.257,65.778L204.298,61.36L218.007,66.269L232.18,70.442L248.908,65.778L266.799,58.905L287.477,69.46L302.115,67.006L322.329,36.564L323.026,35.828L325.117,37.055L335.805,36.81L343.472,45.157Z" fill="none" stroke="rgba(255,255,255,0.9)" stroke-width="2"/>
</svg>