<?xml version="1.0" encoding="UTF-8"?>
<svg viewBox="0 0 400 400" xmlns="http://www.w3.org/2000/svg" role="img" aria-label="El Progreso">
  <defs>
    <clipPath id="c"><path d="M353.859,175.137L356.118,178.002L359.055,178.479L361.766,183.731L360.637,190.176L358.151,194.95L354.311,198.053L349.114,200.679L342.562,205.691L341.433,208.316L339.625,212.612L336.462,214.999L332.621,215.476L329.458,215.715L324.714,214.283L323.358,213.328L302.121,226.693L296.472,232.181L294.439,234.329L288.113,242.68L277.268,246.02L270.49,256.28L260.098,272.025L224.401,283.236L211.071,306.848L201.582,307.802L190.511,303.748L149.843,310.664L149.166,318.056L148.714,321.395L148.036,325.687L146.228,327.594L145.325,330.456L144.647,333.078L144.195,335.701L144.421,341.662L143.517,343.808L136.965,327.833L136.739,324.256L132.899,321.633L127.024,317.818L123.861,316.149L117.309,312.81L104.657,310.902L89.294,306.133L87.035,303.032L84.549,300.17L79.353,299.932L75.964,297.785L72.575,295.162L70.316,293.254L69.412,287.529L66.701,282.043L62.86,278.942L63.086,276.319L63.086,275.126L62.408,272.74L61.279,270.593L60.601,268.924L60.601,267.731L61.73,267.254L61.279,265.822L61.279,264.63L63.312,262.482L62.86,261.767L63.086,260.335L63.538,260.097L64.668,258.188L63.99,256.518L61.956,255.087L60.601,253.655L60.601,251.985L61.956,250.076L61.73,248.883L62.634,247.213L66.249,245.066L69.186,243.157L68.96,241.964L68.508,240.771L68.96,237.908L67.153,238.146L66.701,236.476L64.668,235.76L64.216,234.806L62.634,232.658L60.375,230.988L59.019,230.033L56.082,229.556L55.63,228.363L53.145,228.363L51.338,227.886L50.208,228.124L48.852,229.079L46.819,228.84L45.463,227.886L42.752,227.647L40.719,228.124L38.46,229.317L35.522,229.556L31.682,229.795L30.1,228.363L28.97,226.215L25.356,225.738L25.13,223.59L25.13,220.965L25.582,219.056L24,215.238L29.422,209.987L35.974,209.51L40.719,210.703L41.623,211.419L46.819,209.987L49.078,210.703L52.693,210.464L55.178,211.419L57.664,209.51L59.923,209.748L63.99,207.6L74.383,208.794L79.579,206.646L80.257,205.214L80.483,200.201L72.575,195.905L72.123,190.176L73.931,187.312L125.443,149.829L142.614,138.367L183.959,122.366L186.444,122.844L183.959,116.634L203.841,111.38L213.33,114.246L217.171,114.007L223.723,111.619L226.66,108.036L232.308,105.169L236.601,101.586L242.475,99.675L244.734,97.525L247.22,93.703L250.834,94.181L263.938,93.703L272.072,93.703L282.465,89.881L290.146,88.687L298.732,89.403L304.832,88.925L307.543,86.537L306.413,81.52L300.991,70.29L297.376,56.192L312.513,56.192L348.888,99.914L359.733,109.708L376,131.203L350.018,130.964L328.329,125.71L327.877,126.188Z"/></clipPath>
    <pattern id="mesh" width="14" height="14" patternUnits="userSpaceOnUse">
      <path d="M0 14 L14 0 M-2 2 L2 -2 M12 16 L16 12" stroke="rgba(255,255,255,0.2)" stroke-width="0.6" fill="none"/>
    </pattern>
  </defs>
  <g clip-path="url(#c)">
    <rect width="400" height="400" fill="url(#mesh)"/>
    <path d="M353.859,175.137L356.118,178.002L359.055,178.479L361.766,183.731L360.637,190.176L358.151,194.95L354.311,198.053L349.114,200.679L342.562,205.691L341.433,208.316L339.625,212.612L336.462,214.999L332.621,215.476L329.458,215.715L324.714,214.283L323.358,213.328L302.121,226.693L296.472,232.181L294.439,234.329L288.113,242.68L277.268,246.02L270.49,256.28L260.098,272.025L224.401,283.236L211.071,306.848L201.582,307.802L190.511,303.748L149.843,310.664L149.166,318.056L148.714,321.395L148.036,325.687L146.228,327.594L145.325,330.456L144.647,333.078L144.195,335.701L144.421,341.662L143.517,343.808L136.965,327.833L136.739,324.256L132.899,321.633L127.024,317.818L123.861,316.149L117.309,312.81L104.657,310.902L89.294,306.133L87.035,303.032L84.549,300.17L79.353,299.932L75.964,297.785L72.575,295.162L70.316,293.254L69.412,287.529L66.701,282.043L62.86,278.942L63.086,276.319L63.086,275.126L62.408,272.74L61.279,270.593L60.601,268.924L60.601,267.731L61.73,267.254L61.279,265.822L61.279,264.63L63.312,262.482L62.86,261.767L63.086,260.335L63.538,260.097L64.668,258.188L63.99,256.518L61.956,255.087L60.601,253.655L60.601,251.985L61.956,250.076L61.73,248.883L62.634,247.213L66.249,245.066L69.186,243.157L68.96,241.964L68.508,240.771L68.96,237.908L67.153,238.146L66.701,236.476L64.668,235.76L64.216,234.806L62.634,232.658L60.375,230.988L59.019,230.033L56.082,229.556L55.63,228.363L53.145,228.363L51.338,227.886L50.208,228.124L48.852,229.079L46.819,228.84L45.463,227.886L42.752,227.647L40.719,228.124L38.46,229.317L35.522,229.556L31.682,229.795L30.1,228.363L28.97,226.215L25.356,225.738L25.13,223.59L25.13,220.965L25.582,219.056L24,215.238L29.422,209.987L35.974,209.51L40.719,210.703L41.623,211.419L46.819,209.987L49.078,210.703L52.693,210.464L55.178,211.419L57.664,209.51L59.923,209.748L63.99,207.6L74.383,208.794L79.579,206.646L80.257,205.214L80.483,200.201L72.575,195.905L72.123,190.176L73.931,187.312L125.443,149.829L142.614,138.367L183.959,122.366L186.444,122.844L183.959,116.634L203.841,111.38L213.33,114.246L217.171,114.007L223.723,111.619L226.66,108.036L232.308,105.169L236.601,101.586L242.475,99.675L244.734,97.525L247.22,93.703L250.834,94.181L263.938,93.703L272.072,93.703L282.465,89.881L290.146,88.687L298.732,89.403L304.832,88.925L307.543,86.537L306.413,81.52L300.991,70.29L297.376,56.192L312.513,56.192L348.888,99.914L359.733,109.708L376,131.203L350.018,130.964L328.329,125.71L327.877,126.188Z" fill="rgba(180,200,195,0.35)"/>
  </g>
  <path d="M353.859,175.137L356.118,178.002L359.055,178.479L361.766,183.731L360.637,190.176L358.151,194.95L354.311,198.053L349.114,200.679L342.562,205.691L341.433,208.316L339.625,212.612L336.462,214.999L332.621,215.476L329.458,215.715L324.714,214.283L323.358,213.328L302.121,226.693L296.472,232.181L294.439,234.329L288.113,242.68L277.268,246.02L270.49,256.28L260.098,272.025L224.401,283.236L211.071,306.848L201.582,307.802L190.511,303.748L149.843,310.664L149.166,318.056L148.714,321.395L148.036,325.687L146.228,327.594L145.325,330.456L144.647,333.078L144.195,335.701L144.421,341.662L143.517,343.808L136.965,327.833L136.739,324.256L132.899,321.633L127.024,317.818L123.861,316.149L117.309,312.81L104.657,310.902L89.294,306.133L87.035,303.032L84.549,300.17L79.353,299.932L75.964,297.785L72.575,295.162L70.316,293.254L69.412,287.529L66.701,282.043L62.86,278.942L63.086,276.319L63.086,275.126L62.408,272.74L61.279,270.593L60.601,268.924L60.601,267.731L61.73,267.254L61.279,265.822L61.279,264.63L63.312,262.482L62.86,261.767L63.086,260.335L63.538,260.097L64.668,258.188L63.99,256.518L61.956,255.087L60.601,253.655L60.601,251.985L61.956,250.076L61.73,248.883L62.634,247.213L66.249,245.066L69.186,243.157L68.96,241.964L68.508,240.771L68.96,237.908L67.153,238.146L66.701,236.476L64.668,235.76L64.216,234.806L62.634,232.658L60.375,230.988L59.019,230.033L56.082,229.556L55.63,228.363L53.145,228.363L51.338,227.886L50.208,228.124L48.852,229.079L46.819,228.84L45.463,227.886L42.752,227.647L40.719,228.124L38.46,229.317L35.522,229.556L31.682,229.795L30.1,228.363L28.97,226.215L25.356,225.738L25.13,223.59L25.13,220.965L25.582,219.056L24,215.238L29.422,209.987L35.974,209.51L40.719,210.703L41.623,211.419L46.819,209.987L49.078,210.703L52.693,210.464L55.178,211.419L57.664,209.51L59.923,209.748L63.99,207.6L74.383,208.794L79.579,206.646L80.257,205.214L80.483,200.201L72.575,195.905L72.123,190.176L73.931,187.312L125.443,149.829L142.614,138.367L183.959,122.366L186.444,122.844L183.959,116.634L203.841,111.38L213.33,114.246L217.171,114.007L223.723,111.619L226.66,108.036L232.308,105.169L236.601,101.586L242.475,99.675L244.734,97.525L247.22,93.703L250.834,94.181L263.938,93.703L272.072,93.703L282.465,89.881L290.146,88.687L298.732,89.403L304.832,88.925L307.543,86.537L306.413,81.52L300.991,70.29L297.376,56.192L312.513,56.192L348.888,99.914L359.733,109.708L376,131.203L350.018,130.964L328.329,125.71L327.877,126.188Z" fill="none" stroke="rgba(255,255,255,0.9)" stroke-width="2"/>
</svg>