<?xml version="1.0" encoding="UTF-8"?>
<svg viewBox="0 0 400 400" xmlns="http://www.w3.org/2000/svg" role="img" aria-label="Escuintla">
  <defs>
    <clipPath id="c"><path d="M180.262,297.459L180.672,297.459L180.672,297.603L180.945,297.603L180.945,297.746L181.082,297.746L181.082,297.89L180.672,297.89L180.672,297.746L179.443,297.746L179.443,297.459ZM177.257,296.597L177.394,296.597L177.394,296.74L177.257,296.74L177.257,296.884L177.121,296.884L176.711,296.884L176.711,297.028L176.574,297.028L176.574,297.172L176.301,297.172L176.301,297.028L176.165,297.028L176.165,296.74L176.301,296.74L176.301,296.597ZM349.091,128.898L341.305,143.007L348.135,160.279L352.643,163.013L353.189,164.308L353.189,166.035L354.555,166.755L355.511,167.33L356.331,169.201L356.467,170.208L356.194,171.072L355.648,172.511L354.145,173.806L353.872,174.813L353.872,175.964L354.145,177.835L352.096,181.144L348.818,183.015L349.638,184.453L348.408,187.187L346.769,188.913L346.906,189.489L345.95,191.791L344.584,193.948L344.174,195.387L345.95,199.415L353.599,196.969L357.014,197.832L357.833,199.271L359.199,199.559L361.385,198.983L363.707,197.401L365.346,196.106L366.302,195.099L369.307,192.222L372.449,196.969L376,198.12L372.175,200.422L371.492,201.429L370.263,203.299L369.034,204.737L362.341,207.758L356.331,213.223L347.998,212.648L347.179,219.982L350.457,220.126L356.331,221.133L356.74,223.29L357.15,224.009L360.292,224.44L360.702,225.303L360.428,232.78L357.97,233.643L356.604,232.924L353.599,233.356L352.643,234.218L350.457,235.369L348.408,235.944L347.725,239.107L348.545,240.545L348.272,243.42L338.983,243.851L338.3,262.395L338.983,263.401L336.661,267.713L336.934,294.729L336.934,295.878L336.661,295.878L336.661,295.735L336.251,295.735L336.251,295.591L335.978,295.591L335.705,295.591L335.568,295.591L335.159,295.591L335.159,295.447L335.022,295.447L335.022,295.591L335.022,295.447L334.749,295.447L334.749,295.304L334.476,295.304L334.476,295.447L334.066,295.447L334.066,295.304L333.793,295.304L333.52,295.304L332.7,295.304L332.7,295.16L332.29,295.16L332.29,295.016L331.607,295.016L331.471,295.016L331.471,294.873L330.515,294.873L330.515,294.729L329.422,294.729L327.919,294.729L327.919,294.585L327.646,294.585L327.646,294.442L326.963,294.442L326.28,294.442L325.87,294.442L325.597,294.442L325.597,294.298L325.461,294.298L325.461,294.442L325.051,294.442L325.051,294.298L324.778,294.298L324.778,294.442L324.641,294.442L324.504,294.442L323.958,294.442L323.958,294.298L323.821,294.298L323.821,294.154L323.685,294.154L323.548,294.154L323.275,294.154L323.139,294.154L323.139,294.011L322.729,294.011L322.729,294.154L321.636,294.154L321.636,294.011L320.407,294.011L320.407,293.867L319.724,293.867L319.724,293.723L319.451,293.723L319.451,293.867L319.451,293.723L319.177,293.723L319.177,293.867L318.494,293.867L318.494,293.723L318.221,293.723L318.221,293.867L318.221,293.723L317.948,293.723L317.948,293.867L317.948,293.723L317.265,293.723L316.309,293.723L316.172,293.723L315.489,293.723L315.353,293.723L315.216,293.723L314.943,293.723L314.26,293.723L314.26,293.58L313.714,293.58L313.714,293.723L313.44,293.723L313.167,293.723L312.621,293.723L312.484,293.723L311.528,293.723L311.528,293.58L309.479,293.58L309.479,293.723L306.747,293.723L306.201,293.723L306.201,293.867L305.791,293.867L305.791,294.011L305.518,294.011L305.518,293.723L305.518,293.58L305.655,293.58L305.655,293.436L306.474,293.436L306.747,293.436L306.747,293.292L307.021,293.292L307.021,293.149L306.884,293.149L306.884,293.005L306.064,293.005L306.064,293.149L305.108,293.149L304.972,293.149L304.972,293.005L304.698,293.005L304.698,292.861L304.289,292.861L304.016,292.861L303.879,292.861L303.879,293.005L303.742,293.005L303.742,293.149L303.606,293.149L303.333,293.149L303.333,293.005L302.786,293.005L302.786,293.149L302.513,293.149L302.376,293.149L302.376,293.292L302.376,293.436L302.513,293.436L302.513,293.58L302.65,293.58L302.65,293.723L302.513,293.723L302.513,294.011L302.376,294.011L302.376,294.154L301.42,294.154L301.42,294.298L300.464,294.298L300.464,294.154L300.328,294.154L299.645,294.154L298.688,294.154L298.688,294.298L297.869,294.298L297.869,294.442L297.322,294.442L296.503,294.442L296.503,294.585L296.366,294.585L296.366,294.729L296.23,294.729L296.093,294.729L295.683,294.729L295.683,294.585L295.41,294.585L295.41,294.442L294.454,294.442L294.454,294.585L294.317,294.585L294.317,294.442L294.044,294.442L294.044,294.298L294.181,294.298L294.181,294.154L294.317,294.154L294.864,294.154L294.864,294.011L295.41,294.011L296.23,294.011L296.23,293.867L296.23,293.723L296.093,293.723L295.547,293.723L295.547,293.58L294.317,293.58L294.317,293.867L294.317,294.011L293.634,294.011L293.634,294.154L293.225,294.154L293.088,294.154L293.088,294.298L293.088,294.585L292.951,294.585L292.951,294.729L292.815,294.729L292.678,294.729L292.678,295.016L292.678,295.16L291.859,295.16L291.859,295.016L291.586,295.016L291.586,294.729L291.859,294.729L291.859,294.585L291.995,294.585L291.995,294.442L292.405,294.442L292.678,294.442L292.678,294.298L292.815,294.298L292.815,294.154L292.678,294.154L292.678,294.011L292.405,294.011L292.405,294.154L292.269,294.154L292.132,294.154L291.859,294.154L291.859,294.011L291.586,294.011L291.586,294.154L290.903,294.154L290.903,294.442L291.176,294.442L291.449,294.442L291.449,294.585L291.312,294.585L291.312,294.729L291.176,294.729L291.176,294.873L290.903,294.873L290.903,295.016L290.629,295.016L290.493,295.016L290.493,295.16L290.356,295.16L290.356,295.304L290.083,295.304L290.083,295.16L289.946,295.16L289.946,295.016L289.537,295.016L289.263,295.016L288.99,295.016L288.99,295.16L288.717,295.16L288.717,295.304L288.444,295.304L288.034,295.304L288.034,295.447L287.078,295.447L287.078,295.304L286.941,295.304L286.941,295.16L286.532,295.16L286.258,295.16L286.258,295.304L286.258,295.447L286.258,295.591L286.122,295.591L286.122,295.735L285.575,295.735L285.575,295.304L285.575,295.016L285.029,295.016L284.893,295.016L284.893,295.16L284.756,295.16L284.756,295.304L284.619,295.304L284.619,295.447L284.619,295.591L284.073,295.591L283.39,295.591L283.253,295.591L283.253,295.735L283.117,295.735L283.117,295.878L282.98,295.878L282.98,296.022L282.707,296.022L282.707,296.166L282.57,296.166L282.57,296.309L282.434,296.309L282.434,296.453L282.161,296.453L282.161,296.597L282.161,296.74L282.161,297.028L282.024,297.028L282.024,297.172L281.887,297.172L281.614,297.172L281.614,296.884L281.751,296.884L281.751,296.597L281.478,296.597L280.658,296.597L280.658,296.166L280.931,296.166L280.931,296.022L281.205,296.022L281.205,295.878L281.341,295.878L281.341,295.735L281.205,295.735L281.205,295.591L281.205,295.447L281.205,295.16L281.068,295.16L281.068,294.873L280.931,294.873L280.931,294.729L280.931,294.442L280.795,294.442L280.795,294.154L280.658,294.154L280.658,293.723L280.658,293.436L280.522,293.436L279.702,293.436L279.702,293.723L279.702,294.442L279.839,294.442L279.839,294.729L279.429,294.729L279.429,294.873L279.156,294.873L279.156,295.016L278.746,295.016L278.473,295.016L278.473,295.304L278.336,295.304L278.336,295.447L278.063,295.447L278.063,295.304L277.926,295.304L277.926,295.016L277.79,295.016L277.243,295.016L276.834,295.016L276.834,295.16L276.287,295.16L276.287,295.304L275.877,295.304L275.877,295.447L276.014,295.447L276.014,295.591L276.151,295.591L276.287,295.591L276.287,295.735L278.609,295.735L278.609,295.878L278.746,295.878L279.019,295.878L279.292,295.878L279.292,296.309L279.429,296.309L279.429,296.597L279.565,296.597L279.565,296.884L279.702,296.884L279.702,297.172L279.702,297.315L279.839,297.315L279.839,297.459L279.975,297.459L279.975,297.746L280.658,297.746L280.658,297.89L281.205,297.89L281.205,298.034L281.478,298.034L281.751,298.034L281.887,298.034L281.887,298.321L281.478,298.321L281.478,298.177L279.975,298.177L279.975,298.034L279.839,298.034L279.839,297.89L279.702,297.89L279.702,297.746L279.565,297.746L279.565,297.603L279.429,297.603L279.429,297.459L279.565,297.459L279.565,297.315L279.429,297.315L279.429,297.172L279.292,297.172L278.882,297.172L278.882,297.028L278.746,297.028L278.746,296.884L278.609,296.884L278.609,296.597L278.336,296.597L278.336,297.028L277.79,297.028L277.79,296.884L277.653,296.884L277.516,296.884L277.516,296.597L277.38,296.597L277.38,296.74L277.243,296.74L277.243,296.884L277.107,296.884L276.834,296.884L276.834,296.74L276.56,296.74L276.56,296.597L276.56,296.74L276.287,296.74L276.287,296.884L276.014,296.884L275.877,296.884L275.741,296.884L275.194,296.884L274.785,296.884L274.785,296.74L274.375,296.74L274.375,296.884L273.965,296.884L273.965,296.74L273.828,296.74L273.828,296.597L273.828,296.166L273.692,296.166L273.692,296.022L273.419,296.022L273.419,295.878L273.146,295.878L272.736,295.878L272.463,295.878L272.463,296.166L272.599,296.166L272.599,296.309L272.736,296.309L272.872,296.309L272.872,296.453L273.009,296.453L273.009,296.597L273.146,296.597L273.419,296.597L273.419,297.028L273.282,297.028L273.282,297.172L272.189,297.172L271.643,297.172L271.506,297.172L270.004,297.172L270.004,297.315L267.955,297.315L267.955,297.459L267.545,297.459L266.999,297.459L266.179,297.459L265.496,297.459L265.36,297.459L264.677,297.459L264.677,297.603L264.267,297.603L264.267,297.459L263.994,297.459L263.994,297.603L263.584,297.603L263.584,297.746L262.491,297.746L262.491,297.603L262.218,297.603L262.218,297.746L261.945,297.746L261.399,297.746L261.399,297.89L260.442,297.89L260.442,297.746L260.169,297.746L260.169,297.89L259.486,297.89L259.486,297.746L259.076,297.746L259.076,297.89L258.667,297.89L258.667,297.746L258.257,297.746L257.847,297.746L257.847,297.603L257.847,297.746L257.574,297.746L257.437,297.746L257.437,297.89L256.618,297.89L256.618,298.034L256.481,298.034L253.886,298.034L253.203,298.034L252.93,298.034L252.93,298.177L252.657,298.177L252.657,298.321L252.657,298.177L251.974,298.177L251.974,298.321L251.837,298.321L251.291,298.321L251.017,298.321L251.017,298.177L250.881,298.177L250.881,298.321L250.061,298.321L249.788,298.321L249.788,298.465L249.515,298.465L249.515,298.321L249.242,298.321L248.969,298.321L247.739,298.321L247.739,298.465L247.603,298.465L247.603,298.608L246.646,298.608L246.646,298.465L246.51,298.465L246.51,298.608L246.1,298.608L246.1,298.752L245.554,298.752L245.554,298.608L245.417,298.608L245.417,298.465L245.417,298.321L245.144,298.321L245.144,298.465L245.144,298.608L245.007,298.608L245.007,298.752L244.871,298.752L244.598,298.752L244.598,298.896L244.324,298.896L244.324,299.039L243.641,299.039L242.549,299.039L242.549,299.183L242.412,299.183L242.412,299.327L242.276,299.327L242.276,299.183L241.729,299.183L241.729,299.327L241.593,299.327L241.593,299.47L241.319,299.47L241.319,299.327L241.183,299.327L241.046,299.327L241.046,299.183L241.046,299.327L240.636,299.327L240.636,299.183L240.5,299.183L240.5,299.039L240.363,299.039L240.363,298.896L240.227,298.896L240.227,298.752L240.09,298.752L240.09,298.608L239.953,298.608L239.953,298.465L239.817,298.465L239.817,298.321L239.817,298.177L239.407,298.177L239.407,298.608L239.27,298.608L239.27,298.896L239.27,299.039L239.134,299.039L238.997,299.039L238.997,299.183L238.861,299.183L238.861,299.327L238.588,299.327L238.041,299.327L238.041,299.47L237.768,299.47L237.768,299.614L237.631,299.614L237.631,299.47L237.631,299.327L237.495,299.327L237.222,299.327L237.222,299.183L237.085,299.183L237.085,299.039L236.812,299.039L236.812,299.183L236.675,299.183L236.675,299.039L236.539,299.039L235.582,299.039L235.582,298.896L235.446,298.896L235.446,298.752L235.309,298.752L234.899,298.752L234.217,298.752L233.943,298.752L233.943,298.608L233.807,298.608L233.807,298.465L233.397,298.465L233.397,298.608L232.714,298.608L232.714,298.465L232.714,298.608L232.304,298.608L232.304,298.752L231.758,298.752L231.211,298.752L231.075,298.752L231.075,298.608L230.255,298.608L230.255,298.465L227.797,298.465L227.797,298.321L227.66,298.321L227.66,298.465L227.114,298.465L227.114,298.321L226.431,298.321L226.431,298.465L226.158,298.465L226.158,298.321L224.792,298.321L224.792,298.465L224.109,298.465L224.109,298.608L223.289,298.608L223.289,298.752L222.06,298.752L222.06,298.608L221.104,298.608L221.104,298.465L220.284,298.465L220.284,298.321L215.23,298.321L215.23,298.465L214.957,298.465L214.957,298.608L214.684,298.608L214.684,298.752L214.274,298.752L214.274,298.608L214.001,298.608L214.001,298.465L214.001,298.321L213.728,298.321L213.728,298.465L213.318,298.465L213.318,298.608L212.908,298.608L212.908,298.465L212.498,298.465L212.498,298.321L212.498,298.465L212.225,298.465L212.225,298.321L211.815,298.321L211.815,298.465L211.542,298.465L211.542,298.608L211.406,298.608L211.406,298.465L211.269,298.465L211.269,298.321L210.859,298.321L210.859,298.465L210.586,298.465L210.586,298.608L209.766,298.608L209.766,298.752L209.357,298.752L209.357,298.608L209.357,298.465L209.083,298.465L209.083,298.608L208.4,298.608L208.4,298.465L208.264,298.465L208.127,298.465L206.215,298.465L206.215,298.608L206.078,298.608L206.078,298.465L205.259,298.465L204.576,298.465L204.576,298.608L204.303,298.608L204.303,298.465L203.756,298.465L203.756,298.608L201.707,298.608L201.707,298.465L201.571,298.465L201.571,298.321L201.298,298.321L201.298,298.465L200.888,298.465L200.888,298.321L200.615,298.321L200.615,298.465L200.205,298.465L200.205,298.608L199.659,298.608L199.659,298.465L199.385,298.465L199.385,298.608L199.112,298.608L199.112,298.465L198.702,298.465L198.702,298.608L198.019,298.608L198.019,298.465L195.971,298.465L195.971,298.321L195.971,298.465L195.834,298.465L195.834,298.321L195.561,298.321L195.561,298.465L195.424,298.465L195.424,298.321L195.288,298.321L195.288,298.465L194.878,298.465L194.878,298.321L194.468,298.321L194.468,298.465L194.331,298.465L194.331,298.608L193.922,298.608L193.922,298.465L189.414,298.465L189.414,298.321L188.458,298.321L187.502,298.321L187.502,298.177L187.229,298.177L187.229,298.034L186.955,298.034L186.955,298.177L185.453,298.177L185.453,298.034L184.224,298.034L184.087,298.034L183.95,298.034L183.95,297.89L183.814,297.89L183.814,298.034L182.584,298.034L182.584,297.89L182.311,297.89L182.311,297.746L182.175,297.746L182.175,297.89L182.038,297.89L182.038,297.746L181.765,297.746L181.628,297.746L181.628,297.603L181.355,297.603L181.355,297.459L181.218,297.459L180.945,297.459L180.945,297.315L180.809,297.315L180.809,297.172L180.536,297.172L180.126,297.172L180.126,297.028L179.443,297.028L179.443,296.884L178.76,296.884L178.487,296.884L178.487,296.74L178.213,296.74L178.213,296.597L177.94,296.597L177.94,296.453L177.804,296.453L177.804,296.309L177.257,296.309L176.847,296.309L176.028,296.309L175.891,296.309L175.891,296.453L175.618,296.453L175.618,296.597L175.482,296.597L175.482,296.74L175.482,296.884L175.208,296.884L174.799,296.884L174.525,296.884L174.525,296.74L173.569,296.74L173.569,296.597L173.569,296.74L173.023,296.74L173.023,296.597L172.886,296.597L172.75,296.597L172.75,296.453L172.613,296.453L172.613,296.597L172.477,296.597L172.34,296.597L172.34,296.74L171.93,296.74L171.93,296.884L171.657,296.884L171.657,296.74L171.657,296.597L171.657,296.309L171.657,296.166L171.384,296.166L171.384,296.022L171.111,296.022L171.111,296.166L170.701,296.166L170.701,296.309L170.428,296.309L170.428,296.166L169.335,296.166L169.335,296.022L169.062,296.022L169.062,295.878L167.559,295.878L167.013,295.878L167.013,295.735L166.876,295.735L166.876,295.878L166.74,295.878L166.74,296.022L166.74,296.166L166.603,296.166L166.603,296.309L166.466,296.309L166.466,296.166L166.466,296.022L166.193,296.022L166.193,295.878L166.057,295.878L165.51,295.878L165.51,295.735L165.237,295.735L165.237,295.878L165.101,295.878L165.101,296.166L164.964,296.166L164.964,296.309L164.281,296.309L163.598,296.309L163.325,296.309L163.325,296.166L163.188,296.166L163.188,296.309L162.915,296.309L162.778,296.309L162.232,296.309L162.232,296.166L161.139,296.166L161.139,296.022L160.32,296.022L160.32,295.878L160.183,295.878L159.91,295.878L158.954,295.878L158.954,295.735L158.544,295.735L158.544,295.878L158.134,295.878L158.134,295.735L157.588,295.735L157.588,295.591L157.315,295.591L157.315,295.735L156.768,295.735L156.768,295.591L156.495,295.591L156.495,295.447L156.085,295.447L156.085,295.304L155.949,295.304L155.812,295.304L155.402,295.304L155.402,295.16L155.266,295.16L155.266,295.016L154.993,295.016L154.31,295.016L154.173,295.016L153.9,295.016L153.9,294.873L153.9,294.729L153.763,294.729L153.627,294.729L153.354,294.729L153.354,294.873L152.671,294.873L152.671,294.729L152.534,294.729L152.534,294.873L152.261,294.873L152.261,294.729L152.124,294.729L152.124,294.873L151.851,294.873L151.305,294.873L151.305,294.729L151.031,294.729L150.212,294.729L150.075,294.729L149.256,294.729L149.256,294.585L148.436,294.585L148.436,294.442L147.207,294.442L145.704,294.442L145.704,294.298L145.431,294.298L145.431,294.154L144.885,294.154L144.202,294.154L144.202,294.011L143.929,294.011L143.929,293.867L142.699,293.867L142.699,293.723L141.88,293.723L141.743,293.723L141.743,293.58L141.06,293.58L141.06,293.436L140.65,293.436L140.514,293.436L140.377,293.436L139.011,293.436L139.011,293.292L138.465,293.292L138.465,293.149L137.782,293.149L137.645,293.149L137.645,293.005L137.509,293.005L137.509,292.861L136.826,292.861L136.279,292.861L136.279,292.718L136.006,292.718L136.006,292.574L135.596,292.574L135.323,292.574L134.913,292.574L134.913,292.718L134.64,292.718L134.64,292.574L134.231,292.574L133.684,292.574L133.684,292.43L133.411,292.43L133.411,292.286L132.728,292.286L132.728,292.143L132.318,292.143L132.318,291.999L132.045,291.999L131.908,291.999L131.089,291.999L131.089,291.855L130.542,291.855L130.542,291.712L130.269,291.712L129.45,291.712L129.45,291.568L129.313,291.568L129.313,291.424L128.903,291.424L128.903,291.281L128.767,291.281L128.494,291.281L128.494,291.137L127.947,291.137L127.947,290.993L127.811,290.993L127.811,290.85L127.947,290.85L127.947,290.706L127.811,290.706L127.811,290.562L127.401,290.562L127.401,290.419L127.264,290.419L127.128,290.419L127.128,290.275L126.991,290.275L126.991,290.131L126.854,290.131L126.581,290.131L126.581,289.988L126.308,289.988L126.308,289.844L126.172,289.844L125.898,289.844L125.898,289.7L125.762,289.7L125.762,289.556L125.489,289.556L125.489,289.844L125.625,289.844L125.625,289.988L125.625,290.131L125.762,290.131L125.898,290.131L125.898,290.275L126.035,290.275L126.035,290.419L126.308,290.419L126.445,290.419L126.445,290.562L126.581,290.562L126.581,290.706L126.718,290.706L126.308,290.706L125.352,290.706L125.352,290.562L125.079,290.562L125.079,290.419L124.669,290.419L123.44,290.419L123.44,290.275L122.893,290.275L122.893,290.131L122.62,290.131L122.347,290.131L122.347,289.988L121.937,289.988L121.937,289.844L121.664,289.844L121.254,289.844L121.254,289.7L120.708,289.7L120.708,289.556L120.161,289.556L119.342,289.556L119.342,289.413L119.205,289.413L119.205,289.269L119.069,289.269L119.069,289.125L118.795,289.125L118.795,289.269L118.795,289.125L118.522,289.125L118.249,289.125L118.249,288.982L117.293,288.982L117.293,288.838L117.02,288.838L116.883,288.838L116.883,288.694L116.61,288.694L116.61,288.551L115.654,288.551L115.654,288.407L115.381,288.407L115.381,288.263L115.244,288.263L115.244,288.12L115.107,288.12L115.107,287.976L114.834,287.976L114.698,287.976L114.425,287.976L114.288,287.976L114.288,287.832L114.015,287.832L113.605,287.832L113.605,287.689L113.468,287.689L113.332,287.689L112.512,287.689L112.512,287.545L112.376,287.545L112.376,287.401L112.239,287.401L111.01,287.401L111.01,287.257L110.873,287.257L110.873,287.114L110.327,287.114L110.054,287.114L110.054,286.97L109.507,286.97L109.507,286.826L109.371,286.826L109.371,286.683L109.097,286.683L108.961,286.683L108.961,286.539L108.824,286.539L108.824,286.683L108.551,286.683L108.551,286.539L108.551,286.395L108.414,286.395L108.278,286.395L108.278,286.252L108.141,286.252L108.141,286.108L107.868,286.108L107.595,286.108L107.595,285.964L107.322,285.964L107.322,285.821L106.912,285.821L106.639,285.821L106.639,285.677L106.502,285.677L106.502,285.533L106.229,285.533L105.956,285.533L105.956,285.389L105.136,285.389L105.136,285.677L105.136,285.821L105.273,285.821L105.273,285.964L104.726,285.964L104.726,285.821L104.59,285.821L104.453,285.821L104.453,285.677L104.18,285.677L104.18,285.533L104.043,285.533L103.907,285.533L103.907,285.389L103.907,285.246L103.77,285.246L103.634,285.246L103.634,285.102L103.497,285.102L103.497,284.958L103.224,284.958L103.224,284.815L103.224,284.671L102.951,284.671L102.951,284.527L102.541,284.527L102.541,284.384L102.404,284.384L102.404,284.24L102.268,284.24L102.268,284.096L102.131,284.096L102.131,283.953L101.995,283.953L101.995,283.809L101.858,283.809L101.858,283.665L101.721,283.665L101.721,283.953L101.448,283.953L101.448,284.24L101.585,284.24L101.585,284.527L101.585,284.671L100.902,284.671L100.902,284.527L100.629,284.527L100.629,284.384L100.492,284.384L100.492,284.24L100.082,284.24L100.082,284.096L99.672,284.096L99.672,283.953L99.399,283.953L99.263,283.953L99.263,283.809L99.126,283.809L99.126,283.665L98.99,283.665L98.853,283.665L98.853,283.521L98.58,283.521L98.58,283.378L98.443,283.378L98.17,283.378L98.17,283.234L97.624,283.234L97.624,283.09L97.487,283.09L97.35,283.09L97.214,283.09L97.214,282.947L97.077,282.947L97.077,282.803L96.667,282.803L96.394,282.803L96.394,282.659L96.258,282.659L96.258,282.516L95.984,282.516L95.711,282.516L95.711,282.372L95.575,282.372L95.438,282.372L95.438,282.228L95.438,282.084L95.165,282.084L94.892,282.084L94.892,281.941L94.345,281.941L94.345,281.797L94.209,281.797L93.936,281.797L93.936,281.653L93.799,281.653L93.799,281.51L93.662,281.51L93.526,281.51L93.526,281.366L93.253,281.366L93.253,281.222L92.979,281.222L92.979,281.079L92.843,281.079L92.843,280.935L92.706,280.935L92.706,280.791L92.433,280.791L92.433,280.647L92.023,280.647L91.75,280.647L91.75,280.504L91.75,280.36L91.614,280.36L91.477,280.36L91.477,280.216L91.067,280.216L91.067,280.36L90.521,280.36L90.521,280.216L90.248,280.216L90.248,280.073L90.111,280.073L89.974,280.073L89.974,279.929L89.838,279.929L89.838,279.785L89.428,279.785L89.428,279.642L89.155,279.642L88.882,279.642L88.882,279.498L88.608,279.498L88.608,279.354L88.472,279.354L88.335,279.354L88.335,279.21L88.199,279.21L88.199,279.067L87.925,279.067L87.789,279.067L87.789,278.923L87.652,278.923L87.652,278.779L87.379,278.779L87.243,278.779L87.243,278.636L86.696,278.636L86.696,278.492L86.423,278.492L85.877,278.492L85.877,278.348L85.74,278.348L85.74,278.204L85.467,278.204L85.467,278.061L85.194,278.061L85.194,277.917L84.92,277.917L84.784,277.917L84.784,277.773L84.647,277.773L84.647,277.63L84.92,277.63L84.92,277.773L85.467,277.773L85.467,277.63L85.467,277.486L85.33,277.486L85.33,277.342L85.194,277.342L85.194,277.199L85.057,277.199L85.057,276.911L84.647,276.911L84.647,276.767L83.964,276.767L83.964,276.624L83.691,276.624L83.555,276.624L83.555,276.48L83.281,276.48L83.281,276.336L83.145,276.336L83.145,276.193L83.008,276.193L83.008,276.049L82.872,276.049L82.735,276.049L82.735,275.905L82.735,275.761L82.462,275.761L82.325,275.761L82.189,275.761L82.189,275.905L82.052,275.905L82.052,276.049L81.915,276.049L81.506,276.049L81.506,275.905L81.369,275.905L81.232,275.905L81.232,276.049L81.096,276.049L80.959,276.049L80.823,276.049L80.823,275.905L80.549,275.905L80.549,275.761L80.413,275.761L80.14,275.761L80.14,275.618L80.003,275.618L80.003,275.474L79.73,275.474L79.593,275.474L79.593,275.33L79.457,275.33L79.457,275.187L79.184,275.187L79.184,275.043L78.91,275.043L78.637,275.043L78.637,274.899L78.364,274.899L78.364,274.755L78.227,274.755L77.681,274.755L77.681,274.612L77.544,274.612L77.544,274.468L77.408,274.468L77.408,274.324L77.135,274.324L77.135,274.181L76.998,274.181L76.725,274.181L76.725,274.037L76.588,274.037L76.588,273.893L76.179,273.893L76.042,273.893L76.042,273.749L75.905,273.749L75.905,273.606L75.632,273.606L75.496,273.606L75.496,273.462L75.222,273.462L75.222,273.318L75.086,273.318L74.949,273.318L74.949,273.175L74.813,273.175L74.813,273.031L74.539,273.031L74.539,272.887L74.266,272.887L73.993,272.887L73.993,272.743L73.583,272.743L73.583,272.6L73.31,272.6L73.037,272.6L73.037,272.456L72.764,272.456L72.764,272.312L72.49,272.312L72.081,272.312L72.081,272.169L72.081,272.025L71.944,272.025L71.808,272.025L71.808,271.881L71.534,271.881L71.534,271.737L71.261,271.737L71.125,271.737L71.125,271.594L70.851,271.594L70.851,271.45L70.578,271.45L70.578,271.306L70.305,271.306L70.305,271.163L70.032,271.163L69.759,271.163L69.759,271.019L69.622,271.019L69.622,270.875L69.485,270.875L68.802,270.875L68.802,270.731L68.666,270.731L68.666,270.588L68.529,270.588L68.529,270.444L68.393,270.444L67.573,270.444L67.573,270.156L67.437,270.156L67.3,270.156L67.3,270.013L66.89,270.013L66.89,269.869L66.754,269.869L66.617,269.869L66.617,269.725L66.48,269.725L66.48,269.582L65.934,269.582L65.934,269.438L65.524,269.438L65.524,269.294L65.114,269.294L64.978,269.294L64.978,269.15L64.841,269.15L64.841,269.007L64.705,269.007L64.295,269.007L64.295,268.863L64.295,268.719L64.158,268.719L64.022,268.719L64.022,268.576L63.749,268.576L63.749,268.432L63.475,268.432L63.202,268.432L63.202,268.288L62.929,268.288L62.929,268.144L62.792,268.144L62.792,268.001L62.519,268.001L62.246,268.001L62.246,267.857L61.836,267.857L61.836,267.713L61.7,267.713L61.563,267.713L61.563,267.569L61.563,267.426L61.426,267.426L61.29,267.426L61.29,267.282L60.88,267.282L60.88,267.138L60.607,267.138L60.47,267.138L60.47,266.995L60.334,266.995L60.334,266.851L60.197,266.851L60.197,266.563L60.061,266.563L60.061,266.276L59.787,266.276L59.787,266.42L59.651,266.42L59.651,266.563L59.378,266.563L59.241,266.563L59.241,266.42L58.695,266.42L58.695,266.276L58.558,266.276L58.421,266.276L58.421,266.132L58.148,266.132L58.148,265.988L58.148,265.845L57.875,265.845L57.738,265.845L57.738,265.701L57.602,265.701L57.602,265.557L57.465,265.557L57.192,265.557L57.192,265.414L57.055,265.414L57.055,265.27L56.919,265.27L56.646,265.27L56.646,265.126L56.509,265.126L56.509,264.982L56.236,264.982L55.963,264.982L55.963,264.839L55.826,264.839L55.826,264.695L55.553,264.695L55.28,264.695L55.28,264.551L55.007,264.551L55.007,264.407L54.87,264.407L54.597,264.407L54.597,264.264L54.324,264.264L54.324,264.12L54.187,264.12L53.914,264.12L53.914,263.976L53.777,263.976L53.777,263.833L53.504,263.833L53.231,263.833L53.231,263.689L53.094,263.689L53.094,263.545L52.821,263.545L52.821,263.401L52.548,263.401L52.411,263.401L52.411,263.258L52.138,263.258L52.138,263.114L52.002,263.114L51.865,263.114L51.865,262.97L51.592,262.97L51.592,262.826L51.455,262.826L51.319,262.826L51.319,262.683L51.045,262.683L51.045,262.539L50.772,262.539L50.362,262.539L50.362,262.395L49.406,262.395L49.406,262.251L49.133,262.251L49.133,262.108L48.86,262.108L48.86,261.964L48.723,261.964L48.723,261.82L48.587,261.82L48.587,261.677L48.45,261.677L48.314,261.677L48.314,261.533L48.04,261.533L48.04,261.389L47.904,261.389L47.904,261.245L47.631,261.245L47.631,261.102L47.357,261.102L47.357,260.958L47.221,260.958L46.948,260.958L46.948,260.814L46.265,260.814L46.265,260.67L46.128,260.67L45.991,260.67L45.991,260.527L45.718,260.527L45.718,260.383L45.308,260.383L45.308,260.239L45.172,260.239L45.172,260.095L45.035,260.095L44.762,260.095L44.762,259.952L44.352,259.952L44.352,259.808L44.216,259.808L43.806,259.808L43.806,259.664L43.669,259.664L43.669,259.52L43.533,259.52L43.396,259.52L43.396,259.377L43.123,259.377L43.123,259.233L42.85,259.233L42.577,259.233L42.577,259.089L42.303,259.089L42.303,258.945L41.894,258.945L41.894,258.802L41.62,258.802L41.347,258.802L41.347,258.658L40.938,258.658L40.938,258.371L40.801,258.371L40.801,258.227L40.255,258.227L39.981,258.227L39.981,258.083L39.708,258.083L39.708,257.939L39.572,257.939L39.435,257.939L39.162,257.939L39.162,257.796L39.025,257.796L39.025,257.652L38.889,257.652L38.479,257.652L38.479,257.508L38.479,257.364L38.206,257.364L38.206,257.221L38.069,257.221L38.069,257.077L37.932,257.077L37.932,256.789L37.932,256.502L37.523,256.502L37.523,256.646L37.523,256.789L37.659,256.789L37.659,257.077L37.523,257.077L37.25,257.077L36.976,257.077L36.976,256.933L36.976,256.789L36.703,256.789L36.703,256.646L36.43,256.646L36.43,256.502L36.293,256.502L36.293,256.646L36.293,256.502L36.02,256.502L36.02,256.358L35.747,256.358L35.61,256.358L35.61,256.214L35.337,256.214L35.337,256.071L35.337,255.927L35.201,255.927L35.201,255.639L35.064,255.639L35.064,255.496L34.927,255.496L34.927,255.352L34.518,255.352L34.518,255.208L33.835,255.208L33.835,255.064L33.835,254.921L33.698,254.921L33.562,254.921L33.562,254.777L33.425,254.777L33.425,254.633L33.152,254.633L33.152,254.777L33.152,255.208L33.152,255.496L32.742,255.496L32.742,255.352L32.605,255.352L32.605,255.208L32.332,255.208L32.059,255.208L32.059,255.064L31.786,255.064L31.786,254.921L31.649,254.921L31.103,254.921L31.103,254.777L30.966,254.777L30.966,254.633L30.693,254.633L30.693,254.777L30.556,254.777L30.556,254.921L30.42,254.921L30.42,254.777L30.147,254.777L30.147,254.633L30.01,254.633L29.737,254.633L29.737,254.489L29.191,254.489L29.191,254.346L29.054,254.346L29.054,254.202L28.917,254.202L28.781,254.202L28.781,254.058L28.508,254.058L28.508,253.914L28.234,253.914L27.961,253.914L27.961,253.771L27.688,253.771L27.688,253.627L27.551,253.627L27.142,253.627L27.142,253.483L26.732,253.483L26.732,253.339L26.459,253.339L26.322,253.339L26.322,253.196L26.322,253.339L26.185,253.339L26.185,253.196L26.049,253.196L26.049,253.052L25.776,253.052L25.776,252.908L25.776,252.764L25.366,252.764L25.366,252.908L25.093,252.908L25.093,252.764L25.093,252.621L24.956,252.621L24.956,252.477L25.229,252.477L25.229,251.902L24.683,251.614L24.546,250.896L25.639,250.321L25.093,249.602L24.956,248.164L24,246.008L24.137,244.714L26.322,242.701L26.459,241.839L25.366,240.688L25.229,239.682L28.371,237.382L30.966,235.081L33.698,232.637L34.654,231.055L35.61,226.454L38.889,224.009L40.391,222.283L41.211,217.538L42.577,214.23L45.718,210.778L49.543,207.758L50.499,207.326L51.728,203.442L52.958,200.134L54.46,198.983L54.733,197.976L53.367,197.401L53.367,195.819L55.28,195.099L53.367,189.776L53.777,186.036L54.324,184.309L53.504,181.864L54.46,179.705L52.821,174.669L50.772,174.813L50.636,173.662L52.002,171.216L52.685,166.179L51.319,166.179L50.636,166.035L49.27,164.164L50.226,162.725L50.772,161.718L49.953,160.998L50.499,159.847L53.641,159.703L54.46,158.264L57.875,155.673L58.285,156.249L60.744,155.385L62.109,155.673L60.744,163.445L64.432,170.496L73.447,165.316L67.983,155.098L68.393,154.378L70.715,153.514L73.31,149.628L75.496,149.772L76.042,148.908L76.179,146.749L76.725,145.742L76.861,143.151L77.271,142.287L79.593,141.567L79.73,139.552L80.413,138.688L80.276,137.248L80.686,136.241L83.691,135.377L85.057,134.225L88.062,133.937L89.155,133.793L92.706,130.914L95.028,128.898L96.394,128.035L97.624,127.891L97.76,128.61L95.711,130.77L94.482,132.93L93.799,134.657L95.028,135.665L93.936,137.105L93.662,139.264L92.16,142.431L91.887,144.158L92.57,146.174L92.979,148.477L91.75,151.067L90.248,153.226L91.204,156.393L94.755,154.666L98.853,156.249L111.966,159.415L112.649,157.544L112.512,154.954L113.878,152.795L116.61,152.363L116.747,149.772L120.571,150.06L120.708,150.924L120.161,151.787L118.932,154.81L118.386,155.961L118.659,158.264L117.976,159.703L117.703,161.142L122.757,162.15L148.709,166.755L154.31,167.906L155.676,166.899L157.451,168.626L158.271,167.33L158.544,164.452L157.861,163.157L158.407,161.862L158.407,160.71L160.183,158.84L159.5,157.544L160.866,157.4L161.276,156.537L161.139,155.098L162.505,155.385L163.461,155.098L164.144,153.514L164.144,152.363L164.691,151.499L164.281,149.484L164.008,147.757L164.281,146.461L164.554,144.878L164.827,143.726L165.374,142.431L164.691,142.287L163.188,140.703L163.188,139.696L163.188,137.968L161.276,136.241L162.232,135.089L163.325,134.369L164.691,133.505L165.374,132.066L166.74,131.202L167.559,128.754L167.969,127.891L169.608,125.731L171.52,123.859L173.842,122.995L175.618,123.571L176.028,125.011L177.394,125.299L179.17,127.027L180.672,125.299L182.311,124.867L183.541,123.571L184.224,121.267L188.048,120.547L190.37,117.236L194.741,117.523L195.151,118.963L195.834,117.667L196.927,118.099L198.019,121.699L197.2,124.291L197.2,125.011L202.117,122.995L202.937,119.683L204.712,119.107L205.395,115.508L208.674,113.492L209.357,114.356L208.537,115.652L209.083,116.804L209.903,116.228L212.362,117.092L211.952,120.115L214.274,120.547L215.094,123.283L215.776,123.283L216.459,124.147L215.913,128.178L216.323,131.346L217.416,136.673L219.328,134.225L219.191,132.93L220.011,131.346L220.421,130.194L221.377,129.474L222.333,129.186L223.016,128.898L224.109,127.603L225.475,125.443L226.294,124.003L227.387,122.563L229.299,120.547L231.348,118.531L233.26,117.955L234.626,117.667L236.265,116.228L238.997,113.78L240.91,112.483L243.915,111.043L245.417,109.747L246.1,107.587L246.783,106.435L249.242,102.114L253.476,104.419L255.662,106.291L258.53,109.747L261.672,110.611L264.813,116.66L264.95,119.251L267.955,121.123L270.004,124.147L271.097,124.579L271.37,127.891L271.097,131.634L271.916,133.361L272.872,135.089L273.692,135.233L273.692,133.793L273.965,131.922L274.648,129.042L275.468,127.027L276.97,126.019L277.79,125.587L278.609,124.579L279.839,122.563L282.161,116.804L282.844,116.372L283.8,116.516L284.756,116.948L285.712,116.804L286.532,115.652L287.215,114.5L287.898,113.492L290.903,110.899L293.498,108.451L295.683,106.867L296.503,104.851L304.152,118.675L327.51,100.386L332.837,106.003L332.973,110.035L333.929,112.051L335.978,114.068L339.256,115.22L349.091,117.811L348.135,125.155Z"/></clipPath>
    <pattern id="mesh" width="14" height="14" patternUnits="userSpaceOnUse">
      <path d="M0 14 L14 0 M-2 2 L2 -2 M12 16 L16 12" stroke="rgba(255,255,255,0.2)" stroke-width="0.6" fill="none"/>
    </pattern>
  </defs>
  <g clip-path="url(#c)">
    <rect width="400" height="400" fill="url(#mesh)"/>
    <path d="M180.262,297.459L180.672,297.459L180.672,297.603L180.945,297.603L180.945,297.746L181.082,297.746L181.082,297.89L180.672,297.89L180.672,297.746L179.443,297.746L179.443,297.459ZM177.257,296.597L177.394,296.597L177.394,296.74L177.257,296.74L177.257,296.884L177.121,296.884L176.711,296.884L176.711,297.028L176.574,297.028L176.574,297.172L176.301,297.172L176.301,297.028L176.165,297.028L176.165,296.74L176.301,296.74L176.301,296.597ZM349.091,128.898L341.305,143.007L348.135,160.279L352.643,163.013L353.189,164.308L353.189,166.035L354.555,166.755L355.511,167.33L356.331,169.201L356.467,170.208L356.194,171.072L355.648,172.511L354.145,173.806L353.872,174.813L353.872,175.964L354.145,177.835L352.096,181.144L348.818,183.015L349.638,184.453L348.408,187.187L346.769,188.913L346.906,189.489L345.95,191.791L344.584,193.948L344.174,195.387L345.95,199.415L353.599,196.969L357.014,197.832L357.833,199.271L359.199,199.559L361.385,198.983L363.707,197.401L365.346,196.106L366.302,195.099L369.307,192.222L372.449,196.969L376,198.12L372.175,200.422L371.492,201.429L370.263,203.299L369.034,204.737L362.341,207.758L356.331,213.223L347.998,212.648L347.179,219.982L350.457,220.126L356.331,221.133L356.74,223.29L357.15,224.009L360.292,224.44L360.702,225.303L360.428,232.78L357.97,233.643L356.604,232.924L353.599,233.356L352.643,234.218L350.457,235.369L348.408,235.944L347.725,239.107L348.545,240.545L348.272,243.42L338.983,243.851L338.3,262.395L338.983,263.401L336.661,267.713L336.934,294.729L336.934,295.878L336.661,295.878L336.661,295.735L336.251,295.735L336.251,295.591L335.978,295.591L335.705,295.591L335.568,295.591L335.159,295.591L335.159,295.447L335.022,295.447L335.022,295.591L335.022,295.447L334.749,295.447L334.749,295.304L334.476,295.304L334.476,295.447L334.066,295.447L334.066,295.304L333.793,295.304L333.52,295.304L332.7,295.304L332.7,295.16L332.29,295.16L332.29,295.016L331.607,295.016L331.471,295.016L331.471,294.873L330.515,294.873L330.515,294.729L329.422,294.729L327.919,294.729L327.919,294.585L327.646,294.585L327.646,294.442L326.963,294.442L326.28,294.442L325.87,294.442L325.597,294.442L325.597,294.298L325.461,294.298L325.461,294.442L325.051,294.442L325.051,294.298L324.778,294.298L324.778,294.442L324.641,294.442L324.504,294.442L323.958,294.442L323.958,294.298L323.821,294.298L323.821,294.154L323.685,294.154L323.548,294.154L323.275,294.154L323.139,294.154L323.139,294.011L322.729,294.011L322.729,294.154L321.636,294.154L321.636,294.011L320.407,294.011L320.407,293.867L319.724,293.867L319.724,293.723L319.451,293.723L319.451,293.867L319.451,293.723L319.177,293.723L319.177,293.867L318.494,293.867L318.494,293.723L318.221,293.723L318.221,293.867L318.221,293.723L317.948,293.723L317.948,293.867L317.948,293.723L317.265,293.723L316.309,293.723L316.172,293.723L315.489,293.723L315.353,293.723L315.216,293.723L314.943,293.723L314.26,293.723L314.26,293.58L313.714,293.58L313.714,293.723L313.44,293.723L313.167,293.723L312.621,293.723L312.484,293.723L311.528,293.723L311.528,293.58L309.479,293.58L309.479,293.723L306.747,293.723L306.201,293.723L306.201,293.867L305.791,293.867L305.791,294.011L305.518,294.011L305.518,293.723L305.518,293.58L305.655,293.58L305.655,293.436L306.474,293.436L306.747,293.436L306.747,293.292L307.021,293.292L307.021,293.149L306.884,293.149L306.884,293.005L306.064,293.005L306.064,293.149L305.108,293.149L304.972,293.149L304.972,293.005L304.698,293.005L304.698,292.861L304.289,292.861L304.016,292.861L303.879,292.861L303.879,293.005L303.742,293.005L303.742,293.149L303.606,293.149L303.333,293.149L303.333,293.005L302.786,293.005L302.786,293.149L302.513,293.149L302.376,293.149L302.376,293.292L302.376,293.436L302.513,293.436L302.513,293.58L302.65,293.58L302.65,293.723L302.513,293.723L302.513,294.011L302.376,294.011L302.376,294.154L301.42,294.154L301.42,294.298L300.464,294.298L300.464,294.154L300.328,294.154L299.645,294.154L298.688,294.154L298.688,294.298L297.869,294.298L297.869,294.442L297.322,294.442L296.503,294.442L296.503,294.585L296.366,294.585L296.366,294.729L296.23,294.729L296.093,294.729L295.683,294.729L295.683,294.585L295.41,294.585L295.41,294.442L294.454,294.442L294.454,294.585L294.317,294.585L294.317,294.442L294.044,294.442L294.044,294.298L294.181,294.298L294.181,294.154L294.317,294.154L294.864,294.154L294.864,294.011L295.41,294.011L296.23,294.011L296.23,293.867L296.23,293.723L296.093,293.723L295.547,293.723L295.547,293.58L294.317,293.58L294.317,293.867L294.317,294.011L293.634,294.011L293.634,294.154L293.225,294.154L293.088,294.154L293.088,294.298L293.088,294.585L292.951,294.585L292.951,294.729L292.815,294.729L292.678,294.729L292.678,295.016L292.678,295.16L291.859,295.16L291.859,295.016L291.586,295.016L291.586,294.729L291.859,294.729L291.859,294.585L291.995,294.585L291.995,294.442L292.405,294.442L292.678,294.442L292.678,294.298L292.815,294.298L292.815,294.154L292.678,294.154L292.678,294.011L292.405,294.011L292.405,294.154L292.269,294.154L292.132,294.154L291.859,294.154L291.859,294.011L291.586,294.011L291.586,294.154L290.903,294.154L290.903,294.442L291.176,294.442L291.449,294.442L291.449,294.585L291.312,294.585L291.312,294.729L291.176,294.729L291.176,294.873L290.903,294.873L290.903,295.016L290.629,295.016L290.493,295.016L290.493,295.16L290.356,295.16L290.356,295.304L290.083,295.304L290.083,295.16L289.946,295.16L289.946,295.016L289.537,295.016L289.263,295.016L288.99,295.016L288.99,295.16L288.717,295.16L288.717,295.304L288.444,295.304L288.034,295.304L288.034,295.447L287.078,295.447L287.078,295.304L286.941,295.304L286.941,295.16L286.532,295.16L286.258,295.16L286.258,295.304L286.258,295.447L286.258,295.591L286.122,295.591L286.122,295.735L285.575,295.735L285.575,295.304L285.575,295.016L285.029,295.016L284.893,295.016L284.893,295.16L284.756,295.16L284.756,295.304L284.619,295.304L284.619,295.447L284.619,295.591L284.073,295.591L283.39,295.591L283.253,295.591L283.253,295.735L283.117,295.735L283.117,295.878L282.98,295.878L282.98,296.022L282.707,296.022L282.707,296.166L282.57,296.166L282.57,296.309L282.434,296.309L282.434,296.453L282.161,296.453L282.161,296.597L282.161,296.74L282.161,297.028L282.024,297.028L282.024,297.172L281.887,297.172L281.614,297.172L281.614,296.884L281.751,296.884L281.751,296.597L281.478,296.597L280.658,296.597L280.658,296.166L280.931,296.166L280.931,296.022L281.205,296.022L281.205,295.878L281.341,295.878L281.341,295.735L281.205,295.735L281.205,295.591L281.205,295.447L281.205,295.16L281.068,295.16L281.068,294.873L280.931,294.873L280.931,294.729L280.931,294.442L280.795,294.442L280.795,294.154L280.658,294.154L280.658,293.723L280.658,293.436L280.522,293.436L279.702,293.436L279.702,293.723L279.702,294.442L279.839,294.442L279.839,294.729L279.429,294.729L279.429,294.873L279.156,294.873L279.156,295.016L278.746,295.016L278.473,295.016L278.473,295.304L278.336,295.304L278.336,295.447L278.063,295.447L278.063,295.304L277.926,295.304L277.926,295.016L277.79,295.016L277.243,295.016L276.834,295.016L276.834,295.16L276.287,295.16L276.287,295.304L275.877,295.304L275.877,295.447L276.014,295.447L276.014,295.591L276.151,295.591L276.287,295.591L276.287,295.735L278.609,295.735L278.609,295.878L278.746,295.878L279.019,295.878L279.292,295.878L279.292,296.309L279.429,296.309L279.429,296.597L279.565,296.597L279.565,296.884L279.702,296.884L279.702,297.172L279.702,297.315L279.839,297.315L279.839,297.459L279.975,297.459L279.975,297.746L280.658,297.746L280.658,297.89L281.205,297.89L281.205,298.034L281.478,298.034L281.751,298.034L281.887,298.034L281.887,298.321L281.478,298.321L281.478,298.177L279.975,298.177L279.975,298.034L279.839,298.034L279.839,297.89L279.702,297.89L279.702,297.746L279.565,297.746L279.565,297.603L279.429,297.603L279.429,297.459L279.565,297.459L279.565,297.315L279.429,297.315L279.429,297.172L279.292,297.172L278.882,297.172L278.882,297.028L278.746,297.028L278.746,296.884L278.609,296.884L278.609,296.597L278.336,296.597L278.336,297.028L277.79,297.028L277.79,296.884L277.653,296.884L277.516,296.884L277.516,296.597L277.38,296.597L277.38,296.74L277.243,296.74L277.243,296.884L277.107,296.884L276.834,296.884L276.834,296.74L276.56,296.74L276.56,296.597L276.56,296.74L276.287,296.74L276.287,296.884L276.014,296.884L275.877,296.884L275.741,296.884L275.194,296.884L274.785,296.884L274.785,296.74L274.375,296.74L274.375,296.884L273.965,296.884L273.965,296.74L273.828,296.74L273.828,296.597L273.828,296.166L273.692,296.166L273.692,296.022L273.419,296.022L273.419,295.878L273.146,295.878L272.736,295.878L272.463,295.878L272.463,296.166L272.599,296.166L272.599,296.309L272.736,296.309L272.872,296.309L272.872,296.453L273.009,296.453L273.009,296.597L273.146,296.597L273.419,296.597L273.419,297.028L273.282,297.028L273.282,297.172L272.189,297.172L271.643,297.172L271.506,297.172L270.004,297.172L270.004,297.315L267.955,297.315L267.955,297.459L267.545,297.459L266.999,297.459L266.179,297.459L265.496,297.459L265.36,297.459L264.677,297.459L264.677,297.603L264.267,297.603L264.267,297.459L263.994,297.459L263.994,297.603L263.584,297.603L263.584,297.746L262.491,297.746L262.491,297.603L262.218,297.603L262.218,297.746L261.945,297.746L261.399,297.746L261.399,297.89L260.442,297.89L260.442,297.746L260.169,297.746L260.169,297.89L259.486,297.89L259.486,297.746L259.076,297.746L259.076,297.89L258.667,297.89L258.667,297.746L258.257,297.746L257.847,297.746L257.847,297.603L257.847,297.746L257.574,297.746L257.437,297.746L257.437,297.89L256.618,297.89L256.618,298.034L256.481,298.034L253.886,298.034L253.203,298.034L252.93,298.034L252.93,298.177L252.657,298.177L252.657,298.321L252.657,298.177L251.974,298.177L251.974,298.321L251.837,298.321L251.291,298.321L251.017,298.321L251.017,298.177L250.881,298.177L250.881,298.321L250.061,298.321L249.788,298.321L249.788,298.465L249.515,298.465L249.515,298.321L249.242,298.321L248.969,298.321L247.739,298.321L247.739,298.465L247.603,298.465L247.603,298.608L246.646,298.608L246.646,298.465L246.51,298.465L246.51,298.608L246.1,298.608L246.1,298.752L245.554,298.752L245.554,298.608L245.417,298.608L245.417,298.465L245.417,298.321L245.144,298.321L245.144,298.465L245.144,298.608L245.007,298.608L245.007,298.752L244.871,298.752L244.598,298.752L244.598,298.896L244.324,298.896L244.324,299.039L243.641,299.039L242.549,299.039L242.549,299.183L242.412,299.183L242.412,299.327L242.276,299.327L242.276,299.183L241.729,299.183L241.729,299.327L241.593,299.327L241.593,299.47L241.319,299.47L241.319,299.327L241.183,299.327L241.046,299.327L241.046,299.183L241.046,299.327L240.636,299.327L240.636,299.183L240.5,299.183L240.5,299.039L240.363,299.039L240.363,298.896L240.227,298.896L240.227,298.752L240.09,298.752L240.09,298.608L239.953,298.608L239.953,298.465L239.817,298.465L239.817,298.321L239.817,298.177L239.407,298.177L239.407,298.608L239.27,298.608L239.27,298.896L239.27,299.039L239.134,299.039L238.997,299.039L238.997,299.183L238.861,299.183L238.861,299.327L238.588,299.327L238.041,299.327L238.041,299.47L237.768,299.47L237.768,299.614L237.631,299.614L237.631,299.47L237.631,299.327L237.495,299.327L237.222,299.327L237.222,299.183L237.085,299.183L237.085,299.039L236.812,299.039L236.812,299.183L236.675,299.183L236.675,299.039L236.539,299.039L235.582,299.039L235.582,298.896L235.446,298.896L235.446,298.752L235.309,298.752L234.899,298.752L234.217,298.752L233.943,298.752L233.943,298.608L233.807,298.608L233.807,298.465L233.397,298.465L233.397,298.608L232.714,298.608L232.714,298.465L232.714,298.608L232.304,298.608L232.304,298.752L231.758,298.752L231.211,298.752L231.075,298.752L231.075,298.608L230.255,298.608L230.255,298.465L227.797,298.465L227.797,298.321L227.66,298.321L227.66,298.465L227.114,298.465L227.114,298.321L226.431,298.321L226.431,298.465L226.158,298.465L226.158,298.321L224.792,298.321L224.792,298.465L224.109,298.465L224.109,298.608L223.289,298.608L223.289,298.752L222.06,298.752L222.06,298.608L221.104,298.608L221.104,298.465L220.284,298.465L220.284,298.321L215.23,298.321L215.23,298.465L214.957,298.465L214.957,298.608L214.684,298.608L214.684,298.752L214.274,298.752L214.274,298.608L214.001,298.608L214.001,298.465L214.001,298.321L213.728,298.321L213.728,298.465L213.318,298.465L213.318,298.608L212.908,298.608L212.908,298.465L212.498,298.465L212.498,298.321L212.498,298.465L212.225,298.465L212.225,298.321L211.815,298.321L211.815,298.465L211.542,298.465L211.542,298.608L211.406,298.608L211.406,298.465L211.269,298.465L211.269,298.321L210.859,298.321L210.859,298.465L210.586,298.465L210.586,298.608L209.766,298.608L209.766,298.752L209.357,298.752L209.357,298.608L209.357,298.465L209.083,298.465L209.083,298.608L208.4,298.608L208.4,298.465L208.264,298.465L208.127,298.465L206.215,298.465L206.215,298.608L206.078,298.608L206.078,298.465L205.259,298.465L204.576,298.465L204.576,298.608L204.303,298.608L204.303,298.465L203.756,298.465L203.756,298.608L201.707,298.608L201.707,298.465L201.571,298.465L201.571,298.321L201.298,298.321L201.298,298.465L200.888,298.465L200.888,298.321L200.615,298.321L200.615,298.465L200.205,298.465L200.205,298.608L199.659,298.608L199.659,298.465L199.385,298.465L199.385,298.608L199.112,298.608L199.112,298.465L198.702,298.465L198.702,298.608L198.019,298.608L198.019,298.465L195.971,298.465L195.971,298.321L195.971,298.465L195.834,298.465L195.834,298.321L195.561,298.321L195.561,298.465L195.424,298.465L195.424,298.321L195.288,298.321L195.288,298.465L194.878,298.465L194.878,298.321L194.468,298.321L194.468,298.465L194.331,298.465L194.331,298.608L193.922,298.608L193.922,298.465L189.414,298.465L189.414,298.321L188.458,298.321L187.502,298.321L187.502,298.177L187.229,298.177L187.229,298.034L186.955,298.034L186.955,298.177L185.453,298.177L185.453,298.034L184.224,298.034L184.087,298.034L183.95,298.034L183.95,297.89L183.814,297.89L183.814,298.034L182.584,298.034L182.584,297.89L182.311,297.89L182.311,297.746L182.175,297.746L182.175,297.89L182.038,297.89L182.038,297.746L181.765,297.746L181.628,297.746L181.628,297.603L181.355,297.603L181.355,297.459L181.218,297.459L180.945,297.459L180.945,297.315L180.809,297.315L180.809,297.172L180.536,297.172L180.126,297.172L180.126,297.028L179.443,297.028L179.443,296.884L178.76,296.884L178.487,296.884L178.487,296.74L178.213,296.74L178.213,296.597L177.94,296.597L177.94,296.453L177.804,296.453L177.804,296.309L177.257,296.309L176.847,296.309L176.028,296.309L175.891,296.309L175.891,296.453L175.618,296.453L175.618,296.597L175.482,296.597L175.482,296.74L175.482,296.884L175.208,296.884L174.799,296.884L174.525,296.884L174.525,296.74L173.569,296.74L173.569,296.597L173.569,296.74L173.023,296.74L173.023,296.597L172.886,296.597L172.75,296.597L172.75,296.453L172.613,296.453L172.613,296.597L172.477,296.597L172.34,296.597L172.34,296.74L171.93,296.74L171.93,296.884L171.657,296.884L171.657,296.74L171.657,296.597L171.657,296.309L171.657,296.166L171.384,296.166L171.384,296.022L171.111,296.022L171.111,296.166L170.701,296.166L170.701,296.309L170.428,296.309L170.428,296.166L169.335,296.166L169.335,296.022L169.062,296.022L169.062,295.878L167.559,295.878L167.013,295.878L167.013,295.735L166.876,295.735L166.876,295.878L166.74,295.878L166.74,296.022L166.74,296.166L166.603,296.166L166.603,296.309L166.466,296.309L166.466,296.166L166.466,296.022L166.193,296.022L166.193,295.878L166.057,295.878L165.51,295.878L165.51,295.735L165.237,295.735L165.237,295.878L165.101,295.878L165.101,296.166L164.964,296.166L164.964,296.309L164.281,296.309L163.598,296.309L163.325,296.309L163.325,296.166L163.188,296.166L163.188,296.309L162.915,296.309L162.778,296.309L162.232,296.309L162.232,296.166L161.139,296.166L161.139,296.022L160.32,296.022L160.32,295.878L160.183,295.878L159.91,295.878L158.954,295.878L158.954,295.735L158.544,295.735L158.544,295.878L158.134,295.878L158.134,295.735L157.588,295.735L157.588,295.591L157.315,295.591L157.315,295.735L156.768,295.735L156.768,295.591L156.495,295.591L156.495,295.447L156.085,295.447L156.085,295.304L155.949,295.304L155.812,295.304L155.402,295.304L155.402,295.16L155.266,295.16L155.266,295.016L154.993,295.016L154.31,295.016L154.173,295.016L153.9,295.016L153.9,294.873L153.9,294.729L153.763,294.729L153.627,294.729L153.354,294.729L153.354,294.873L152.671,294.873L152.671,294.729L152.534,294.729L152.534,294.873L152.261,294.873L152.261,294.729L152.124,294.729L152.124,294.873L151.851,294.873L151.305,294.873L151.305,294.729L151.031,294.729L150.212,294.729L150.075,294.729L149.256,294.729L149.256,294.585L148.436,294.585L148.436,294.442L147.207,294.442L145.704,294.442L145.704,294.298L145.431,294.298L145.431,294.154L144.885,294.154L144.202,294.154L144.202,294.011L143.929,294.011L143.929,293.867L142.699,293.867L142.699,293.723L141.88,293.723L141.743,293.723L141.743,293.58L141.06,293.58L141.06,293.436L140.65,293.436L140.514,293.436L140.377,293.436L139.011,293.436L139.011,293.292L138.465,293.292L138.465,293.149L137.782,293.149L137.645,293.149L137.645,293.005L137.509,293.005L137.509,292.861L136.826,292.861L136.279,292.861L136.279,292.718L136.006,292.718L136.006,292.574L135.596,292.574L135.323,292.574L134.913,292.574L134.913,292.718L134.64,292.718L134.64,292.574L134.231,292.574L133.684,292.574L133.684,292.43L133.411,292.43L133.411,292.286L132.728,292.286L132.728,292.143L132.318,292.143L132.318,291.999L132.045,291.999L131.908,291.999L131.089,291.999L131.089,291.855L130.542,291.855L130.542,291.712L130.269,291.712L129.45,291.712L129.45,291.568L129.313,291.568L129.313,291.424L128.903,291.424L128.903,291.281L128.767,291.281L128.494,291.281L128.494,291.137L127.947,291.137L127.947,290.993L127.811,290.993L127.811,290.85L127.947,290.85L127.947,290.706L127.811,290.706L127.811,290.562L127.401,290.562L127.401,290.419L127.264,290.419L127.128,290.419L127.128,290.275L126.991,290.275L126.991,290.131L126.854,290.131L126.581,290.131L126.581,289.988L126.308,289.988L126.308,289.844L126.172,289.844L125.898,289.844L125.898,289.7L125.762,289.7L125.762,289.556L125.489,289.556L125.489,289.844L125.625,289.844L125.625,289.988L125.625,290.131L125.762,290.131L125.898,290.131L125.898,290.275L126.035,290.275L126.035,290.419L126.308,290.419L126.445,290.419L126.445,290.562L126.581,290.562L126.581,290.706L126.718,290.706L126.308,290.706L125.352,290.706L125.352,290.562L125.079,290.562L125.079,290.419L124.669,290.419L123.44,290.419L123.44,290.275L122.893,290.275L122.893,290.131L122.62,290.131L122.347,290.131L122.347,289.988L121.937,289.988L121.937,289.844L121.664,289.844L121.254,289.844L121.254,289.7L120.708,289.7L120.708,289.556L120.161,289.556L119.342,289.556L119.342,289.413L119.205,289.413L119.205,289.269L119.069,289.269L119.069,289.125L118.795,289.125L118.795,289.269L118.795,289.125L118.522,289.125L118.249,289.125L118.249,288.982L117.293,288.982L117.293,288.838L117.02,288.838L116.883,288.838L116.883,288.694L116.61,288.694L116.61,288.551L115.654,288.551L115.654,288.407L115.381,288.407L115.381,288.263L115.244,288.263L115.244,288.12L115.107,288.12L115.107,287.976L114.834,287.976L114.698,287.976L114.425,287.976L114.288,287.976L114.288,287.832L114.015,287.832L113.605,287.832L113.605,287.689L113.468,287.689L113.332,287.689L112.512,287.689L112.512,287.545L112.376,287.545L112.376,287.401L112.239,287.401L111.01,287.401L111.01,287.257L110.873,287.257L110.873,287.114L110.327,287.114L110.054,287.114L110.054,286.97L109.507,286.97L109.507,286.826L109.371,286.826L109.371,286.683L109.097,286.683L108.961,286.683L108.961,286.539L108.824,286.539L108.824,286.683L108.551,286.683L108.551,286.539L108.551,286.395L108.414,286.395L108.278,286.395L108.278,286.252L108.141,286.252L108.141,286.108L107.868,286.108L107.595,286.108L107.595,285.964L107.322,285.964L107.322,285.821L106.912,285.821L106.639,285.821L106.639,285.677L106.502,285.677L106.502,285.533L106.229,285.533L105.956,285.533L105.956,285.389L105.136,285.389L105.136,285.677L105.136,285.821L105.273,285.821L105.273,285.964L104.726,285.964L104.726,285.821L104.59,285.821L104.453,285.821L104.453,285.677L104.18,285.677L104.18,285.533L104.043,285.533L103.907,285.533L103.907,285.389L103.907,285.246L103.77,285.246L103.634,285.246L103.634,285.102L103.497,285.102L103.497,284.958L103.224,284.958L103.224,284.815L103.224,284.671L102.951,284.671L102.951,284.527L102.541,284.527L102.541,284.384L102.404,284.384L102.404,284.24L102.268,284.24L102.268,284.096L102.131,284.096L102.131,283.953L101.995,283.953L101.995,283.809L101.858,283.809L101.858,283.665L101.721,283.665L101.721,283.953L101.448,283.953L101.448,284.24L101.585,284.24L101.585,284.527L101.585,284.671L100.902,284.671L100.902,284.527L100.629,284.527L100.629,284.384L100.492,284.384L100.492,284.24L100.082,284.24L100.082,284.096L99.672,284.096L99.672,283.953L99.399,283.953L99.263,283.953L99.263,283.809L99.126,283.809L99.126,283.665L98.99,283.665L98.853,283.665L98.853,283.521L98.58,283.521L98.58,283.378L98.443,283.378L98.17,283.378L98.17,283.234L97.624,283.234L97.624,283.09L97.487,283.09L97.35,283.09L97.214,283.09L97.214,282.947L97.077,282.947L97.077,282.803L96.667,282.803L96.394,282.803L96.394,282.659L96.258,282.659L96.258,282.516L95.984,282.516L95.711,282.516L95.711,282.372L95.575,282.372L95.438,282.372L95.438,282.228L95.438,282.084L95.165,282.084L94.892,282.084L94.892,281.941L94.345,281.941L94.345,281.797L94.209,281.797L93.936,281.797L93.936,281.653L93.799,281.653L93.799,281.51L93.662,281.51L93.526,281.51L93.526,281.366L93.253,281.366L93.253,281.222L92.979,281.222L92.979,281.079L92.843,281.079L92.843,280.935L92.706,280.935L92.706,280.791L92.433,280.791L92.433,280.647L92.023,280.647L91.75,280.647L91.75,280.504L91.75,280.36L91.614,280.36L91.477,280.36L91.477,280.216L91.067,280.216L91.067,280.36L90.521,280.36L90.521,280.216L90.248,280.216L90.248,280.073L90.111,280.073L89.974,280.073L89.974,279.929L89.838,279.929L89.838,279.785L89.428,279.785L89.428,279.642L89.155,279.642L88.882,279.642L88.882,279.498L88.608,279.498L88.608,279.354L88.472,279.354L88.335,279.354L88.335,279.21L88.199,279.21L88.199,279.067L87.925,279.067L87.789,279.067L87.789,278.923L87.652,278.923L87.652,278.779L87.379,278.779L87.243,278.779L87.243,278.636L86.696,278.636L86.696,278.492L86.423,278.492L85.877,278.492L85.877,278.348L85.74,278.348L85.74,278.204L85.467,278.204L85.467,278.061L85.194,278.061L85.194,277.917L84.92,277.917L84.784,277.917L84.784,277.773L84.647,277.773L84.647,277.63L84.92,277.63L84.92,277.773L85.467,277.773L85.467,277.63L85.467,277.486L85.33,277.486L85.33,277.342L85.194,277.342L85.194,277.199L85.057,277.199L85.057,276.911L84.647,276.911L84.647,276.767L83.964,276.767L83.964,276.624L83.691,276.624L83.555,276.624L83.555,276.48L83.281,276.48L83.281,276.336L83.145,276.336L83.145,276.193L83.008,276.193L83.008,276.049L82.872,276.049L82.735,276.049L82.735,275.905L82.735,275.761L82.462,275.761L82.325,275.761L82.189,275.761L82.189,275.905L82.052,275.905L82.052,276.049L81.915,276.049L81.506,276.049L81.506,275.905L81.369,275.905L81.232,275.905L81.232,276.049L81.096,276.049L80.959,276.049L80.823,276.049L80.823,275.905L80.549,275.905L80.549,275.761L80.413,275.761L80.14,275.761L80.14,275.618L80.003,275.618L80.003,275.474L79.73,275.474L79.593,275.474L79.593,275.33L79.457,275.33L79.457,275.187L79.184,275.187L79.184,275.043L78.91,275.043L78.637,275.043L78.637,274.899L78.364,274.899L78.364,274.755L78.227,274.755L77.681,274.755L77.681,274.612L77.544,274.612L77.544,274.468L77.408,274.468L77.408,274.324L77.135,274.324L77.135,274.181L76.998,274.181L76.725,274.181L76.725,274.037L76.588,274.037L76.588,273.893L76.179,273.893L76.042,273.893L76.042,273.749L75.905,273.749L75.905,273.606L75.632,273.606L75.496,273.606L75.496,273.462L75.222,273.462L75.222,273.318L75.086,273.318L74.949,273.318L74.949,273.175L74.813,273.175L74.813,273.031L74.539,273.031L74.539,272.887L74.266,272.887L73.993,272.887L73.993,272.743L73.583,272.743L73.583,272.6L73.31,272.6L73.037,272.6L73.037,272.456L72.764,272.456L72.764,272.312L72.49,272.312L72.081,272.312L72.081,272.169L72.081,272.025L71.944,272.025L71.808,272.025L71.808,271.881L71.534,271.881L71.534,271.737L71.261,271.737L71.125,271.737L71.125,271.594L70.851,271.594L70.851,271.45L70.578,271.45L70.578,271.306L70.305,271.306L70.305,271.163L70.032,271.163L69.759,271.163L69.759,271.019L69.622,271.019L69.622,270.875L69.485,270.875L68.802,270.875L68.802,270.731L68.666,270.731L68.666,270.588L68.529,270.588L68.529,270.444L68.393,270.444L67.573,270.444L67.573,270.156L67.437,270.156L67.3,270.156L67.3,270.013L66.89,270.013L66.89,269.869L66.754,269.869L66.617,269.869L66.617,269.725L66.48,269.725L66.48,269.582L65.934,269.582L65.934,269.438L65.524,269.438L65.524,269.294L65.114,269.294L64.978,269.294L64.978,269.15L64.841,269.15L64.841,269.007L64.705,269.007L64.295,269.007L64.295,268.863L64.295,268.719L64.158,268.719L64.022,268.719L64.022,268.576L63.749,268.576L63.749,268.432L63.475,268.432L63.202,268.432L63.202,268.288L62.929,268.288L62.929,268.144L62.792,268.144L62.792,268.001L62.519,268.001L62.246,268.001L62.246,267.857L61.836,267.857L61.836,267.713L61.7,267.713L61.563,267.713L61.563,267.569L61.563,267.426L61.426,267.426L61.29,267.426L61.29,267.282L60.88,267.282L60.88,267.138L60.607,267.138L60.47,267.138L60.47,266.995L60.334,266.995L60.334,266.851L60.197,266.851L60.197,266.563L60.061,266.563L60.061,266.276L59.787,266.276L59.787,266.42L59.651,266.42L59.651,266.563L59.378,266.563L59.241,266.563L59.241,266.42L58.695,266.42L58.695,266.276L58.558,266.276L58.421,266.276L58.421,266.132L58.148,266.132L58.148,265.988L58.148,265.845L57.875,265.845L57.738,265.845L57.738,265.701L57.602,265.701L57.602,265.557L57.465,265.557L57.192,265.557L57.192,265.414L57.055,265.414L57.055,265.27L56.919,265.27L56.646,265.27L56.646,265.126L56.509,265.126L56.509,264.982L56.236,264.982L55.963,264.982L55.963,264.839L55.826,264.839L55.826,264.695L55.553,264.695L55.28,264.695L55.28,264.551L55.007,264.551L55.007,264.407L54.87,264.407L54.597,264.407L54.597,264.264L54.324,264.264L54.324,264.12L54.187,264.12L53.914,264.12L53.914,263.976L53.777,263.976L53.777,263.833L53.504,263.833L53.231,263.833L53.231,263.689L53.094,263.689L53.094,263.545L52.821,263.545L52.821,263.401L52.548,263.401L52.411,263.401L52.411,263.258L52.138,263.258L52.138,263.114L52.002,263.114L51.865,263.114L51.865,262.97L51.592,262.97L51.592,262.826L51.455,262.826L51.319,262.826L51.319,262.683L51.045,262.683L51.045,262.539L50.772,262.539L50.362,262.539L50.362,262.395L49.406,262.395L49.406,262.251L49.133,262.251L49.133,262.108L48.86,262.108L48.86,261.964L48.723,261.964L48.723,261.82L48.587,261.82L48.587,261.677L48.45,261.677L48.314,261.677L48.314,261.533L48.04,261.533L48.04,261.389L47.904,261.389L47.904,261.245L47.631,261.245L47.631,261.102L47.357,261.102L47.357,260.958L47.221,260.958L46.948,260.958L46.948,260.814L46.265,260.814L46.265,260.67L46.128,260.67L45.991,260.67L45.991,260.527L45.718,260.527L45.718,260.383L45.308,260.383L45.308,260.239L45.172,260.239L45.172,260.095L45.035,260.095L44.762,260.095L44.762,259.952L44.352,259.952L44.352,259.808L44.216,259.808L43.806,259.808L43.806,259.664L43.669,259.664L43.669,259.52L43.533,259.52L43.396,259.52L43.396,259.377L43.123,259.377L43.123,259.233L42.85,259.233L42.577,259.233L42.577,259.089L42.303,259.089L42.303,258.945L41.894,258.945L41.894,258.802L41.62,258.802L41.347,258.802L41.347,258.658L40.938,258.658L40.938,258.371L40.801,258.371L40.801,258.227L40.255,258.227L39.981,258.227L39.981,258.083L39.708,258.083L39.708,257.939L39.572,257.939L39.435,257.939L39.162,257.939L39.162,257.796L39.025,257.796L39.025,257.652L38.889,257.652L38.479,257.652L38.479,257.508L38.479,257.364L38.206,257.364L38.206,257.221L38.069,257.221L38.069,257.077L37.932,257.077L37.932,256.789L37.932,256.502L37.523,256.502L37.523,256.646L37.523,256.789L37.659,256.789L37.659,257.077L37.523,257.077L37.25,257.077L36.976,257.077L36.976,256.933L36.976,256.789L36.703,256.789L36.703,256.646L36.43,256.646L36.43,256.502L36.293,256.502L36.293,256.646L36.293,256.502L36.02,256.502L36.02,256.358L35.747,256.358L35.61,256.358L35.61,256.214L35.337,256.214L35.337,256.071L35.337,255.927L35.201,255.927L35.201,255.639L35.064,255.639L35.064,255.496L34.927,255.496L34.927,255.352L34.518,255.352L34.518,255.208L33.835,255.208L33.835,255.064L33.835,254.921L33.698,254.921L33.562,254.921L33.562,254.777L33.425,254.777L33.425,254.633L33.152,254.633L33.152,254.777L33.152,255.208L33.152,255.496L32.742,255.496L32.742,255.352L32.605,255.352L32.605,255.208L32.332,255.208L32.059,255.208L32.059,255.064L31.786,255.064L31.786,254.921L31.649,254.921L31.103,254.921L31.103,254.777L30.966,254.777L30.966,254.633L30.693,254.633L30.693,254.777L30.556,254.777L30.556,254.921L30.42,254.921L30.42,254.777L30.147,254.777L30.147,254.633L30.01,254.633L29.737,254.633L29.737,254.489L29.191,254.489L29.191,254.346L29.054,254.346L29.054,254.202L28.917,254.202L28.781,254.202L28.781,254.058L28.508,254.058L28.508,253.914L28.234,253.914L27.961,253.914L27.961,253.771L27.688,253.771L27.688,253.627L27.551,253.627L27.142,253.627L27.142,253.483L26.732,253.483L26.732,253.339L26.459,253.339L26.322,253.339L26.322,253.196L26.322,253.339L26.185,253.339L26.185,253.196L26.049,253.196L26.049,253.052L25.776,253.052L25.776,252.908L25.776,252.764L25.366,252.764L25.366,252.908L25.093,252.908L25.093,252.764L25.093,252.621L24.956,252.621L24.956,252.477L25.229,252.477L25.229,251.902L24.683,251.614L24.546,250.896L25.639,250.321L25.093,249.602L24.956,248.164L24,246.008L24.137,244.714L26.322,242.701L26.459,241.839L25.366,240.688L25.229,239.682L28.371,237.382L30.966,235.081L33.698,232.637L34.654,231.055L35.61,226.454L38.889,224.009L40.391,222.283L41.211,217.538L42.577,214.23L45.718,210.778L49.543,207.758L50.499,207.326L51.728,203.442L52.958,200.134L54.46,198.983L54.733,197.976L53.367,197.401L53.367,195.819L55.28,195.099L53.367,189.776L53.777,186.036L54.324,184.309L53.504,181.864L54.46,179.705L52.821,174.669L50.772,174.813L50.636,173.662L52.002,171.216L52.685,166.179L51.319,166.179L50.636,166.035L49.27,164.164L50.226,162.725L50.772,161.718L49.953,160.998L50.499,159.847L53.641,159.703L54.46,158.264L57.875,155.673L58.285,156.249L60.744,155.385L62.109,155.673L60.744,163.445L64.432,170.496L73.447,165.316L67.983,155.098L68.393,154.378L70.715,153.514L73.31,149.628L75.496,149.772L76.042,148.908L76.179,146.749L76.725,145.742L76.861,143.151L77.271,142.287L79.593,141.567L79.73,139.552L80.413,138.688L80.276,137.248L80.686,136.241L83.691,135.377L85.057,134.225L88.062,133.937L89.155,133.793L92.706,130.914L95.028,128.898L96.394,128.035L97.624,127.891L97.76,128.61L95.711,130.77L94.482,132.93L93.799,134.657L95.028,135.665L93.936,137.105L93.662,139.264L92.16,142.431L91.887,144.158L92.57,146.174L92.979,148.477L91.75,151.067L90.248,153.226L91.204,156.393L94.755,154.666L98.853,156.249L111.966,159.415L112.649,157.544L112.512,154.954L113.878,152.795L116.61,152.363L116.747,149.772L120.571,150.06L120.708,150.924L120.161,151.787L118.932,154.81L118.386,155.961L118.659,158.264L117.976,159.703L117.703,161.142L122.757,162.15L148.709,166.755L154.31,167.906L155.676,166.899L157.451,168.626L158.271,167.33L158.544,164.452L157.861,163.157L158.407,161.862L158.407,160.71L160.183,158.84L159.5,157.544L160.866,157.4L161.276,156.537L161.139,155.098L162.505,155.385L163.461,155.098L164.144,153.514L164.144,152.363L164.691,151.499L164.281,149.484L164.008,147.757L164.281,146.461L164.554,144.878L164.827,143.726L165.374,142.431L164.691,142.287L163.188,140.703L163.188,139.696L163.188,137.968L161.276,136.241L162.232,135.089L163.325,134.369L164.691,133.505L165.374,132.066L166.74,131.202L167.559,128.754L167.969,127.891L169.608,125.731L171.52,123.859L173.842,122.995L175.618,123.571L176.028,125.011L177.394,125.299L179.17,127.027L180.672,125.299L182.311,124.867L183.541,123.571L184.224,121.267L188.048,120.547L190.37,117.236L194.741,117.523L195.151,118.963L195.834,117.667L196.927,118.099L198.019,121.699L197.2,124.291L197.2,125.011L202.117,122.995L202.937,119.683L204.712,119.107L205.395,115.508L208.674,113.492L209.357,114.356L208.537,115.652L209.083,116.804L209.903,116.228L212.362,117.092L211.952,120.115L214.274,120.547L215.094,123.283L215.776,123.283L216.459,124.147L215.913,128.178L216.323,131.346L217.416,136.673L219.328,134.225L219.191,132.93L220.011,131.346L220.421,130.194L221.377,129.474L222.333,129.186L223.016,128.898L224.109,127.603L225.475,125.443L226.294,124.003L227.387,122.563L229.299,120.547L231.348,118.531L233.26,117.955L234.626,117.667L236.265,116.228L238.997,113.78L240.91,112.483L243.915,111.043L245.417,109.747L246.1,107.587L246.783,106.435L249.242,102.114L253.476,104.419L255.662,106.291L258.53,109.747L261.672,110.611L264.813,116.66L264.95,119.251L267.955,121.123L270.004,124.147L271.097,124.579L271.37,127.891L271.097,131.634L271.916,133.361L272.872,135.089L273.692,135.233L273.692,133.793L273.965,131.922L274.648,129.042L275.468,127.027L276.97,126.019L277.79,125.587L278.609,124.579L279.839,122.563L282.161,116.804L282.844,116.372L283.8,116.516L284.756,116.948L285.712,116.804L286.532,115.652L287.215,114.5L287.898,113.492L290.903,110.899L293.498,108.451L295.683,106.867L296.503,104.851L304.152,118.675L327.51,100.386L332.837,106.003L332.973,110.035L333.929,112.051L335.978,114.068L339.256,115.22L349.091,117.811L348.135,125.155Z" fill="rgba(180,200,195,0.35)"/>
  </g>
  <path d="M180.262,297.459L180.672,297.459L180.672,297.603L180.945,297.603L180.945,297.746L181.082,297.746L181.082,297.89L180.672,297.89L180.672,297.746L179.443,297.746L179.443,297.459ZM177.257,296.597L177.394,296.597L177.394,296.74L177.257,296.74L177.257,296.884L177.121,296.884L176.711,296.884L176.711,297.028L176.574,297.028L176.574,297.172L176.301,297.172L176.301,297.028L176.165,297.028L176.165,296.74L176.301,296.74L176.301,296.597ZM349.091,128.898L341.305,143.007L348.135,160.279L352.643,163.013L353.189,164.308L353.189,166.035L354.555,166.755L355.511,167.33L356.331,169.201L356.467,170.208L356.194,171.072L355.648,172.511L354.145,173.806L353.872,174.813L353.872,175.964L354.145,177.835L352.096,181.144L348.818,183.015L349.638,184.453L348.408,187.187L346.769,188.913L346.906,189.489L345.95,191.791L344.584,193.948L344.174,195.387L345.95,199.415L353.599,196.969L357.014,197.832L357.833,199.271L359.199,199.559L361.385,198.983L363.707,197.401L365.346,196.106L366.302,195.099L369.307,192.222L372.449,196.969L376,198.12L372.175,200.422L371.492,201.429L370.263,203.299L369.034,204.737L362.341,207.758L356.331,213.223L347.998,212.648L347.179,219.982L350.457,220.126L356.331,221.133L356.74,223.29L357.15,224.009L360.292,224.44L360.702,225.303L360.428,232.78L357.97,233.643L356.604,232.924L353.599,233.356L352.643,234.218L350.457,235.369L348.408,235.944L347.725,239.107L348.545,240.545L348.272,243.42L338.983,243.851L338.3,262.395L338.983,263.401L336.661,267.713L336.934,294.729L336.934,295.878L336.661,295.878L336.661,295.735L336.251,295.735L336.251,295.591L335.978,295.591L335.705,295.591L335.568,295.591L335.159,295.591L335.159,295.447L335.022,295.447L335.022,295.591L335.022,295.447L334.749,295.447L334.749,295.304L334.476,295.304L334.476,295.447L334.066,295.447L334.066,295.304L333.793,295.304L333.52,295.304L332.7,295.304L332.7,295.16L332.29,295.16L332.29,295.016L331.607,295.016L331.471,295.016L331.471,294.873L330.515,294.873L330.515,294.729L329.422,294.729L327.919,294.729L327.919,294.585L327.646,294.585L327.646,294.442L326.963,294.442L326.28,294.442L325.87,294.442L325.597,294.442L325.597,294.298L325.461,294.298L325.461,294.442L325.051,294.442L325.051,294.298L324.778,294.298L324.778,294.442L324.641,294.442L324.504,294.442L323.958,294.442L323.958,294.298L323.821,294.298L323.821,294.154L323.685,294.154L323.548,294.154L323.275,294.154L323.139,294.154L323.139,294.011L322.729,294.011L322.729,294.154L321.636,294.154L321.636,294.011L320.407,294.011L320.407,293.867L319.724,293.867L319.724,293.723L319.451,293.723L319.451,293.867L319.451,293.723L319.177,293.723L319.177,293.867L318.494,293.867L318.494,293.723L318.221,293.723L318.221,293.867L318.221,293.723L317.948,293.723L317.948,293.867L317.948,293.723L317.265,293.723L316.309,293.723L316.172,293.723L315.489,293.723L315.353,293.723L315.216,293.723L314.943,293.723L314.26,293.723L314.26,293.58L313.714,293.58L313.714,293.723L313.44,293.723L313.167,293.723L312.621,293.723L312.484,293.723L311.528,293.723L311.528,293.58L309.479,293.58L309.479,293.723L306.747,293.723L306.201,293.723L306.201,293.867L305.791,293.867L305.791,294.011L305.518,294.011L305.518,293.723L305.518,293.58L305.655,293.58L305.655,293.436L306.474,293.436L306.747,293.436L306.747,293.292L307.021,293.292L307.021,293.149L306.884,293.149L306.884,293.005L306.064,293.005L306.064,293.149L305.108,293.149L304.972,293.149L304.972,293.005L304.698,293.005L304.698,292.861L304.289,292.861L304.016,292.861L303.879,292.861L303.879,293.005L303.742,293.005L303.742,293.149L303.606,293.149L303.333,293.149L303.333,293.005L302.786,293.005L302.786,293.149L302.513,293.149L302.376,293.149L302.376,293.292L302.376,293.436L302.513,293.436L302.513,293.58L302.65,293.58L302.65,293.723L302.513,293.723L302.513,294.011L302.376,294.011L302.376,294.154L301.42,294.154L301.42,294.298L300.464,294.298L300.464,294.154L300.328,294.154L299.645,294.154L298.688,294.154L298.688,294.298L297.869,294.298L297.869,294.442L297.322,294.442L296.503,294.442L296.503,294.585L296.366,294.585L296.366,294.729L296.23,294.729L296.093,294.729L295.683,294.729L295.683,294.585L295.41,294.585L295.41,294.442L294.454,294.442L294.454,294.585L294.317,294.585L294.317,294.442L294.044,294.442L294.044,294.298L294.181,294.298L294.181,294.154L294.317,294.154L294.864,294.154L294.864,294.011L295.41,294.011L296.23,294.011L296.23,293.867L296.23,293.723L296.093,293.723L295.547,293.723L295.547,293.58L294.317,293.58L294.317,293.867L294.317,294.011L293.634,294.011L293.634,294.154L293.225,294.154L293.088,294.154L293.088,294.298L293.088,294.585L292.951,294.585L292.951,294.729L292.815,294.729L292.678,294.729L292.678,295.016L292.678,295.16L291.859,295.16L291.859,295.016L291.586,295.016L291.586,294.729L291.859,294.729L291.859,294.585L291.995,294.585L291.995,294.442L292.405,294.442L292.678,294.442L292.678,294.298L292.815,294.298L292.815,294.154L292.678,294.154L292.678,294.011L292.405,294.011L292.405,294.154L292.269,294.154L292.132,294.154L291.859,294.154L291.859,294.011L291.586,294.011L291.586,294.154L290.903,294.154L290.903,294.442L291.176,294.442L291.449,294.442L291.449,294.585L291.312,294.585L291.312,294.729L291.176,294.729L291.176,294.873L290.903,294.873L290.903,295.016L290.629,295.016L290.493,295.016L290.493,295.16L290.356,295.16L290.356,295.304L290.083,295.304L290.083,295.16L289.946,295.16L289.946,295.016L289.537,295.016L289.263,295.016L288.99,295.016L288.99,295.16L288.717,295.16L288.717,295.304L288.444,295.304L288.034,295.304L288.034,295.447L287.078,295.447L287.078,295.304L286.941,295.304L286.941,295.16L286.532,295.16L286.258,295.16L286.258,295.304L286.258,295.447L286.258,295.591L286.122,295.591L286.122,295.735L285.575,295.735L285.575,295.304L285.575,295.016L285.029,295.016L284.893,295.016L284.893,295.16L284.756,295.16L284.756,295.304L284.619,295.304L284.619,295.447L284.619,295.591L284.073,295.591L283.39,295.591L283.253,295.591L283.253,295.735L283.117,295.735L283.117,295.878L282.98,295.878L282.98,296.022L282.707,296.022L282.707,296.166L282.57,296.166L282.57,296.309L282.434,296.309L282.434,296.453L282.161,296.453L282.161,296.597L282.161,296.74L282.161,297.028L282.024,297.028L282.024,297.172L281.887,297.172L281.614,297.172L281.614,296.884L281.751,296.884L281.751,296.597L281.478,296.597L280.658,296.597L280.658,296.166L280.931,296.166L280.931,296.022L281.205,296.022L281.205,295.878L281.341,295.878L281.341,295.735L281.205,295.735L281.205,295.591L281.205,295.447L281.205,295.16L281.068,295.16L281.068,294.873L280.931,294.873L280.931,294.729L280.931,294.442L280.795,294.442L280.795,294.154L280.658,294.154L280.658,293.723L280.658,293.436L280.522,293.436L279.702,293.436L279.702,293.723L279.702,294.442L279.839,294.442L279.839,294.729L279.429,294.729L279.429,294.873L279.156,294.873L279.156,295.016L278.746,295.016L278.473,295.016L278.473,295.304L278.336,295.304L278.336,295.447L278.063,295.447L278.063,295.304L277.926,295.304L277.926,295.016L277.79,295.016L277.243,295.016L276.834,295.016L276.834,295.16L276.287,295.16L276.287,295.304L275.877,295.304L275.877,295.447L276.014,295.447L276.014,295.591L276.151,295.591L276.287,295.591L276.287,295.735L278.609,295.735L278.609,295.878L278.746,295.878L279.019,295.878L279.292,295.878L279.292,296.309L279.429,296.309L279.429,296.597L279.565,296.597L279.565,296.884L279.702,296.884L279.702,297.172L279.702,297.315L279.839,297.315L279.839,297.459L279.975,297.459L279.975,297.746L280.658,297.746L280.658,297.89L281.205,297.89L281.205,298.034L281.478,298.034L281.751,298.034L281.887,298.034L281.887,298.321L281.478,298.321L281.478,298.177L279.975,298.177L279.975,298.034L279.839,298.034L279.839,297.89L279.702,297.89L279.702,297.746L279.565,297.746L279.565,297.603L279.429,297.603L279.429,297.459L279.565,297.459L279.565,297.315L279.429,297.315L279.429,297.172L279.292,297.172L278.882,297.172L278.882,297.028L278.746,297.028L278.746,296.884L278.609,296.884L278.609,296.597L278.336,296.597L278.336,297.028L277.79,297.028L277.79,296.884L277.653,296.884L277.516,296.884L277.516,296.597L277.38,296.597L277.38,296.74L277.243,296.74L277.243,296.884L277.107,296.884L276.834,296.884L276.834,296.74L276.56,296.74L276.56,296.597L276.56,296.74L276.287,296.74L276.287,296.884L276.014,296.884L275.877,296.884L275.741,296.884L275.194,296.884L274.785,296.884L274.785,296.74L274.375,296.74L274.375,296.884L273.965,296.884L273.965,296.74L273.828,296.74L273.828,296.597L273.828,296.166L273.692,296.166L273.692,296.022L273.419,296.022L273.419,295.878L273.146,295.878L272.736,295.878L272.463,295.878L272.463,296.166L272.599,296.166L272.599,296.309L272.736,296.309L272.872,296.309L272.872,296.453L273.009,296.453L273.009,296.597L273.146,296.597L273.419,296.597L273.419,297.028L273.282,297.028L273.282,297.172L272.189,297.172L271.643,297.172L271.506,297.172L270.004,297.172L270.004,297.315L267.955,297.315L267.955,297.459L267.545,297.459L266.999,297.459L266.179,297.459L265.496,297.459L265.36,297.459L264.677,297.459L264.677,297.603L264.267,297.603L264.267,297.459L263.994,297.459L263.994,297.603L263.584,297.603L263.584,297.746L262.491,297.746L262.491,297.603L262.218,297.603L262.218,297.746L261.945,297.746L261.399,297.746L261.399,297.89L260.442,297.89L260.442,297.746L260.169,297.746L260.169,297.89L259.486,297.89L259.486,297.746L259.076,297.746L259.076,297.89L258.667,297.89L258.667,297.746L258.257,297.746L257.847,297.746L257.847,297.603L257.847,297.746L257.574,297.746L257.437,297.746L257.437,297.89L256.618,297.89L256.618,298.034L256.481,298.034L253.886,298.034L253.203,298.034L252.93,298.034L252.93,298.177L252.657,298.177L252.657,298.321L252.657,298.177L251.974,298.177L251.974,298.321L251.837,298.321L251.291,298.321L251.017,298.321L251.017,298.177L250.881,298.177L250.881,298.321L250.061,298.321L249.788,298.321L249.788,298.465L249.515,298.465L249.515,298.321L249.242,298.321L248.969,298.321L247.739,298.321L247.739,298.465L247.603,298.465L247.603,298.608L246.646,298.608L246.646,298.465L246.51,298.465L246.51,298.608L246.1,298.608L246.1,298.752L245.554,298.752L245.554,298.608L245.417,298.608L245.417,298.465L245.417,298.321L245.144,298.321L245.144,298.465L245.144,298.608L245.007,298.608L245.007,298.752L244.871,298.752L244.598,298.752L244.598,298.896L244.324,298.896L244.324,299.039L243.641,299.039L242.549,299.039L242.549,299.183L242.412,299.183L242.412,299.327L242.276,299.327L242.276,299.183L241.729,299.183L241.729,299.327L241.593,299.327L241.593,299.47L241.319,299.47L241.319,299.327L241.183,299.327L241.046,299.327L241.046,299.183L241.046,299.327L240.636,299.327L240.636,299.183L240.5,299.183L240.5,299.039L240.363,299.039L240.363,298.896L240.227,298.896L240.227,298.752L240.09,298.752L240.09,298.608L239.953,298.608L239.953,298.465L239.817,298.465L239.817,298.321L239.817,298.177L239.407,298.177L239.407,298.608L239.27,298.608L239.27,298.896L239.27,299.039L239.134,299.039L238.997,299.039L238.997,299.183L238.861,299.183L238.861,299.327L238.588,299.327L238.041,299.327L238.041,299.47L237.768,299.47L237.768,299.614L237.631,299.614L237.631,299.47L237.631,299.327L237.495,299.327L237.222,299.327L237.222,299.183L237.085,299.183L237.085,299.039L236.812,299.039L236.812,299.183L236.675,299.183L236.675,299.039L236.539,299.039L235.582,299.039L235.582,298.896L235.446,298.896L235.446,298.752L235.309,298.752L234.899,298.752L234.217,298.752L233.943,298.752L233.943,298.608L233.807,298.608L233.807,298.465L233.397,298.465L233.397,298.608L232.714,298.608L232.714,298.465L232.714,298.608L232.304,298.608L232.304,298.752L231.758,298.752L231.211,298.752L231.075,298.752L231.075,298.608L230.255,298.608L230.255,298.465L227.797,298.465L227.797,298.321L227.66,298.321L227.66,298.465L227.114,298.465L227.114,298.321L226.431,298.321L226.431,298.465L226.158,298.465L226.158,298.321L224.792,298.321L224.792,298.465L224.109,298.465L224.109,298.608L223.289,298.608L223.289,298.752L222.06,298.752L222.06,298.608L221.104,298.608L221.104,298.465L220.284,298.465L220.284,298.321L215.23,298.321L215.23,298.465L214.957,298.465L214.957,298.608L214.684,298.608L214.684,298.752L214.274,298.752L214.274,298.608L214.001,298.608L214.001,298.465L214.001,298.321L213.728,298.321L213.728,298.465L213.318,298.465L213.318,298.608L212.908,298.608L212.908,298.465L212.498,298.465L212.498,298.321L212.498,298.465L212.225,298.465L212.225,298.321L211.815,298.321L211.815,298.465L211.542,298.465L211.542,298.608L211.406,298.608L211.406,298.465L211.269,298.465L211.269,298.321L210.859,298.321L210.859,298.465L210.586,298.465L210.586,298.608L209.766,298.608L209.766,298.752L209.357,298.752L209.357,298.608L209.357,298.465L209.083,298.465L209.083,298.608L208.4,298.608L208.4,298.465L208.264,298.465L208.127,298.465L206.215,298.465L206.215,298.608L206.078,298.608L206.078,298.465L205.259,298.465L204.576,298.465L204.576,298.608L204.303,298.608L204.303,298.465L203.756,298.465L203.756,298.608L201.707,298.608L201.707,298.465L201.571,298.465L201.571,298.321L201.298,298.321L201.298,298.465L200.888,298.465L200.888,298.321L200.615,298.321L200.615,298.465L200.205,298.465L200.205,298.608L199.659,298.608L199.659,298.465L199.385,298.465L199.385,298.608L199.112,298.608L199.112,298.465L198.702,298.465L198.702,298.608L198.019,298.608L198.019,298.465L195.971,298.465L195.971,298.321L195.971,298.465L195.834,298.465L195.834,298.321L195.561,298.321L195.561,298.465L195.424,298.465L195.424,298.321L195.288,298.321L195.288,298.465L194.878,298.465L194.878,298.321L194.468,298.321L194.468,298.465L194.331,298.465L194.331,298.608L193.922,298.608L193.922,298.465L189.414,298.465L189.414,298.321L188.458,298.321L187.502,298.321L187.502,298.177L187.229,298.177L187.229,298.034L186.955,298.034L186.955,298.177L185.453,298.177L185.453,298.034L184.224,298.034L184.087,298.034L183.95,298.034L183.95,297.89L183.814,297.89L183.814,298.034L182.584,298.034L182.584,297.89L182.311,297.89L182.311,297.746L182.175,297.746L182.175,297.89L182.038,297.89L182.038,297.746L181.765,297.746L181.628,297.746L181.628,297.603L181.355,297.603L181.355,297.459L181.218,297.459L180.945,297.459L180.945,297.315L180.809,297.315L180.809,297.172L180.536,297.172L180.126,297.172L180.126,297.028L179.443,297.028L179.443,296.884L178.76,296.884L178.487,296.884L178.487,296.74L178.213,296.74L178.213,296.597L177.94,296.597L177.94,296.453L177.804,296.453L177.804,296.309L177.257,296.309L176.847,296.309L176.028,296.309L175.891,296.309L175.891,296.453L175.618,296.453L175.618,296.597L175.482,296.597L175.482,296.74L175.482,296.884L175.208,296.884L174.799,296.884L174.525,296.884L174.525,296.74L173.569,296.74L173.569,296.597L173.569,296.74L173.023,296.74L173.023,296.597L172.886,296.597L172.75,296.597L172.75,296.453L172.613,296.453L172.613,296.597L172.477,296.597L172.34,296.597L172.34,296.74L171.93,296.74L171.93,296.884L171.657,296.884L171.657,296.74L171.657,296.597L171.657,296.309L171.657,296.166L171.384,296.166L171.384,296.022L171.111,296.022L171.111,296.166L170.701,296.166L170.701,296.309L170.428,296.309L170.428,296.166L169.335,296.166L169.335,296.022L169.062,296.022L169.062,295.878L167.559,295.878L167.013,295.878L167.013,295.735L166.876,295.735L166.876,295.878L166.74,295.878L166.74,296.022L166.74,296.166L166.603,296.166L166.603,296.309L166.466,296.309L166.466,296.166L166.466,296.022L166.193,296.022L166.193,295.878L166.057,295.878L165.51,295.878L165.51,295.735L165.237,295.735L165.237,295.878L165.101,295.878L165.101,296.166L164.964,296.166L164.964,296.309L164.281,296.309L163.598,296.309L163.325,296.309L163.325,296.166L163.188,296.166L163.188,296.309L162.915,296.309L162.778,296.309L162.232,296.309L162.232,296.166L161.139,296.166L161.139,296.022L160.32,296.022L160.32,295.878L160.183,295.878L159.91,295.878L158.954,295.878L158.954,295.735L158.544,295.735L158.544,295.878L158.134,295.878L158.134,295.735L157.588,295.735L157.588,295.591L157.315,295.591L157.315,295.735L156.768,295.735L156.768,295.591L156.495,295.591L156.495,295.447L156.085,295.447L156.085,295.304L155.949,295.304L155.812,295.304L155.402,295.304L155.402,295.16L155.266,295.16L155.266,295.016L154.993,295.016L154.31,295.016L154.173,295.016L153.9,295.016L153.9,294.873L153.9,294.729L153.763,294.729L153.627,294.729L153.354,294.729L153.354,294.873L152.671,294.873L152.671,294.729L152.534,294.729L152.534,294.873L152.261,294.873L152.261,294.729L152.124,294.729L152.124,294.873L151.851,294.873L151.305,294.873L151.305,294.729L151.031,294.729L150.212,294.729L150.075,294.729L149.256,294.729L149.256,294.585L148.436,294.585L148.436,294.442L147.207,294.442L145.704,294.442L145.704,294.298L145.431,294.298L145.431,294.154L144.885,294.154L144.202,294.154L144.202,294.011L143.929,294.011L143.929,293.867L142.699,293.867L142.699,293.723L141.88,293.723L141.743,293.723L141.743,293.58L141.06,293.58L141.06,293.436L140.65,293.436L140.514,293.436L140.377,293.436L139.011,293.436L139.011,293.292L138.465,293.292L138.465,293.149L137.782,293.149L137.645,293.149L137.645,293.005L137.509,293.005L137.509,292.861L136.826,292.861L136.279,292.861L136.279,292.718L136.006,292.718L136.006,292.574L135.596,292.574L135.323,292.574L134.913,292.574L134.913,292.718L134.64,292.718L134.64,292.574L134.231,292.574L133.684,292.574L133.684,292.43L133.411,292.43L133.411,292.286L132.728,292.286L132.728,292.143L132.318,292.143L132.318,291.999L132.045,291.999L131.908,291.999L131.089,291.999L131.089,291.855L130.542,291.855L130.542,291.712L130.269,291.712L129.45,291.712L129.45,291.568L129.313,291.568L129.313,291.424L128.903,291.424L128.903,291.281L128.767,291.281L128.494,291.281L128.494,291.137L127.947,291.137L127.947,290.993L127.811,290.993L127.811,290.85L127.947,290.85L127.947,290.706L127.811,290.706L127.811,290.562L127.401,290.562L127.401,290.419L127.264,290.419L127.128,290.419L127.128,290.275L126.991,290.275L126.991,290.131L126.854,290.131L126.581,290.131L126.581,289.988L126.308,289.988L126.308,289.844L126.172,289.844L125.898,289.844L125.898,289.7L125.762,289.7L125.762,289.556L125.489,289.556L125.489,289.844L125.625,289.844L125.625,289.988L125.625,290.131L125.762,290.131L125.898,290.131L125.898,290.275L126.035,290.275L126.035,290.419L126.308,290.419L126.445,290.419L126.445,290.562L126.581,290.562L126.581,290.706L126.718,290.706L126.308,290.706L125.352,290.706L125.352,290.562L125.079,290.562L125.079,290.419L124.669,290.419L123.44,290.419L123.44,290.275L122.893,290.275L122.893,290.131L122.62,290.131L122.347,290.131L122.347,289.988L121.937,289.988L121.937,289.844L121.664,289.844L121.254,289.844L121.254,289.7L120.708,289.7L120.708,289.556L120.161,289.556L119.342,289.556L119.342,289.413L119.205,289.413L119.205,289.269L119.069,289.269L119.069,289.125L118.795,289.125L118.795,289.269L118.795,289.125L118.522,289.125L118.249,289.125L118.249,288.982L117.293,288.982L117.293,288.838L117.02,288.838L116.883,288.838L116.883,288.694L116.61,288.694L116.61,288.551L115.654,288.551L115.654,288.407L115.381,288.407L115.381,288.263L115.244,288.263L115.244,288.12L115.107,288.12L115.107,287.976L114.834,287.976L114.698,287.976L114.425,287.976L114.288,287.976L114.288,287.832L114.015,287.832L113.605,287.832L113.605,287.689L113.468,287.689L113.332,287.689L112.512,287.689L112.512,287.545L112.376,287.545L112.376,287.401L112.239,287.401L111.01,287.401L111.01,287.257L110.873,287.257L110.873,287.114L110.327,287.114L110.054,287.114L110.054,286.97L109.507,286.97L109.507,286.826L109.371,286.826L109.371,286.683L109.097,286.683L108.961,286.683L108.961,286.539L108.824,286.539L108.824,286.683L108.551,286.683L108.551,286.539L108.551,286.395L108.414,286.395L108.278,286.395L108.278,286.252L108.141,286.252L108.141,286.108L107.868,286.108L107.595,286.108L107.595,285.964L107.322,285.964L107.322,285.821L106.912,285.821L106.639,285.821L106.639,285.677L106.502,285.677L106.502,285.533L106.229,285.533L105.956,285.533L105.956,285.389L105.136,285.389L105.136,285.677L105.136,285.821L105.273,285.821L105.273,285.964L104.726,285.964L104.726,285.821L104.59,285.821L104.453,285.821L104.453,285.677L104.18,285.677L104.18,285.533L104.043,285.533L103.907,285.533L103.907,285.389L103.907,285.246L103.77,285.246L103.634,285.246L103.634,285.102L103.497,285.102L103.497,284.958L103.224,284.958L103.224,284.815L103.224,284.671L102.951,284.671L102.951,284.527L102.541,284.527L102.541,284.384L102.404,284.384L102.404,284.24L102.268,284.24L102.268,284.096L102.131,284.096L102.131,283.953L101.995,283.953L101.995,283.809L101.858,283.809L101.858,283.665L101.721,283.665L101.721,283.953L101.448,283.953L101.448,284.24L101.585,284.24L101.585,284.527L101.585,284.671L100.902,284.671L100.902,284.527L100.629,284.527L100.629,284.384L100.492,284.384L100.492,284.24L100.082,284.24L100.082,284.096L99.672,284.096L99.672,283.953L99.399,283.953L99.263,283.953L99.263,283.809L99.126,283.809L99.126,283.665L98.99,283.665L98.853,283.665L98.853,283.521L98.58,283.521L98.58,283.378L98.443,283.378L98.17,283.378L98.17,283.234L97.624,283.234L97.624,283.09L97.487,283.09L97.35,283.09L97.214,283.09L97.214,282.947L97.077,282.947L97.077,282.803L96.667,282.803L96.394,282.803L96.394,282.659L96.258,282.659L96.258,282.516L95.984,282.516L95.711,282.516L95.711,282.372L95.575,282.372L95.438,282.372L95.438,282.228L95.438,282.084L95.165,282.084L94.892,282.084L94.892,281.941L94.345,281.941L94.345,281.797L94.209,281.797L93.936,281.797L93.936,281.653L93.799,281.653L93.799,281.51L93.662,281.51L93.526,281.51L93.526,281.366L93.253,281.366L93.253,281.222L92.979,281.222L92.979,281.079L92.843,281.079L92.843,280.935L92.706,280.935L92.706,280.791L92.433,280.791L92.433,280.647L92.023,280.647L91.75,280.647L91.75,280.504L91.75,280.36L91.614,280.36L91.477,280.36L91.477,280.216L91.067,280.216L91.067,280.36L90.521,280.36L90.521,280.216L90.248,280.216L90.248,280.073L90.111,280.073L89.974,280.073L89.974,279.929L89.838,279.929L89.838,279.785L89.428,279.785L89.428,279.642L89.155,279.642L88.882,279.642L88.882,279.498L88.608,279.498L88.608,279.354L88.472,279.354L88.335,279.354L88.335,279.21L88.199,279.21L88.199,279.067L87.925,279.067L87.789,279.067L87.789,278.923L87.652,278.923L87.652,278.779L87.379,278.779L87.243,278.779L87.243,278.636L86.696,278.636L86.696,278.492L86.423,278.492L85.877,278.492L85.877,278.348L85.74,278.348L85.74,278.204L85.467,278.204L85.467,278.061L85.194,278.061L85.194,277.917L84.92,277.917L84.784,277.917L84.784,277.773L84.647,277.773L84.647,277.63L84.92,277.63L84.92,277.773L85.467,277.773L85.467,277.63L85.467,277.486L85.33,277.486L85.33,277.342L85.194,277.342L85.194,277.199L85.057,277.199L85.057,276.911L84.647,276.911L84.647,276.767L83.964,276.767L83.964,276.624L83.691,276.624L83.555,276.624L83.555,276.48L83.281,276.48L83.281,276.336L83.145,276.336L83.145,276.193L83.008,276.193L83.008,276.049L82.872,276.049L82.735,276.049L82.735,275.905L82.735,275.761L82.462,275.761L82.325,275.761L82.189,275.761L82.189,275.905L82.052,275.905L82.052,276.049L81.915,276.049L81.506,276.049L81.506,275.905L81.369,275.905L81.232,275.905L81.232,276.049L81.096,276.049L80.959,276.049L80.823,276.049L80.823,275.905L80.549,275.905L80.549,275.761L80.413,275.761L80.14,275.761L80.14,275.618L80.003,275.618L80.003,275.474L79.73,275.474L79.593,275.474L79.593,275.33L79.457,275.33L79.457,275.187L79.184,275.187L79.184,275.043L78.91,275.043L78.637,275.043L78.637,274.899L78.364,274.899L78.364,274.755L78.227,274.755L77.681,274.755L77.681,274.612L77.544,274.612L77.544,274.468L77.408,274.468L77.408,274.324L77.135,274.324L77.135,274.181L76.998,274.181L76.725,274.181L76.725,274.037L76.588,274.037L76.588,273.893L76.179,273.893L76.042,273.893L76.042,273.749L75.905,273.749L75.905,273.606L75.632,273.606L75.496,273.606L75.496,273.462L75.222,273.462L75.222,273.318L75.086,273.318L74.949,273.318L74.949,273.175L74.813,273.175L74.813,273.031L74.539,273.031L74.539,272.887L74.266,272.887L73.993,272.887L73.993,272.743L73.583,272.743L73.583,272.6L73.31,272.6L73.037,272.6L73.037,272.456L72.764,272.456L72.764,272.312L72.49,272.312L72.081,272.312L72.081,272.169L72.081,272.025L71.944,272.025L71.808,272.025L71.808,271.881L71.534,271.881L71.534,271.737L71.261,271.737L71.125,271.737L71.125,271.594L70.851,271.594L70.851,271.45L70.578,271.45L70.578,271.306L70.305,271.306L70.305,271.163L70.032,271.163L69.759,271.163L69.759,271.019L69.622,271.019L69.622,270.875L69.485,270.875L68.802,270.875L68.802,270.731L68.666,270.731L68.666,270.588L68.529,270.588L68.529,270.444L68.393,270.444L67.573,270.444L67.573,270.156L67.437,270.156L67.3,270.156L67.3,270.013L66.89,270.013L66.89,269.869L66.754,269.869L66.617,269.869L66.617,269.725L66.48,269.725L66.48,269.582L65.934,269.582L65.934,269.438L65.524,269.438L65.524,269.294L65.114,269.294L64.978,269.294L64.978,269.15L64.841,269.15L64.841,269.007L64.705,269.007L64.295,269.007L64.295,268.863L64.295,268.719L64.158,268.719L64.022,268.719L64.022,268.576L63.749,268.576L63.749,268.432L63.475,268.432L63.202,268.432L63.202,268.288L62.929,268.288L62.929,268.144L62.792,268.144L62.792,268.001L62.519,268.001L62.246,268.001L62.246,267.857L61.836,267.857L61.836,267.713L61.7,267.713L61.563,267.713L61.563,267.569L61.563,267.426L61.426,267.426L61.29,267.426L61.29,267.282L60.88,267.282L60.88,267.138L60.607,267.138L60.47,267.138L60.47,266.995L60.334,266.995L60.334,266.851L60.197,266.851L60.197,266.563L60.061,266.563L60.061,266.276L59.787,266.276L59.787,266.42L59.651,266.42L59.651,266.563L59.378,266.563L59.241,266.563L59.241,266.42L58.695,266.42L58.695,266.276L58.558,266.276L58.421,266.276L58.421,266.132L58.148,266.132L58.148,265.988L58.148,265.845L57.875,265.845L57.738,265.845L57.738,265.701L57.602,265.701L57.602,265.557L57.465,265.557L57.192,265.557L57.192,265.414L57.055,265.414L57.055,265.27L56.919,265.27L56.646,265.27L56.646,265.126L56.509,265.126L56.509,264.982L56.236,264.982L55.963,264.982L55.963,264.839L55.826,264.839L55.826,264.695L55.553,264.695L55.28,264.695L55.28,264.551L55.007,264.551L55.007,264.407L54.87,264.407L54.597,264.407L54.597,264.264L54.324,264.264L54.324,264.12L54.187,264.12L53.914,264.12L53.914,263.976L53.777,263.976L53.777,263.833L53.504,263.833L53.231,263.833L53.231,263.689L53.094,263.689L53.094,263.545L52.821,263.545L52.821,263.401L52.548,263.401L52.411,263.401L52.411,263.258L52.138,263.258L52.138,263.114L52.002,263.114L51.865,263.114L51.865,262.97L51.592,262.97L51.592,262.826L51.455,262.826L51.319,262.826L51.319,262.683L51.045,262.683L51.045,262.539L50.772,262.539L50.362,262.539L50.362,262.395L49.406,262.395L49.406,262.251L49.133,262.251L49.133,262.108L48.86,262.108L48.86,261.964L48.723,261.964L48.723,261.82L48.587,261.82L48.587,261.677L48.45,261.677L48.314,261.677L48.314,261.533L48.04,261.533L48.04,261.389L47.904,261.389L47.904,261.245L47.631,261.245L47.631,261.102L47.357,261.102L47.357,260.958L47.221,260.958L46.948,260.958L46.948,260.814L46.265,260.814L46.265,260.67L46.128,260.67L45.991,260.67L45.991,260.527L45.718,260.527L45.718,260.383L45.308,260.383L45.308,260.239L45.172,260.239L45.172,260.095L45.035,260.095L44.762,260.095L44.762,259.952L44.352,259.952L44.352,259.808L44.216,259.808L43.806,259.808L43.806,259.664L43.669,259.664L43.669,259.52L43.533,259.52L43.396,259.52L43.396,259.377L43.123,259.377L43.123,259.233L42.85,259.233L42.577,259.233L42.577,259.089L42.303,259.089L42.303,258.945L41.894,258.945L41.894,258.802L41.62,258.802L41.347,258.802L41.347,258.658L40.938,258.658L40.938,258.371L40.801,258.371L40.801,258.227L40.255,258.227L39.981,258.227L39.981,258.083L39.708,258.083L39.708,257.939L39.572,257.939L39.435,257.939L39.162,257.939L39.162,257.796L39.025,257.796L39.025,257.652L38.889,257.652L38.479,257.652L38.479,257.508L38.479,257.364L38.206,257.364L38.206,257.221L38.069,257.221L38.069,257.077L37.932,257.077L37.932,256.789L37.932,256.502L37.523,256.502L37.523,256.646L37.523,256.789L37.659,256.789L37.659,257.077L37.523,257.077L37.25,257.077L36.976,257.077L36.976,256.933L36.976,256.789L36.703,256.789L36.703,256.646L36.43,256.646L36.43,256.502L36.293,256.502L36.293,256.646L36.293,256.502L36.02,256.502L36.02,256.358L35.747,256.358L35.61,256.358L35.61,256.214L35.337,256.214L35.337,256.071L35.337,255.927L35.201,255.927L35.201,255.639L35.064,255.639L35.064,255.496L34.927,255.496L34.927,255.352L34.518,255.352L34.518,255.208L33.835,255.208L33.835,255.064L33.835,254.921L33.698,254.921L33.562,254.921L33.562,254.777L33.425,254.777L33.425,254.633L33.152,254.633L33.152,254.777L33.152,255.208L33.152,255.496L32.742,255.496L32.742,255.352L32.605,255.352L32.605,255.208L32.332,255.208L32.059,255.208L32.059,255.064L31.786,255.064L31.786,254.921L31.649,254.921L31.103,254.921L31.103,254.777L30.966,254.777L30.966,254.633L30.693,254.633L30.693,254.777L30.556,254.777L30.556,254.921L30.42,254.921L30.42,254.777L30.147,254.777L30.147,254.633L30.01,254.633L29.737,254.633L29.737,254.489L29.191,254.489L29.191,254.346L29.054,254.346L29.054,254.202L28.917,254.202L28.781,254.202L28.781,254.058L28.508,254.058L28.508,253.914L28.234,253.914L27.961,253.914L27.961,253.771L27.688,253.771L27.688,253.627L27.551,253.627L27.142,253.627L27.142,253.483L26.732,253.483L26.732,253.339L26.459,253.339L26.322,253.339L26.322,253.196L26.322,253.339L26.185,253.339L26.185,253.196L26.049,253.196L26.049,253.052L25.776,253.052L25.776,252.908L25.776,252.764L25.366,252.764L25.366,252.908L25.093,252.908L25.093,252.764L25.093,252.621L24.956,252.621L24.956,252.477L25.229,252.477L25.229,251.902L24.683,251.614L24.546,250.896L25.639,250.321L25.093,249.602L24.956,248.164L24,246.008L24.137,244.714L26.322,242.701L26.459,241.839L25.366,240.688L25.229,239.682L28.371,237.382L30.966,235.081L33.698,232.637L34.654,231.055L35.61,226.454L38.889,224.009L40.391,222.283L41.211,217.538L42.577,214.23L45.718,210.778L49.543,207.758L50.499,207.326L51.728,203.442L52.958,200.134L54.46,198.983L54.733,197.976L53.367,197.401L53.367,195.819L55.28,195.099L53.367,189.776L53.777,186.036L54.324,184.309L53.504,181.864L54.46,179.705L52.821,174.669L50.772,174.813L50.636,173.662L52.002,171.216L52.685,166.179L51.319,166.179L50.636,166.035L49.27,164.164L50.226,162.725L50.772,161.718L49.953,160.998L50.499,159.847L53.641,159.703L54.46,158.264L57.875,155.673L58.285,156.249L60.744,155.385L62.109,155.673L60.744,163.445L64.432,170.496L73.447,165.316L67.983,155.098L68.393,154.378L70.715,153.514L73.31,149.628L75.496,149.772L76.042,148.908L76.179,146.749L76.725,145.742L76.861,143.151L77.271,142.287L79.593,141.567L79.73,139.552L80.413,138.688L80.276,137.248L80.686,136.241L83.691,135.377L85.057,134.225L88.062,133.937L89.155,133.793L92.706,130.914L95.028,128.898L96.394,128.035L97.624,127.891L97.76,128.61L95.711,130.77L94.482,132.93L93.799,134.657L95.028,135.665L93.936,137.105L93.662,139.264L92.16,142.431L91.887,144.158L92.57,146.174L92.979,148.477L91.75,151.067L90.248,153.226L91.204,156.393L94.755,154.666L98.853,156.249L111.966,159.415L112.649,157.544L112.512,154.954L113.878,152.795L116.61,152.363L116.747,149.772L120.571,150.06L120.708,150.924L120.161,151.787L118.932,154.81L118.386,155.961L118.659,158.264L117.976,159.703L117.703,161.142L122.757,162.15L148.709,166.755L154.31,167.906L155.676,166.899L157.451,168.626L158.271,167.33L158.544,164.452L157.861,163.157L158.407,161.862L158.407,160.71L160.183,158.84L159.5,157.544L160.866,157.4L161.276,156.537L161.139,155.098L162.505,155.385L163.461,155.098L164.144,153.514L164.144,152.363L164.691,151.499L164.281,149.484L164.008,147.757L164.281,146.461L164.554,144.878L164.827,143.726L165.374,142.431L164.691,142.287L163.188,140.703L163.188,139.696L163.188,137.968L161.276,136.241L162.232,135.089L163.325,134.369L164.691,133.505L165.374,132.066L166.74,131.202L167.559,128.754L167.969,127.891L169.608,125.731L171.52,123.859L173.842,122.995L175.618,123.571L176.028,125.011L177.394,125.299L179.17,127.027L180.672,125.299L182.311,124.867L183.541,123.571L184.224,121.267L188.048,120.547L190.37,117.236L194.741,117.523L195.151,118.963L195.834,117.667L196.927,118.099L198.019,121.699L197.2,124.291L197.2,125.011L202.117,122.995L202.937,119.683L204.712,119.107L205.395,115.508L208.674,113.492L209.357,114.356L208.537,115.652L209.083,116.804L209.903,116.228L212.362,117.092L211.952,120.115L214.274,120.547L215.094,123.283L215.776,123.283L216.459,124.147L215.913,128.178L216.323,131.346L217.416,136.673L219.328,134.225L219.191,132.93L220.011,131.346L220.421,130.194L221.377,129.474L222.333,129.186L223.016,128.898L224.109,127.603L225.475,125.443L226.294,124.003L227.387,122.563L229.299,120.547L231.348,118.531L233.26,117.955L234.626,117.667L236.265,116.228L238.997,113.78L240.91,112.483L243.915,111.043L245.417,109.747L246.1,107.587L246.783,106.435L249.242,102.114L253.476,104.419L255.662,106.291L258.53,109.747L261.672,110.611L264.813,116.66L264.95,119.251L267.955,121.123L270.004,124.147L271.097,124.579L271.37,127.891L271.097,131.634L271.916,133.361L272.872,135.089L273.692,135.233L273.692,133.793L273.965,131.922L274.648,129.042L275.468,127.027L276.97,126.019L277.79,125.587L278.609,124.579L279.839,122.563L282.161,116.804L282.844,116.372L283.8,116.516L284.756,116.948L285.712,116.804L286.532,115.652L287.215,114.5L287.898,113.492L290.903,110.899L293.498,108.451L295.683,106.867L296.503,104.851L304.152,118.675L327.51,100.386L332.837,106.003L332.973,110.035L333.929,112.051L335.978,114.068L339.256,115.22L349.091,117.811L348.135,125.155Z" fill="none" stroke="rgba(255,255,255,0.9)" stroke-width="2"/>
</svg>