<?xml version="1.0" encoding="UTF-8"?>
<svg viewBox="0 0 400 400" xmlns="http://www.w3.org/2000/svg" role="img" aria-label="Guatemala">
  <defs>
    <clipPath id="c"><path d="M245.153,45.95L240.216,50.73L241.656,54.207L241.245,55.945L241.245,58.335L241.45,60.291L244.742,60.725L245.77,62.681L247.21,63.985L250.707,63.767L253.381,63.55L255.439,62.464L257.29,62.029L259.758,62.246L260.993,63.115L262.844,63.333L264.078,62.464L265.107,62.246L266.752,62.681L269.015,62.681L269.427,63.767L272.101,64.202L273.335,65.071L275.392,66.592L276.832,68.547L277.244,69.416L279.095,70.068L279.506,71.589L281.152,71.371L280.741,73.978L281.152,75.065L281.358,76.151L278.684,77.889L275.392,79.844L274.569,81.365L274.775,82.451L273.541,84.189L273.541,85.709L274.775,87.013L276.627,88.316L277.244,89.837L276.215,91.574L275.804,91.792L275.598,93.095L276.009,93.747L274.158,95.701L274.158,96.788L274.569,98.091L273.541,98.525L273.541,99.611L274.158,101.132L275.187,103.086L275.804,105.258L275.804,106.344L275.598,108.733L279.095,111.557L281.564,116.552L282.386,121.764L284.443,123.501L287.529,125.89L290.615,127.844L295.346,128.061L297.609,130.667L299.666,133.49L313.654,137.832L325.174,139.569L331.139,142.609L334.019,144.129L339.368,147.603L342.865,149.991L343.07,153.248L340.191,156.721L338.545,158.675L336.899,160.629L337.722,163.668L337.722,167.793L335.665,173.871L334.842,174.522L333.608,175.173L331.139,175.39L321.882,182.336L310.157,192.102L314.477,213.803L318.591,220.747L312.626,221.398L305.014,237.453L299.049,235.5L295.757,236.802L294.935,238.755L294.729,239.622L292.055,240.49L291.026,242.009L286.295,248.734L285.883,256.326L283.621,256.976L282.386,258.495L282.181,259.579L280.946,259.796L279.506,262.399L279.301,263.7L277.655,263.917L276.627,256.976L274.981,254.373L274.364,248.95L265.724,245.263L263.461,247.432L262.227,248.734L259.553,248.517L259.758,250.035L257.701,251.12L256.261,251.77L255.027,252.855L253.793,252.421L252.559,249.601L250.707,249.167L245.976,251.553L247.622,254.807L242.273,256.326L240.833,257.844L238.365,256.759L236.308,258.929L235.073,260.881L234.045,267.171L234.456,274.978L234.662,280.183L234.045,281.918L232.193,283.436L224.582,291.46L222.937,293.195L222.114,294.929L221.702,297.748L223.965,303.603L223.759,307.289L223.759,309.24L224.376,310.758L225.199,315.311L224.994,317.479L226.228,320.731L226.845,322.248L227.256,323.982L226.434,327.234L227.051,329.402L225.405,330.486L224.788,332.654L222.114,332.87L222.731,334.605L222.525,335.472L219.851,335.255L218,335.905L215.942,334.821L213.68,336.772L213.474,339.157L214.091,341.758L213.063,343.058L206.686,342.625L203.806,343.058L202.777,345.226L200.309,345.659L197.017,348.26L193.932,348.26L192.697,349.994L189.817,351.728L187.966,351.945L187.555,353.895L185.703,354.112L184.263,358.013L183.852,359.964L182.823,359.747L179.943,360.18L178.915,361.697L176.446,361.697L175.006,363.431L173.772,364.515L171.509,364.298L170.481,364.731L169.452,365.815L168.629,366.248L167.189,365.165L165.749,365.815L164.515,366.465L163.281,366.465L162.458,367.549L161.841,368.849L158.961,369.932L158.961,370.799L157.933,372.75L156.081,374.7L154.024,375.783L152.996,376L152.584,373.183L152.584,371.449L152.996,369.932L155.258,367.982L156.081,365.815L156.493,364.515L156.287,362.998L155.053,360.18L153.613,359.314L151.556,358.23L151.556,355.629L150.733,353.679L143.944,349.561L133.659,323.549L145.384,302.302L143.944,296.664L145.384,285.605L130.573,281.701L125.636,279.967L122.551,276.93L121.111,273.894L120.905,267.821L112.882,259.362L108.357,255.675L105.683,252.204L104.86,251.12L106.3,247.432L106.3,243.527L108.151,238.538L110.002,235.066L108.974,231.595L109.385,228.992L110.825,226.171L113.705,217.709L116.379,217.709L118.848,216.624L120.699,215.756L122.551,214.888L122.756,213.369L124.813,210.549L125.019,209.464L127.693,204.473L127.488,202.085L127.488,199.915L130.162,201L132.63,200.566L134.07,200.349L136.539,201.434L137.567,198.83L136.333,197.311L133.042,194.49L128.722,192.754L124.402,192.537L123.785,191.668L123.168,186.894L123.373,182.119L124.813,180.382L124.196,178.646L121.934,177.995L121.522,178.646L120.494,176.909L123.168,164.971L122.551,162.366L117.202,159.761L107.74,157.373L105.065,157.155L104.243,156.07L104.448,149.557L101.98,137.398L93.134,136.095L90.666,140.221L87.992,139.569L85.112,143.261L81.615,142.392L76.472,142.392L73.798,140.221L70.918,140.655L67.626,136.313L67.421,134.358L65.569,132.838L62.278,130.015L60.221,128.713L58.575,126.758L57.135,123.718L56.93,121.329L61.867,115.032L67.626,108.733L69.478,108.082L77.912,100.697L78.735,99.394L82.849,98.96L83.877,97.656L84.083,95.919L87.169,91.14L90.666,90.706L91.489,88.533L94.163,86.796L95.191,84.406L93.546,82.668L90.666,80.061L90.049,78.541L91.077,76.368L91.694,72.675L91.283,69.416L97.66,65.723L99.923,62.898L104.037,62.464L106.3,61.16L107.945,58.118L106.711,56.38L110.208,54.207L111.854,53.121L114.939,54.207L116.585,52.034L119.876,51.599L122.345,48.557L125.431,48.34L127.282,45.515L130.985,45.95L133.659,43.777L135.51,44.429L143.533,48.123L144.561,47.688L144.15,46.602L145.59,45.515L147.647,47.471L151.556,48.34L154.23,47.254L155.67,46.167L158.138,45.95L158.344,47.471L159.784,46.384L171.715,39.648L176.652,41.604L178.298,39.43L181.795,39.213L190.846,35.519L192.286,35.519L193.932,34.432L194.754,35.519L195.372,38.344L200.103,39.648L199.486,40.952L201.543,40.952L203.394,43.125L205.863,43.342L206.686,41.821L211.828,42.473L216.971,41.821L219.645,41.386L223.554,39.648L223.965,37.257L223.759,36.605L223.554,34.432L224.171,32.476L224.994,29.216L226.845,27.26L227.668,27.26L228.079,24.435L230.753,24L231.782,26.173L236.925,26.608L238.159,26.825L237.748,30.52L241.862,33.997L240.833,36.823L242.685,41.169L245.153,43.777Z"/></clipPath>
    <pattern id="mesh" width="14" height="14" patternUnits="userSpaceOnUse">
      <path d="M0 14 L14 0 M-2 2 L2 -2 M12 16 L16 12" stroke="rgba(255,255,255,0.2)" stroke-width="0.6" fill="none"/>
    </pattern>
  </defs>
  <g clip-path="url(#c)">
    <rect width="400" height="400" fill="url(#mesh)"/>
    <path d="M245.153,45.95L240.216,50.73L241.656,54.207L241.245,55.945L241.245,58.335L241.45,60.291L244.742,60.725L245.77,62.681L247.21,63.985L250.707,63.767L253.381,63.55L255.439,62.464L257.29,62.029L259.758,62.246L260.993,63.115L262.844,63.333L264.078,62.464L265.107,62.246L266.752,62.681L269.015,62.681L269.427,63.767L272.101,64.202L273.335,65.071L275.392,66.592L276.832,68.547L277.244,69.416L279.095,70.068L279.506,71.589L281.152,71.371L280.741,73.978L281.152,75.065L281.358,76.151L278.684,77.889L275.392,79.844L274.569,81.365L274.775,82.451L273.541,84.189L273.541,85.709L274.775,87.013L276.627,88.316L277.244,89.837L276.215,91.574L275.804,91.792L275.598,93.095L276.009,93.747L274.158,95.701L274.158,96.788L274.569,98.091L273.541,98.525L273.541,99.611L274.158,101.132L275.187,103.086L275.804,105.258L275.804,106.344L275.598,108.733L279.095,111.557L281.564,116.552L282.386,121.764L284.443,123.501L287.529,125.89L290.615,127.844L295.346,128.061L297.609,130.667L299.666,133.49L313.654,137.832L325.174,139.569L331.139,142.609L334.019,144.129L339.368,147.603L342.865,149.991L343.07,153.248L340.191,156.721L338.545,158.675L336.899,160.629L337.722,163.668L337.722,167.793L335.665,173.871L334.842,174.522L333.608,175.173L331.139,175.39L321.882,182.336L310.157,192.102L314.477,213.803L318.591,220.747L312.626,221.398L305.014,237.453L299.049,235.5L295.757,236.802L294.935,238.755L294.729,239.622L292.055,240.49L291.026,242.009L286.295,248.734L285.883,256.326L283.621,256.976L282.386,258.495L282.181,259.579L280.946,259.796L279.506,262.399L279.301,263.7L277.655,263.917L276.627,256.976L274.981,254.373L274.364,248.95L265.724,245.263L263.461,247.432L262.227,248.734L259.553,248.517L259.758,250.035L257.701,251.12L256.261,251.77L255.027,252.855L253.793,252.421L252.559,249.601L250.707,249.167L245.976,251.553L247.622,254.807L242.273,256.326L240.833,257.844L238.365,256.759L236.308,258.929L235.073,260.881L234.045,267.171L234.456,274.978L234.662,280.183L234.045,281.918L232.193,283.436L224.582,291.46L222.937,293.195L222.114,294.929L221.702,297.748L223.965,303.603L223.759,307.289L223.759,309.24L224.376,310.758L225.199,315.311L224.994,317.479L226.228,320.731L226.845,322.248L227.256,323.982L226.434,327.234L227.051,329.402L225.405,330.486L224.788,332.654L222.114,332.87L222.731,334.605L222.525,335.472L219.851,335.255L218,335.905L215.942,334.821L213.68,336.772L213.474,339.157L214.091,341.758L213.063,343.058L206.686,342.625L203.806,343.058L202.777,345.226L200.309,345.659L197.017,348.26L193.932,348.26L192.697,349.994L189.817,351.728L187.966,351.945L187.555,353.895L185.703,354.112L184.263,358.013L183.852,359.964L182.823,359.747L179.943,360.18L178.915,361.697L176.446,361.697L175.006,363.431L173.772,364.515L171.509,364.298L170.481,364.731L169.452,365.815L168.629,366.248L167.189,365.165L165.749,365.815L164.515,366.465L163.281,366.465L162.458,367.549L161.841,368.849L158.961,369.932L158.961,370.799L157.933,372.75L156.081,374.7L154.024,375.783L152.996,376L152.584,373.183L152.584,371.449L152.996,369.932L155.258,367.982L156.081,365.815L156.493,364.515L156.287,362.998L155.053,360.18L153.613,359.314L151.556,358.23L151.556,355.629L150.733,353.679L143.944,349.561L133.659,323.549L145.384,302.302L143.944,296.664L145.384,285.605L130.573,281.701L125.636,279.967L122.551,276.93L121.111,273.894L120.905,267.821L112.882,259.362L108.357,255.675L105.683,252.204L104.86,251.12L106.3,247.432L106.3,243.527L108.151,238.538L110.002,235.066L108.974,231.595L109.385,228.992L110.825,226.171L113.705,217.709L116.379,217.709L118.848,216.624L120.699,215.756L122.551,214.888L122.756,213.369L124.813,210.549L125.019,209.464L127.693,204.473L127.488,202.085L127.488,199.915L130.162,201L132.63,200.566L134.07,200.349L136.539,201.434L137.567,198.83L136.333,197.311L133.042,194.49L128.722,192.754L124.402,192.537L123.785,191.668L123.168,186.894L123.373,182.119L124.813,180.382L124.196,178.646L121.934,177.995L121.522,178.646L120.494,176.909L123.168,164.971L122.551,162.366L117.202,159.761L107.74,157.373L105.065,157.155L104.243,156.07L104.448,149.557L101.98,137.398L93.134,136.095L90.666,140.221L87.992,139.569L85.112,143.261L81.615,142.392L76.472,142.392L73.798,140.221L70.918,140.655L67.626,136.313L67.421,134.358L65.569,132.838L62.278,130.015L60.221,128.713L58.575,126.758L57.135,123.718L56.93,121.329L61.867,115.032L67.626,108.733L69.478,108.082L77.912,100.697L78.735,99.394L82.849,98.96L83.877,97.656L84.083,95.919L87.169,91.14L90.666,90.706L91.489,88.533L94.163,86.796L95.191,84.406L93.546,82.668L90.666,80.061L90.049,78.541L91.077,76.368L91.694,72.675L91.283,69.416L97.66,65.723L99.923,62.898L104.037,62.464L106.3,61.16L107.945,58.118L106.711,56.38L110.208,54.207L111.854,53.121L114.939,54.207L116.585,52.034L119.876,51.599L122.345,48.557L125.431,48.34L127.282,45.515L130.985,45.95L133.659,43.777L135.51,44.429L143.533,48.123L144.561,47.688L144.15,46.602L145.59,45.515L147.647,47.471L151.556,48.34L154.23,47.254L155.67,46.167L158.138,45.95L158.344,47.471L159.784,46.384L171.715,39.648L176.652,41.604L178.298,39.43L181.795,39.213L190.846,35.519L192.286,35.519L193.932,34.432L194.754,35.519L195.372,38.344L200.103,39.648L199.486,40.952L201.543,40.952L203.394,43.125L205.863,43.342L206.686,41.821L211.828,42.473L216.971,41.821L219.645,41.386L223.554,39.648L223.965,37.257L223.759,36.605L223.554,34.432L224.171,32.476L224.994,29.216L226.845,27.26L227.668,27.26L228.079,24.435L230.753,24L231.782,26.173L236.925,26.608L238.159,26.825L237.748,30.52L241.862,33.997L240.833,36.823L242.685,41.169L245.153,43.777Z" fill="rgba(180,200,195,0.35)"/>
  </g>
  <path d="M245.153,45.95L240.216,50.73L241.656,54.207L241.245,55.945L241.245,58.335L241.45,60.291L244.742,60.725L245.77,62.681L247.21,63.985L250.707,63.767L253.381,63.55L255.439,62.464L257.29,62.029L259.758,62.246L260.993,63.115L262.844,63.333L264.078,62.464L265.107,62.246L266.752,62.681L269.015,62.681L269.427,63.767L272.101,64.202L273.335,65.071L275.392,66.592L276.832,68.547L277.244,69.416L279.095,70.068L279.506,71.589L281.152,71.371L280.741,73.978L281.152,75.065L281.358,76.151L278.684,77.889L275.392,79.844L274.569,81.365L274.775,82.451L273.541,84.189L273.541,85.709L274.775,87.013L276.627,88.316L277.244,89.837L276.215,91.574L275.804,91.792L275.598,93.095L276.009,93.747L274.158,95.701L274.158,96.788L274.569,98.091L273.541,98.525L273.541,99.611L274.158,101.132L275.187,103.086L275.804,105.258L275.804,106.344L275.598,108.733L279.095,111.557L281.564,116.552L282.386,121.764L284.443,123.501L287.529,125.89L290.615,127.844L295.346,128.061L297.609,130.667L299.666,133.49L313.654,137.832L325.174,139.569L331.139,142.609L334.019,144.129L339.368,147.603L342.865,149.991L343.07,153.248L340.191,156.721L338.545,158.675L336.899,160.629L337.722,163.668L337.722,167.793L335.665,173.871L334.842,174.522L333.608,175.173L331.139,175.39L321.882,182.336L310.157,192.102L314.477,213.803L318.591,220.747L312.626,221.398L305.014,237.453L299.049,235.5L295.757,236.802L294.935,238.755L294.729,239.622L292.055,240.49L291.026,242.009L286.295,248.734L285.883,256.326L283.621,256.976L282.386,258.495L282.181,259.579L280.946,259.796L279.506,262.399L279.301,263.7L277.655,263.917L276.627,256.976L274.981,254.373L274.364,248.95L265.724,245.263L263.461,247.432L262.227,248.734L259.553,248.517L259.758,250.035L257.701,251.12L256.261,251.77L255.027,252.855L253.793,252.421L252.559,249.601L250.707,249.167L245.976,251.553L247.622,254.807L242.273,256.326L240.833,257.844L238.365,256.759L236.308,258.929L235.073,260.881L234.045,267.171L234.456,274.978L234.662,280.183L234.045,281.918L232.193,283.436L224.582,291.46L222.937,293.195L222.114,294.929L221.702,297.748L223.965,303.603L223.759,307.289L223.759,309.24L224.376,310.758L225.199,315.311L224.994,317.479L226.228,320.731L226.845,322.248L227.256,323.982L226.434,327.234L227.051,329.402L225.405,330.486L224.788,332.654L222.114,332.87L222.731,334.605L222.525,335.472L219.851,335.255L218,335.905L215.942,334.821L213.68,336.772L213.474,339.157L214.091,341.758L213.063,343.058L206.686,342.625L203.806,343.058L202.777,345.226L200.309,345.659L197.017,348.26L193.932,348.26L192.697,349.994L189.817,351.728L187.966,351.945L187.555,353.895L185.703,354.112L184.263,358.013L183.852,359.964L182.823,359.747L179.943,360.18L178.915,361.697L176.446,361.697L175.006,363.431L173.772,364.515L171.509,364.298L170.481,364.731L169.452,365.815L168.629,366.248L167.189,365.165L165.749,365.815L164.515,366.465L163.281,366.465L162.458,367.549L161.841,368.849L158.961,369.932L158.961,370.799L157.933,372.75L156.081,374.7L154.024,375.783L152.996,376L152.584,373.183L152.584,371.449L152.996,369.932L155.258,367.982L156.081,365.815L156.493,364.515L156.287,362.998L155.053,360.18L153.613,359.314L151.556,358.23L151.556,355.629L150.733,353.679L143.944,349.561L133.659,323.549L145.384,302.302L143.944,296.664L145.384,285.605L130.573,281.701L125.636,279.967L122.551,276.93L121.111,273.894L120.905,267.821L112.882,259.362L108.357,255.675L105.683,252.204L104.86,251.12L106.3,247.432L106.3,243.527L108.151,238.538L110.002,235.066L108.974,231.595L109.385,228.992L110.825,226.171L113.705,217.709L116.379,217.709L118.848,216.624L120.699,215.756L122.551,214.888L122.756,213.369L124.813,210.549L125.019,209.464L127.693,204.473L127.488,202.085L127.488,199.915L130.162,201L132.63,200.566L134.07,200.349L136.539,201.434L137.567,198.83L136.333,197.311L133.042,194.49L128.722,192.754L124.402,192.537L123.785,191.668L123.168,186.894L123.373,182.119L124.813,180.382L124.196,178.646L121.934,177.995L121.522,178.646L120.494,176.909L123.168,164.971L122.551,162.366L117.202,159.761L107.74,157.373L105.065,157.155L104.243,156.07L104.448,149.557L101.98,137.398L93.134,136.095L90.666,140.221L87.992,139.569L85.112,143.261L81.615,142.392L76.472,142.392L73.798,140.221L70.918,140.655L67.626,136.313L67.421,134.358L65.569,132.838L62.278,130.015L60.221,128.713L58.575,126.758L57.135,123.718L56.93,121.329L61.867,115.032L67.626,108.733L69.478,108.082L77.912,100.697L78.735,99.394L82.849,98.96L83.877,97.656L84.083,95.919L87.169,91.14L90.666,90.706L91.489,88.533L94.163,86.796L95.191,84.406L93.546,82.668L90.666,80.061L90.049,78.541L91.077,76.368L91.694,72.675L91.283,69.416L97.66,65.723L99.923,62.898L104.037,62.464L106.3,61.16L107.945,58.118L106.711,56.38L110.208,54.207L111.854,53.121L114.939,54.207L116.585,52.034L119.876,51.599L122.345,48.557L125.431,48.34L127.282,45.515L130.985,45.95L133.659,43.777L135.51,44.429L143.533,48.123L144.561,47.688L144.15,46.602L145.59,45.515L147.647,47.471L151.556,48.34L154.23,47.254L155.67,46.167L158.138,45.95L158.344,47.471L159.784,46.384L171.715,39.648L176.652,41.604L178.298,39.43L181.795,39.213L190.846,35.519L192.286,35.519L193.932,34.432L194.754,35.519L195.372,38.344L200.103,39.648L199.486,40.952L201.543,40.952L203.394,43.125L205.863,43.342L206.686,41.821L211.828,42.473L216.971,41.821L219.645,41.386L223.554,39.648L223.965,37.257L223.759,36.605L223.554,34.432L224.171,32.476L224.994,29.216L226.845,27.26L227.668,27.26L228.079,24.435L230.753,24L231.782,26.173L236.925,26.608L238.159,26.825L237.748,30.52L241.862,33.997L240.833,36.823L242.685,41.169L245.153,43.777Z" fill="none" stroke="rgba(255,255,255,0.9)" stroke-width="2"/>
</svg>