<?xml version="1.0" encoding="UTF-8"?>
<svg viewBox="0 0 400 400" xmlns="http://www.w3.org/2000/svg" role="img" aria-label="Huehuetenango">
  <defs>
    <clipPath id="c"><path d="M227.063,52.133L227.184,52.005L235.055,52.005L235.176,52.005L265.326,52.519L267.385,52.519L267.143,52.648L331.561,53.677L345.244,53.934L350.814,53.806L355.778,53.677L356.989,53.677L370.551,53.42L375.879,53.548L376,53.548L376,53.934L374.305,57.151L338.705,125.553L333.014,134.934L307.465,182.071L305.406,181.301L303.348,181.558L302.863,184.767L299.715,185.281L298.625,186.308L296.325,191.058L293.54,193.369L291.966,194.909L290.513,194.524L287.728,195.038L285.064,195.166L279.736,200.686L279.615,202.483L283.49,204.408L280.826,207.488L277.798,210.312L273.076,212.622L270.896,215.445L269.686,218.653L268.354,222.887L268.233,227.635L268.838,230.586L268.475,231.484L268.959,232.895L268.838,234.434L268.959,241.49L267.385,242.901L267.627,245.595L268.475,248.288L274.408,256.881L278.404,259.446L288.212,269.32L292.208,269.32L296.93,269.448L311.34,268.294L313.277,269.833L314.73,272.653L318.726,273.551L315.214,277.525L313.519,280.987L309.16,285.73L307.465,291.498L307.344,296.881L306.012,300.983L303.711,301.495L296.688,301.239L292.934,301.752L288.454,303.802L283.005,306.878L280.22,304.571L277.435,303.033L275.377,302.905L271.986,304.443L270.049,305.34L265.69,305.724L264.358,307.903L266.174,312.9L265.326,314.694L264.842,315.719L264.6,316.488L263.873,317.641L260.12,317.897L259.272,317.513L257.94,318.41L256.729,318.794L255.518,319.05L253.702,320.204L252.37,321.741L251.644,322.766L250.917,323.278L250.433,324.431L249.948,324.56L248.859,324.816L247.527,324.944L245.468,348L221.856,349.025L208.173,345.439L205.631,326.609L190.737,320.716L188.921,319.563L187.225,317.897L185.772,317.897L174.511,317.513L172.816,314.95L162.039,299.317L156.469,295.6L151.384,289.447L148.841,285.345L146.056,284.704L142.181,283.551L141.697,282.91L138.548,282.653L138.064,283.551L137.58,284.063L136.006,284.32L131.646,283.294L122.444,287.909L113.725,288.165L96.289,277.654L78.489,291.114L73.282,290.985L67.107,298.035L57.662,308.159L56.815,308.928L36.835,304.315L35.745,267.653L28.48,265.088L27.512,264.062L24.242,259.574L24,259.446L24.727,258.292L25.453,257.138L25.211,256.753L31.871,245.851L34.171,242.26L36.351,238.54L36.593,238.54L56.451,204.151L60.81,196.578L64.201,190.673L65.049,189.132L65.17,189.004L66.259,187.207L67.591,184.896L68.318,183.484L72.677,175.78L76.067,169.744L86.36,151.506L86.844,150.736L89.024,146.753L93.141,139.43L95.926,134.548L96.41,133.649L96.652,133.392L102.828,122.341L102.949,122.598L103.191,122.212L105.492,117.971L105.734,117.714L115.421,100.489L126.197,81.331L129.588,76.445L137.822,61.396L142.06,53.677L143.271,51.49L143.392,51.361L143.392,51.233L145.329,51.233L148.356,50.975L149.809,51.233L150.778,51.49L167.609,51.49L197.397,51.876L197.639,51.876L212.29,52.133L212.411,52.133Z"/></clipPath>
    <pattern id="mesh" width="14" height="14" patternUnits="userSpaceOnUse">
      <path d="M0 14 L14 0 M-2 2 L2 -2 M12 16 L16 12" stroke="rgba(255,255,255,0.2)" stroke-width="0.6" fill="none"/>
    </pattern>
  </defs>
  <g clip-path="url(#c)">
    <rect width="400" height="400" fill="url(#mesh)"/>
    <path d="M227.063,52.133L227.184,52.005L235.055,52.005L235.176,52.005L265.326,52.519L267.385,52.519L267.143,52.648L331.561,53.677L345.244,53.934L350.814,53.806L355.778,53.677L356.989,53.677L370.551,53.42L375.879,53.548L376,53.548L376,53.934L374.305,57.151L338.705,125.553L333.014,134.934L307.465,182.071L305.406,181.301L303.348,181.558L302.863,184.767L299.715,185.281L298.625,186.308L296.325,191.058L293.54,193.369L291.966,194.909L290.513,194.524L287.728,195.038L285.064,195.166L279.736,200.686L279.615,202.483L283.49,204.408L280.826,207.488L277.798,210.312L273.076,212.622L270.896,215.445L269.686,218.653L268.354,222.887L268.233,227.635L268.838,230.586L268.475,231.484L268.959,232.895L268.838,234.434L268.959,241.49L267.385,242.901L267.627,245.595L268.475,248.288L274.408,256.881L278.404,259.446L288.212,269.32L292.208,269.32L296.93,269.448L311.34,268.294L313.277,269.833L314.73,272.653L318.726,273.551L315.214,277.525L313.519,280.987L309.16,285.73L307.465,291.498L307.344,296.881L306.012,300.983L303.711,301.495L296.688,301.239L292.934,301.752L288.454,303.802L283.005,306.878L280.22,304.571L277.435,303.033L275.377,302.905L271.986,304.443L270.049,305.34L265.69,305.724L264.358,307.903L266.174,312.9L265.326,314.694L264.842,315.719L264.6,316.488L263.873,317.641L260.12,317.897L259.272,317.513L257.94,318.41L256.729,318.794L255.518,319.05L253.702,320.204L252.37,321.741L251.644,322.766L250.917,323.278L250.433,324.431L249.948,324.56L248.859,324.816L247.527,324.944L245.468,348L221.856,349.025L208.173,345.439L205.631,326.609L190.737,320.716L188.921,319.563L187.225,317.897L185.772,317.897L174.511,317.513L172.816,314.95L162.039,299.317L156.469,295.6L151.384,289.447L148.841,285.345L146.056,284.704L142.181,283.551L141.697,282.91L138.548,282.653L138.064,283.551L137.58,284.063L136.006,284.32L131.646,283.294L122.444,287.909L113.725,288.165L96.289,277.654L78.489,291.114L73.282,290.985L67.107,298.035L57.662,308.159L56.815,308.928L36.835,304.315L35.745,267.653L28.48,265.088L27.512,264.062L24.242,259.574L24,259.446L24.727,258.292L25.453,257.138L25.211,256.753L31.871,245.851L34.171,242.26L36.351,238.54L36.593,238.54L56.451,204.151L60.81,196.578L64.201,190.673L65.049,189.132L65.17,189.004L66.259,187.207L67.591,184.896L68.318,183.484L72.677,175.78L76.067,169.744L86.36,151.506L86.844,150.736L89.024,146.753L93.141,139.43L95.926,134.548L96.41,133.649L96.652,133.392L102.828,122.341L102.949,122.598L103.191,122.212L105.492,117.971L105.734,117.714L115.421,100.489L126.197,81.331L129.588,76.445L137.822,61.396L142.06,53.677L143.271,51.49L143.392,51.361L143.392,51.233L145.329,51.233L148.356,50.975L149.809,51.233L150.778,51.49L167.609,51.49L197.397,51.876L197.639,51.876L212.29,52.133L212.411,52.133Z" fill="rgba(180,200,195,0.35)"/>
  </g>
  <path d="M227.063,52.133L227.184,52.005L235.055,52.005L235.176,52.005L265.326,52.519L267.385,52.519L267.143,52.648L331.561,53.677L345.244,53.934L350.814,53.806L355.778,53.677L356.989,53.677L370.551,53.42L375.879,53.548L376,53.548L376,53.934L374.305,57.151L338.705,125.553L333.014,134.934L307.465,182.071L305.406,181.301L303.348,181.558L302.863,184.767L299.715,185.281L298.625,186.308L296.325,191.058L293.54,193.369L291.966,194.909L290.513,194.524L287.728,195.038L285.064,195.166L279.736,200.686L279.615,202.483L283.49,204.408L280.826,207.488L277.798,210.312L273.076,212.622L270.896,215.445L269.686,218.653L268.354,222.887L268.233,227.635L268.838,230.586L268.475,231.484L268.959,232.895L268.838,234.434L268.959,241.49L267.385,242.901L267.627,245.595L268.475,248.288L274.408,256.881L278.404,259.446L288.212,269.32L292.208,269.32L296.93,269.448L311.34,268.294L313.277,269.833L314.73,272.653L318.726,273.551L315.214,277.525L313.519,280.987L309.16,285.73L307.465,291.498L307.344,296.881L306.012,300.983L303.711,301.495L296.688,301.239L292.934,301.752L288.454,303.802L283.005,306.878L280.22,304.571L277.435,303.033L275.377,302.905L271.986,304.443L270.049,305.34L265.69,305.724L264.358,307.903L266.174,312.9L265.326,314.694L264.842,315.719L264.6,316.488L263.873,317.641L260.12,317.897L259.272,317.513L257.94,318.41L256.729,318.794L255.518,319.05L253.702,320.204L252.37,321.741L251.644,322.766L250.917,323.278L250.433,324.431L249.948,324.56L248.859,324.816L247.527,324.944L245.468,348L221.856,349.025L208.173,345.439L205.631,326.609L190.737,320.716L188.921,319.563L187.225,317.897L185.772,317.897L174.511,317.513L172.816,314.95L162.039,299.317L156.469,295.6L151.384,289.447L148.841,285.345L146.056,284.704L142.181,283.551L141.697,282.91L138.548,282.653L138.064,283.551L137.58,284.063L136.006,284.32L131.646,283.294L122.444,287.909L113.725,288.165L96.289,277.654L78.489,291.114L73.282,290.985L67.107,298.035L57.662,308.159L56.815,308.928L36.835,304.315L35.745,267.653L28.48,265.088L27.512,264.062L24.242,259.574L24,259.446L24.727,258.292L25.453,257.138L25.211,256.753L31.871,245.851L34.171,242.26L36.351,238.54L36.593,238.54L56.451,204.151L60.81,196.578L64.201,190.673L65.049,189.132L65.17,189.004L66.259,187.207L67.591,184.896L68.318,183.484L72.677,175.78L76.067,169.744L86.36,151.506L86.844,150.736L89.024,146.753L93.141,139.43L95.926,134.548L96.41,133.649L96.652,133.392L102.828,122.341L102.949,122.598L103.191,122.212L105.492,117.971L105.734,117.714L115.421,100.489L126.197,81.331L129.588,76.445L137.822,61.396L142.06,53.677L143.271,51.49L143.392,51.361L143.392,51.233L145.329,51.233L148.356,50.975L149.809,51.233L150.778,51.49L167.609,51.49L197.397,51.876L197.639,51.876L212.29,52.133L212.411,52.133Z" fill="none" stroke="rgba(255,255,255,0.9)" stroke-width="2"/>
</svg>