<?xml version="1.0" encoding="UTF-8"?>
<svg viewBox="0 0 400 400" xmlns="http://www.w3.org/2000/svg" role="img" aria-label="Jalapa">
  <defs>
    <clipPath id="c"><path d="M259.039,74.336L258.592,78.824L257.25,82.131L253.001,85.202L245.174,87.564L243.161,88.981L270.445,102.207L279.39,101.499L304.884,152.739L329.037,148.017L340.219,153.683L343.126,151.323L344.02,150.378L347.151,149.198L349.164,148.726L351.624,146.601L354.084,143.768L356.097,140.934L358.333,138.573L363.7,138.573L368.844,139.754L369.738,144.004L371.975,146.837L370.856,149.434L369.738,154.864L369.515,158.641L369.067,161.71L368.62,165.251L368.844,168.792L371.975,169.028L376,168.083L375.776,170.444L374.882,186.494L374.658,196.406L371.751,200.89L369.515,204.194L369.962,207.498L367.278,212.217L367.502,215.285L368.62,218.824L354.307,252.09L354.307,253.977L354.531,255.393L354.307,258.695L355.202,261.526L357.215,261.997L358.78,262.233L359.898,266.243L361.017,268.13L362.135,270.253L363.253,272.376L364.371,276.385L351.177,282.989L318.526,296.431L318.302,294.78L316.513,293.365L315.842,293.837L315.395,294.544L306.226,293.13L304.661,293.365L303.543,294.073L301.083,294.073L298.846,295.252L296.61,294.78L295.715,293.601L297.057,291.95L297.504,291.007L295.715,290.064L293.703,290.064L293.032,290.535L289.677,289.121L288.112,285.583L285.652,282.281L284.534,280.395L280.732,278.508L281.179,277.8L280.285,276.621L278.719,277.8L277.825,277.8L276.036,278.508L273.799,279.215L271.339,284.876L270.445,286.998L265.301,291.715L263.959,293.837L263.288,301.855L257.921,304.684L254.79,305.156L249.647,303.977L244.503,307.985L241.596,322.604L238.465,321.425L238.465,321.189L220.798,308.457L193.291,313.644L190.831,315.531L189.936,315.295L189.713,317.417L189.936,319.775L189.042,324.726L187.7,326.612L153.037,327.79L149.459,324.018L132.463,313.88L117.032,303.977L115.466,290.771L113.006,290.535L98.917,286.998L48.152,299.261L42.785,303.505L35.182,297.138L37.642,282.517L35.629,282.046L35.405,279.687L34.287,279.687L31.827,282.517L24,277.093L32.274,259.639L38.76,258.931L34.287,251.382L29.591,227.791L42.338,217.173L52.402,209.622L55.085,209.386L56.427,208.678L57.321,207.97L59.558,201.362L59.558,196.878L58.663,193.574L60.452,191.45L62.241,189.326L65.372,185.55L71.858,201.362L72.752,199.238L72.529,193.338L72.976,190.742L73.647,188.146L74.541,185.314L76.33,183.426L77.001,179.177L77.449,175.873L78.119,168.555L118.374,161.71L129.332,165.723L138.724,164.779L151.919,141.407L187.253,130.309L197.54,114.724L204.249,104.569L214.983,101.263L221.245,92.996L223.258,90.871L228.849,85.438L249.87,72.21L251.212,73.154L255.909,74.572Z"/></clipPath>
    <pattern id="mesh" width="14" height="14" patternUnits="userSpaceOnUse">
      <path d="M0 14 L14 0 M-2 2 L2 -2 M12 16 L16 12" stroke="rgba(255,255,255,0.2)" stroke-width="0.6" fill="none"/>
    </pattern>
  </defs>
  <g clip-path="url(#c)">
    <rect width="400" height="400" fill="url(#mesh)"/>
    <path d="M259.039,74.336L258.592,78.824L257.25,82.131L253.001,85.202L245.174,87.564L243.161,88.981L270.445,102.207L279.39,101.499L304.884,152.739L329.037,148.017L340.219,153.683L343.126,151.323L344.02,150.378L347.151,149.198L349.164,148.726L351.624,146.601L354.084,143.768L356.097,140.934L358.333,138.573L363.7,138.573L368.844,139.754L369.738,144.004L371.975,146.837L370.856,149.434L369.738,154.864L369.515,158.641L369.067,161.71L368.62,165.251L368.844,168.792L371.975,169.028L376,168.083L375.776,170.444L374.882,186.494L374.658,196.406L371.751,200.89L369.515,204.194L369.962,207.498L367.278,212.217L367.502,215.285L368.62,218.824L354.307,252.09L354.307,253.977L354.531,255.393L354.307,258.695L355.202,261.526L357.215,261.997L358.78,262.233L359.898,266.243L361.017,268.13L362.135,270.253L363.253,272.376L364.371,276.385L351.177,282.989L318.526,296.431L318.302,294.78L316.513,293.365L315.842,293.837L315.395,294.544L306.226,293.13L304.661,293.365L303.543,294.073L301.083,294.073L298.846,295.252L296.61,294.78L295.715,293.601L297.057,291.95L297.504,291.007L295.715,290.064L293.703,290.064L293.032,290.535L289.677,289.121L288.112,285.583L285.652,282.281L284.534,280.395L280.732,278.508L281.179,277.8L280.285,276.621L278.719,277.8L277.825,277.8L276.036,278.508L273.799,279.215L271.339,284.876L270.445,286.998L265.301,291.715L263.959,293.837L263.288,301.855L257.921,304.684L254.79,305.156L249.647,303.977L244.503,307.985L241.596,322.604L238.465,321.425L238.465,321.189L220.798,308.457L193.291,313.644L190.831,315.531L189.936,315.295L189.713,317.417L189.936,319.775L189.042,324.726L187.7,326.612L153.037,327.79L149.459,324.018L132.463,313.88L117.032,303.977L115.466,290.771L113.006,290.535L98.917,286.998L48.152,299.261L42.785,303.505L35.182,297.138L37.642,282.517L35.629,282.046L35.405,279.687L34.287,279.687L31.827,282.517L24,277.093L32.274,259.639L38.76,258.931L34.287,251.382L29.591,227.791L42.338,217.173L52.402,209.622L55.085,209.386L56.427,208.678L57.321,207.97L59.558,201.362L59.558,196.878L58.663,193.574L60.452,191.45L62.241,189.326L65.372,185.55L71.858,201.362L72.752,199.238L72.529,193.338L72.976,190.742L73.647,188.146L74.541,185.314L76.33,183.426L77.001,179.177L77.449,175.873L78.119,168.555L118.374,161.71L129.332,165.723L138.724,164.779L151.919,141.407L187.253,130.309L197.54,114.724L204.249,104.569L214.983,101.263L221.245,92.996L223.258,90.871L228.849,85.438L249.87,72.21L251.212,73.154L255.909,74.572Z" fill="rgba(180,200,195,0.35)"/>
  </g>
  <path d="M259.039,74.336L258.592,78.824L257.25,82.131L253.001,85.202L245.174,87.564L243.161,88.981L270.445,102.207L279.39,101.499L304.884,152.739L329.037,148.017L340.219,153.683L343.126,151.323L344.02,150.378L347.151,149.198L349.164,148.726L351.624,146.601L354.084,143.768L356.097,140.934L358.333,138.573L363.7,138.573L368.844,139.754L369.738,144.004L371.975,146.837L370.856,149.434L369.738,154.864L369.515,158.641L369.067,161.71L368.62,165.251L368.844,168.792L371.975,169.028L376,168.083L375.776,170.444L374.882,186.494L374.658,196.406L371.751,200.89L369.515,204.194L369.962,207.498L367.278,212.217L367.502,215.285L368.62,218.824L354.307,252.09L354.307,253.977L354.531,255.393L354.307,258.695L355.202,261.526L357.215,261.997L358.78,262.233L359.898,266.243L361.017,268.13L362.135,270.253L363.253,272.376L364.371,276.385L351.177,282.989L318.526,296.431L318.302,294.78L316.513,293.365L315.842,293.837L315.395,294.544L306.226,293.13L304.661,293.365L303.543,294.073L301.083,294.073L298.846,295.252L296.61,294.78L295.715,293.601L297.057,291.95L297.504,291.007L295.715,290.064L293.703,290.064L293.032,290.535L289.677,289.121L288.112,285.583L285.652,282.281L284.534,280.395L280.732,278.508L281.179,277.8L280.285,276.621L278.719,277.8L277.825,277.8L276.036,278.508L273.799,279.215L271.339,284.876L270.445,286.998L265.301,291.715L263.959,293.837L263.288,301.855L257.921,304.684L254.79,305.156L249.647,303.977L244.503,307.985L241.596,322.604L238.465,321.425L238.465,321.189L220.798,308.457L193.291,313.644L190.831,315.531L189.936,315.295L189.713,317.417L189.936,319.775L189.042,324.726L187.7,326.612L153.037,327.79L149.459,324.018L132.463,313.88L117.032,303.977L115.466,290.771L113.006,290.535L98.917,286.998L48.152,299.261L42.785,303.505L35.182,297.138L37.642,282.517L35.629,282.046L35.405,279.687L34.287,279.687L31.827,282.517L24,277.093L32.274,259.639L38.76,258.931L34.287,251.382L29.591,227.791L42.338,217.173L52.402,209.622L55.085,209.386L56.427,208.678L57.321,207.97L59.558,201.362L59.558,196.878L58.663,193.574L60.452,191.45L62.241,189.326L65.372,185.55L71.858,201.362L72.752,199.238L72.529,193.338L72.976,190.742L73.647,188.146L74.541,185.314L76.33,183.426L77.001,179.177L77.449,175.873L78.119,168.555L118.374,161.71L129.332,165.723L138.724,164.779L151.919,141.407L187.253,130.309L197.54,114.724L204.249,104.569L214.983,101.263L221.245,92.996L223.258,90.871L228.849,85.438L249.87,72.21L251.212,73.154L255.909,74.572Z" fill="none" stroke="rgba(255,255,255,0.9)" stroke-width="2"/>
</svg>