<?xml version="1.0" encoding="UTF-8"?>
<svg viewBox="0 0 400 400" xmlns="http://www.w3.org/2000/svg" role="img" aria-label="Jutiapa">
  <defs>
    <clipPath id="c"><path d="M47.65,347.657L47.484,347.657L47.484,347.831L47.153,347.831L47.153,348.005L46.822,348.005L46.822,347.831L46.657,347.831L46.657,347.657L46.161,347.657L45.665,347.657L45.665,347.309L45.499,347.309L45.499,346.787L45.334,346.787L45.334,346.614L45.168,346.614L45.168,346.266L45.499,346.44L46.657,346.961L47.484,347.483ZM53.439,349.918L53.439,350.092L53.935,350.092L53.935,350.266L54.432,350.266L54.432,350.44L54.597,350.44L54.597,350.613L54.763,350.613L54.763,350.787L54.763,350.961L54.928,350.961L55.093,350.961L55.093,351.135L55.259,351.135L55.259,351.309L56.251,351.309L56.417,351.309L56.417,351.657L56.582,351.657L56.582,352.352L56.251,352.352L56.251,352.526L55.92,352.526L55.92,352.352L55.755,352.352L55.755,352.526L55.093,352.526L55.093,352.352L54.432,352.352L54.432,352.179L54.266,352.179L53.935,352.179L53.935,352.005L53.605,352.005L53.605,351.831L53.108,351.831L53.108,351.657L52.778,351.657L52.447,351.657L52.447,351.309L52.281,351.309L51.785,351.309L51.785,351.135L51.62,351.135L51.62,350.961L51.454,350.961L51.289,350.961L51.289,350.787L50.958,350.787L50.958,350.613L50.462,350.613L50.462,350.44L50.131,350.44L50.131,350.266L49.965,350.266L49.8,350.266L49.8,350.092L49.635,350.092L49.635,349.918L49.304,349.918L48.642,349.918L48.642,349.744L48.311,349.744L48.311,349.57L47.65,349.57L47.65,349.396L47.319,349.396L47.319,349.222L47.153,349.222L46.988,349.222L46.988,349.048L46.822,349.048L46.822,348.874L46.492,348.874L46.492,348.7L45.995,348.7L45.665,348.7L45.665,348.527L45.499,348.527L45.499,348.353L45.003,348.353L45.003,348.179L44.837,348.179L44.837,348.005L44.507,348.005L44.341,348.005L44.341,347.831L44.176,347.831L44.176,346.961L44.176,346.266L44.507,346.266L44.507,346.614L44.837,346.614L44.837,347.135L45.003,347.135L45.003,347.309L45.168,347.309L45.168,347.483L45.334,347.483L45.334,347.657L45.499,347.657L45.499,347.831L45.665,347.831L45.665,348.005L45.995,348.005L46.161,348.005L46.161,348.179L46.988,348.179L48.311,348.179L48.311,348.353L48.642,348.353L48.642,348.527L48.973,348.527L48.973,348.7L49.138,348.7L49.304,348.7L49.304,348.874L50.131,348.874L50.131,349.048L50.958,349.048L50.958,348.874L51.289,348.874L51.289,348.7L52.447,348.7L52.447,348.874L52.447,349.222L52.612,349.222L52.612,349.396L52.778,349.396L52.778,349.57L52.778,349.744L52.943,349.744L52.943,349.918L53.108,349.918ZM348.546,45.285L356.155,44.937L358.306,47.379L357.313,50.344L362.606,52.263L360.952,53.659L360.291,54.531L364.095,57.322L366.08,58.543L365.915,60.636L365.253,61.334L366.08,62.729L366.576,63.95L365.419,67.787L366.08,69.182L365.419,73.019L363.434,75.112L361.448,76.333L358.802,77.728L357.809,78.774L359.298,82.436L360.456,83.831L361.118,85.75L361.779,86.796L362.441,88.54L364.261,90.283L364.922,91.155L360.291,95.165L358.471,97.606L357.644,98.827L357.313,99.001L355.328,98.653L354.666,99.524L351.358,98.478L352.185,95.514L352.681,94.642L353.012,93.422L352.185,92.027L351.193,90.458L351.193,89.76L350.2,88.888L349.538,87.842L348.877,86.447L349.538,85.401L349.538,84.703L335.974,85.052L334.154,88.888L333.989,90.981L333.989,91.155L333.658,95.514L334.32,99.873L335.478,103.883L334.816,105.801L339.448,109.811L340.109,112.251L338.29,112.774L336.967,112.948L336.967,114.343L336.801,115.912L335.643,116.784L332.666,116.609L330.681,117.481L329.026,122.536L328.861,125.151L329.192,125.674L328.696,127.591L328.696,129.16L328.861,129.857L329.026,129.857L330.184,129.682L332.831,127.417L334.816,128.114L336.139,128.114L337.297,128.114L338.952,127.939L340.275,128.114L341.598,128.811L342.425,129.682L342.756,130.728L343.583,131.077L343.418,132.471L344.245,132.82L345.568,132.994L346.065,134.04L346.726,134.563L347.719,135.26L348.546,136.654L348.546,138.048L347.719,140.14L347.553,140.14L347.057,140.662L347.057,140.488L346.395,139.617L345.403,139.443L345.237,139.268L346.561,143.799L346.892,144.148L352.02,151.119L356.486,162.619L357.148,162.096L357.148,161.051L357.644,161.225L358.636,161.748L358.636,163.142L356.982,164.535L356.817,165.407L355.99,168.717L355.493,169.24L354.501,169.937L351.027,171.853L344.741,173.769L335.809,178.299L324.891,179.518L315.462,178.299L311.988,178.473L309.176,179.17L301.567,183.177L297.266,185.615L297.101,185.79L297.266,186.661L292.469,191.19L289.326,193.976L289.161,194.151L279.897,202.685L277.25,204.601L273.777,211.045L269.31,222.538L269.145,223.757L268.318,227.065L264.017,236.467L265.837,238.905L265.175,240.297L264.679,241.516L265.671,244.998L268.318,246.565L267.822,249.176L265.671,248.654L265.34,248.654L265.671,250.046L265.009,250.046L260.047,250.221L257.4,249.524L257.069,249.35L256.242,249.524L251.611,249.35L249.956,249.524L248.468,247.435L246.979,247.435L246.152,246.043L245.821,243.953L245.159,243.431L244.001,243.257L241.851,240.82L241.189,240.82L239.37,240.646L238.708,239.427L236.723,239.079L235.4,237.86L234.242,237.512L232.587,236.99L230.768,237.164L229.941,237.86L229.279,237.86L227.129,237.86L226.302,238.382L225.971,238.731L223.986,239.079L223.159,239.601L222.166,239.601L219.85,240.297L218.031,241.864L216.376,244.302L215.88,244.998L215.88,245.172L215.549,245.346L214.391,246.217L213.564,246.043L213.399,246.043L212.406,246.217L210.256,245.172L206.617,245.868L203.143,246.043L201.82,245.868L200.331,247.261L200,248.48L198.18,249.35L198.346,250.917L198.18,251.091L196.526,254.921L194.707,258.924L193.714,259.446L191.398,260.491L191.067,261.535L190.406,261.361L190.075,261.187L188.09,262.057L187.924,262.057L186.932,263.624L186.436,265.886L184.947,265.886L184.781,266.061L184.285,266.409L183.954,266.757L183.458,268.497L182.631,269.716L181.142,270.412L180.15,271.282L178.661,272.152L177.834,272.326L177.172,272.326L175.683,272.674L174.856,272.152L174.526,272.674L174.691,273.022L175.518,274.763L175.022,275.981L173.698,276.851L172.21,277.895L172.044,277.895L171.879,277.373L170.059,278.765L169.232,278.94L168.901,278.94L168.736,279.462L168.405,280.158L167.082,281.202L166.42,281.028L166.255,281.55L164.104,281.724L163.277,282.42L162.615,281.898L161.954,282.942L160.63,283.464L159.307,283.638L157.818,284.334L156.495,285.9L155.337,286.596L155.006,288.163L153.848,288.511L153.021,288.337L152.69,289.207L150.374,290.077L150.209,290.077L150.044,290.251L148.886,290.425L148.389,291.121L148.059,291.643L146.074,291.469L145.908,293.557L146.074,296.689L145.577,298.429L143.427,299.299L142.931,299.473L142.765,300.343L143.758,302.779L144.089,305.736L143.096,307.302L142.931,307.302L142.765,307.998L142.6,308.694L142.104,309.042L141.938,309.042L139.457,310.782L131.186,312.173L130.524,312.869L130.524,313.043L130.855,314.261L130.028,314.609L129.532,315.827L124.238,317.392L123.742,318.262L123.411,319.306L122.915,321.219L122.088,322.437L121.261,323.481L120.268,323.655L119.276,325.568L117.622,329.395L115.471,332.004L113.155,333.569L111.667,334.787L111.667,334.961L111.832,337.048L112.659,339.483L112.824,341.048L113.652,343.135L113.817,344.005L112.824,344.874L113.155,346.44L111.832,347.657L111.832,347.831L111.832,348.005L111.17,348.874L110.674,349.048L110.839,350.092L110.509,350.44L109.681,351.135L109.185,359.134L110.012,360.352L113.155,359.482L113.817,360.873L116.794,365.742L116.96,366.09L117.125,366.611L117.456,366.785L119.441,366.959L119.772,368.002L119.11,369.567L117.291,369.915L116.464,372.175L115.14,374.783L113.982,375.652L112.328,376L107.862,373.914L106.042,374.261L105.381,374.609L105.215,374.609L105.215,374.435L104.884,374.435L104.884,374.261L104.554,374.261L104.554,374.088L103.892,374.088L103.892,373.914L103.561,373.914L103.396,373.914L103.396,373.74L103.396,373.566L103.23,373.566L103.065,373.566L103.065,373.392L102.899,373.392L102.899,373.218L102.734,373.218L102.734,372.697L102.899,372.697L102.899,372.523L102.899,372.349L102.734,372.349L102.734,372.175L102.568,372.175L102.403,372.175L102.403,372.001L101.411,372.001L101.411,371.827L101.08,371.827L101.08,372.001L100.749,372.001L100.749,372.175L100.583,372.175L100.087,372.175L99.922,372.175L99.922,372.001L99.591,372.001L99.591,371.827L99.26,371.827L99.095,371.827L99.095,371.653L98.764,371.653L98.764,371.48L98.598,371.48L98.598,371.306L98.433,371.306L98.102,371.306L98.102,371.132L97.606,371.132L97.606,370.958L97.275,370.958L97.275,370.784L96.944,370.784L96.944,370.61L96.613,370.61L96.448,370.61L96.448,370.436L96.283,370.436L96.283,370.263L96.117,370.263L96.117,370.089L95.455,370.089L95.455,369.915L95.29,369.915L94.794,369.915L94.794,369.741L94.628,369.741L94.628,369.567L94.463,369.567L94.298,369.567L94.298,369.393L93.801,369.393L93.801,369.219L93.47,369.219L93.305,369.219L93.305,369.045L93.14,369.045L93.14,368.872L92.809,368.872L92.478,368.872L92.478,368.698L92.478,368.524L92.147,368.524L92.147,368.35L91.982,368.35L91.651,368.35L91.651,368.176L91.32,368.176L91.32,368.002L91.155,368.002L90.989,368.002L90.989,367.828L90.658,367.828L90.658,367.654L90.493,367.654L90.493,367.481L90.162,367.481L90.162,367.307L89.831,367.307L89.831,367.133L89.666,367.133L89.666,366.959L89.17,366.959L88.839,366.959L88.839,366.785L88.673,366.785L88.673,366.611L88.342,366.611L87.846,366.611L87.846,366.437L87.681,366.437L87.681,366.263L87.515,366.263L87.35,366.263L87.35,366.09L87.185,366.09L87.185,365.916L86.854,365.916L86.854,365.742L86.688,365.742L86.523,365.742L86.523,365.568L86.192,365.568L86.192,365.394L86.027,365.394L85.2,365.394L85.2,365.22L85.034,365.22L85.034,365.046L84.869,365.046L84.703,365.046L84.703,364.872L84.538,364.872L84.538,364.699L84.372,364.699L83.711,364.699L83.711,364.525L83.38,364.525L83.38,364.351L83.049,364.351L83.049,364.177L82.884,364.177L82.884,364.003L82.553,364.003L82.387,364.003L82.387,363.829L81.891,363.829L81.891,363.655L81.56,363.655L81.395,363.655L81.395,363.481L80.899,363.481L80.899,363.308L80.733,363.308L80.733,363.481L80.733,363.308L80.402,363.308L79.906,363.308L79.906,363.134L79.575,363.134L79.575,362.96L79.41,362.96L79.41,362.786L79.244,362.786L79.079,362.786L79.079,362.612L78.914,362.612L78.914,362.438L78.417,362.438L78.087,362.438L78.087,362.264L77.921,362.264L77.921,362.09L77.756,362.09L77.259,362.09L77.259,361.916L76.929,361.916L76.929,361.743L76.763,361.743L76.598,361.743L76.598,361.569L76.267,361.569L76.267,361.395L75.936,361.395L75.771,361.395L75.771,361.221L75.605,361.221L75.605,361.047L75.44,361.047L75.274,361.047L75.274,360.873L75.109,360.873L75.109,360.699L74.778,360.699L74.282,360.699L74.282,360.525L73.951,360.525L73.951,360.352L73.786,360.352L73.62,360.352L73.62,360.178L73.786,360.178L73.786,360.004L73.951,360.004L73.951,360.178L74.447,360.178L74.447,360.352L74.778,360.352L74.778,360.525L75.109,360.525L75.109,360.699L75.274,360.699L75.44,360.699L75.44,360.873L75.771,360.873L75.771,361.047L76.267,361.047L76.432,361.047L76.432,361.221L76.763,361.221L76.763,361.395L77.094,361.395L78.087,361.395L78.252,361.395L78.252,361.221L78.583,361.221L78.583,361.047L78.748,361.047L78.748,360.873L78.583,360.873L78.583,360.699L78.087,360.699L77.59,360.699L77.425,360.699L77.425,360.873L77.259,360.873L77.259,360.699L76.929,360.699L76.598,360.699L76.598,360.525L76.267,360.525L76.267,360.352L75.936,360.352L75.771,360.352L75.771,360.004L75.605,360.004L75.605,359.83L75.44,359.83L75.44,359.656L75.109,359.656L75.109,359.482L74.613,359.482L74.282,359.482L74.282,359.308L74.282,359.134L73.62,359.134L73.62,359.308L73.124,359.308L73.124,359.134L72.959,359.134L72.793,359.134L72.793,358.96L72.793,358.787L72.628,358.787L72.628,358.613L72.462,358.613L72.462,358.439L72.131,358.439L71.635,358.439L71.635,358.265L71.304,358.265L71.304,358.091L70.974,358.091L70.643,358.091L70.643,357.917L70.477,357.917L70.477,358.091L70.312,358.091L70.312,358.613L70.146,358.613L70.146,358.787L69.485,358.787L69.485,358.613L68.989,358.613L68.989,358.439L68.823,358.439L68.658,358.439L68.658,358.265L68.327,358.265L68.327,358.091L68.161,358.091L67.831,358.091L67.831,357.917L67.5,357.917L67.5,357.743L67.169,357.743L67.169,357.569L67.004,357.569L67.004,357.395L66.342,357.395L66.342,357.222L66.011,357.222L66.011,357.048L65.68,357.048L65.68,356.874L65.515,356.874L65.184,356.874L65.184,356.7L64.853,356.7L64.853,356.526L64.522,356.526L64.357,356.526L64.357,356.352L63.861,356.352L63.861,356.178L63.695,356.178L63.695,356.004L63.033,356.004L63.033,355.83L62.703,355.83L62.372,355.83L62.372,355.656L62.206,355.656L62.206,355.483L62.041,355.483L61.876,355.483L61.876,355.309L61.876,355.135L61.214,355.135L60.718,355.135L60.718,354.961L60.387,354.961L60.387,354.787L60.221,354.787L60.056,354.787L60.056,354.613L59.725,354.613L59.725,354.439L59.56,354.439L59.56,354.265L59.394,354.265L59.394,354.091L59.229,354.091L59.229,353.918L58.898,353.918L58.567,353.918L58.567,353.744L58.567,353.57L58.402,353.57L58.236,353.57L58.236,353.396L58.236,353.222L58.567,353.222L58.733,353.222L58.733,353.396L59.063,353.396L59.063,353.57L59.394,353.57L60.387,353.57L60.387,353.744L60.718,353.744L60.718,353.918L60.883,353.918L60.883,354.439L61.048,354.439L61.048,354.613L61.214,354.613L61.214,354.787L61.545,354.787L61.876,354.787L61.876,354.961L62.206,354.961L62.206,354.787L62.041,354.787L61.876,354.787L61.876,354.613L61.876,354.265L61.71,354.265L61.545,354.265L61.545,353.918L61.379,353.918L61.214,353.918L61.214,353.744L61.048,353.744L61.048,353.57L60.883,353.57L60.718,353.57L60.718,353.396L60.387,353.396L60.387,353.222L60.056,353.222L60.056,353.048L59.725,353.048L59.56,353.048L59.56,352.874L59.229,352.874L59.063,352.874L58.898,352.874L58.733,352.874L58.733,352.7L58.567,352.7L58.567,352.526L58.402,352.526L58.402,352.179L58.236,352.179L58.236,352.005L58.071,352.005L58.071,351.831L57.905,351.831L57.905,351.657L57.409,351.657L56.913,351.657L56.913,351.483L56.913,351.309L56.582,351.309L56.417,351.309L56.417,351.135L56.251,351.135L56.251,350.961L55.755,350.961L55.424,350.961L55.424,350.787L55.259,350.787L55.259,350.613L55.093,350.613L55.093,350.44L54.928,350.44L54.928,350.266L54.763,350.266L54.763,350.092L54.763,349.918L54.432,349.918L53.439,349.918L53.439,349.57L53.274,349.57L53.274,349.048L53.108,349.048L53.108,348.7L52.943,348.7L52.778,348.7L52.778,348.527L52.447,348.527L52.447,348.353L51.289,348.353L51.289,348.527L51.123,348.527L51.123,348.7L50.131,348.7L50.131,348.527L49.965,348.527L49.965,348.353L49.8,348.353L49.635,348.353L49.635,348.005L49.469,348.005L49.138,348.005L49.138,347.831L48.973,347.831L48.973,347.657L49.138,347.657L50.296,348.005L50.792,348.353L51.785,348.179L51.95,347.831L50.958,347.309L50.462,347.135L48.642,346.266L48.642,346.092L48.477,345.048L49.8,345.048L49.965,344.353L49.138,343.135L49.138,342.787L49.138,342.266L49.138,341.396L48.642,340.353L48.477,338.787L47.815,336.178L47.815,334.439L49.304,333.569L50.131,332.7L50.627,331.482L51.454,330.96L55.093,329.395L55.755,328.177L56.251,325.568L55.92,323.655L55.755,320.872L56.251,320.176L56.913,319.306L56.748,317.914L56.086,316.349L54.597,315.653L54.432,314.783L53.935,311.478L53.605,311.478L52.447,311.304L51.62,309.738L52.116,308.868L53.274,306.258L53.108,304.518L55.259,300.865L52.943,298.603L52.447,297.907L52.778,296.341L53.274,294.775L52.447,294.253L51.62,294.775L50.462,294.775L49.635,292.165L45.499,292.861L44.672,291.469L43.845,289.033L42.852,287.119L41.364,285.9L40.206,284.334L39.379,281.898L37.559,278.591L37.063,277.199L36.07,276.329L35.739,275.285L36.236,274.241L37.394,272.152L37.394,270.934L36.236,268.149L35.078,266.409L35.905,265.016L35.078,264.494L33.589,262.405L33.424,259.794L35.905,259.794L44.341,261.013L55.093,262.753L62.206,262.928L62.868,263.45L66.011,266.235L70.808,269.019L79.079,272.152L84.042,273.022L90.162,272.326L93.967,272.848L94.959,273.544L96.117,274.415L96.779,275.459L96.779,277.025L96.448,278.417L95.29,280.332L96.283,280.854L106.869,266.235L108.854,264.494L108.854,263.102L106.208,259.794L107.2,259.272L109.02,248.132L109.185,243.779L107.862,238.556L115.967,235.597L124.404,238.905L129.697,225.672L135.156,210.871L134.329,208.955L133.336,210.174L123.411,195.718L124.073,194.499L125.727,195.022L126.554,193.976L128.539,193.28L128.705,191.364L127.05,188.751L127.381,188.228L128.705,187.706L129.366,187.009L131.02,187.009L131.351,186.661L126.058,178.822L126.389,178.647L125.893,178.125L91.982,156.695L79.41,155.126L74.944,155.475L73.455,154.604L71.47,151.816L73.455,148.156L72.628,145.542L72.959,143.277L72.462,141.534L71.966,139.791L71.801,138.223L73.455,135.783L74.944,132.471L74.778,130.205L74.282,127.939L74.778,126.894L76.598,125.674L98.764,118.352L103.065,121.316L105.05,121.49L107.2,122.187L107.035,122.013L108.854,121.839L109.351,118.352L106.208,112.251L119.441,113.297L130.524,100.919L131.682,99.873L133.171,98.304L137.637,81.041L163.277,80.169L164.27,78.774L164.931,75.112L164.766,73.368L164.931,71.798L165.593,71.973L167.413,70.578L187.759,66.741L200.827,76.158L200.827,76.333L203.143,77.205L205.293,66.392L209.098,63.427L212.903,64.299L215.219,63.95L219.189,61.857L219.685,55.926L220.677,54.356L224.482,50.868L225.144,49.298L226.963,45.111L228.617,44.588L229.941,44.064L230.602,44.064L231.76,43.192L232.422,44.064L232.091,44.588L234.903,45.983L235.73,47.379L237.55,49.821L238.708,52.438L241.189,53.484L241.685,53.135L243.174,53.135L244.498,53.833L244.167,54.531L243.174,55.752L243.836,56.624L245.49,56.973L247.144,56.101L248.964,56.101L249.791,55.578L250.949,55.403L257.731,56.45L258.062,55.926L258.558,55.578L259.882,56.624L260.047,57.845L284.198,47.902L293.958,43.018L293.131,40.052L292.304,38.482L291.476,36.911L290.649,35.516L306.199,24L316.455,29.06L314.47,46.158Z"/></clipPath>
    <pattern id="mesh" width="14" height="14" patternUnits="userSpaceOnUse">
      <path d="M0 14 L14 0 M-2 2 L2 -2 M12 16 L16 12" stroke="rgba(255,255,255,0.2)" stroke-width="0.6" fill="none"/>
    </pattern>
  </defs>
  <g clip-path="url(#c)">
    <rect width="400" height="400" fill="url(#mesh)"/>
    <path d="M47.65,347.657L47.484,347.657L47.484,347.831L47.153,347.831L47.153,348.005L46.822,348.005L46.822,347.831L46.657,347.831L46.657,347.657L46.161,347.657L45.665,347.657L45.665,347.309L45.499,347.309L45.499,346.787L45.334,346.787L45.334,346.614L45.168,346.614L45.168,346.266L45.499,346.44L46.657,346.961L47.484,347.483ZM53.439,349.918L53.439,350.092L53.935,350.092L53.935,350.266L54.432,350.266L54.432,350.44L54.597,350.44L54.597,350.613L54.763,350.613L54.763,350.787L54.763,350.961L54.928,350.961L55.093,350.961L55.093,351.135L55.259,351.135L55.259,351.309L56.251,351.309L56.417,351.309L56.417,351.657L56.582,351.657L56.582,352.352L56.251,352.352L56.251,352.526L55.92,352.526L55.92,352.352L55.755,352.352L55.755,352.526L55.093,352.526L55.093,352.352L54.432,352.352L54.432,352.179L54.266,352.179L53.935,352.179L53.935,352.005L53.605,352.005L53.605,351.831L53.108,351.831L53.108,351.657L52.778,351.657L52.447,351.657L52.447,351.309L52.281,351.309L51.785,351.309L51.785,351.135L51.62,351.135L51.62,350.961L51.454,350.961L51.289,350.961L51.289,350.787L50.958,350.787L50.958,350.613L50.462,350.613L50.462,350.44L50.131,350.44L50.131,350.266L49.965,350.266L49.8,350.266L49.8,350.092L49.635,350.092L49.635,349.918L49.304,349.918L48.642,349.918L48.642,349.744L48.311,349.744L48.311,349.57L47.65,349.57L47.65,349.396L47.319,349.396L47.319,349.222L47.153,349.222L46.988,349.222L46.988,349.048L46.822,349.048L46.822,348.874L46.492,348.874L46.492,348.7L45.995,348.7L45.665,348.7L45.665,348.527L45.499,348.527L45.499,348.353L45.003,348.353L45.003,348.179L44.837,348.179L44.837,348.005L44.507,348.005L44.341,348.005L44.341,347.831L44.176,347.831L44.176,346.961L44.176,346.266L44.507,346.266L44.507,346.614L44.837,346.614L44.837,347.135L45.003,347.135L45.003,347.309L45.168,347.309L45.168,347.483L45.334,347.483L45.334,347.657L45.499,347.657L45.499,347.831L45.665,347.831L45.665,348.005L45.995,348.005L46.161,348.005L46.161,348.179L46.988,348.179L48.311,348.179L48.311,348.353L48.642,348.353L48.642,348.527L48.973,348.527L48.973,348.7L49.138,348.7L49.304,348.7L49.304,348.874L50.131,348.874L50.131,349.048L50.958,349.048L50.958,348.874L51.289,348.874L51.289,348.7L52.447,348.7L52.447,348.874L52.447,349.222L52.612,349.222L52.612,349.396L52.778,349.396L52.778,349.57L52.778,349.744L52.943,349.744L52.943,349.918L53.108,349.918ZM348.546,45.285L356.155,44.937L358.306,47.379L357.313,50.344L362.606,52.263L360.952,53.659L360.291,54.531L364.095,57.322L366.08,58.543L365.915,60.636L365.253,61.334L366.08,62.729L366.576,63.95L365.419,67.787L366.08,69.182L365.419,73.019L363.434,75.112L361.448,76.333L358.802,77.728L357.809,78.774L359.298,82.436L360.456,83.831L361.118,85.75L361.779,86.796L362.441,88.54L364.261,90.283L364.922,91.155L360.291,95.165L358.471,97.606L357.644,98.827L357.313,99.001L355.328,98.653L354.666,99.524L351.358,98.478L352.185,95.514L352.681,94.642L353.012,93.422L352.185,92.027L351.193,90.458L351.193,89.76L350.2,88.888L349.538,87.842L348.877,86.447L349.538,85.401L349.538,84.703L335.974,85.052L334.154,88.888L333.989,90.981L333.989,91.155L333.658,95.514L334.32,99.873L335.478,103.883L334.816,105.801L339.448,109.811L340.109,112.251L338.29,112.774L336.967,112.948L336.967,114.343L336.801,115.912L335.643,116.784L332.666,116.609L330.681,117.481L329.026,122.536L328.861,125.151L329.192,125.674L328.696,127.591L328.696,129.16L328.861,129.857L329.026,129.857L330.184,129.682L332.831,127.417L334.816,128.114L336.139,128.114L337.297,128.114L338.952,127.939L340.275,128.114L341.598,128.811L342.425,129.682L342.756,130.728L343.583,131.077L343.418,132.471L344.245,132.82L345.568,132.994L346.065,134.04L346.726,134.563L347.719,135.26L348.546,136.654L348.546,138.048L347.719,140.14L347.553,140.14L347.057,140.662L347.057,140.488L346.395,139.617L345.403,139.443L345.237,139.268L346.561,143.799L346.892,144.148L352.02,151.119L356.486,162.619L357.148,162.096L357.148,161.051L357.644,161.225L358.636,161.748L358.636,163.142L356.982,164.535L356.817,165.407L355.99,168.717L355.493,169.24L354.501,169.937L351.027,171.853L344.741,173.769L335.809,178.299L324.891,179.518L315.462,178.299L311.988,178.473L309.176,179.17L301.567,183.177L297.266,185.615L297.101,185.79L297.266,186.661L292.469,191.19L289.326,193.976L289.161,194.151L279.897,202.685L277.25,204.601L273.777,211.045L269.31,222.538L269.145,223.757L268.318,227.065L264.017,236.467L265.837,238.905L265.175,240.297L264.679,241.516L265.671,244.998L268.318,246.565L267.822,249.176L265.671,248.654L265.34,248.654L265.671,250.046L265.009,250.046L260.047,250.221L257.4,249.524L257.069,249.35L256.242,249.524L251.611,249.35L249.956,249.524L248.468,247.435L246.979,247.435L246.152,246.043L245.821,243.953L245.159,243.431L244.001,243.257L241.851,240.82L241.189,240.82L239.37,240.646L238.708,239.427L236.723,239.079L235.4,237.86L234.242,237.512L232.587,236.99L230.768,237.164L229.941,237.86L229.279,237.86L227.129,237.86L226.302,238.382L225.971,238.731L223.986,239.079L223.159,239.601L222.166,239.601L219.85,240.297L218.031,241.864L216.376,244.302L215.88,244.998L215.88,245.172L215.549,245.346L214.391,246.217L213.564,246.043L213.399,246.043L212.406,246.217L210.256,245.172L206.617,245.868L203.143,246.043L201.82,245.868L200.331,247.261L200,248.48L198.18,249.35L198.346,250.917L198.18,251.091L196.526,254.921L194.707,258.924L193.714,259.446L191.398,260.491L191.067,261.535L190.406,261.361L190.075,261.187L188.09,262.057L187.924,262.057L186.932,263.624L186.436,265.886L184.947,265.886L184.781,266.061L184.285,266.409L183.954,266.757L183.458,268.497L182.631,269.716L181.142,270.412L180.15,271.282L178.661,272.152L177.834,272.326L177.172,272.326L175.683,272.674L174.856,272.152L174.526,272.674L174.691,273.022L175.518,274.763L175.022,275.981L173.698,276.851L172.21,277.895L172.044,277.895L171.879,277.373L170.059,278.765L169.232,278.94L168.901,278.94L168.736,279.462L168.405,280.158L167.082,281.202L166.42,281.028L166.255,281.55L164.104,281.724L163.277,282.42L162.615,281.898L161.954,282.942L160.63,283.464L159.307,283.638L157.818,284.334L156.495,285.9L155.337,286.596L155.006,288.163L153.848,288.511L153.021,288.337L152.69,289.207L150.374,290.077L150.209,290.077L150.044,290.251L148.886,290.425L148.389,291.121L148.059,291.643L146.074,291.469L145.908,293.557L146.074,296.689L145.577,298.429L143.427,299.299L142.931,299.473L142.765,300.343L143.758,302.779L144.089,305.736L143.096,307.302L142.931,307.302L142.765,307.998L142.6,308.694L142.104,309.042L141.938,309.042L139.457,310.782L131.186,312.173L130.524,312.869L130.524,313.043L130.855,314.261L130.028,314.609L129.532,315.827L124.238,317.392L123.742,318.262L123.411,319.306L122.915,321.219L122.088,322.437L121.261,323.481L120.268,323.655L119.276,325.568L117.622,329.395L115.471,332.004L113.155,333.569L111.667,334.787L111.667,334.961L111.832,337.048L112.659,339.483L112.824,341.048L113.652,343.135L113.817,344.005L112.824,344.874L113.155,346.44L111.832,347.657L111.832,347.831L111.832,348.005L111.17,348.874L110.674,349.048L110.839,350.092L110.509,350.44L109.681,351.135L109.185,359.134L110.012,360.352L113.155,359.482L113.817,360.873L116.794,365.742L116.96,366.09L117.125,366.611L117.456,366.785L119.441,366.959L119.772,368.002L119.11,369.567L117.291,369.915L116.464,372.175L115.14,374.783L113.982,375.652L112.328,376L107.862,373.914L106.042,374.261L105.381,374.609L105.215,374.609L105.215,374.435L104.884,374.435L104.884,374.261L104.554,374.261L104.554,374.088L103.892,374.088L103.892,373.914L103.561,373.914L103.396,373.914L103.396,373.74L103.396,373.566L103.23,373.566L103.065,373.566L103.065,373.392L102.899,373.392L102.899,373.218L102.734,373.218L102.734,372.697L102.899,372.697L102.899,372.523L102.899,372.349L102.734,372.349L102.734,372.175L102.568,372.175L102.403,372.175L102.403,372.001L101.411,372.001L101.411,371.827L101.08,371.827L101.08,372.001L100.749,372.001L100.749,372.175L100.583,372.175L100.087,372.175L99.922,372.175L99.922,372.001L99.591,372.001L99.591,371.827L99.26,371.827L99.095,371.827L99.095,371.653L98.764,371.653L98.764,371.48L98.598,371.48L98.598,371.306L98.433,371.306L98.102,371.306L98.102,371.132L97.606,371.132L97.606,370.958L97.275,370.958L97.275,370.784L96.944,370.784L96.944,370.61L96.613,370.61L96.448,370.61L96.448,370.436L96.283,370.436L96.283,370.263L96.117,370.263L96.117,370.089L95.455,370.089L95.455,369.915L95.29,369.915L94.794,369.915L94.794,369.741L94.628,369.741L94.628,369.567L94.463,369.567L94.298,369.567L94.298,369.393L93.801,369.393L93.801,369.219L93.47,369.219L93.305,369.219L93.305,369.045L93.14,369.045L93.14,368.872L92.809,368.872L92.478,368.872L92.478,368.698L92.478,368.524L92.147,368.524L92.147,368.35L91.982,368.35L91.651,368.35L91.651,368.176L91.32,368.176L91.32,368.002L91.155,368.002L90.989,368.002L90.989,367.828L90.658,367.828L90.658,367.654L90.493,367.654L90.493,367.481L90.162,367.481L90.162,367.307L89.831,367.307L89.831,367.133L89.666,367.133L89.666,366.959L89.17,366.959L88.839,366.959L88.839,366.785L88.673,366.785L88.673,366.611L88.342,366.611L87.846,366.611L87.846,366.437L87.681,366.437L87.681,366.263L87.515,366.263L87.35,366.263L87.35,366.09L87.185,366.09L87.185,365.916L86.854,365.916L86.854,365.742L86.688,365.742L86.523,365.742L86.523,365.568L86.192,365.568L86.192,365.394L86.027,365.394L85.2,365.394L85.2,365.22L85.034,365.22L85.034,365.046L84.869,365.046L84.703,365.046L84.703,364.872L84.538,364.872L84.538,364.699L84.372,364.699L83.711,364.699L83.711,364.525L83.38,364.525L83.38,364.351L83.049,364.351L83.049,364.177L82.884,364.177L82.884,364.003L82.553,364.003L82.387,364.003L82.387,363.829L81.891,363.829L81.891,363.655L81.56,363.655L81.395,363.655L81.395,363.481L80.899,363.481L80.899,363.308L80.733,363.308L80.733,363.481L80.733,363.308L80.402,363.308L79.906,363.308L79.906,363.134L79.575,363.134L79.575,362.96L79.41,362.96L79.41,362.786L79.244,362.786L79.079,362.786L79.079,362.612L78.914,362.612L78.914,362.438L78.417,362.438L78.087,362.438L78.087,362.264L77.921,362.264L77.921,362.09L77.756,362.09L77.259,362.09L77.259,361.916L76.929,361.916L76.929,361.743L76.763,361.743L76.598,361.743L76.598,361.569L76.267,361.569L76.267,361.395L75.936,361.395L75.771,361.395L75.771,361.221L75.605,361.221L75.605,361.047L75.44,361.047L75.274,361.047L75.274,360.873L75.109,360.873L75.109,360.699L74.778,360.699L74.282,360.699L74.282,360.525L73.951,360.525L73.951,360.352L73.786,360.352L73.62,360.352L73.62,360.178L73.786,360.178L73.786,360.004L73.951,360.004L73.951,360.178L74.447,360.178L74.447,360.352L74.778,360.352L74.778,360.525L75.109,360.525L75.109,360.699L75.274,360.699L75.44,360.699L75.44,360.873L75.771,360.873L75.771,361.047L76.267,361.047L76.432,361.047L76.432,361.221L76.763,361.221L76.763,361.395L77.094,361.395L78.087,361.395L78.252,361.395L78.252,361.221L78.583,361.221L78.583,361.047L78.748,361.047L78.748,360.873L78.583,360.873L78.583,360.699L78.087,360.699L77.59,360.699L77.425,360.699L77.425,360.873L77.259,360.873L77.259,360.699L76.929,360.699L76.598,360.699L76.598,360.525L76.267,360.525L76.267,360.352L75.936,360.352L75.771,360.352L75.771,360.004L75.605,360.004L75.605,359.83L75.44,359.83L75.44,359.656L75.109,359.656L75.109,359.482L74.613,359.482L74.282,359.482L74.282,359.308L74.282,359.134L73.62,359.134L73.62,359.308L73.124,359.308L73.124,359.134L72.959,359.134L72.793,359.134L72.793,358.96L72.793,358.787L72.628,358.787L72.628,358.613L72.462,358.613L72.462,358.439L72.131,358.439L71.635,358.439L71.635,358.265L71.304,358.265L71.304,358.091L70.974,358.091L70.643,358.091L70.643,357.917L70.477,357.917L70.477,358.091L70.312,358.091L70.312,358.613L70.146,358.613L70.146,358.787L69.485,358.787L69.485,358.613L68.989,358.613L68.989,358.439L68.823,358.439L68.658,358.439L68.658,358.265L68.327,358.265L68.327,358.091L68.161,358.091L67.831,358.091L67.831,357.917L67.5,357.917L67.5,357.743L67.169,357.743L67.169,357.569L67.004,357.569L67.004,357.395L66.342,357.395L66.342,357.222L66.011,357.222L66.011,357.048L65.68,357.048L65.68,356.874L65.515,356.874L65.184,356.874L65.184,356.7L64.853,356.7L64.853,356.526L64.522,356.526L64.357,356.526L64.357,356.352L63.861,356.352L63.861,356.178L63.695,356.178L63.695,356.004L63.033,356.004L63.033,355.83L62.703,355.83L62.372,355.83L62.372,355.656L62.206,355.656L62.206,355.483L62.041,355.483L61.876,355.483L61.876,355.309L61.876,355.135L61.214,355.135L60.718,355.135L60.718,354.961L60.387,354.961L60.387,354.787L60.221,354.787L60.056,354.787L60.056,354.613L59.725,354.613L59.725,354.439L59.56,354.439L59.56,354.265L59.394,354.265L59.394,354.091L59.229,354.091L59.229,353.918L58.898,353.918L58.567,353.918L58.567,353.744L58.567,353.57L58.402,353.57L58.236,353.57L58.236,353.396L58.236,353.222L58.567,353.222L58.733,353.222L58.733,353.396L59.063,353.396L59.063,353.57L59.394,353.57L60.387,353.57L60.387,353.744L60.718,353.744L60.718,353.918L60.883,353.918L60.883,354.439L61.048,354.439L61.048,354.613L61.214,354.613L61.214,354.787L61.545,354.787L61.876,354.787L61.876,354.961L62.206,354.961L62.206,354.787L62.041,354.787L61.876,354.787L61.876,354.613L61.876,354.265L61.71,354.265L61.545,354.265L61.545,353.918L61.379,353.918L61.214,353.918L61.214,353.744L61.048,353.744L61.048,353.57L60.883,353.57L60.718,353.57L60.718,353.396L60.387,353.396L60.387,353.222L60.056,353.222L60.056,353.048L59.725,353.048L59.56,353.048L59.56,352.874L59.229,352.874L59.063,352.874L58.898,352.874L58.733,352.874L58.733,352.7L58.567,352.7L58.567,352.526L58.402,352.526L58.402,352.179L58.236,352.179L58.236,352.005L58.071,352.005L58.071,351.831L57.905,351.831L57.905,351.657L57.409,351.657L56.913,351.657L56.913,351.483L56.913,351.309L56.582,351.309L56.417,351.309L56.417,351.135L56.251,351.135L56.251,350.961L55.755,350.961L55.424,350.961L55.424,350.787L55.259,350.787L55.259,350.613L55.093,350.613L55.093,350.44L54.928,350.44L54.928,350.266L54.763,350.266L54.763,350.092L54.763,349.918L54.432,349.918L53.439,349.918L53.439,349.57L53.274,349.57L53.274,349.048L53.108,349.048L53.108,348.7L52.943,348.7L52.778,348.7L52.778,348.527L52.447,348.527L52.447,348.353L51.289,348.353L51.289,348.527L51.123,348.527L51.123,348.7L50.131,348.7L50.131,348.527L49.965,348.527L49.965,348.353L49.8,348.353L49.635,348.353L49.635,348.005L49.469,348.005L49.138,348.005L49.138,347.831L48.973,347.831L48.973,347.657L49.138,347.657L50.296,348.005L50.792,348.353L51.785,348.179L51.95,347.831L50.958,347.309L50.462,347.135L48.642,346.266L48.642,346.092L48.477,345.048L49.8,345.048L49.965,344.353L49.138,343.135L49.138,342.787L49.138,342.266L49.138,341.396L48.642,340.353L48.477,338.787L47.815,336.178L47.815,334.439L49.304,333.569L50.131,332.7L50.627,331.482L51.454,330.96L55.093,329.395L55.755,328.177L56.251,325.568L55.92,323.655L55.755,320.872L56.251,320.176L56.913,319.306L56.748,317.914L56.086,316.349L54.597,315.653L54.432,314.783L53.935,311.478L53.605,311.478L52.447,311.304L51.62,309.738L52.116,308.868L53.274,306.258L53.108,304.518L55.259,300.865L52.943,298.603L52.447,297.907L52.778,296.341L53.274,294.775L52.447,294.253L51.62,294.775L50.462,294.775L49.635,292.165L45.499,292.861L44.672,291.469L43.845,289.033L42.852,287.119L41.364,285.9L40.206,284.334L39.379,281.898L37.559,278.591L37.063,277.199L36.07,276.329L35.739,275.285L36.236,274.241L37.394,272.152L37.394,270.934L36.236,268.149L35.078,266.409L35.905,265.016L35.078,264.494L33.589,262.405L33.424,259.794L35.905,259.794L44.341,261.013L55.093,262.753L62.206,262.928L62.868,263.45L66.011,266.235L70.808,269.019L79.079,272.152L84.042,273.022L90.162,272.326L93.967,272.848L94.959,273.544L96.117,274.415L96.779,275.459L96.779,277.025L96.448,278.417L95.29,280.332L96.283,280.854L106.869,266.235L108.854,264.494L108.854,263.102L106.208,259.794L107.2,259.272L109.02,248.132L109.185,243.779L107.862,238.556L115.967,235.597L124.404,238.905L129.697,225.672L135.156,210.871L134.329,208.955L133.336,210.174L123.411,195.718L124.073,194.499L125.727,195.022L126.554,193.976L128.539,193.28L128.705,191.364L127.05,188.751L127.381,188.228L128.705,187.706L129.366,187.009L131.02,187.009L131.351,186.661L126.058,178.822L126.389,178.647L125.893,178.125L91.982,156.695L79.41,155.126L74.944,155.475L73.455,154.604L71.47,151.816L73.455,148.156L72.628,145.542L72.959,143.277L72.462,141.534L71.966,139.791L71.801,138.223L73.455,135.783L74.944,132.471L74.778,130.205L74.282,127.939L74.778,126.894L76.598,125.674L98.764,118.352L103.065,121.316L105.05,121.49L107.2,122.187L107.035,122.013L108.854,121.839L109.351,118.352L106.208,112.251L119.441,113.297L130.524,100.919L131.682,99.873L133.171,98.304L137.637,81.041L163.277,80.169L164.27,78.774L164.931,75.112L164.766,73.368L164.931,71.798L165.593,71.973L167.413,70.578L187.759,66.741L200.827,76.158L200.827,76.333L203.143,77.205L205.293,66.392L209.098,63.427L212.903,64.299L215.219,63.95L219.189,61.857L219.685,55.926L220.677,54.356L224.482,50.868L225.144,49.298L226.963,45.111L228.617,44.588L229.941,44.064L230.602,44.064L231.76,43.192L232.422,44.064L232.091,44.588L234.903,45.983L235.73,47.379L237.55,49.821L238.708,52.438L241.189,53.484L241.685,53.135L243.174,53.135L244.498,53.833L244.167,54.531L243.174,55.752L243.836,56.624L245.49,56.973L247.144,56.101L248.964,56.101L249.791,55.578L250.949,55.403L257.731,56.45L258.062,55.926L258.558,55.578L259.882,56.624L260.047,57.845L284.198,47.902L293.958,43.018L293.131,40.052L292.304,38.482L291.476,36.911L290.649,35.516L306.199,24L316.455,29.06L314.47,46.158Z" fill="rgba(180,200,195,0.35)"/>
  </g>
  <path d="M47.65,347.657L47.484,347.657L47.484,347.831L47.153,347.831L47.153,348.005L46.822,348.005L46.822,347.831L46.657,347.831L46.657,347.657L46.161,347.657L45.665,347.657L45.665,347.309L45.499,347.309L45.499,346.787L45.334,346.787L45.334,346.614L45.168,346.614L45.168,346.266L45.499,346.44L46.657,346.961L47.484,347.483ZM53.439,349.918L53.439,350.092L53.935,350.092L53.935,350.266L54.432,350.266L54.432,350.44L54.597,350.44L54.597,350.613L54.763,350.613L54.763,350.787L54.763,350.961L54.928,350.961L55.093,350.961L55.093,351.135L55.259,351.135L55.259,351.309L56.251,351.309L56.417,351.309L56.417,351.657L56.582,351.657L56.582,352.352L56.251,352.352L56.251,352.526L55.92,352.526L55.92,352.352L55.755,352.352L55.755,352.526L55.093,352.526L55.093,352.352L54.432,352.352L54.432,352.179L54.266,352.179L53.935,352.179L53.935,352.005L53.605,352.005L53.605,351.831L53.108,351.831L53.108,351.657L52.778,351.657L52.447,351.657L52.447,351.309L52.281,351.309L51.785,351.309L51.785,351.135L51.62,351.135L51.62,350.961L51.454,350.961L51.289,350.961L51.289,350.787L50.958,350.787L50.958,350.613L50.462,350.613L50.462,350.44L50.131,350.44L50.131,350.266L49.965,350.266L49.8,350.266L49.8,350.092L49.635,350.092L49.635,349.918L49.304,349.918L48.642,349.918L48.642,349.744L48.311,349.744L48.311,349.57L47.65,349.57L47.65,349.396L47.319,349.396L47.319,349.222L47.153,349.222L46.988,349.222L46.988,349.048L46.822,349.048L46.822,348.874L46.492,348.874L46.492,348.7L45.995,348.7L45.665,348.7L45.665,348.527L45.499,348.527L45.499,348.353L45.003,348.353L45.003,348.179L44.837,348.179L44.837,348.005L44.507,348.005L44.341,348.005L44.341,347.831L44.176,347.831L44.176,346.961L44.176,346.266L44.507,346.266L44.507,346.614L44.837,346.614L44.837,347.135L45.003,347.135L45.003,347.309L45.168,347.309L45.168,347.483L45.334,347.483L45.334,347.657L45.499,347.657L45.499,347.831L45.665,347.831L45.665,348.005L45.995,348.005L46.161,348.005L46.161,348.179L46.988,348.179L48.311,348.179L48.311,348.353L48.642,348.353L48.642,348.527L48.973,348.527L48.973,348.7L49.138,348.7L49.304,348.7L49.304,348.874L50.131,348.874L50.131,349.048L50.958,349.048L50.958,348.874L51.289,348.874L51.289,348.7L52.447,348.7L52.447,348.874L52.447,349.222L52.612,349.222L52.612,349.396L52.778,349.396L52.778,349.57L52.778,349.744L52.943,349.744L52.943,349.918L53.108,349.918ZM348.546,45.285L356.155,44.937L358.306,47.379L357.313,50.344L362.606,52.263L360.952,53.659L360.291,54.531L364.095,57.322L366.08,58.543L365.915,60.636L365.253,61.334L366.08,62.729L366.576,63.95L365.419,67.787L366.08,69.182L365.419,73.019L363.434,75.112L361.448,76.333L358.802,77.728L357.809,78.774L359.298,82.436L360.456,83.831L361.118,85.75L361.779,86.796L362.441,88.54L364.261,90.283L364.922,91.155L360.291,95.165L358.471,97.606L357.644,98.827L357.313,99.001L355.328,98.653L354.666,99.524L351.358,98.478L352.185,95.514L352.681,94.642L353.012,93.422L352.185,92.027L351.193,90.458L351.193,89.76L350.2,88.888L349.538,87.842L348.877,86.447L349.538,85.401L349.538,84.703L335.974,85.052L334.154,88.888L333.989,90.981L333.989,91.155L333.658,95.514L334.32,99.873L335.478,103.883L334.816,105.801L339.448,109.811L340.109,112.251L338.29,112.774L336.967,112.948L336.967,114.343L336.801,115.912L335.643,116.784L332.666,116.609L330.681,117.481L329.026,122.536L328.861,125.151L329.192,125.674L328.696,127.591L328.696,129.16L328.861,129.857L329.026,129.857L330.184,129.682L332.831,127.417L334.816,128.114L336.139,128.114L337.297,128.114L338.952,127.939L340.275,128.114L341.598,128.811L342.425,129.682L342.756,130.728L343.583,131.077L343.418,132.471L344.245,132.82L345.568,132.994L346.065,134.04L346.726,134.563L347.719,135.26L348.546,136.654L348.546,138.048L347.719,140.14L347.553,140.14L347.057,140.662L347.057,140.488L346.395,139.617L345.403,139.443L345.237,139.268L346.561,143.799L346.892,144.148L352.02,151.119L356.486,162.619L357.148,162.096L357.148,161.051L357.644,161.225L358.636,161.748L358.636,163.142L356.982,164.535L356.817,165.407L355.99,168.717L355.493,169.24L354.501,169.937L351.027,171.853L344.741,173.769L335.809,178.299L324.891,179.518L315.462,178.299L311.988,178.473L309.176,179.17L301.567,183.177L297.266,185.615L297.101,185.79L297.266,186.661L292.469,191.19L289.326,193.976L289.161,194.151L279.897,202.685L277.25,204.601L273.777,211.045L269.31,222.538L269.145,223.757L268.318,227.065L264.017,236.467L265.837,238.905L265.175,240.297L264.679,241.516L265.671,244.998L268.318,246.565L267.822,249.176L265.671,248.654L265.34,248.654L265.671,250.046L265.009,250.046L260.047,250.221L257.4,249.524L257.069,249.35L256.242,249.524L251.611,249.35L249.956,249.524L248.468,247.435L246.979,247.435L246.152,246.043L245.821,243.953L245.159,243.431L244.001,243.257L241.851,240.82L241.189,240.82L239.37,240.646L238.708,239.427L236.723,239.079L235.4,237.86L234.242,237.512L232.587,236.99L230.768,237.164L229.941,237.86L229.279,237.86L227.129,237.86L226.302,238.382L225.971,238.731L223.986,239.079L223.159,239.601L222.166,239.601L219.85,240.297L218.031,241.864L216.376,244.302L215.88,244.998L215.88,245.172L215.549,245.346L214.391,246.217L213.564,246.043L213.399,246.043L212.406,246.217L210.256,245.172L206.617,245.868L203.143,246.043L201.82,245.868L200.331,247.261L200,248.48L198.18,249.35L198.346,250.917L198.18,251.091L196.526,254.921L194.707,258.924L193.714,259.446L191.398,260.491L191.067,261.535L190.406,261.361L190.075,261.187L188.09,262.057L187.924,262.057L186.932,263.624L186.436,265.886L184.947,265.886L184.781,266.061L184.285,266.409L183.954,266.757L183.458,268.497L182.631,269.716L181.142,270.412L180.15,271.282L178.661,272.152L177.834,272.326L177.172,272.326L175.683,272.674L174.856,272.152L174.526,272.674L174.691,273.022L175.518,274.763L175.022,275.981L173.698,276.851L172.21,277.895L172.044,277.895L171.879,277.373L170.059,278.765L169.232,278.94L168.901,278.94L168.736,279.462L168.405,280.158L167.082,281.202L166.42,281.028L166.255,281.55L164.104,281.724L163.277,282.42L162.615,281.898L161.954,282.942L160.63,283.464L159.307,283.638L157.818,284.334L156.495,285.9L155.337,286.596L155.006,288.163L153.848,288.511L153.021,288.337L152.69,289.207L150.374,290.077L150.209,290.077L150.044,290.251L148.886,290.425L148.389,291.121L148.059,291.643L146.074,291.469L145.908,293.557L146.074,296.689L145.577,298.429L143.427,299.299L142.931,299.473L142.765,300.343L143.758,302.779L144.089,305.736L143.096,307.302L142.931,307.302L142.765,307.998L142.6,308.694L142.104,309.042L141.938,309.042L139.457,310.782L131.186,312.173L130.524,312.869L130.524,313.043L130.855,314.261L130.028,314.609L129.532,315.827L124.238,317.392L123.742,318.262L123.411,319.306L122.915,321.219L122.088,322.437L121.261,323.481L120.268,323.655L119.276,325.568L117.622,329.395L115.471,332.004L113.155,333.569L111.667,334.787L111.667,334.961L111.832,337.048L112.659,339.483L112.824,341.048L113.652,343.135L113.817,344.005L112.824,344.874L113.155,346.44L111.832,347.657L111.832,347.831L111.832,348.005L111.17,348.874L110.674,349.048L110.839,350.092L110.509,350.44L109.681,351.135L109.185,359.134L110.012,360.352L113.155,359.482L113.817,360.873L116.794,365.742L116.96,366.09L117.125,366.611L117.456,366.785L119.441,366.959L119.772,368.002L119.11,369.567L117.291,369.915L116.464,372.175L115.14,374.783L113.982,375.652L112.328,376L107.862,373.914L106.042,374.261L105.381,374.609L105.215,374.609L105.215,374.435L104.884,374.435L104.884,374.261L104.554,374.261L104.554,374.088L103.892,374.088L103.892,373.914L103.561,373.914L103.396,373.914L103.396,373.74L103.396,373.566L103.23,373.566L103.065,373.566L103.065,373.392L102.899,373.392L102.899,373.218L102.734,373.218L102.734,372.697L102.899,372.697L102.899,372.523L102.899,372.349L102.734,372.349L102.734,372.175L102.568,372.175L102.403,372.175L102.403,372.001L101.411,372.001L101.411,371.827L101.08,371.827L101.08,372.001L100.749,372.001L100.749,372.175L100.583,372.175L100.087,372.175L99.922,372.175L99.922,372.001L99.591,372.001L99.591,371.827L99.26,371.827L99.095,371.827L99.095,371.653L98.764,371.653L98.764,371.48L98.598,371.48L98.598,371.306L98.433,371.306L98.102,371.306L98.102,371.132L97.606,371.132L97.606,370.958L97.275,370.958L97.275,370.784L96.944,370.784L96.944,370.61L96.613,370.61L96.448,370.61L96.448,370.436L96.283,370.436L96.283,370.263L96.117,370.263L96.117,370.089L95.455,370.089L95.455,369.915L95.29,369.915L94.794,369.915L94.794,369.741L94.628,369.741L94.628,369.567L94.463,369.567L94.298,369.567L94.298,369.393L93.801,369.393L93.801,369.219L93.47,369.219L93.305,369.219L93.305,369.045L93.14,369.045L93.14,368.872L92.809,368.872L92.478,368.872L92.478,368.698L92.478,368.524L92.147,368.524L92.147,368.35L91.982,368.35L91.651,368.35L91.651,368.176L91.32,368.176L91.32,368.002L91.155,368.002L90.989,368.002L90.989,367.828L90.658,367.828L90.658,367.654L90.493,367.654L90.493,367.481L90.162,367.481L90.162,367.307L89.831,367.307L89.831,367.133L89.666,367.133L89.666,366.959L89.17,366.959L88.839,366.959L88.839,366.785L88.673,366.785L88.673,366.611L88.342,366.611L87.846,366.611L87.846,366.437L87.681,366.437L87.681,366.263L87.515,366.263L87.35,366.263L87.35,366.09L87.185,366.09L87.185,365.916L86.854,365.916L86.854,365.742L86.688,365.742L86.523,365.742L86.523,365.568L86.192,365.568L86.192,365.394L86.027,365.394L85.2,365.394L85.2,365.22L85.034,365.22L85.034,365.046L84.869,365.046L84.703,365.046L84.703,364.872L84.538,364.872L84.538,364.699L84.372,364.699L83.711,364.699L83.711,364.525L83.38,364.525L83.38,364.351L83.049,364.351L83.049,364.177L82.884,364.177L82.884,364.003L82.553,364.003L82.387,364.003L82.387,363.829L81.891,363.829L81.891,363.655L81.56,363.655L81.395,363.655L81.395,363.481L80.899,363.481L80.899,363.308L80.733,363.308L80.733,363.481L80.733,363.308L80.402,363.308L79.906,363.308L79.906,363.134L79.575,363.134L79.575,362.96L79.41,362.96L79.41,362.786L79.244,362.786L79.079,362.786L79.079,362.612L78.914,362.612L78.914,362.438L78.417,362.438L78.087,362.438L78.087,362.264L77.921,362.264L77.921,362.09L77.756,362.09L77.259,362.09L77.259,361.916L76.929,361.916L76.929,361.743L76.763,361.743L76.598,361.743L76.598,361.569L76.267,361.569L76.267,361.395L75.936,361.395L75.771,361.395L75.771,361.221L75.605,361.221L75.605,361.047L75.44,361.047L75.274,361.047L75.274,360.873L75.109,360.873L75.109,360.699L74.778,360.699L74.282,360.699L74.282,360.525L73.951,360.525L73.951,360.352L73.786,360.352L73.62,360.352L73.62,360.178L73.786,360.178L73.786,360.004L73.951,360.004L73.951,360.178L74.447,360.178L74.447,360.352L74.778,360.352L74.778,360.525L75.109,360.525L75.109,360.699L75.274,360.699L75.44,360.699L75.44,360.873L75.771,360.873L75.771,361.047L76.267,361.047L76.432,361.047L76.432,361.221L76.763,361.221L76.763,361.395L77.094,361.395L78.087,361.395L78.252,361.395L78.252,361.221L78.583,361.221L78.583,361.047L78.748,361.047L78.748,360.873L78.583,360.873L78.583,360.699L78.087,360.699L77.59,360.699L77.425,360.699L77.425,360.873L77.259,360.873L77.259,360.699L76.929,360.699L76.598,360.699L76.598,360.525L76.267,360.525L76.267,360.352L75.936,360.352L75.771,360.352L75.771,360.004L75.605,360.004L75.605,359.83L75.44,359.83L75.44,359.656L75.109,359.656L75.109,359.482L74.613,359.482L74.282,359.482L74.282,359.308L74.282,359.134L73.62,359.134L73.62,359.308L73.124,359.308L73.124,359.134L72.959,359.134L72.793,359.134L72.793,358.96L72.793,358.787L72.628,358.787L72.628,358.613L72.462,358.613L72.462,358.439L72.131,358.439L71.635,358.439L71.635,358.265L71.304,358.265L71.304,358.091L70.974,358.091L70.643,358.091L70.643,357.917L70.477,357.917L70.477,358.091L70.312,358.091L70.312,358.613L70.146,358.613L70.146,358.787L69.485,358.787L69.485,358.613L68.989,358.613L68.989,358.439L68.823,358.439L68.658,358.439L68.658,358.265L68.327,358.265L68.327,358.091L68.161,358.091L67.831,358.091L67.831,357.917L67.5,357.917L67.5,357.743L67.169,357.743L67.169,357.569L67.004,357.569L67.004,357.395L66.342,357.395L66.342,357.222L66.011,357.222L66.011,357.048L65.68,357.048L65.68,356.874L65.515,356.874L65.184,356.874L65.184,356.7L64.853,356.7L64.853,356.526L64.522,356.526L64.357,356.526L64.357,356.352L63.861,356.352L63.861,356.178L63.695,356.178L63.695,356.004L63.033,356.004L63.033,355.83L62.703,355.83L62.372,355.83L62.372,355.656L62.206,355.656L62.206,355.483L62.041,355.483L61.876,355.483L61.876,355.309L61.876,355.135L61.214,355.135L60.718,355.135L60.718,354.961L60.387,354.961L60.387,354.787L60.221,354.787L60.056,354.787L60.056,354.613L59.725,354.613L59.725,354.439L59.56,354.439L59.56,354.265L59.394,354.265L59.394,354.091L59.229,354.091L59.229,353.918L58.898,353.918L58.567,353.918L58.567,353.744L58.567,353.57L58.402,353.57L58.236,353.57L58.236,353.396L58.236,353.222L58.567,353.222L58.733,353.222L58.733,353.396L59.063,353.396L59.063,353.57L59.394,353.57L60.387,353.57L60.387,353.744L60.718,353.744L60.718,353.918L60.883,353.918L60.883,354.439L61.048,354.439L61.048,354.613L61.214,354.613L61.214,354.787L61.545,354.787L61.876,354.787L61.876,354.961L62.206,354.961L62.206,354.787L62.041,354.787L61.876,354.787L61.876,354.613L61.876,354.265L61.71,354.265L61.545,354.265L61.545,353.918L61.379,353.918L61.214,353.918L61.214,353.744L61.048,353.744L61.048,353.57L60.883,353.57L60.718,353.57L60.718,353.396L60.387,353.396L60.387,353.222L60.056,353.222L60.056,353.048L59.725,353.048L59.56,353.048L59.56,352.874L59.229,352.874L59.063,352.874L58.898,352.874L58.733,352.874L58.733,352.7L58.567,352.7L58.567,352.526L58.402,352.526L58.402,352.179L58.236,352.179L58.236,352.005L58.071,352.005L58.071,351.831L57.905,351.831L57.905,351.657L57.409,351.657L56.913,351.657L56.913,351.483L56.913,351.309L56.582,351.309L56.417,351.309L56.417,351.135L56.251,351.135L56.251,350.961L55.755,350.961L55.424,350.961L55.424,350.787L55.259,350.787L55.259,350.613L55.093,350.613L55.093,350.44L54.928,350.44L54.928,350.266L54.763,350.266L54.763,350.092L54.763,349.918L54.432,349.918L53.439,349.918L53.439,349.57L53.274,349.57L53.274,349.048L53.108,349.048L53.108,348.7L52.943,348.7L52.778,348.7L52.778,348.527L52.447,348.527L52.447,348.353L51.289,348.353L51.289,348.527L51.123,348.527L51.123,348.7L50.131,348.7L50.131,348.527L49.965,348.527L49.965,348.353L49.8,348.353L49.635,348.353L49.635,348.005L49.469,348.005L49.138,348.005L49.138,347.831L48.973,347.831L48.973,347.657L49.138,347.657L50.296,348.005L50.792,348.353L51.785,348.179L51.95,347.831L50.958,347.309L50.462,347.135L48.642,346.266L48.642,346.092L48.477,345.048L49.8,345.048L49.965,344.353L49.138,343.135L49.138,342.787L49.138,342.266L49.138,341.396L48.642,340.353L48.477,338.787L47.815,336.178L47.815,334.439L49.304,333.569L50.131,332.7L50.627,331.482L51.454,330.96L55.093,329.395L55.755,328.177L56.251,325.568L55.92,323.655L55.755,320.872L56.251,320.176L56.913,319.306L56.748,317.914L56.086,316.349L54.597,315.653L54.432,314.783L53.935,311.478L53.605,311.478L52.447,311.304L51.62,309.738L52.116,308.868L53.274,306.258L53.108,304.518L55.259,300.865L52.943,298.603L52.447,297.907L52.778,296.341L53.274,294.775L52.447,294.253L51.62,294.775L50.462,294.775L49.635,292.165L45.499,292.861L44.672,291.469L43.845,289.033L42.852,287.119L41.364,285.9L40.206,284.334L39.379,281.898L37.559,278.591L37.063,277.199L36.07,276.329L35.739,275.285L36.236,274.241L37.394,272.152L37.394,270.934L36.236,268.149L35.078,266.409L35.905,265.016L35.078,264.494L33.589,262.405L33.424,259.794L35.905,259.794L44.341,261.013L55.093,262.753L62.206,262.928L62.868,263.45L66.011,266.235L70.808,269.019L79.079,272.152L84.042,273.022L90.162,272.326L93.967,272.848L94.959,273.544L96.117,274.415L96.779,275.459L96.779,277.025L96.448,278.417L95.29,280.332L96.283,280.854L106.869,266.235L108.854,264.494L108.854,263.102L106.208,259.794L107.2,259.272L109.02,248.132L109.185,243.779L107.862,238.556L115.967,235.597L124.404,238.905L129.697,225.672L135.156,210.871L134.329,208.955L133.336,210.174L123.411,195.718L124.073,194.499L125.727,195.022L126.554,193.976L128.539,193.28L128.705,191.364L127.05,188.751L127.381,188.228L128.705,187.706L129.366,187.009L131.02,187.009L131.351,186.661L126.058,178.822L126.389,178.647L125.893,178.125L91.982,156.695L79.41,155.126L74.944,155.475L73.455,154.604L71.47,151.816L73.455,148.156L72.628,145.542L72.959,143.277L72.462,141.534L71.966,139.791L71.801,138.223L73.455,135.783L74.944,132.471L74.778,130.205L74.282,127.939L74.778,126.894L76.598,125.674L98.764,118.352L103.065,121.316L105.05,121.49L107.2,122.187L107.035,122.013L108.854,121.839L109.351,118.352L106.208,112.251L119.441,113.297L130.524,100.919L131.682,99.873L133.171,98.304L137.637,81.041L163.277,80.169L164.27,78.774L164.931,75.112L164.766,73.368L164.931,71.798L165.593,71.973L167.413,70.578L187.759,66.741L200.827,76.158L200.827,76.333L203.143,77.205L205.293,66.392L209.098,63.427L212.903,64.299L215.219,63.95L219.189,61.857L219.685,55.926L220.677,54.356L224.482,50.868L225.144,49.298L226.963,45.111L228.617,44.588L229.941,44.064L230.602,44.064L231.76,43.192L232.422,44.064L232.091,44.588L234.903,45.983L235.73,47.379L237.55,49.821L238.708,52.438L241.189,53.484L241.685,53.135L243.174,53.135L244.498,53.833L244.167,54.531L243.174,55.752L243.836,56.624L245.49,56.973L247.144,56.101L248.964,56.101L249.791,55.578L250.949,55.403L257.731,56.45L258.062,55.926L258.558,55.578L259.882,56.624L260.047,57.845L284.198,47.902L293.958,43.018L293.131,40.052L292.304,38.482L291.476,36.911L290.649,35.516L306.199,24L316.455,29.06L314.47,46.158Z" fill="none" stroke="rgba(255,255,255,0.9)" stroke-width="2"/>
</svg>