<?xml version="1.0" encoding="UTF-8"?>
<svg viewBox="0 0 400 400" xmlns="http://www.w3.org/2000/svg" role="img" aria-label="Petén">
  <defs>
    <clipPath id="c"><path d="M286.435,42.841L286.435,42.512L289.934,42.512L345.92,42.709L356.233,42.775L375.754,42.841L375.877,42.841L375.877,43.368L375.754,43.368L375.754,43.565L375.754,43.762L375.816,90.135L376,165.948L374.834,184.167L373.667,202.178L372.133,225.479L372.685,225.479L372.685,225.872L370.966,252.227L370.414,252.292L370.045,258.306L368.02,289.792L367.16,302.913L365.38,330.899L365.196,333.638L364.766,338.658L363.968,345.502L364.091,347.066L364.091,347.262L364.213,349.608L364.213,349.803L363.538,350.325L363.415,349.934L363.231,349.152L362.31,348.63L360.899,347.653L360.223,347.783L359.548,347.913L358.873,347.588L358.075,347.392L356.97,347.979L356.601,347.913L355.128,347.979L354.33,348.239L353.164,347.718L350.831,347.718L350.156,347.457L348.989,348.109L347.884,347.979L346.963,347.327L344.938,347.522L342.482,347.783L341.991,348.305L341.254,349.543L340.947,350.976L340.702,352.149L340.333,352.931L339.167,353.387L339.597,353.778L340.395,353.974L340.456,354.43L339.597,354.626L338.86,354.756L339.228,355.473L338.553,356.385L337.755,355.538L337.203,355.733L336.036,357.688L335.484,356.971L335.422,356.32L334.931,355.994L334.01,355.863L332.905,356.32L331.923,356.645L331.125,356.841L331.002,357.362L330.266,357.623L330.082,357.427L329.099,357.818L328.547,357.492L328.056,357.297L327.994,356.841L327.687,356.58L327.503,356.254L327.381,355.603L325.293,355.733L324.864,356.254L324.434,356.385L324.495,356.841L323.39,356.841L323.268,357.297L321.978,357.883L322.04,357.167L322.04,343.025L320.26,343.09L318.356,343.09L315.901,343.416L314.673,344.198L313.752,344.394L312.34,344.59L309.332,344.459L307.92,344.655L305.956,345.437L303.746,345.372L300.799,345.111L295.704,343.677L291.775,340.939L290.179,339.244L289.872,339.831L289.258,339.44L287.662,339.244L287.294,339.636L286.619,340.157L285.759,340.613L284.961,341.07L284.839,341.982L285.084,342.439L285.023,343.025L284.286,343.286L284.04,343.873L283.672,344.59L282.935,344.915L282.935,345.763L282.444,346.089L281.339,346.675L280.296,346.089L279.559,346.61L278.761,346.48L278.577,347.197L277.779,347.066L277.472,347.522L277.226,348.37L276.858,348.435L275.446,348.435L272.745,348.239L271.886,349.021L271.333,348.63L270.351,348.891L270.044,348.5L269.43,348.37L268.571,348.891L267.65,349.282L267.281,348.826L266.852,348.63L266.545,347.979L266.054,347.588L265.685,347.066L265.931,346.61L266.176,345.698L265.624,344.59L264.826,344.72L263.905,344.133L263.291,344.003L263.537,343.807L263.721,343.286L263.414,342.569L262.063,342.308L262.37,341.982L263.046,341.656L262.984,341.07L262.432,340.548L262.186,339.57L261.634,339.375L261.327,339.701L261.45,340.874L260.283,341.265L260.283,340.287L259.731,340.157L259.24,340.353L258.933,340.027L258.871,339.636L258.81,338.984L258.319,338.853L258.135,339.114L257.766,339.244L257.398,339.114L257.091,338.593L256.232,338.462L256.232,338.853L255.618,339.57L255.311,339.114L255.372,338.527L254.881,338.658L254.267,339.114L253.899,338.918L254.144,338.397L253.837,337.68L253.224,337.549L252.057,337.484L251.996,337.093L252.18,336.115L252.671,335.92L252.978,335.463L252.917,335.007L252.426,335.137L251.382,335.659L251.259,335.202L251.505,334.746L252.057,333.768L251.75,333.116L250.277,332.529L249.847,332.399L249.111,332.268L248.988,331.356L248.374,331.486L247.821,332.594L248.681,332.66L248.742,332.92L248.619,333.572L248.804,334.485L248.313,335.007L247.514,334.485L247.33,334.29L246.287,334.094L244.752,334.55L243.463,335.463L242.726,335.007L243.586,334.224L243.033,333.572L242.481,332.79L240.7,333.051L239.473,332.203L238.797,332.725L239.35,334.355L238.552,335.659L210.62,326.53L178.514,322.356L177.409,322.291L177.409,322.225L177.409,322.095L177.102,321.769L177.041,321.769L176.795,321.508L176.734,321.117L176.672,320.986L176.672,320.921L176.979,320.464L177.839,320.073L178.76,318.703L179.926,318.181L180.049,318.181L180.233,317.659L179.681,317.464L179.251,317.594L178.576,317.855L176.857,319.747L176.488,319.682L175.813,319.16L175.567,318.703L175.015,317.268L175.506,314.463L175.506,314.397L175.813,313.941L176.672,313.81L177.716,314.137L178.576,314.789L178.698,314.854L179.128,314.985L179.374,314.724L179.189,313.419L179.435,312.636L179.558,312.244L179.312,312.114L179.189,311.983L178.821,311.983L176.918,311.788L176.366,311.201L176.12,310.418L176.304,310.026L176.427,309.765L177.041,309.374L178.698,309.113L179.435,308.395L179.926,308.264L179.987,308.264L180.233,307.742L179.803,306.568L179.128,305.98L179.005,305.915L176.611,305.132L176.488,304.936L176.059,304.414L175.69,303.957L175.813,303.631L175.322,301.151L175.506,299.584L175.874,298.671L175.936,298.41L176.918,297.691L178.637,297.104L179.005,297.104L179.558,297.039L179.067,296.647L178.882,296.451L178.514,296.19L178.084,295.341L177.9,295.276L177.593,295.211L176.918,295.994L176.366,295.994L175.752,295.341L175.752,295.276L175.813,294.428L176.55,292.861L176.734,292.665L176.918,292.469L177.716,292.143L178.514,292.404L179.435,293.122L179.865,293.514L180.049,293.122L180.11,293.187L180.356,292.534L180.049,291.163L179.251,290.706L178.391,290.249L178.391,290.184L177.839,288.943L177.9,288.748L178.023,288.421L178.453,287.964L178.453,287.899L178.698,287.638L178.576,287.442L178.33,287.115L178.023,286.789L178.023,286.201L178.146,285.874L178.207,285.744L178.269,285.483L178.944,285.026L182.013,284.83L182.259,284.83L182.32,284.83L182.75,284.046L182.075,281.695L182.197,281.499L182.259,281.434L182.382,281.173L183.118,280.977L183.548,280.846L183.609,280.781L184.039,279.997L184.162,279.736L184.285,279.409L184.407,279.344L183.916,278.625L183.855,278.495L183.609,277.515L183.548,277.515L183.364,277.58L183.18,277.58L182.995,279.148L182.627,279.083L182.382,278.625L182.136,278.038L182.259,276.274L182.259,276.209L182.566,275.817L183.548,274.51L183.671,274.445L183.732,274.445L184.469,274.053L185.819,274.053L186.74,274.641L187.6,276.274L187.6,276.405L188.152,276.339L188.213,276.339L188.582,275.555L188.459,274.902L187.968,274.51L187.722,274.38L186.863,273.988L186.31,273.726L185.512,273.334L184.469,272.551L183.855,271.375L183.732,270.656L183.732,270.591L183.732,270.395L184.1,270.264L185.39,269.741L185.635,269.349L185.635,268.696L184.96,268.5L184.53,268.369L184.469,268.304L183.732,269.741L182.995,269.807L182.566,269.48L182.443,269.349L181.89,267.389L181.461,266.801L180.908,266.801L178.391,266.801L175.445,267.324L174.156,266.867L170.963,266.801L170.718,266.409L170.718,266.278L170.779,265.69L171.884,263.861L172.253,261.378L172.068,260.724L171.884,260.855L170.595,261.9L169.797,261.966L169.551,261.77L169.245,261.508L169.245,261.443L168.999,260.463L168.569,259.744L167.955,259.417L167.71,259.482L166.666,259.548L166.114,260.136L165.991,260.332L165.438,261.312L165.377,261.312L165.07,261.443L162.553,260.332L161.632,259.613L161.571,259.548L161.325,258.959L161.51,258.633L161.878,257.848L161.694,257.652L161.632,257.522L159.913,258.11L156.169,259.482L155.187,259.482L154.634,259.221L154.266,258.633L154.143,258.502L153.959,256.28L153.222,256.476L151.872,256.803L150.46,258.371L149.293,258.371L148.127,257.522L147.881,257.129L147.636,256.868L147.636,256.28L147.697,256.149L147.881,255.953L148.618,255.626L148.679,255.626L149.109,255.626L150.644,255.495L151.442,255.169L151.81,254.776L151.933,254.515L151.994,253.011L151.565,251.573L151.258,251.181L150.889,251.181L150.46,251.181L148.004,252.489L146.961,252.292L146.224,251.769L146.285,251.181L146.408,249.939L146.408,249.743L146.347,248.697L146.285,248.566L145.733,247.128L145.917,245.362L146.285,244.185L146.776,243.597L148.434,242.551L148.495,242.355L148.679,242.093L148.495,241.635L147.329,240.393L147.39,240.785L147.022,241.57L146.961,241.635L146.715,241.831L143.83,242.42L143.155,242.028L142.541,240.785L142.541,240.72L142.97,239.543L142.234,239.804L141.374,240.131L141.067,239.608L141.006,239.608L141.497,239.15L142.05,238.889L143.216,239.019L144.689,239.15L144.751,239.15L144.935,238.692L144.566,236.403L143.707,234.637L143.707,233.787L144.26,232.544L144.075,231.825L143.83,231.563L143.339,231.04L141.62,229.208L141.497,228.619L140.515,224.432L139.901,224.432L138.673,223.254L137.445,222.731L136.832,222.142L136.586,221.488L136.525,221.357L136.647,219.786L135.911,218.805L135.604,218.347L134.13,218.019L130.017,215.074L129.833,214.682L129.219,213.504L128.667,212.98L128.299,212.849L124.861,211.867L122.528,210.623L122.405,210.427L122.221,210.231L122.098,209.707L122.037,209.445L122.405,207.94L122.221,207.219L121.669,207.023L121.546,207.023L120.564,207.154L119.95,207.612L119.152,207.35L115.346,207.678L114.486,207.416L113.995,206.827L113.872,206.499L113.443,205.19L113.197,204.994L111.662,203.684L110.742,203.422L109.943,203.226L106.444,203.422L104.848,203.75L104.173,203.684L103.682,203.291L103.436,202.571L103.252,201.916L102.454,200.541L102.086,199.821L102.086,199.559L102.147,197.987L101.779,197.529L101.595,197.332L100.121,196.809L98.894,196.94L97.42,197.529L96.745,197.463L96.254,197.005L96.07,196.35L96.193,196.088L96.377,195.433L98.403,193.534L98.525,193.468L98.709,192.486L98.587,191.962L98.157,191.307L97.911,191.242L97.113,190.914L95.824,190.914L94.781,191.635L94.719,191.7L94.474,192.617L95.394,195.237L94.965,196.94L94.474,197.201L93.798,197.071L93.614,196.874L93.307,196.612L93.123,195.695L92.939,195.106L92.693,194.844L91.588,193.796L90.545,193.272L84.406,191.635L82.319,190.783L81.337,189.8L81.03,189.538L80.539,188.359L80.907,187.704L81.705,187.508L81.705,187.442L81.644,186.787L80.17,185.28L79.434,183.839L77.469,182.791L76.487,180.825L75.321,179.384L73.724,178.925L73.172,178.401L72.251,174.272L72.251,174.01L72.313,173.42L72.619,173.027L72.128,172.24L71.33,171.978L68.998,172.306L67.831,172.175L65.928,171.454L64.823,170.602L60.403,166.341L57.948,163.457L57.825,163.26L57.027,161.686L57.027,161.621L56.72,159.654L56.536,158.801L55.983,157.555L55.247,156.769L54.264,156.244L52.116,155.982L51.195,155.326L49.844,153.555L49.231,152.309L48.801,151.391L48.801,150.276L48.801,150.21L49.476,147.39L49.476,147.324L48.985,146.209L47.757,145.487L46.345,144.963L43.276,144.241L41.864,144.307L40.943,144.897L39.408,146.865L38.672,146.931L38.181,146.471L37.014,143.782L35.725,141.879L34.006,140.37L33.638,140.108L32.165,139.583L29.832,140.239L27.438,139.845L26.026,138.402L25.842,137.942L25.78,137.942L24,133.743L24.123,133.743L24.061,133.611L25.289,133.414L27.929,133.349L92.509,132.233L92.632,132.233L92.755,132.233L92.755,131.774L93.123,106.495L93.983,71.332L93.983,71.069L94.228,45.474L94.228,45.013L94.044,43.236L94.044,42.709L110.373,42.643L125.782,42.578L138.612,42.446L180.356,42.117L180.356,42.248L259.117,42.709L260.836,42.709Z"/></clipPath>
    <pattern id="mesh" width="14" height="14" patternUnits="userSpaceOnUse">
      <path d="M0 14 L14 0 M-2 2 L2 -2 M12 16 L16 12" stroke="rgba(255,255,255,0.2)" stroke-width="0.6" fill="none"/>
    </pattern>
  </defs>
  <g clip-path="url(#c)">
    <rect width="400" height="400" fill="url(#mesh)"/>
    <path d="M286.435,42.841L286.435,42.512L289.934,42.512L345.92,42.709L356.233,42.775L375.754,42.841L375.877,42.841L375.877,43.368L375.754,43.368L375.754,43.565L375.754,43.762L375.816,90.135L376,165.948L374.834,184.167L373.667,202.178L372.133,225.479L372.685,225.479L372.685,225.872L370.966,252.227L370.414,252.292L370.045,258.306L368.02,289.792L367.16,302.913L365.38,330.899L365.196,333.638L364.766,338.658L363.968,345.502L364.091,347.066L364.091,347.262L364.213,349.608L364.213,349.803L363.538,350.325L363.415,349.934L363.231,349.152L362.31,348.63L360.899,347.653L360.223,347.783L359.548,347.913L358.873,347.588L358.075,347.392L356.97,347.979L356.601,347.913L355.128,347.979L354.33,348.239L353.164,347.718L350.831,347.718L350.156,347.457L348.989,348.109L347.884,347.979L346.963,347.327L344.938,347.522L342.482,347.783L341.991,348.305L341.254,349.543L340.947,350.976L340.702,352.149L340.333,352.931L339.167,353.387L339.597,353.778L340.395,353.974L340.456,354.43L339.597,354.626L338.86,354.756L339.228,355.473L338.553,356.385L337.755,355.538L337.203,355.733L336.036,357.688L335.484,356.971L335.422,356.32L334.931,355.994L334.01,355.863L332.905,356.32L331.923,356.645L331.125,356.841L331.002,357.362L330.266,357.623L330.082,357.427L329.099,357.818L328.547,357.492L328.056,357.297L327.994,356.841L327.687,356.58L327.503,356.254L327.381,355.603L325.293,355.733L324.864,356.254L324.434,356.385L324.495,356.841L323.39,356.841L323.268,357.297L321.978,357.883L322.04,357.167L322.04,343.025L320.26,343.09L318.356,343.09L315.901,343.416L314.673,344.198L313.752,344.394L312.34,344.59L309.332,344.459L307.92,344.655L305.956,345.437L303.746,345.372L300.799,345.111L295.704,343.677L291.775,340.939L290.179,339.244L289.872,339.831L289.258,339.44L287.662,339.244L287.294,339.636L286.619,340.157L285.759,340.613L284.961,341.07L284.839,341.982L285.084,342.439L285.023,343.025L284.286,343.286L284.04,343.873L283.672,344.59L282.935,344.915L282.935,345.763L282.444,346.089L281.339,346.675L280.296,346.089L279.559,346.61L278.761,346.48L278.577,347.197L277.779,347.066L277.472,347.522L277.226,348.37L276.858,348.435L275.446,348.435L272.745,348.239L271.886,349.021L271.333,348.63L270.351,348.891L270.044,348.5L269.43,348.37L268.571,348.891L267.65,349.282L267.281,348.826L266.852,348.63L266.545,347.979L266.054,347.588L265.685,347.066L265.931,346.61L266.176,345.698L265.624,344.59L264.826,344.72L263.905,344.133L263.291,344.003L263.537,343.807L263.721,343.286L263.414,342.569L262.063,342.308L262.37,341.982L263.046,341.656L262.984,341.07L262.432,340.548L262.186,339.57L261.634,339.375L261.327,339.701L261.45,340.874L260.283,341.265L260.283,340.287L259.731,340.157L259.24,340.353L258.933,340.027L258.871,339.636L258.81,338.984L258.319,338.853L258.135,339.114L257.766,339.244L257.398,339.114L257.091,338.593L256.232,338.462L256.232,338.853L255.618,339.57L255.311,339.114L255.372,338.527L254.881,338.658L254.267,339.114L253.899,338.918L254.144,338.397L253.837,337.68L253.224,337.549L252.057,337.484L251.996,337.093L252.18,336.115L252.671,335.92L252.978,335.463L252.917,335.007L252.426,335.137L251.382,335.659L251.259,335.202L251.505,334.746L252.057,333.768L251.75,333.116L250.277,332.529L249.847,332.399L249.111,332.268L248.988,331.356L248.374,331.486L247.821,332.594L248.681,332.66L248.742,332.92L248.619,333.572L248.804,334.485L248.313,335.007L247.514,334.485L247.33,334.29L246.287,334.094L244.752,334.55L243.463,335.463L242.726,335.007L243.586,334.224L243.033,333.572L242.481,332.79L240.7,333.051L239.473,332.203L238.797,332.725L239.35,334.355L238.552,335.659L210.62,326.53L178.514,322.356L177.409,322.291L177.409,322.225L177.409,322.095L177.102,321.769L177.041,321.769L176.795,321.508L176.734,321.117L176.672,320.986L176.672,320.921L176.979,320.464L177.839,320.073L178.76,318.703L179.926,318.181L180.049,318.181L180.233,317.659L179.681,317.464L179.251,317.594L178.576,317.855L176.857,319.747L176.488,319.682L175.813,319.16L175.567,318.703L175.015,317.268L175.506,314.463L175.506,314.397L175.813,313.941L176.672,313.81L177.716,314.137L178.576,314.789L178.698,314.854L179.128,314.985L179.374,314.724L179.189,313.419L179.435,312.636L179.558,312.244L179.312,312.114L179.189,311.983L178.821,311.983L176.918,311.788L176.366,311.201L176.12,310.418L176.304,310.026L176.427,309.765L177.041,309.374L178.698,309.113L179.435,308.395L179.926,308.264L179.987,308.264L180.233,307.742L179.803,306.568L179.128,305.98L179.005,305.915L176.611,305.132L176.488,304.936L176.059,304.414L175.69,303.957L175.813,303.631L175.322,301.151L175.506,299.584L175.874,298.671L175.936,298.41L176.918,297.691L178.637,297.104L179.005,297.104L179.558,297.039L179.067,296.647L178.882,296.451L178.514,296.19L178.084,295.341L177.9,295.276L177.593,295.211L176.918,295.994L176.366,295.994L175.752,295.341L175.752,295.276L175.813,294.428L176.55,292.861L176.734,292.665L176.918,292.469L177.716,292.143L178.514,292.404L179.435,293.122L179.865,293.514L180.049,293.122L180.11,293.187L180.356,292.534L180.049,291.163L179.251,290.706L178.391,290.249L178.391,290.184L177.839,288.943L177.9,288.748L178.023,288.421L178.453,287.964L178.453,287.899L178.698,287.638L178.576,287.442L178.33,287.115L178.023,286.789L178.023,286.201L178.146,285.874L178.207,285.744L178.269,285.483L178.944,285.026L182.013,284.83L182.259,284.83L182.32,284.83L182.75,284.046L182.075,281.695L182.197,281.499L182.259,281.434L182.382,281.173L183.118,280.977L183.548,280.846L183.609,280.781L184.039,279.997L184.162,279.736L184.285,279.409L184.407,279.344L183.916,278.625L183.855,278.495L183.609,277.515L183.548,277.515L183.364,277.58L183.18,277.58L182.995,279.148L182.627,279.083L182.382,278.625L182.136,278.038L182.259,276.274L182.259,276.209L182.566,275.817L183.548,274.51L183.671,274.445L183.732,274.445L184.469,274.053L185.819,274.053L186.74,274.641L187.6,276.274L187.6,276.405L188.152,276.339L188.213,276.339L188.582,275.555L188.459,274.902L187.968,274.51L187.722,274.38L186.863,273.988L186.31,273.726L185.512,273.334L184.469,272.551L183.855,271.375L183.732,270.656L183.732,270.591L183.732,270.395L184.1,270.264L185.39,269.741L185.635,269.349L185.635,268.696L184.96,268.5L184.53,268.369L184.469,268.304L183.732,269.741L182.995,269.807L182.566,269.48L182.443,269.349L181.89,267.389L181.461,266.801L180.908,266.801L178.391,266.801L175.445,267.324L174.156,266.867L170.963,266.801L170.718,266.409L170.718,266.278L170.779,265.69L171.884,263.861L172.253,261.378L172.068,260.724L171.884,260.855L170.595,261.9L169.797,261.966L169.551,261.77L169.245,261.508L169.245,261.443L168.999,260.463L168.569,259.744L167.955,259.417L167.71,259.482L166.666,259.548L166.114,260.136L165.991,260.332L165.438,261.312L165.377,261.312L165.07,261.443L162.553,260.332L161.632,259.613L161.571,259.548L161.325,258.959L161.51,258.633L161.878,257.848L161.694,257.652L161.632,257.522L159.913,258.11L156.169,259.482L155.187,259.482L154.634,259.221L154.266,258.633L154.143,258.502L153.959,256.28L153.222,256.476L151.872,256.803L150.46,258.371L149.293,258.371L148.127,257.522L147.881,257.129L147.636,256.868L147.636,256.28L147.697,256.149L147.881,255.953L148.618,255.626L148.679,255.626L149.109,255.626L150.644,255.495L151.442,255.169L151.81,254.776L151.933,254.515L151.994,253.011L151.565,251.573L151.258,251.181L150.889,251.181L150.46,251.181L148.004,252.489L146.961,252.292L146.224,251.769L146.285,251.181L146.408,249.939L146.408,249.743L146.347,248.697L146.285,248.566L145.733,247.128L145.917,245.362L146.285,244.185L146.776,243.597L148.434,242.551L148.495,242.355L148.679,242.093L148.495,241.635L147.329,240.393L147.39,240.785L147.022,241.57L146.961,241.635L146.715,241.831L143.83,242.42L143.155,242.028L142.541,240.785L142.541,240.72L142.97,239.543L142.234,239.804L141.374,240.131L141.067,239.608L141.006,239.608L141.497,239.15L142.05,238.889L143.216,239.019L144.689,239.15L144.751,239.15L144.935,238.692L144.566,236.403L143.707,234.637L143.707,233.787L144.26,232.544L144.075,231.825L143.83,231.563L143.339,231.04L141.62,229.208L141.497,228.619L140.515,224.432L139.901,224.432L138.673,223.254L137.445,222.731L136.832,222.142L136.586,221.488L136.525,221.357L136.647,219.786L135.911,218.805L135.604,218.347L134.13,218.019L130.017,215.074L129.833,214.682L129.219,213.504L128.667,212.98L128.299,212.849L124.861,211.867L122.528,210.623L122.405,210.427L122.221,210.231L122.098,209.707L122.037,209.445L122.405,207.94L122.221,207.219L121.669,207.023L121.546,207.023L120.564,207.154L119.95,207.612L119.152,207.35L115.346,207.678L114.486,207.416L113.995,206.827L113.872,206.499L113.443,205.19L113.197,204.994L111.662,203.684L110.742,203.422L109.943,203.226L106.444,203.422L104.848,203.75L104.173,203.684L103.682,203.291L103.436,202.571L103.252,201.916L102.454,200.541L102.086,199.821L102.086,199.559L102.147,197.987L101.779,197.529L101.595,197.332L100.121,196.809L98.894,196.94L97.42,197.529L96.745,197.463L96.254,197.005L96.07,196.35L96.193,196.088L96.377,195.433L98.403,193.534L98.525,193.468L98.709,192.486L98.587,191.962L98.157,191.307L97.911,191.242L97.113,190.914L95.824,190.914L94.781,191.635L94.719,191.7L94.474,192.617L95.394,195.237L94.965,196.94L94.474,197.201L93.798,197.071L93.614,196.874L93.307,196.612L93.123,195.695L92.939,195.106L92.693,194.844L91.588,193.796L90.545,193.272L84.406,191.635L82.319,190.783L81.337,189.8L81.03,189.538L80.539,188.359L80.907,187.704L81.705,187.508L81.705,187.442L81.644,186.787L80.17,185.28L79.434,183.839L77.469,182.791L76.487,180.825L75.321,179.384L73.724,178.925L73.172,178.401L72.251,174.272L72.251,174.01L72.313,173.42L72.619,173.027L72.128,172.24L71.33,171.978L68.998,172.306L67.831,172.175L65.928,171.454L64.823,170.602L60.403,166.341L57.948,163.457L57.825,163.26L57.027,161.686L57.027,161.621L56.72,159.654L56.536,158.801L55.983,157.555L55.247,156.769L54.264,156.244L52.116,155.982L51.195,155.326L49.844,153.555L49.231,152.309L48.801,151.391L48.801,150.276L48.801,150.21L49.476,147.39L49.476,147.324L48.985,146.209L47.757,145.487L46.345,144.963L43.276,144.241L41.864,144.307L40.943,144.897L39.408,146.865L38.672,146.931L38.181,146.471L37.014,143.782L35.725,141.879L34.006,140.37L33.638,140.108L32.165,139.583L29.832,140.239L27.438,139.845L26.026,138.402L25.842,137.942L25.78,137.942L24,133.743L24.123,133.743L24.061,133.611L25.289,133.414L27.929,133.349L92.509,132.233L92.632,132.233L92.755,132.233L92.755,131.774L93.123,106.495L93.983,71.332L93.983,71.069L94.228,45.474L94.228,45.013L94.044,43.236L94.044,42.709L110.373,42.643L125.782,42.578L138.612,42.446L180.356,42.117L180.356,42.248L259.117,42.709L260.836,42.709Z" fill="rgba(180,200,195,0.35)"/>
  </g>
  <path d="M286.435,42.841L286.435,42.512L289.934,42.512L345.92,42.709L356.233,42.775L375.754,42.841L375.877,42.841L375.877,43.368L375.754,43.368L375.754,43.565L375.754,43.762L375.816,90.135L376,165.948L374.834,184.167L373.667,202.178L372.133,225.479L372.685,225.479L372.685,225.872L370.966,252.227L370.414,252.292L370.045,258.306L368.02,289.792L367.16,302.913L365.38,330.899L365.196,333.638L364.766,338.658L363.968,345.502L364.091,347.066L364.091,347.262L364.213,349.608L364.213,349.803L363.538,350.325L363.415,349.934L363.231,349.152L362.31,348.63L360.899,347.653L360.223,347.783L359.548,347.913L358.873,347.588L358.075,347.392L356.97,347.979L356.601,347.913L355.128,347.979L354.33,348.239L353.164,347.718L350.831,347.718L350.156,347.457L348.989,348.109L347.884,347.979L346.963,347.327L344.938,347.522L342.482,347.783L341.991,348.305L341.254,349.543L340.947,350.976L340.702,352.149L340.333,352.931L339.167,353.387L339.597,353.778L340.395,353.974L340.456,354.43L339.597,354.626L338.86,354.756L339.228,355.473L338.553,356.385L337.755,355.538L337.203,355.733L336.036,357.688L335.484,356.971L335.422,356.32L334.931,355.994L334.01,355.863L332.905,356.32L331.923,356.645L331.125,356.841L331.002,357.362L330.266,357.623L330.082,357.427L329.099,357.818L328.547,357.492L328.056,357.297L327.994,356.841L327.687,356.58L327.503,356.254L327.381,355.603L325.293,355.733L324.864,356.254L324.434,356.385L324.495,356.841L323.39,356.841L323.268,357.297L321.978,357.883L322.04,357.167L322.04,343.025L320.26,343.09L318.356,343.09L315.901,343.416L314.673,344.198L313.752,344.394L312.34,344.59L309.332,344.459L307.92,344.655L305.956,345.437L303.746,345.372L300.799,345.111L295.704,343.677L291.775,340.939L290.179,339.244L289.872,339.831L289.258,339.44L287.662,339.244L287.294,339.636L286.619,340.157L285.759,340.613L284.961,341.07L284.839,341.982L285.084,342.439L285.023,343.025L284.286,343.286L284.04,343.873L283.672,344.59L282.935,344.915L282.935,345.763L282.444,346.089L281.339,346.675L280.296,346.089L279.559,346.61L278.761,346.48L278.577,347.197L277.779,347.066L277.472,347.522L277.226,348.37L276.858,348.435L275.446,348.435L272.745,348.239L271.886,349.021L271.333,348.63L270.351,348.891L270.044,348.5L269.43,348.37L268.571,348.891L267.65,349.282L267.281,348.826L266.852,348.63L266.545,347.979L266.054,347.588L265.685,347.066L265.931,346.61L266.176,345.698L265.624,344.59L264.826,344.72L263.905,344.133L263.291,344.003L263.537,343.807L263.721,343.286L263.414,342.569L262.063,342.308L262.37,341.982L263.046,341.656L262.984,341.07L262.432,340.548L262.186,339.57L261.634,339.375L261.327,339.701L261.45,340.874L260.283,341.265L260.283,340.287L259.731,340.157L259.24,340.353L258.933,340.027L258.871,339.636L258.81,338.984L258.319,338.853L258.135,339.114L257.766,339.244L257.398,339.114L257.091,338.593L256.232,338.462L256.232,338.853L255.618,339.57L255.311,339.114L255.372,338.527L254.881,338.658L254.267,339.114L253.899,338.918L254.144,338.397L253.837,337.68L253.224,337.549L252.057,337.484L251.996,337.093L252.18,336.115L252.671,335.92L252.978,335.463L252.917,335.007L252.426,335.137L251.382,335.659L251.259,335.202L251.505,334.746L252.057,333.768L251.75,333.116L250.277,332.529L249.847,332.399L249.111,332.268L248.988,331.356L248.374,331.486L247.821,332.594L248.681,332.66L248.742,332.92L248.619,333.572L248.804,334.485L248.313,335.007L247.514,334.485L247.33,334.29L246.287,334.094L244.752,334.55L243.463,335.463L242.726,335.007L243.586,334.224L243.033,333.572L242.481,332.79L240.7,333.051L239.473,332.203L238.797,332.725L239.35,334.355L238.552,335.659L210.62,326.53L178.514,322.356L177.409,322.291L177.409,322.225L177.409,322.095L177.102,321.769L177.041,321.769L176.795,321.508L176.734,321.117L176.672,320.986L176.672,320.921L176.979,320.464L177.839,320.073L178.76,318.703L179.926,318.181L180.049,318.181L180.233,317.659L179.681,317.464L179.251,317.594L178.576,317.855L176.857,319.747L176.488,319.682L175.813,319.16L175.567,318.703L175.015,317.268L175.506,314.463L175.506,314.397L175.813,313.941L176.672,313.81L177.716,314.137L178.576,314.789L178.698,314.854L179.128,314.985L179.374,314.724L179.189,313.419L179.435,312.636L179.558,312.244L179.312,312.114L179.189,311.983L178.821,311.983L176.918,311.788L176.366,311.201L176.12,310.418L176.304,310.026L176.427,309.765L177.041,309.374L178.698,309.113L179.435,308.395L179.926,308.264L179.987,308.264L180.233,307.742L179.803,306.568L179.128,305.98L179.005,305.915L176.611,305.132L176.488,304.936L176.059,304.414L175.69,303.957L175.813,303.631L175.322,301.151L175.506,299.584L175.874,298.671L175.936,298.41L176.918,297.691L178.637,297.104L179.005,297.104L179.558,297.039L179.067,296.647L178.882,296.451L178.514,296.19L178.084,295.341L177.9,295.276L177.593,295.211L176.918,295.994L176.366,295.994L175.752,295.341L175.752,295.276L175.813,294.428L176.55,292.861L176.734,292.665L176.918,292.469L177.716,292.143L178.514,292.404L179.435,293.122L179.865,293.514L180.049,293.122L180.11,293.187L180.356,292.534L180.049,291.163L179.251,290.706L178.391,290.249L178.391,290.184L177.839,288.943L177.9,288.748L178.023,288.421L178.453,287.964L178.453,287.899L178.698,287.638L178.576,287.442L178.33,287.115L178.023,286.789L178.023,286.201L178.146,285.874L178.207,285.744L178.269,285.483L178.944,285.026L182.013,284.83L182.259,284.83L182.32,284.83L182.75,284.046L182.075,281.695L182.197,281.499L182.259,281.434L182.382,281.173L183.118,280.977L183.548,280.846L183.609,280.781L184.039,279.997L184.162,279.736L184.285,279.409L184.407,279.344L183.916,278.625L183.855,278.495L183.609,277.515L183.548,277.515L183.364,277.58L183.18,277.58L182.995,279.148L182.627,279.083L182.382,278.625L182.136,278.038L182.259,276.274L182.259,276.209L182.566,275.817L183.548,274.51L183.671,274.445L183.732,274.445L184.469,274.053L185.819,274.053L186.74,274.641L187.6,276.274L187.6,276.405L188.152,276.339L188.213,276.339L188.582,275.555L188.459,274.902L187.968,274.51L187.722,274.38L186.863,273.988L186.31,273.726L185.512,273.334L184.469,272.551L183.855,271.375L183.732,270.656L183.732,270.591L183.732,270.395L184.1,270.264L185.39,269.741L185.635,269.349L185.635,268.696L184.96,268.5L184.53,268.369L184.469,268.304L183.732,269.741L182.995,269.807L182.566,269.48L182.443,269.349L181.89,267.389L181.461,266.801L180.908,266.801L178.391,266.801L175.445,267.324L174.156,266.867L170.963,266.801L170.718,266.409L170.718,266.278L170.779,265.69L171.884,263.861L172.253,261.378L172.068,260.724L171.884,260.855L170.595,261.9L169.797,261.966L169.551,261.77L169.245,261.508L169.245,261.443L168.999,260.463L168.569,259.744L167.955,259.417L167.71,259.482L166.666,259.548L166.114,260.136L165.991,260.332L165.438,261.312L165.377,261.312L165.07,261.443L162.553,260.332L161.632,259.613L161.571,259.548L161.325,258.959L161.51,258.633L161.878,257.848L161.694,257.652L161.632,257.522L159.913,258.11L156.169,259.482L155.187,259.482L154.634,259.221L154.266,258.633L154.143,258.502L153.959,256.28L153.222,256.476L151.872,256.803L150.46,258.371L149.293,258.371L148.127,257.522L147.881,257.129L147.636,256.868L147.636,256.28L147.697,256.149L147.881,255.953L148.618,255.626L148.679,255.626L149.109,255.626L150.644,255.495L151.442,255.169L151.81,254.776L151.933,254.515L151.994,253.011L151.565,251.573L151.258,251.181L150.889,251.181L150.46,251.181L148.004,252.489L146.961,252.292L146.224,251.769L146.285,251.181L146.408,249.939L146.408,249.743L146.347,248.697L146.285,248.566L145.733,247.128L145.917,245.362L146.285,244.185L146.776,243.597L148.434,242.551L148.495,242.355L148.679,242.093L148.495,241.635L147.329,240.393L147.39,240.785L147.022,241.57L146.961,241.635L146.715,241.831L143.83,242.42L143.155,242.028L142.541,240.785L142.541,240.72L142.97,239.543L142.234,239.804L141.374,240.131L141.067,239.608L141.006,239.608L141.497,239.15L142.05,238.889L143.216,239.019L144.689,239.15L144.751,239.15L144.935,238.692L144.566,236.403L143.707,234.637L143.707,233.787L144.26,232.544L144.075,231.825L143.83,231.563L143.339,231.04L141.62,229.208L141.497,228.619L140.515,224.432L139.901,224.432L138.673,223.254L137.445,222.731L136.832,222.142L136.586,221.488L136.525,221.357L136.647,219.786L135.911,218.805L135.604,218.347L134.13,218.019L130.017,215.074L129.833,214.682L129.219,213.504L128.667,212.98L128.299,212.849L124.861,211.867L122.528,210.623L122.405,210.427L122.221,210.231L122.098,209.707L122.037,209.445L122.405,207.94L122.221,207.219L121.669,207.023L121.546,207.023L120.564,207.154L119.95,207.612L119.152,207.35L115.346,207.678L114.486,207.416L113.995,206.827L113.872,206.499L113.443,205.19L113.197,204.994L111.662,203.684L110.742,203.422L109.943,203.226L106.444,203.422L104.848,203.75L104.173,203.684L103.682,203.291L103.436,202.571L103.252,201.916L102.454,200.541L102.086,199.821L102.086,199.559L102.147,197.987L101.779,197.529L101.595,197.332L100.121,196.809L98.894,196.94L97.42,197.529L96.745,197.463L96.254,197.005L96.07,196.35L96.193,196.088L96.377,195.433L98.403,193.534L98.525,193.468L98.709,192.486L98.587,191.962L98.157,191.307L97.911,191.242L97.113,190.914L95.824,190.914L94.781,191.635L94.719,191.7L94.474,192.617L95.394,195.237L94.965,196.94L94.474,197.201L93.798,197.071L93.614,196.874L93.307,196.612L93.123,195.695L92.939,195.106L92.693,194.844L91.588,193.796L90.545,193.272L84.406,191.635L82.319,190.783L81.337,189.8L81.03,189.538L80.539,188.359L80.907,187.704L81.705,187.508L81.705,187.442L81.644,186.787L80.17,185.28L79.434,183.839L77.469,182.791L76.487,180.825L75.321,179.384L73.724,178.925L73.172,178.401L72.251,174.272L72.251,174.01L72.313,173.42L72.619,173.027L72.128,172.24L71.33,171.978L68.998,172.306L67.831,172.175L65.928,171.454L64.823,170.602L60.403,166.341L57.948,163.457L57.825,163.26L57.027,161.686L57.027,161.621L56.72,159.654L56.536,158.801L55.983,157.555L55.247,156.769L54.264,156.244L52.116,155.982L51.195,155.326L49.844,153.555L49.231,152.309L48.801,151.391L48.801,150.276L48.801,150.21L49.476,147.39L49.476,147.324L48.985,146.209L47.757,145.487L46.345,144.963L43.276,144.241L41.864,144.307L40.943,144.897L39.408,146.865L38.672,146.931L38.181,146.471L37.014,143.782L35.725,141.879L34.006,140.37L33.638,140.108L32.165,139.583L29.832,140.239L27.438,139.845L26.026,138.402L25.842,137.942L25.78,137.942L24,133.743L24.123,133.743L24.061,133.611L25.289,133.414L27.929,133.349L92.509,132.233L92.632,132.233L92.755,132.233L92.755,131.774L93.123,106.495L93.983,71.332L93.983,71.069L94.228,45.474L94.228,45.013L94.044,43.236L94.044,42.709L110.373,42.643L125.782,42.578L138.612,42.446L180.356,42.117L180.356,42.248L259.117,42.709L260.836,42.709Z" fill="none" stroke="rgba(255,255,255,0.9)" stroke-width="2"/>
</svg>