<?xml version="1.0" encoding="UTF-8"?>
<svg viewBox="0 0 400 400" xmlns="http://www.w3.org/2000/svg" role="img" aria-label="Quetzaltenango">
  <defs>
    <clipPath id="c"><path d="M306.176,117.577L307.853,143.96L311.019,146.322L311.578,149.472L310.647,151.243L311.392,152.424L299.843,162.069L301.705,162.069L314.186,158.133L315.117,158.33L315.49,159.707L315.49,162.66L315.303,164.038L315.676,165.219L318.47,169.549L319.402,173.091L321.451,177.224L324.245,183.718L327.225,188.835L329.088,190.999L329.647,190.999L334.676,190.999L336.166,189.425L338.401,188.048L339.147,185.883L338.774,185.489L337.656,183.522L340.45,182.734L343.617,181.16L346.039,180.963L349.205,182.734L351.813,183.522L356.284,185.096L355.725,189.228L356.097,193.557L355.539,196.902L354.235,201.231L363.921,206.937L371.558,218.544L370.068,228.379L353.862,245.295L352.745,246.278L352.186,248.835L351.999,254.734L351.999,255.718L351.441,256.898L350.882,257.488L348.46,257.881L344.548,258.274L343.617,259.061L343.058,260.044L341.754,262.207L340.823,263.387L339.333,264.96L336.539,266.14L334.862,267.123L333.558,268.106L332.813,269.482L332.441,271.645L324.803,279.706L323.127,281.476L321.451,283.049L319.96,283.639L319.588,283.639L316.794,284.228L316.049,285.408L315.676,285.998L314.931,285.998L314.186,286.194L312.509,286.587L311.951,285.604L311.578,284.622L310.833,283.442L311.019,282.459L307.48,287.57L302.078,291.502L300.029,293.861L298.911,295.434L296.676,297.793L293.323,300.938L291.647,300.741L289.225,300.152L286.058,301.331L284.196,303.1L283.823,303.886L284.382,305.262L284.009,307.621L282.147,309.39L279.725,310.766L277.862,311.552L276.745,311.749L276,312.535L275.255,312.142L275.068,310.373L274.323,308.997L275.813,303.493L275.255,301.528L276.186,300.152L276.372,299.365L274.696,299.365L267.99,298.972L267.245,299.955L267.059,301.134L266.313,304.869L265.382,305.655L264.637,305.852L264.078,307.228L262.402,308.211L262.402,309.98L262.402,311.749L261.843,313.911L257.559,318.038L256.627,319.414L253.461,320.986L254.019,317.055L252.157,316.662L249.363,309.193L249.176,303.1L249.549,301.134L247.686,300.348L246.196,301.921L245.823,302.51L245.451,304.083L243.961,306.048L242.47,306.245L241.539,305.655L242.284,302.904L242.098,299.562L242.284,297.4L243.216,295.63L243.961,294.451L245.265,293.075L245.637,292.092L245.451,289.143L246.196,285.998L247.686,284.032L248.245,282.656L247.127,280.296L247.872,278.723L248.431,277.544L248.804,275.774L248.431,274.201L248.804,271.842L249.549,270.662L247.686,269.286L246.568,269.482L246.755,270.859L246.382,271.842L245.637,272.038L244.519,272.432L242.657,272.038L241.725,272.235L237.627,275.578L236.51,277.151L235.019,278.527L233.716,279.313L232.97,280.493L232.039,281.476L231.48,281.672L230.176,285.015L229.431,286.981L228.686,288.16L228.127,289.34L227.382,291.109L227.382,292.092L226.637,293.468L225.892,293.861L226.823,297.989L225.892,297.203L217.51,292.289L218.255,291.109L217.137,290.126L213.784,297.793L211.922,300.938L211.363,302.117L209.873,302.904L209.127,305.262L207.823,309.586L207.823,311.159L207.637,313.517L207.451,316.269L207.265,319.61L208.196,320.986L208.196,322.755L207.637,324.72L207.637,325.899L207.637,327.078L206.706,329.829L195.716,327.668L193.853,330.812L193.667,332.58L193.48,333.956L192.735,334.939L192.549,336.314L192.922,337.69L193.667,339.065L194.226,340.834L194.971,341.816L194.226,343.781L194.039,345.549L193.667,347.711L192.363,352.622L191.99,353.801L190.873,355.177L190.5,355.962L190.127,356.945L188.824,357.141L188.451,357.927L188.078,359.499L187.706,361.267L187.147,362.642L186.402,363.231L186.216,364.607L186.402,365.392L186.402,366.375L185.843,366.767L185.657,367.553L185.843,368.143L186.402,369.518L186.029,370.5L185.284,370.696L184.167,372.071L183.794,373.054L183.235,374.625L182.49,375.018L181.745,375.214L180.255,374.429L179.137,375.214L178.02,374.232L176.902,374.232L175.971,374.625L174.667,376L173.363,375.804L171.5,375.607L170.382,374.232L169.079,373.643L167.216,373.643L164.608,373.25L162.932,372.661L161.628,371.875L160.51,370.5L158.088,369.518L156.412,369.125L153.99,368.143L153.432,367.75L152.686,366.178L152.314,365.982L150.451,365.785L149.706,366.375L148.775,367.16L146.912,368.732L146.539,368.928L145.981,368.732L145.422,368.339L145.236,367.553L143.745,367.75L136.108,368.143L134.804,368.143L133.5,366.571L132.755,365.392L132.01,364.803L130.706,364.214L129.589,364.214L126.794,363.821L125.677,363.231L124.373,362.446L123.814,362.053L122.883,361.463L121.951,361.07L120.089,361.463L119.902,361.66L118.04,363.035L112.824,359.302L108.167,356.552L107.049,356.945L106.677,355.569L105,354.587L102.393,354.98L100.157,355.177L98.481,354.587L95.128,354.98L90.285,351.247L86.373,350.461L81.716,348.889L78.549,346.728L76.873,344.567L75.942,344.37L70.167,341.816L67.746,339.065L68.304,331.008L53.961,326.095L53.216,329.043L28.442,317.055L28.814,312.928L29.373,312.338L39.432,305.459L41.667,302.51L43.157,300.348L43.903,297.4L45.393,296.417L48.373,297.006L50.236,293.861L51.54,289.93L52.285,286.784L54.706,284.425L57.873,284.818L60.295,285.211L63.275,281.279L65.51,279.51L67.187,276.954L69.236,273.808L74.079,272.825L75.755,270.662L78.549,270.466L80.785,268.696L83.02,268.499L88.981,270.466L93.079,270.859L96.245,271.252L98.108,271.252L99.598,271.449L102.206,271.842L103.51,271.449L105.745,271.055L108.54,270.859L110.402,270.859L111.706,271.449L114.128,270.859L114.128,270.269L114.5,268.696L115.245,268.106L116.549,267.516L117.667,266.336L118.04,265.353L119.343,264.567L120.647,265.157L121.765,265.55L122.324,264.763L123.255,263.977L124.187,264.37L124.932,263.583L126.049,263.19L127.539,263.977L128.471,265.157L130.706,264.96L131.638,264.763L132.569,266.14L133.128,265.943L134.245,265.943L134.99,267.123L136.108,266.73L137.039,266.926L137.598,267.909L138.343,268.303L139.275,268.696L139.461,269.286L140.206,268.893L141.137,268.106L142.069,268.499L143.745,268.499L146.167,268.499L149.147,269.286L150.824,268.106L151.383,268.499L154.177,268.499L157.53,268.499L159.206,267.713L161.814,267.909L164.049,268.106L164.981,269.876L166.284,269.876L172.245,268.106L173.363,266.926L175.226,265.943L176.157,262.797L177.088,262.207L178.579,262.207L182.863,261.617L185.284,262.01L187.147,260.83L189.01,259.454L189.755,258.471L191.059,256.701L191.245,255.128L191.99,251.981L191.804,250.211L192.363,249.425L194.412,245.885L194.039,244.115L194.598,242.541L197.02,238.608L196.275,237.427L195.343,236.051L195.902,233.494L196.647,232.707L196.647,232.117L196.088,231.527L195.343,230.543L194.598,229.166L194.971,225.232L194.598,222.675L194.971,221.495L196.088,221.101L199.255,217.167L198.137,215.003L197.951,213.429L199.255,211.658L200,210.281L200.745,208.904L203.539,203.985L204.098,201.428L206.147,199.067L206.147,194.541L206.706,193.557L208.196,191.786L212.48,190.212L214.529,188.244L215.274,185.096L215.647,184.309L217.696,183.915L217.882,183.915L219,184.505L219.186,184.309L219.559,183.915L220.118,184.112L220.863,184.702L221.98,184.505L222.353,183.915L222.912,182.931L223.843,182.144L227.196,179.979L227.569,178.995L224.588,175.256L223.098,173.682L221.608,169.745L225.333,169.155L226.823,168.761L228.5,168.368L232.97,165.612L233.343,164.628L235.019,164.038L236.323,163.447L237.627,161.479L239.304,159.904L242.657,157.936L243.216,156.952L243.774,155.968L244.892,154.59L243.961,151.046L243.216,149.472L245.823,136.085L249.363,119.939L251.598,105.761L249.363,104.776L246.755,103.792L244.706,98.868L242.657,98.08L241.725,97.883L240.049,95.717L239.117,94.535L237.255,93.156L235.206,92.172L235.392,88.823L234.274,87.641L233.343,86.066L232.97,84.687L232.039,83.111L231.853,81.338L232.412,78.777L233.343,77.595L234.274,77.201L235.019,75.428L236.696,75.231L236.696,73.852L237.627,72.079L238.931,71.094L238.745,70.109L240.235,68.927L239.304,67.548L240.049,66.563L240.98,65.381L242.657,65.381L246.01,61.638L266.5,60.653L271.343,58.289L286.804,49.619L294.441,24L317.352,33.066L321.264,62.032L319.029,64.199L303.941,78.58Z"/></clipPath>
    <pattern id="mesh" width="14" height="14" patternUnits="userSpaceOnUse">
      <path d="M0 14 L14 0 M-2 2 L2 -2 M12 16 L16 12" stroke="rgba(255,255,255,0.2)" stroke-width="0.6" fill="none"/>
    </pattern>
  </defs>
  <g clip-path="url(#c)">
    <rect width="400" height="400" fill="url(#mesh)"/>
    <path d="M306.176,117.577L307.853,143.96L311.019,146.322L311.578,149.472L310.647,151.243L311.392,152.424L299.843,162.069L301.705,162.069L314.186,158.133L315.117,158.33L315.49,159.707L315.49,162.66L315.303,164.038L315.676,165.219L318.47,169.549L319.402,173.091L321.451,177.224L324.245,183.718L327.225,188.835L329.088,190.999L329.647,190.999L334.676,190.999L336.166,189.425L338.401,188.048L339.147,185.883L338.774,185.489L337.656,183.522L340.45,182.734L343.617,181.16L346.039,180.963L349.205,182.734L351.813,183.522L356.284,185.096L355.725,189.228L356.097,193.557L355.539,196.902L354.235,201.231L363.921,206.937L371.558,218.544L370.068,228.379L353.862,245.295L352.745,246.278L352.186,248.835L351.999,254.734L351.999,255.718L351.441,256.898L350.882,257.488L348.46,257.881L344.548,258.274L343.617,259.061L343.058,260.044L341.754,262.207L340.823,263.387L339.333,264.96L336.539,266.14L334.862,267.123L333.558,268.106L332.813,269.482L332.441,271.645L324.803,279.706L323.127,281.476L321.451,283.049L319.96,283.639L319.588,283.639L316.794,284.228L316.049,285.408L315.676,285.998L314.931,285.998L314.186,286.194L312.509,286.587L311.951,285.604L311.578,284.622L310.833,283.442L311.019,282.459L307.48,287.57L302.078,291.502L300.029,293.861L298.911,295.434L296.676,297.793L293.323,300.938L291.647,300.741L289.225,300.152L286.058,301.331L284.196,303.1L283.823,303.886L284.382,305.262L284.009,307.621L282.147,309.39L279.725,310.766L277.862,311.552L276.745,311.749L276,312.535L275.255,312.142L275.068,310.373L274.323,308.997L275.813,303.493L275.255,301.528L276.186,300.152L276.372,299.365L274.696,299.365L267.99,298.972L267.245,299.955L267.059,301.134L266.313,304.869L265.382,305.655L264.637,305.852L264.078,307.228L262.402,308.211L262.402,309.98L262.402,311.749L261.843,313.911L257.559,318.038L256.627,319.414L253.461,320.986L254.019,317.055L252.157,316.662L249.363,309.193L249.176,303.1L249.549,301.134L247.686,300.348L246.196,301.921L245.823,302.51L245.451,304.083L243.961,306.048L242.47,306.245L241.539,305.655L242.284,302.904L242.098,299.562L242.284,297.4L243.216,295.63L243.961,294.451L245.265,293.075L245.637,292.092L245.451,289.143L246.196,285.998L247.686,284.032L248.245,282.656L247.127,280.296L247.872,278.723L248.431,277.544L248.804,275.774L248.431,274.201L248.804,271.842L249.549,270.662L247.686,269.286L246.568,269.482L246.755,270.859L246.382,271.842L245.637,272.038L244.519,272.432L242.657,272.038L241.725,272.235L237.627,275.578L236.51,277.151L235.019,278.527L233.716,279.313L232.97,280.493L232.039,281.476L231.48,281.672L230.176,285.015L229.431,286.981L228.686,288.16L228.127,289.34L227.382,291.109L227.382,292.092L226.637,293.468L225.892,293.861L226.823,297.989L225.892,297.203L217.51,292.289L218.255,291.109L217.137,290.126L213.784,297.793L211.922,300.938L211.363,302.117L209.873,302.904L209.127,305.262L207.823,309.586L207.823,311.159L207.637,313.517L207.451,316.269L207.265,319.61L208.196,320.986L208.196,322.755L207.637,324.72L207.637,325.899L207.637,327.078L206.706,329.829L195.716,327.668L193.853,330.812L193.667,332.58L193.48,333.956L192.735,334.939L192.549,336.314L192.922,337.69L193.667,339.065L194.226,340.834L194.971,341.816L194.226,343.781L194.039,345.549L193.667,347.711L192.363,352.622L191.99,353.801L190.873,355.177L190.5,355.962L190.127,356.945L188.824,357.141L188.451,357.927L188.078,359.499L187.706,361.267L187.147,362.642L186.402,363.231L186.216,364.607L186.402,365.392L186.402,366.375L185.843,366.767L185.657,367.553L185.843,368.143L186.402,369.518L186.029,370.5L185.284,370.696L184.167,372.071L183.794,373.054L183.235,374.625L182.49,375.018L181.745,375.214L180.255,374.429L179.137,375.214L178.02,374.232L176.902,374.232L175.971,374.625L174.667,376L173.363,375.804L171.5,375.607L170.382,374.232L169.079,373.643L167.216,373.643L164.608,373.25L162.932,372.661L161.628,371.875L160.51,370.5L158.088,369.518L156.412,369.125L153.99,368.143L153.432,367.75L152.686,366.178L152.314,365.982L150.451,365.785L149.706,366.375L148.775,367.16L146.912,368.732L146.539,368.928L145.981,368.732L145.422,368.339L145.236,367.553L143.745,367.75L136.108,368.143L134.804,368.143L133.5,366.571L132.755,365.392L132.01,364.803L130.706,364.214L129.589,364.214L126.794,363.821L125.677,363.231L124.373,362.446L123.814,362.053L122.883,361.463L121.951,361.07L120.089,361.463L119.902,361.66L118.04,363.035L112.824,359.302L108.167,356.552L107.049,356.945L106.677,355.569L105,354.587L102.393,354.98L100.157,355.177L98.481,354.587L95.128,354.98L90.285,351.247L86.373,350.461L81.716,348.889L78.549,346.728L76.873,344.567L75.942,344.37L70.167,341.816L67.746,339.065L68.304,331.008L53.961,326.095L53.216,329.043L28.442,317.055L28.814,312.928L29.373,312.338L39.432,305.459L41.667,302.51L43.157,300.348L43.903,297.4L45.393,296.417L48.373,297.006L50.236,293.861L51.54,289.93L52.285,286.784L54.706,284.425L57.873,284.818L60.295,285.211L63.275,281.279L65.51,279.51L67.187,276.954L69.236,273.808L74.079,272.825L75.755,270.662L78.549,270.466L80.785,268.696L83.02,268.499L88.981,270.466L93.079,270.859L96.245,271.252L98.108,271.252L99.598,271.449L102.206,271.842L103.51,271.449L105.745,271.055L108.54,270.859L110.402,270.859L111.706,271.449L114.128,270.859L114.128,270.269L114.5,268.696L115.245,268.106L116.549,267.516L117.667,266.336L118.04,265.353L119.343,264.567L120.647,265.157L121.765,265.55L122.324,264.763L123.255,263.977L124.187,264.37L124.932,263.583L126.049,263.19L127.539,263.977L128.471,265.157L130.706,264.96L131.638,264.763L132.569,266.14L133.128,265.943L134.245,265.943L134.99,267.123L136.108,266.73L137.039,266.926L137.598,267.909L138.343,268.303L139.275,268.696L139.461,269.286L140.206,268.893L141.137,268.106L142.069,268.499L143.745,268.499L146.167,268.499L149.147,269.286L150.824,268.106L151.383,268.499L154.177,268.499L157.53,268.499L159.206,267.713L161.814,267.909L164.049,268.106L164.981,269.876L166.284,269.876L172.245,268.106L173.363,266.926L175.226,265.943L176.157,262.797L177.088,262.207L178.579,262.207L182.863,261.617L185.284,262.01L187.147,260.83L189.01,259.454L189.755,258.471L191.059,256.701L191.245,255.128L191.99,251.981L191.804,250.211L192.363,249.425L194.412,245.885L194.039,244.115L194.598,242.541L197.02,238.608L196.275,237.427L195.343,236.051L195.902,233.494L196.647,232.707L196.647,232.117L196.088,231.527L195.343,230.543L194.598,229.166L194.971,225.232L194.598,222.675L194.971,221.495L196.088,221.101L199.255,217.167L198.137,215.003L197.951,213.429L199.255,211.658L200,210.281L200.745,208.904L203.539,203.985L204.098,201.428L206.147,199.067L206.147,194.541L206.706,193.557L208.196,191.786L212.48,190.212L214.529,188.244L215.274,185.096L215.647,184.309L217.696,183.915L217.882,183.915L219,184.505L219.186,184.309L219.559,183.915L220.118,184.112L220.863,184.702L221.98,184.505L222.353,183.915L222.912,182.931L223.843,182.144L227.196,179.979L227.569,178.995L224.588,175.256L223.098,173.682L221.608,169.745L225.333,169.155L226.823,168.761L228.5,168.368L232.97,165.612L233.343,164.628L235.019,164.038L236.323,163.447L237.627,161.479L239.304,159.904L242.657,157.936L243.216,156.952L243.774,155.968L244.892,154.59L243.961,151.046L243.216,149.472L245.823,136.085L249.363,119.939L251.598,105.761L249.363,104.776L246.755,103.792L244.706,98.868L242.657,98.08L241.725,97.883L240.049,95.717L239.117,94.535L237.255,93.156L235.206,92.172L235.392,88.823L234.274,87.641L233.343,86.066L232.97,84.687L232.039,83.111L231.853,81.338L232.412,78.777L233.343,77.595L234.274,77.201L235.019,75.428L236.696,75.231L236.696,73.852L237.627,72.079L238.931,71.094L238.745,70.109L240.235,68.927L239.304,67.548L240.049,66.563L240.98,65.381L242.657,65.381L246.01,61.638L266.5,60.653L271.343,58.289L286.804,49.619L294.441,24L317.352,33.066L321.264,62.032L319.029,64.199L303.941,78.58Z" fill="rgba(180,200,195,0.35)"/>
  </g>
  <path d="M306.176,117.577L307.853,143.96L311.019,146.322L311.578,149.472L310.647,151.243L311.392,152.424L299.843,162.069L301.705,162.069L314.186,158.133L315.117,158.33L315.49,159.707L315.49,162.66L315.303,164.038L315.676,165.219L318.47,169.549L319.402,173.091L321.451,177.224L324.245,183.718L327.225,188.835L329.088,190.999L329.647,190.999L334.676,190.999L336.166,189.425L338.401,188.048L339.147,185.883L338.774,185.489L337.656,183.522L340.45,182.734L343.617,181.16L346.039,180.963L349.205,182.734L351.813,183.522L356.284,185.096L355.725,189.228L356.097,193.557L355.539,196.902L354.235,201.231L363.921,206.937L371.558,218.544L370.068,228.379L353.862,245.295L352.745,246.278L352.186,248.835L351.999,254.734L351.999,255.718L351.441,256.898L350.882,257.488L348.46,257.881L344.548,258.274L343.617,259.061L343.058,260.044L341.754,262.207L340.823,263.387L339.333,264.96L336.539,266.14L334.862,267.123L333.558,268.106L332.813,269.482L332.441,271.645L324.803,279.706L323.127,281.476L321.451,283.049L319.96,283.639L319.588,283.639L316.794,284.228L316.049,285.408L315.676,285.998L314.931,285.998L314.186,286.194L312.509,286.587L311.951,285.604L311.578,284.622L310.833,283.442L311.019,282.459L307.48,287.57L302.078,291.502L300.029,293.861L298.911,295.434L296.676,297.793L293.323,300.938L291.647,300.741L289.225,300.152L286.058,301.331L284.196,303.1L283.823,303.886L284.382,305.262L284.009,307.621L282.147,309.39L279.725,310.766L277.862,311.552L276.745,311.749L276,312.535L275.255,312.142L275.068,310.373L274.323,308.997L275.813,303.493L275.255,301.528L276.186,300.152L276.372,299.365L274.696,299.365L267.99,298.972L267.245,299.955L267.059,301.134L266.313,304.869L265.382,305.655L264.637,305.852L264.078,307.228L262.402,308.211L262.402,309.98L262.402,311.749L261.843,313.911L257.559,318.038L256.627,319.414L253.461,320.986L254.019,317.055L252.157,316.662L249.363,309.193L249.176,303.1L249.549,301.134L247.686,300.348L246.196,301.921L245.823,302.51L245.451,304.083L243.961,306.048L242.47,306.245L241.539,305.655L242.284,302.904L242.098,299.562L242.284,297.4L243.216,295.63L243.961,294.451L245.265,293.075L245.637,292.092L245.451,289.143L246.196,285.998L247.686,284.032L248.245,282.656L247.127,280.296L247.872,278.723L248.431,277.544L248.804,275.774L248.431,274.201L248.804,271.842L249.549,270.662L247.686,269.286L246.568,269.482L246.755,270.859L246.382,271.842L245.637,272.038L244.519,272.432L242.657,272.038L241.725,272.235L237.627,275.578L236.51,277.151L235.019,278.527L233.716,279.313L232.97,280.493L232.039,281.476L231.48,281.672L230.176,285.015L229.431,286.981L228.686,288.16L228.127,289.34L227.382,291.109L227.382,292.092L226.637,293.468L225.892,293.861L226.823,297.989L225.892,297.203L217.51,292.289L218.255,291.109L217.137,290.126L213.784,297.793L211.922,300.938L211.363,302.117L209.873,302.904L209.127,305.262L207.823,309.586L207.823,311.159L207.637,313.517L207.451,316.269L207.265,319.61L208.196,320.986L208.196,322.755L207.637,324.72L207.637,325.899L207.637,327.078L206.706,329.829L195.716,327.668L193.853,330.812L193.667,332.58L193.48,333.956L192.735,334.939L192.549,336.314L192.922,337.69L193.667,339.065L194.226,340.834L194.971,341.816L194.226,343.781L194.039,345.549L193.667,347.711L192.363,352.622L191.99,353.801L190.873,355.177L190.5,355.962L190.127,356.945L188.824,357.141L188.451,357.927L188.078,359.499L187.706,361.267L187.147,362.642L186.402,363.231L186.216,364.607L186.402,365.392L186.402,366.375L185.843,366.767L185.657,367.553L185.843,368.143L186.402,369.518L186.029,370.5L185.284,370.696L184.167,372.071L183.794,373.054L183.235,374.625L182.49,375.018L181.745,375.214L180.255,374.429L179.137,375.214L178.02,374.232L176.902,374.232L175.971,374.625L174.667,376L173.363,375.804L171.5,375.607L170.382,374.232L169.079,373.643L167.216,373.643L164.608,373.25L162.932,372.661L161.628,371.875L160.51,370.5L158.088,369.518L156.412,369.125L153.99,368.143L153.432,367.75L152.686,366.178L152.314,365.982L150.451,365.785L149.706,366.375L148.775,367.16L146.912,368.732L146.539,368.928L145.981,368.732L145.422,368.339L145.236,367.553L143.745,367.75L136.108,368.143L134.804,368.143L133.5,366.571L132.755,365.392L132.01,364.803L130.706,364.214L129.589,364.214L126.794,363.821L125.677,363.231L124.373,362.446L123.814,362.053L122.883,361.463L121.951,361.07L120.089,361.463L119.902,361.66L118.04,363.035L112.824,359.302L108.167,356.552L107.049,356.945L106.677,355.569L105,354.587L102.393,354.98L100.157,355.177L98.481,354.587L95.128,354.98L90.285,351.247L86.373,350.461L81.716,348.889L78.549,346.728L76.873,344.567L75.942,344.37L70.167,341.816L67.746,339.065L68.304,331.008L53.961,326.095L53.216,329.043L28.442,317.055L28.814,312.928L29.373,312.338L39.432,305.459L41.667,302.51L43.157,300.348L43.903,297.4L45.393,296.417L48.373,297.006L50.236,293.861L51.54,289.93L52.285,286.784L54.706,284.425L57.873,284.818L60.295,285.211L63.275,281.279L65.51,279.51L67.187,276.954L69.236,273.808L74.079,272.825L75.755,270.662L78.549,270.466L80.785,268.696L83.02,268.499L88.981,270.466L93.079,270.859L96.245,271.252L98.108,271.252L99.598,271.449L102.206,271.842L103.51,271.449L105.745,271.055L108.54,270.859L110.402,270.859L111.706,271.449L114.128,270.859L114.128,270.269L114.5,268.696L115.245,268.106L116.549,267.516L117.667,266.336L118.04,265.353L119.343,264.567L120.647,265.157L121.765,265.55L122.324,264.763L123.255,263.977L124.187,264.37L124.932,263.583L126.049,263.19L127.539,263.977L128.471,265.157L130.706,264.96L131.638,264.763L132.569,266.14L133.128,265.943L134.245,265.943L134.99,267.123L136.108,266.73L137.039,266.926L137.598,267.909L138.343,268.303L139.275,268.696L139.461,269.286L140.206,268.893L141.137,268.106L142.069,268.499L143.745,268.499L146.167,268.499L149.147,269.286L150.824,268.106L151.383,268.499L154.177,268.499L157.53,268.499L159.206,267.713L161.814,267.909L164.049,268.106L164.981,269.876L166.284,269.876L172.245,268.106L173.363,266.926L175.226,265.943L176.157,262.797L177.088,262.207L178.579,262.207L182.863,261.617L185.284,262.01L187.147,260.83L189.01,259.454L189.755,258.471L191.059,256.701L191.245,255.128L191.99,251.981L191.804,250.211L192.363,249.425L194.412,245.885L194.039,244.115L194.598,242.541L197.02,238.608L196.275,237.427L195.343,236.051L195.902,233.494L196.647,232.707L196.647,232.117L196.088,231.527L195.343,230.543L194.598,229.166L194.971,225.232L194.598,222.675L194.971,221.495L196.088,221.101L199.255,217.167L198.137,215.003L197.951,213.429L199.255,211.658L200,210.281L200.745,208.904L203.539,203.985L204.098,201.428L206.147,199.067L206.147,194.541L206.706,193.557L208.196,191.786L212.48,190.212L214.529,188.244L215.274,185.096L215.647,184.309L217.696,183.915L217.882,183.915L219,184.505L219.186,184.309L219.559,183.915L220.118,184.112L220.863,184.702L221.98,184.505L222.353,183.915L222.912,182.931L223.843,182.144L227.196,179.979L227.569,178.995L224.588,175.256L223.098,173.682L221.608,169.745L225.333,169.155L226.823,168.761L228.5,168.368L232.97,165.612L233.343,164.628L235.019,164.038L236.323,163.447L237.627,161.479L239.304,159.904L242.657,157.936L243.216,156.952L243.774,155.968L244.892,154.59L243.961,151.046L243.216,149.472L245.823,136.085L249.363,119.939L251.598,105.761L249.363,104.776L246.755,103.792L244.706,98.868L242.657,98.08L241.725,97.883L240.049,95.717L239.117,94.535L237.255,93.156L235.206,92.172L235.392,88.823L234.274,87.641L233.343,86.066L232.97,84.687L232.039,83.111L231.853,81.338L232.412,78.777L233.343,77.595L234.274,77.201L235.019,75.428L236.696,75.231L236.696,73.852L237.627,72.079L238.931,71.094L238.745,70.109L240.235,68.927L239.304,67.548L240.049,66.563L240.98,65.381L242.657,65.381L246.01,61.638L266.5,60.653L271.343,58.289L286.804,49.619L294.441,24L317.352,33.066L321.264,62.032L319.029,64.199L303.941,78.58Z" fill="none" stroke="rgba(255,255,255,0.9)" stroke-width="2"/>
</svg>