<?xml version="1.0" encoding="UTF-8"?>
<svg viewBox="0 0 400 400" xmlns="http://www.w3.org/2000/svg" role="img" aria-label="Quiché">
  <defs>
    <clipPath id="c"><path d="M297.449,49.256L297.342,48.01L298.515,47.444L298.835,46.651L299.795,46.085L300.114,45.066L299.475,44.726L298.728,45.519L297.236,46.425L296.383,45.972L295.53,46.199L294.677,46.085L294.783,45.519L294.89,43.821L294.037,43.141L293.717,44.047L292.758,45.406L292.225,45.066L292.331,44.274L291.265,43.368L290.306,43.707L290.199,44.84L288.813,45.179L286.787,42.688L286.147,42.801L285.614,43.481L286.041,44.84L284.015,46.538L282.949,46.085L283.375,45.066L282.842,44.5L280.923,45.746L279.75,45.632L279.537,44.387L279.43,43.254L279.217,41.895L278.258,41.556L276.765,40.31L275.699,40.31L273.673,40.423L271.221,40.763L270.368,39.857L271.328,39.404L271.861,39.291L273.033,39.064L273.886,38.725L274.313,38.045L273.673,34.647L271.008,36.346L269.622,37.705L268.236,37.705L264.717,33.401L263.225,33.288L260.986,34.308L258.533,33.401L257.894,34.421L257.041,34.421L255.122,33.855L253.522,35.893L250.75,38.158L247.872,39.178L245.952,38.725L246.059,39.97L248.085,42.235L248.405,44.274L248.724,45.519L247.338,45.519L245.526,45.406L244.886,45.972L244.886,47.444L245.846,48.803L246.379,50.048L245.846,51.407L244.673,51.86L242.967,51.294L242.647,50.162L241.474,49.596L240.195,48.803L238.169,48.69L237.423,49.256L237.103,50.388L237.316,51.86L236.677,53.105L235.291,53.332L233.905,53.105L231.452,55.37L231.132,55.936L231.452,56.955L232.838,57.634L233.798,58.087L234.331,59.445L235.291,59.785L236.57,59.106L237.849,60.351L237.849,61.936L236.677,64.766L234.864,65.332L233.371,65.898L232.625,66.69L232.625,68.049L233.052,71.331L231.772,73.368L231.452,73.934L231.132,75.292L231.772,76.085L233.585,75.971L234.757,75.971L236.25,76.311L236.996,77.216L236.25,80.046L238.702,81.856L238.702,81.969L237.636,83.44L236.996,84.572L236.357,85.59L235.824,86.496L234.971,87.74L233.798,88.419L233.052,89.664L230.599,89.438L227.614,92.492L227.507,93.398L227.294,94.868L225.802,95.547L225.268,96.679L224.842,97.018L224.522,97.584L224.842,98.941L225.695,99.733L224.522,101.317L224.202,102.222L222.816,102.335L222.923,103.24L222.177,104.032L221.537,104.484L221.004,106.294L220.364,106.973L219.085,107.425L217.699,107.538L217.272,108.782L216.739,111.045L216.846,111.384L215.673,113.08L214.287,113.872L215.993,115.229L217.485,115.908L219.511,115.342L220.577,114.551L223.03,115.229L224.096,116.134L223.989,117.039L224.842,117.604L225.162,118.735L224.202,120.431L220.897,120.658L220.364,121.449L220.364,122.015L221.11,122.354L223.243,122.128L224.202,122.354L226.441,124.955L227.188,125.859L226.868,126.312L225.482,126.538L221.43,130.834L221.43,131.4L221.43,132.304L221.857,132.982L222.71,133.435L224.522,133.209L225.588,133.887L227.507,133.774L229.427,135.696L230.493,135.696L237.636,137.844L239.235,138.522L241.474,138.748L244.886,139.992L247.552,140.557L247.872,141.122L249.364,141.348L251.497,141.461L254.482,141.574L257.894,141.913L257.68,142.479L256.934,143.383L257.467,144.739L259.386,144.966L260.986,146.435L260.986,148.13L260.772,148.809L261.305,150.052L262.905,150.73L263.011,151.86L264.504,152.651L264.504,156.381L263.544,157.624L262.585,157.85L261.945,157.963L261.199,159.093L261.199,159.432L262.691,161.127L263.651,161.692L264.93,162.144L265.89,162.257L266.103,162.37L267.063,162.822L267.702,165.195L268.236,166.099L268.555,166.325L268.982,167.568L269.089,168.472L269.302,169.715L269.728,170.845L270.368,171.975L270.581,172.879L270.688,174.121L270.901,176.607L271.328,178.527L270.901,179.77L271.541,181.126L270.901,182.594L270.048,183.837L267.916,183.611L267.276,184.853L265.677,187.112L263.225,187.903L262.265,189.823L260.986,191.404L260.026,193.098L260.239,196.261L260.133,198.181L257.574,201.455L255.548,202.133L254.375,201.004L253.096,200.665L247.872,199.875L245.846,199.536L245.846,200.326L245.099,201.455L244.566,202.698L242.541,205.069L242.221,206.876L243.18,207.44L242.754,209.247L242.541,210.489L242.86,211.392L243.18,212.86L243.18,213.537L243.5,215.231L244.886,216.134L245.099,217.037L246.272,217.94L247.232,218.504L247.338,219.52L247.978,220.988L249.044,221.327L251.07,222.117L252.456,222.004L254.695,223.471L256.614,223.133L257.361,223.246L258.107,223.923L259.386,224.6L260.239,225.503L261.838,225.616L263.331,225.503L265.783,225.729L266.423,226.181L267.489,226.293L268.875,226.745L270.048,227.422L271.861,227.196L273.566,227.535L274.1,226.745L275.912,227.084L277.085,226.632L278.578,227.309L280.923,227.535L282.096,227.084L284.015,228.099L285.081,227.648L287,227.987L289.239,227.535L291.265,227.535L296.17,228.664L297.556,230.018L299.155,229.454L304.272,232.276L304.272,232.84L304.912,235.436L305.445,237.918L304.699,239.498L303.313,241.304L302.993,243.109L302.14,245.253L300.967,245.592L300.967,246.495L301.5,246.833L301.394,247.736L301.287,247.736L300.328,248.526L299.581,249.767L298.408,250.218L297.342,250.669L296.703,253.039L294.783,254.28L294.89,255.521L293.078,256.423L292.971,257.664L292.758,259.469L291.905,260.259L291.478,261.613L290.625,262.741L290.519,262.741L289.026,264.207L287.853,264.771L286.254,264.997L284.761,265.448L283.375,265.561L282.522,265.222L281.243,264.094L279.964,262.966L278.578,263.53L276.445,263.643L275.912,262.628L274.953,262.289L274.526,264.207L273.566,264.771L273.353,265.11L272.5,266.35L271.221,266.238L270.368,265.335L269.835,264.32L268.662,264.207L267.702,264.546L266.743,264.546L265.357,264.207L265.037,263.53L263.438,262.854L262.905,264.094L260.986,264.094L260.666,262.854L259.6,262.966L258.64,263.643L256.934,264.433L256.294,264.094L254.375,264.207L252.349,264.546L251.177,264.546L250.217,265.11L248.085,264.658L246.485,264.771L244.566,264.094L242.647,264.884L240.835,263.982L239.769,264.771L238.596,264.32L238.063,264.658L236.783,264.771L236.037,262.628L233.158,261.161L231.666,260.146L229.96,260.71L228.787,260.033L225.055,260.597L223.349,257.1L221.963,256.423L221.217,255.746L218.018,257.1L216.526,256.31L217.379,279.208L225.268,292.964L232.305,303.674L257.894,322.384L257.68,323.962L258.213,324.75L256.934,325.201L256.614,327.567L256.294,330.722L256.188,331.173L256.294,331.511L256.721,332.187L257.467,333.539L259.28,334.215L260.026,334.44L261.092,336.13L261.412,338.384L262.798,340.637L262.585,342.101L264.291,343.453L267.916,344.805L268.342,346.833L268.342,348.522L267.489,349.536L266.423,352.352L265.997,353.478L264.504,352.014L264.397,351.225L263.011,351.901L262.585,350.888L260.452,350.888L259.066,352.69L257.574,351.901L256.081,351.563L254.375,350.324L251.603,348.522L250.75,347.508L248.938,346.607L247.765,345.819L247.232,346.382L246.485,345.931L246.379,345.368L245.099,346.495L244.353,345.819L242.647,345.255L241.794,344.354L241.368,344.467L240.088,344.016L239.342,344.467L238.596,344.016L237.423,344.805L235.291,344.354L233.158,342.89L230.493,340.975L229,341.763L227.294,340.749L223.136,343.453L220.151,341.989L219.831,342.552L216.632,342.439L215.673,341.651L214.82,342.214L214.074,341.651L213.221,341.989L211.941,341.087L207.996,341.2L206.717,341.313L206.29,340.412L204.904,340.637L203.625,339.398L200.746,339.51L199.467,338.609L198.721,338.609L197.654,339.623L195.096,338.947L193.71,339.623L191.471,340.074L189.018,341.651L187.739,341.425L187.739,342.665L187.099,342.89L185.926,342.327L184.114,343.228L183.581,341.876L182.301,341.876L181.235,342.101L180.276,341.651L178.996,341.763L177.93,341.876L176.651,341.538L174.732,340.412L173.772,339.06L172.173,338.496L169.72,339.06L166.522,338.271L165.669,339.398L163.856,338.947L162.684,339.623L162.577,341.876L161.298,342.552L161.511,343.228L160.978,344.242L160.978,345.368L159.592,345.931L159.805,346.382L159.379,347.396L159.379,348.86L159.485,350.662L159.698,352.577L160.231,352.577L160.445,353.14L159.592,355.28L158.206,355.731L158.206,356.632L157.14,357.082L156.82,358.884L155.54,359.56L154.048,363.501L154.794,364.515L154.474,365.641L156.5,366.767L156.713,367.893L158.952,369.244L159.059,369.807L157.246,371.271L151.382,375.437L149.783,374.311L149.143,375.212L146.478,376L145.945,375.324L142.213,370.821L138.162,366.767L133.044,362.713L132.298,361.925L131.658,360.911L131.125,359.785L130.378,358.096L129.632,357.645L128.779,358.096L128.353,358.659L127.926,359.335L127.286,359.335L125.261,357.983L124.088,356.857L124.195,355.731L123.661,353.591L123.235,352.014L122.702,351.563L122.169,351.676L121.103,351.563L119.61,351.338L119.29,351L118.864,350.775L107.989,339.961L105.856,337.482L101.911,336.468L101.698,335.004L101.805,333.314L101.485,332.525L101.272,331.173L102.231,329.483L103.617,327.793L102.444,325.426L97.753,326.891L95.514,322.609L95.194,321.032L95.301,315.397L93.169,311.565L95.194,307.62L96.58,288.342L96.794,286.763L97.433,286.876L98.073,287.214L98.5,288.567L98.606,289.582L98.819,290.146L99.246,290.71L105.536,292.852L108.522,293.641L109.161,292.852L109.801,292.063L110.654,291.273L110.974,290.71L110.654,290.146L110.014,290.033L109.161,289.808L108.202,289.469L106.922,288.905L106.069,288.454L104.79,287.44L104.15,286.425L103.404,285.748L102.978,285.072L102.764,284.395L102.658,283.493L102.018,283.38L101.378,282.704L101.272,281.914L100.312,282.027L99.246,281.689L98.286,281.463L97.966,280.223L97.86,279.208L96.687,278.418L96.261,277.967L95.514,276.727L94.448,276.727L93.808,277.629L92.529,277.403L91.036,276.952L89.65,276.163L88.158,274.922L87.731,273.569L86.985,273.118L86.345,272.554L85.919,271.652L85.812,269.621L85.066,269.396L84.533,268.719L83.253,267.478L83.04,266.35L82.507,266.125L80.588,265.899L80.588,265.222L80.694,264.546L81.014,263.53L80.694,263.192L80.055,262.515L80.375,261.613L80.801,260.597L81.014,258.454L81.761,257.664L81.761,256.198L82.507,254.844L82.72,253.941L80.268,252.475L78.669,248.074L79.841,246.156L83.68,245.818L85.386,245.028L88.371,243.674L90.183,243.786L92.636,245.141L95.088,247.172L99.886,244.464L103.83,242.658L107.136,242.207L113.319,242.432L115.345,241.981L116.518,238.37L116.625,233.63L118.117,228.551L121.956,224.375L123.448,221.327L126.54,217.827L123.022,217.037L121.742,214.553L120.036,213.198L107.349,214.214L103.191,214.102L99.672,214.102L91.036,205.408L87.518,203.149L82.294,195.583L81.547,193.211L81.334,190.84L82.72,189.597L82.613,183.385L82.72,182.029L82.294,180.787L82.613,179.996L82.08,177.398L82.187,173.217L83.36,169.489L84.426,166.664L86.345,164.178L90.503,162.144L93.169,159.658L95.514,156.946L92.102,155.251L92.209,153.669L96.9,148.809L99.246,148.696L101.698,148.243L102.978,148.583L104.364,147.226L106.816,145.192L108.842,141.009L109.801,140.105L112.573,139.653L113,136.826L114.812,136.6L116.625,137.279L139.121,95.773L144.132,87.514L175.478,27.285L176.97,24.453L176.97,24.113L181.022,24.113L183.901,24.113L225.268,24.453L314.721,25.02L314.828,24.68L314.828,24.566L314.828,24.453L314.934,24.34L315.148,24.34L315.148,24L315.681,25.133L316.32,26.266L317.493,26.832L318.986,26.266L320.692,25.699L321.331,26.719L320.478,27.625L319.199,28.758L318.133,30.117L317.813,31.476L314.721,32.382L314.508,33.175L315.681,33.628L317.92,33.062L319.519,34.987L319.519,38.045L318.986,37.705L316.64,36.459L316.107,36.346L315.467,36.912L314.614,39.744L310.989,40.31L308.537,42.801L306.511,42.915L306.725,42.122L305.978,40.537L304.806,39.97L302.46,40.763L301.394,46.991L299.048,48.803L298.515,47.897L297.875,48.237Z"/></clipPath>
    <pattern id="mesh" width="14" height="14" patternUnits="userSpaceOnUse">
      <path d="M0 14 L14 0 M-2 2 L2 -2 M12 16 L16 12" stroke="rgba(255,255,255,0.2)" stroke-width="0.6" fill="none"/>
    </pattern>
  </defs>
  <g clip-path="url(#c)">
    <rect width="400" height="400" fill="url(#mesh)"/>
    <path d="M297.449,49.256L297.342,48.01L298.515,47.444L298.835,46.651L299.795,46.085L300.114,45.066L299.475,44.726L298.728,45.519L297.236,46.425L296.383,45.972L295.53,46.199L294.677,46.085L294.783,45.519L294.89,43.821L294.037,43.141L293.717,44.047L292.758,45.406L292.225,45.066L292.331,44.274L291.265,43.368L290.306,43.707L290.199,44.84L288.813,45.179L286.787,42.688L286.147,42.801L285.614,43.481L286.041,44.84L284.015,46.538L282.949,46.085L283.375,45.066L282.842,44.5L280.923,45.746L279.75,45.632L279.537,44.387L279.43,43.254L279.217,41.895L278.258,41.556L276.765,40.31L275.699,40.31L273.673,40.423L271.221,40.763L270.368,39.857L271.328,39.404L271.861,39.291L273.033,39.064L273.886,38.725L274.313,38.045L273.673,34.647L271.008,36.346L269.622,37.705L268.236,37.705L264.717,33.401L263.225,33.288L260.986,34.308L258.533,33.401L257.894,34.421L257.041,34.421L255.122,33.855L253.522,35.893L250.75,38.158L247.872,39.178L245.952,38.725L246.059,39.97L248.085,42.235L248.405,44.274L248.724,45.519L247.338,45.519L245.526,45.406L244.886,45.972L244.886,47.444L245.846,48.803L246.379,50.048L245.846,51.407L244.673,51.86L242.967,51.294L242.647,50.162L241.474,49.596L240.195,48.803L238.169,48.69L237.423,49.256L237.103,50.388L237.316,51.86L236.677,53.105L235.291,53.332L233.905,53.105L231.452,55.37L231.132,55.936L231.452,56.955L232.838,57.634L233.798,58.087L234.331,59.445L235.291,59.785L236.57,59.106L237.849,60.351L237.849,61.936L236.677,64.766L234.864,65.332L233.371,65.898L232.625,66.69L232.625,68.049L233.052,71.331L231.772,73.368L231.452,73.934L231.132,75.292L231.772,76.085L233.585,75.971L234.757,75.971L236.25,76.311L236.996,77.216L236.25,80.046L238.702,81.856L238.702,81.969L237.636,83.44L236.996,84.572L236.357,85.59L235.824,86.496L234.971,87.74L233.798,88.419L233.052,89.664L230.599,89.438L227.614,92.492L227.507,93.398L227.294,94.868L225.802,95.547L225.268,96.679L224.842,97.018L224.522,97.584L224.842,98.941L225.695,99.733L224.522,101.317L224.202,102.222L222.816,102.335L222.923,103.24L222.177,104.032L221.537,104.484L221.004,106.294L220.364,106.973L219.085,107.425L217.699,107.538L217.272,108.782L216.739,111.045L216.846,111.384L215.673,113.08L214.287,113.872L215.993,115.229L217.485,115.908L219.511,115.342L220.577,114.551L223.03,115.229L224.096,116.134L223.989,117.039L224.842,117.604L225.162,118.735L224.202,120.431L220.897,120.658L220.364,121.449L220.364,122.015L221.11,122.354L223.243,122.128L224.202,122.354L226.441,124.955L227.188,125.859L226.868,126.312L225.482,126.538L221.43,130.834L221.43,131.4L221.43,132.304L221.857,132.982L222.71,133.435L224.522,133.209L225.588,133.887L227.507,133.774L229.427,135.696L230.493,135.696L237.636,137.844L239.235,138.522L241.474,138.748L244.886,139.992L247.552,140.557L247.872,141.122L249.364,141.348L251.497,141.461L254.482,141.574L257.894,141.913L257.68,142.479L256.934,143.383L257.467,144.739L259.386,144.966L260.986,146.435L260.986,148.13L260.772,148.809L261.305,150.052L262.905,150.73L263.011,151.86L264.504,152.651L264.504,156.381L263.544,157.624L262.585,157.85L261.945,157.963L261.199,159.093L261.199,159.432L262.691,161.127L263.651,161.692L264.93,162.144L265.89,162.257L266.103,162.37L267.063,162.822L267.702,165.195L268.236,166.099L268.555,166.325L268.982,167.568L269.089,168.472L269.302,169.715L269.728,170.845L270.368,171.975L270.581,172.879L270.688,174.121L270.901,176.607L271.328,178.527L270.901,179.77L271.541,181.126L270.901,182.594L270.048,183.837L267.916,183.611L267.276,184.853L265.677,187.112L263.225,187.903L262.265,189.823L260.986,191.404L260.026,193.098L260.239,196.261L260.133,198.181L257.574,201.455L255.548,202.133L254.375,201.004L253.096,200.665L247.872,199.875L245.846,199.536L245.846,200.326L245.099,201.455L244.566,202.698L242.541,205.069L242.221,206.876L243.18,207.44L242.754,209.247L242.541,210.489L242.86,211.392L243.18,212.86L243.18,213.537L243.5,215.231L244.886,216.134L245.099,217.037L246.272,217.94L247.232,218.504L247.338,219.52L247.978,220.988L249.044,221.327L251.07,222.117L252.456,222.004L254.695,223.471L256.614,223.133L257.361,223.246L258.107,223.923L259.386,224.6L260.239,225.503L261.838,225.616L263.331,225.503L265.783,225.729L266.423,226.181L267.489,226.293L268.875,226.745L270.048,227.422L271.861,227.196L273.566,227.535L274.1,226.745L275.912,227.084L277.085,226.632L278.578,227.309L280.923,227.535L282.096,227.084L284.015,228.099L285.081,227.648L287,227.987L289.239,227.535L291.265,227.535L296.17,228.664L297.556,230.018L299.155,229.454L304.272,232.276L304.272,232.84L304.912,235.436L305.445,237.918L304.699,239.498L303.313,241.304L302.993,243.109L302.14,245.253L300.967,245.592L300.967,246.495L301.5,246.833L301.394,247.736L301.287,247.736L300.328,248.526L299.581,249.767L298.408,250.218L297.342,250.669L296.703,253.039L294.783,254.28L294.89,255.521L293.078,256.423L292.971,257.664L292.758,259.469L291.905,260.259L291.478,261.613L290.625,262.741L290.519,262.741L289.026,264.207L287.853,264.771L286.254,264.997L284.761,265.448L283.375,265.561L282.522,265.222L281.243,264.094L279.964,262.966L278.578,263.53L276.445,263.643L275.912,262.628L274.953,262.289L274.526,264.207L273.566,264.771L273.353,265.11L272.5,266.35L271.221,266.238L270.368,265.335L269.835,264.32L268.662,264.207L267.702,264.546L266.743,264.546L265.357,264.207L265.037,263.53L263.438,262.854L262.905,264.094L260.986,264.094L260.666,262.854L259.6,262.966L258.64,263.643L256.934,264.433L256.294,264.094L254.375,264.207L252.349,264.546L251.177,264.546L250.217,265.11L248.085,264.658L246.485,264.771L244.566,264.094L242.647,264.884L240.835,263.982L239.769,264.771L238.596,264.32L238.063,264.658L236.783,264.771L236.037,262.628L233.158,261.161L231.666,260.146L229.96,260.71L228.787,260.033L225.055,260.597L223.349,257.1L221.963,256.423L221.217,255.746L218.018,257.1L216.526,256.31L217.379,279.208L225.268,292.964L232.305,303.674L257.894,322.384L257.68,323.962L258.213,324.75L256.934,325.201L256.614,327.567L256.294,330.722L256.188,331.173L256.294,331.511L256.721,332.187L257.467,333.539L259.28,334.215L260.026,334.44L261.092,336.13L261.412,338.384L262.798,340.637L262.585,342.101L264.291,343.453L267.916,344.805L268.342,346.833L268.342,348.522L267.489,349.536L266.423,352.352L265.997,353.478L264.504,352.014L264.397,351.225L263.011,351.901L262.585,350.888L260.452,350.888L259.066,352.69L257.574,351.901L256.081,351.563L254.375,350.324L251.603,348.522L250.75,347.508L248.938,346.607L247.765,345.819L247.232,346.382L246.485,345.931L246.379,345.368L245.099,346.495L244.353,345.819L242.647,345.255L241.794,344.354L241.368,344.467L240.088,344.016L239.342,344.467L238.596,344.016L237.423,344.805L235.291,344.354L233.158,342.89L230.493,340.975L229,341.763L227.294,340.749L223.136,343.453L220.151,341.989L219.831,342.552L216.632,342.439L215.673,341.651L214.82,342.214L214.074,341.651L213.221,341.989L211.941,341.087L207.996,341.2L206.717,341.313L206.29,340.412L204.904,340.637L203.625,339.398L200.746,339.51L199.467,338.609L198.721,338.609L197.654,339.623L195.096,338.947L193.71,339.623L191.471,340.074L189.018,341.651L187.739,341.425L187.739,342.665L187.099,342.89L185.926,342.327L184.114,343.228L183.581,341.876L182.301,341.876L181.235,342.101L180.276,341.651L178.996,341.763L177.93,341.876L176.651,341.538L174.732,340.412L173.772,339.06L172.173,338.496L169.72,339.06L166.522,338.271L165.669,339.398L163.856,338.947L162.684,339.623L162.577,341.876L161.298,342.552L161.511,343.228L160.978,344.242L160.978,345.368L159.592,345.931L159.805,346.382L159.379,347.396L159.379,348.86L159.485,350.662L159.698,352.577L160.231,352.577L160.445,353.14L159.592,355.28L158.206,355.731L158.206,356.632L157.14,357.082L156.82,358.884L155.54,359.56L154.048,363.501L154.794,364.515L154.474,365.641L156.5,366.767L156.713,367.893L158.952,369.244L159.059,369.807L157.246,371.271L151.382,375.437L149.783,374.311L149.143,375.212L146.478,376L145.945,375.324L142.213,370.821L138.162,366.767L133.044,362.713L132.298,361.925L131.658,360.911L131.125,359.785L130.378,358.096L129.632,357.645L128.779,358.096L128.353,358.659L127.926,359.335L127.286,359.335L125.261,357.983L124.088,356.857L124.195,355.731L123.661,353.591L123.235,352.014L122.702,351.563L122.169,351.676L121.103,351.563L119.61,351.338L119.29,351L118.864,350.775L107.989,339.961L105.856,337.482L101.911,336.468L101.698,335.004L101.805,333.314L101.485,332.525L101.272,331.173L102.231,329.483L103.617,327.793L102.444,325.426L97.753,326.891L95.514,322.609L95.194,321.032L95.301,315.397L93.169,311.565L95.194,307.62L96.58,288.342L96.794,286.763L97.433,286.876L98.073,287.214L98.5,288.567L98.606,289.582L98.819,290.146L99.246,290.71L105.536,292.852L108.522,293.641L109.161,292.852L109.801,292.063L110.654,291.273L110.974,290.71L110.654,290.146L110.014,290.033L109.161,289.808L108.202,289.469L106.922,288.905L106.069,288.454L104.79,287.44L104.15,286.425L103.404,285.748L102.978,285.072L102.764,284.395L102.658,283.493L102.018,283.38L101.378,282.704L101.272,281.914L100.312,282.027L99.246,281.689L98.286,281.463L97.966,280.223L97.86,279.208L96.687,278.418L96.261,277.967L95.514,276.727L94.448,276.727L93.808,277.629L92.529,277.403L91.036,276.952L89.65,276.163L88.158,274.922L87.731,273.569L86.985,273.118L86.345,272.554L85.919,271.652L85.812,269.621L85.066,269.396L84.533,268.719L83.253,267.478L83.04,266.35L82.507,266.125L80.588,265.899L80.588,265.222L80.694,264.546L81.014,263.53L80.694,263.192L80.055,262.515L80.375,261.613L80.801,260.597L81.014,258.454L81.761,257.664L81.761,256.198L82.507,254.844L82.72,253.941L80.268,252.475L78.669,248.074L79.841,246.156L83.68,245.818L85.386,245.028L88.371,243.674L90.183,243.786L92.636,245.141L95.088,247.172L99.886,244.464L103.83,242.658L107.136,242.207L113.319,242.432L115.345,241.981L116.518,238.37L116.625,233.63L118.117,228.551L121.956,224.375L123.448,221.327L126.54,217.827L123.022,217.037L121.742,214.553L120.036,213.198L107.349,214.214L103.191,214.102L99.672,214.102L91.036,205.408L87.518,203.149L82.294,195.583L81.547,193.211L81.334,190.84L82.72,189.597L82.613,183.385L82.72,182.029L82.294,180.787L82.613,179.996L82.08,177.398L82.187,173.217L83.36,169.489L84.426,166.664L86.345,164.178L90.503,162.144L93.169,159.658L95.514,156.946L92.102,155.251L92.209,153.669L96.9,148.809L99.246,148.696L101.698,148.243L102.978,148.583L104.364,147.226L106.816,145.192L108.842,141.009L109.801,140.105L112.573,139.653L113,136.826L114.812,136.6L116.625,137.279L139.121,95.773L144.132,87.514L175.478,27.285L176.97,24.453L176.97,24.113L181.022,24.113L183.901,24.113L225.268,24.453L314.721,25.02L314.828,24.68L314.828,24.566L314.828,24.453L314.934,24.34L315.148,24.34L315.148,24L315.681,25.133L316.32,26.266L317.493,26.832L318.986,26.266L320.692,25.699L321.331,26.719L320.478,27.625L319.199,28.758L318.133,30.117L317.813,31.476L314.721,32.382L314.508,33.175L315.681,33.628L317.92,33.062L319.519,34.987L319.519,38.045L318.986,37.705L316.64,36.459L316.107,36.346L315.467,36.912L314.614,39.744L310.989,40.31L308.537,42.801L306.511,42.915L306.725,42.122L305.978,40.537L304.806,39.97L302.46,40.763L301.394,46.991L299.048,48.803L298.515,47.897L297.875,48.237Z" fill="rgba(180,200,195,0.35)"/>
  </g>
  <path d="M297.449,49.256L297.342,48.01L298.515,47.444L298.835,46.651L299.795,46.085L300.114,45.066L299.475,44.726L298.728,45.519L297.236,46.425L296.383,45.972L295.53,46.199L294.677,46.085L294.783,45.519L294.89,43.821L294.037,43.141L293.717,44.047L292.758,45.406L292.225,45.066L292.331,44.274L291.265,43.368L290.306,43.707L290.199,44.84L288.813,45.179L286.787,42.688L286.147,42.801L285.614,43.481L286.041,44.84L284.015,46.538L282.949,46.085L283.375,45.066L282.842,44.5L280.923,45.746L279.75,45.632L279.537,44.387L279.43,43.254L279.217,41.895L278.258,41.556L276.765,40.31L275.699,40.31L273.673,40.423L271.221,40.763L270.368,39.857L271.328,39.404L271.861,39.291L273.033,39.064L273.886,38.725L274.313,38.045L273.673,34.647L271.008,36.346L269.622,37.705L268.236,37.705L264.717,33.401L263.225,33.288L260.986,34.308L258.533,33.401L257.894,34.421L257.041,34.421L255.122,33.855L253.522,35.893L250.75,38.158L247.872,39.178L245.952,38.725L246.059,39.97L248.085,42.235L248.405,44.274L248.724,45.519L247.338,45.519L245.526,45.406L244.886,45.972L244.886,47.444L245.846,48.803L246.379,50.048L245.846,51.407L244.673,51.86L242.967,51.294L242.647,50.162L241.474,49.596L240.195,48.803L238.169,48.69L237.423,49.256L237.103,50.388L237.316,51.86L236.677,53.105L235.291,53.332L233.905,53.105L231.452,55.37L231.132,55.936L231.452,56.955L232.838,57.634L233.798,58.087L234.331,59.445L235.291,59.785L236.57,59.106L237.849,60.351L237.849,61.936L236.677,64.766L234.864,65.332L233.371,65.898L232.625,66.69L232.625,68.049L233.052,71.331L231.772,73.368L231.452,73.934L231.132,75.292L231.772,76.085L233.585,75.971L234.757,75.971L236.25,76.311L236.996,77.216L236.25,80.046L238.702,81.856L238.702,81.969L237.636,83.44L236.996,84.572L236.357,85.59L235.824,86.496L234.971,87.74L233.798,88.419L233.052,89.664L230.599,89.438L227.614,92.492L227.507,93.398L227.294,94.868L225.802,95.547L225.268,96.679L224.842,97.018L224.522,97.584L224.842,98.941L225.695,99.733L224.522,101.317L224.202,102.222L222.816,102.335L222.923,103.24L222.177,104.032L221.537,104.484L221.004,106.294L220.364,106.973L219.085,107.425L217.699,107.538L217.272,108.782L216.739,111.045L216.846,111.384L215.673,113.08L214.287,113.872L215.993,115.229L217.485,115.908L219.511,115.342L220.577,114.551L223.03,115.229L224.096,116.134L223.989,117.039L224.842,117.604L225.162,118.735L224.202,120.431L220.897,120.658L220.364,121.449L220.364,122.015L221.11,122.354L223.243,122.128L224.202,122.354L226.441,124.955L227.188,125.859L226.868,126.312L225.482,126.538L221.43,130.834L221.43,131.4L221.43,132.304L221.857,132.982L222.71,133.435L224.522,133.209L225.588,133.887L227.507,133.774L229.427,135.696L230.493,135.696L237.636,137.844L239.235,138.522L241.474,138.748L244.886,139.992L247.552,140.557L247.872,141.122L249.364,141.348L251.497,141.461L254.482,141.574L257.894,141.913L257.68,142.479L256.934,143.383L257.467,144.739L259.386,144.966L260.986,146.435L260.986,148.13L260.772,148.809L261.305,150.052L262.905,150.73L263.011,151.86L264.504,152.651L264.504,156.381L263.544,157.624L262.585,157.85L261.945,157.963L261.199,159.093L261.199,159.432L262.691,161.127L263.651,161.692L264.93,162.144L265.89,162.257L266.103,162.37L267.063,162.822L267.702,165.195L268.236,166.099L268.555,166.325L268.982,167.568L269.089,168.472L269.302,169.715L269.728,170.845L270.368,171.975L270.581,172.879L270.688,174.121L270.901,176.607L271.328,178.527L270.901,179.77L271.541,181.126L270.901,182.594L270.048,183.837L267.916,183.611L267.276,184.853L265.677,187.112L263.225,187.903L262.265,189.823L260.986,191.404L260.026,193.098L260.239,196.261L260.133,198.181L257.574,201.455L255.548,202.133L254.375,201.004L253.096,200.665L247.872,199.875L245.846,199.536L245.846,200.326L245.099,201.455L244.566,202.698L242.541,205.069L242.221,206.876L243.18,207.44L242.754,209.247L242.541,210.489L242.86,211.392L243.18,212.86L243.18,213.537L243.5,215.231L244.886,216.134L245.099,217.037L246.272,217.94L247.232,218.504L247.338,219.52L247.978,220.988L249.044,221.327L251.07,222.117L252.456,222.004L254.695,223.471L256.614,223.133L257.361,223.246L258.107,223.923L259.386,224.6L260.239,225.503L261.838,225.616L263.331,225.503L265.783,225.729L266.423,226.181L267.489,226.293L268.875,226.745L270.048,227.422L271.861,227.196L273.566,227.535L274.1,226.745L275.912,227.084L277.085,226.632L278.578,227.309L280.923,227.535L282.096,227.084L284.015,228.099L285.081,227.648L287,227.987L289.239,227.535L291.265,227.535L296.17,228.664L297.556,230.018L299.155,229.454L304.272,232.276L304.272,232.84L304.912,235.436L305.445,237.918L304.699,239.498L303.313,241.304L302.993,243.109L302.14,245.253L300.967,245.592L300.967,246.495L301.5,246.833L301.394,247.736L301.287,247.736L300.328,248.526L299.581,249.767L298.408,250.218L297.342,250.669L296.703,253.039L294.783,254.28L294.89,255.521L293.078,256.423L292.971,257.664L292.758,259.469L291.905,260.259L291.478,261.613L290.625,262.741L290.519,262.741L289.026,264.207L287.853,264.771L286.254,264.997L284.761,265.448L283.375,265.561L282.522,265.222L281.243,264.094L279.964,262.966L278.578,263.53L276.445,263.643L275.912,262.628L274.953,262.289L274.526,264.207L273.566,264.771L273.353,265.11L272.5,266.35L271.221,266.238L270.368,265.335L269.835,264.32L268.662,264.207L267.702,264.546L266.743,264.546L265.357,264.207L265.037,263.53L263.438,262.854L262.905,264.094L260.986,264.094L260.666,262.854L259.6,262.966L258.64,263.643L256.934,264.433L256.294,264.094L254.375,264.207L252.349,264.546L251.177,264.546L250.217,265.11L248.085,264.658L246.485,264.771L244.566,264.094L242.647,264.884L240.835,263.982L239.769,264.771L238.596,264.32L238.063,264.658L236.783,264.771L236.037,262.628L233.158,261.161L231.666,260.146L229.96,260.71L228.787,260.033L225.055,260.597L223.349,257.1L221.963,256.423L221.217,255.746L218.018,257.1L216.526,256.31L217.379,279.208L225.268,292.964L232.305,303.674L257.894,322.384L257.68,323.962L258.213,324.75L256.934,325.201L256.614,327.567L256.294,330.722L256.188,331.173L256.294,331.511L256.721,332.187L257.467,333.539L259.28,334.215L260.026,334.44L261.092,336.13L261.412,338.384L262.798,340.637L262.585,342.101L264.291,343.453L267.916,344.805L268.342,346.833L268.342,348.522L267.489,349.536L266.423,352.352L265.997,353.478L264.504,352.014L264.397,351.225L263.011,351.901L262.585,350.888L260.452,350.888L259.066,352.69L257.574,351.901L256.081,351.563L254.375,350.324L251.603,348.522L250.75,347.508L248.938,346.607L247.765,345.819L247.232,346.382L246.485,345.931L246.379,345.368L245.099,346.495L244.353,345.819L242.647,345.255L241.794,344.354L241.368,344.467L240.088,344.016L239.342,344.467L238.596,344.016L237.423,344.805L235.291,344.354L233.158,342.89L230.493,340.975L229,341.763L227.294,340.749L223.136,343.453L220.151,341.989L219.831,342.552L216.632,342.439L215.673,341.651L214.82,342.214L214.074,341.651L213.221,341.989L211.941,341.087L207.996,341.2L206.717,341.313L206.29,340.412L204.904,340.637L203.625,339.398L200.746,339.51L199.467,338.609L198.721,338.609L197.654,339.623L195.096,338.947L193.71,339.623L191.471,340.074L189.018,341.651L187.739,341.425L187.739,342.665L187.099,342.89L185.926,342.327L184.114,343.228L183.581,341.876L182.301,341.876L181.235,342.101L180.276,341.651L178.996,341.763L177.93,341.876L176.651,341.538L174.732,340.412L173.772,339.06L172.173,338.496L169.72,339.06L166.522,338.271L165.669,339.398L163.856,338.947L162.684,339.623L162.577,341.876L161.298,342.552L161.511,343.228L160.978,344.242L160.978,345.368L159.592,345.931L159.805,346.382L159.379,347.396L159.379,348.86L159.485,350.662L159.698,352.577L160.231,352.577L160.445,353.14L159.592,355.28L158.206,355.731L158.206,356.632L157.14,357.082L156.82,358.884L155.54,359.56L154.048,363.501L154.794,364.515L154.474,365.641L156.5,366.767L156.713,367.893L158.952,369.244L159.059,369.807L157.246,371.271L151.382,375.437L149.783,374.311L149.143,375.212L146.478,376L145.945,375.324L142.213,370.821L138.162,366.767L133.044,362.713L132.298,361.925L131.658,360.911L131.125,359.785L130.378,358.096L129.632,357.645L128.779,358.096L128.353,358.659L127.926,359.335L127.286,359.335L125.261,357.983L124.088,356.857L124.195,355.731L123.661,353.591L123.235,352.014L122.702,351.563L122.169,351.676L121.103,351.563L119.61,351.338L119.29,351L118.864,350.775L107.989,339.961L105.856,337.482L101.911,336.468L101.698,335.004L101.805,333.314L101.485,332.525L101.272,331.173L102.231,329.483L103.617,327.793L102.444,325.426L97.753,326.891L95.514,322.609L95.194,321.032L95.301,315.397L93.169,311.565L95.194,307.62L96.58,288.342L96.794,286.763L97.433,286.876L98.073,287.214L98.5,288.567L98.606,289.582L98.819,290.146L99.246,290.71L105.536,292.852L108.522,293.641L109.161,292.852L109.801,292.063L110.654,291.273L110.974,290.71L110.654,290.146L110.014,290.033L109.161,289.808L108.202,289.469L106.922,288.905L106.069,288.454L104.79,287.44L104.15,286.425L103.404,285.748L102.978,285.072L102.764,284.395L102.658,283.493L102.018,283.38L101.378,282.704L101.272,281.914L100.312,282.027L99.246,281.689L98.286,281.463L97.966,280.223L97.86,279.208L96.687,278.418L96.261,277.967L95.514,276.727L94.448,276.727L93.808,277.629L92.529,277.403L91.036,276.952L89.65,276.163L88.158,274.922L87.731,273.569L86.985,273.118L86.345,272.554L85.919,271.652L85.812,269.621L85.066,269.396L84.533,268.719L83.253,267.478L83.04,266.35L82.507,266.125L80.588,265.899L80.588,265.222L80.694,264.546L81.014,263.53L80.694,263.192L80.055,262.515L80.375,261.613L80.801,260.597L81.014,258.454L81.761,257.664L81.761,256.198L82.507,254.844L82.72,253.941L80.268,252.475L78.669,248.074L79.841,246.156L83.68,245.818L85.386,245.028L88.371,243.674L90.183,243.786L92.636,245.141L95.088,247.172L99.886,244.464L103.83,242.658L107.136,242.207L113.319,242.432L115.345,241.981L116.518,238.37L116.625,233.63L118.117,228.551L121.956,224.375L123.448,221.327L126.54,217.827L123.022,217.037L121.742,214.553L120.036,213.198L107.349,214.214L103.191,214.102L99.672,214.102L91.036,205.408L87.518,203.149L82.294,195.583L81.547,193.211L81.334,190.84L82.72,189.597L82.613,183.385L82.72,182.029L82.294,180.787L82.613,179.996L82.08,177.398L82.187,173.217L83.36,169.489L84.426,166.664L86.345,164.178L90.503,162.144L93.169,159.658L95.514,156.946L92.102,155.251L92.209,153.669L96.9,148.809L99.246,148.696L101.698,148.243L102.978,148.583L104.364,147.226L106.816,145.192L108.842,141.009L109.801,140.105L112.573,139.653L113,136.826L114.812,136.6L116.625,137.279L139.121,95.773L144.132,87.514L175.478,27.285L176.97,24.453L176.97,24.113L181.022,24.113L183.901,24.113L225.268,24.453L314.721,25.02L314.828,24.68L314.828,24.566L314.828,24.453L314.934,24.34L315.148,24.34L315.148,24L315.681,25.133L316.32,26.266L317.493,26.832L318.986,26.266L320.692,25.699L321.331,26.719L320.478,27.625L319.199,28.758L318.133,30.117L317.813,31.476L314.721,32.382L314.508,33.175L315.681,33.628L317.92,33.062L319.519,34.987L319.519,38.045L318.986,37.705L316.64,36.459L316.107,36.346L315.467,36.912L314.614,39.744L310.989,40.31L308.537,42.801L306.511,42.915L306.725,42.122L305.978,40.537L304.806,39.97L302.46,40.763L301.394,46.991L299.048,48.803L298.515,47.897L297.875,48.237Z" fill="none" stroke="rgba(255,255,255,0.9)" stroke-width="2"/>
</svg>