<?xml version="1.0" encoding="UTF-8"?>
<svg viewBox="0 0 400 400" xmlns="http://www.w3.org/2000/svg" role="img" aria-label="Sacatepéquez">
  <defs>
    <clipPath id="c"><path d="M214.432,46.12L219.572,50.294L229.457,50.294L236.179,51.963L241.715,44.868L246.855,46.12L251.6,38.191L268.602,40.695L273.347,64.066L272.952,76.585L274.533,78.671L279.673,79.088L297.862,83.679L308.142,88.686L309.328,93.693L304.188,116.641L306.165,119.979L306.956,118.727L311.305,119.979L312.492,123.316L309.724,126.654L309.328,135.832L310.515,145.01L311.701,146.679L320.004,147.096L328.308,150.433L334.634,155.856L337.007,158.776L335.03,163.781L330.285,161.696L327.517,162.113L322.772,162.947L317.632,160.862L317.632,165.033L318.027,169.621L312.887,179.215L312.492,181.3L308.538,186.722L308.142,189.642L304.584,191.31L301.025,192.979L296.28,195.064L291.14,195.064L285.604,211.329L282.837,216.75L282.046,221.755L284.023,228.427L280.464,235.099L276.906,244.69L276.906,252.195L274.138,259.284L275.719,261.368L280.86,268.039L289.558,275.127L221.945,328.07L199.802,288.051L197.43,293.888L191.103,298.474L183.591,305.56L174.892,313.064L172.915,315.982L170.938,319.317L168.566,322.651L165.798,323.068L163.03,321.818L160.262,321.401L158.285,322.651L151.563,339.324L148.005,345.159L145.632,348.077L143.26,349.327L138.911,352.245L136.538,358.08L134.561,366.415L133.77,371.833L133.77,376L131.398,375.583L128.63,370.582L126.258,365.581L127.048,354.745L126.258,345.159L123.094,343.909L117.163,335.156L108.465,329.737L108.069,322.234L98.975,304.727L89.881,302.225L81.577,292.22L75.251,286.801L62.993,280.13L69.715,253.029L68.529,247.609L74.46,218.836L81.182,216.75L83.95,210.078L92.649,190.476L106.488,189.225L119.14,192.979L122.304,195.064L124.281,195.064L127.048,191.727L130.607,188.808L134.957,182.969L137.724,176.712L137.724,169.621L141.283,167.536L141.678,165.867L142.074,160.444L144.446,157.524L148.796,153.77L149.191,151.267L149.586,143.341L151.959,140.421L153.145,137.501L151.168,124.151L154.727,120.813L156.704,117.893L159.076,115.807L164.216,121.23L165.007,119.562L163.821,113.72L165.007,111.634L166.193,109.548L166.984,107.879L171.333,106.628L173.31,104.959L174.892,102.038L178.055,97.031L181.218,89.938L182.405,85.348L177.66,74.081L170.938,56.554L172.915,52.381L172.52,47.79L173.706,40.278L175.683,36.939L179.241,37.773L182.405,35.269L183.591,31.93L185.568,27.756L188.336,24L192.29,26.504L198.616,31.93L202.175,34.852L202.57,38.608L208.897,46.955Z"/></clipPath>
    <pattern id="mesh" width="14" height="14" patternUnits="userSpaceOnUse">
      <path d="M0 14 L14 0 M-2 2 L2 -2 M12 16 L16 12" stroke="rgba(255,255,255,0.2)" stroke-width="0.6" fill="none"/>
    </pattern>
  </defs>
  <g clip-path="url(#c)">
    <rect width="400" height="400" fill="url(#mesh)"/>
    <path d="M214.432,46.12L219.572,50.294L229.457,50.294L236.179,51.963L241.715,44.868L246.855,46.12L251.6,38.191L268.602,40.695L273.347,64.066L272.952,76.585L274.533,78.671L279.673,79.088L297.862,83.679L308.142,88.686L309.328,93.693L304.188,116.641L306.165,119.979L306.956,118.727L311.305,119.979L312.492,123.316L309.724,126.654L309.328,135.832L310.515,145.01L311.701,146.679L320.004,147.096L328.308,150.433L334.634,155.856L337.007,158.776L335.03,163.781L330.285,161.696L327.517,162.113L322.772,162.947L317.632,160.862L317.632,165.033L318.027,169.621L312.887,179.215L312.492,181.3L308.538,186.722L308.142,189.642L304.584,191.31L301.025,192.979L296.28,195.064L291.14,195.064L285.604,211.329L282.837,216.75L282.046,221.755L284.023,228.427L280.464,235.099L276.906,244.69L276.906,252.195L274.138,259.284L275.719,261.368L280.86,268.039L289.558,275.127L221.945,328.07L199.802,288.051L197.43,293.888L191.103,298.474L183.591,305.56L174.892,313.064L172.915,315.982L170.938,319.317L168.566,322.651L165.798,323.068L163.03,321.818L160.262,321.401L158.285,322.651L151.563,339.324L148.005,345.159L145.632,348.077L143.26,349.327L138.911,352.245L136.538,358.08L134.561,366.415L133.77,371.833L133.77,376L131.398,375.583L128.63,370.582L126.258,365.581L127.048,354.745L126.258,345.159L123.094,343.909L117.163,335.156L108.465,329.737L108.069,322.234L98.975,304.727L89.881,302.225L81.577,292.22L75.251,286.801L62.993,280.13L69.715,253.029L68.529,247.609L74.46,218.836L81.182,216.75L83.95,210.078L92.649,190.476L106.488,189.225L119.14,192.979L122.304,195.064L124.281,195.064L127.048,191.727L130.607,188.808L134.957,182.969L137.724,176.712L137.724,169.621L141.283,167.536L141.678,165.867L142.074,160.444L144.446,157.524L148.796,153.77L149.191,151.267L149.586,143.341L151.959,140.421L153.145,137.501L151.168,124.151L154.727,120.813L156.704,117.893L159.076,115.807L164.216,121.23L165.007,119.562L163.821,113.72L165.007,111.634L166.193,109.548L166.984,107.879L171.333,106.628L173.31,104.959L174.892,102.038L178.055,97.031L181.218,89.938L182.405,85.348L177.66,74.081L170.938,56.554L172.915,52.381L172.52,47.79L173.706,40.278L175.683,36.939L179.241,37.773L182.405,35.269L183.591,31.93L185.568,27.756L188.336,24L192.29,26.504L198.616,31.93L202.175,34.852L202.57,38.608L208.897,46.955Z" fill="rgba(180,200,195,0.35)"/>
  </g>
  <path d="M214.432,46.12L219.572,50.294L229.457,50.294L236.179,51.963L241.715,44.868L246.855,46.12L251.6,38.191L268.602,40.695L273.347,64.066L272.952,76.585L274.533,78.671L279.673,79.088L297.862,83.679L308.142,88.686L309.328,93.693L304.188,116.641L306.165,119.979L306.956,118.727L311.305,119.979L312.492,123.316L309.724,126.654L309.328,135.832L310.515,145.01L311.701,146.679L320.004,147.096L328.308,150.433L334.634,155.856L337.007,158.776L335.03,163.781L330.285,161.696L327.517,162.113L322.772,162.947L317.632,160.862L317.632,165.033L318.027,169.621L312.887,179.215L312.492,181.3L308.538,186.722L308.142,189.642L304.584,191.31L301.025,192.979L296.28,195.064L291.14,195.064L285.604,211.329L282.837,216.75L282.046,221.755L284.023,228.427L280.464,235.099L276.906,244.69L276.906,252.195L274.138,259.284L275.719,261.368L280.86,268.039L289.558,275.127L221.945,328.07L199.802,288.051L197.43,293.888L191.103,298.474L183.591,305.56L174.892,313.064L172.915,315.982L170.938,319.317L168.566,322.651L165.798,323.068L163.03,321.818L160.262,321.401L158.285,322.651L151.563,339.324L148.005,345.159L145.632,348.077L143.26,349.327L138.911,352.245L136.538,358.08L134.561,366.415L133.77,371.833L133.77,376L131.398,375.583L128.63,370.582L126.258,365.581L127.048,354.745L126.258,345.159L123.094,343.909L117.163,335.156L108.465,329.737L108.069,322.234L98.975,304.727L89.881,302.225L81.577,292.22L75.251,286.801L62.993,280.13L69.715,253.029L68.529,247.609L74.46,218.836L81.182,216.75L83.95,210.078L92.649,190.476L106.488,189.225L119.14,192.979L122.304,195.064L124.281,195.064L127.048,191.727L130.607,188.808L134.957,182.969L137.724,176.712L137.724,169.621L141.283,167.536L141.678,165.867L142.074,160.444L144.446,157.524L148.796,153.77L149.191,151.267L149.586,143.341L151.959,140.421L153.145,137.501L151.168,124.151L154.727,120.813L156.704,117.893L159.076,115.807L164.216,121.23L165.007,119.562L163.821,113.72L165.007,111.634L166.193,109.548L166.984,107.879L171.333,106.628L173.31,104.959L174.892,102.038L178.055,97.031L181.218,89.938L182.405,85.348L177.66,74.081L170.938,56.554L172.915,52.381L172.52,47.79L173.706,40.278L175.683,36.939L179.241,37.773L182.405,35.269L183.591,31.93L185.568,27.756L188.336,24L192.29,26.504L198.616,31.93L202.175,34.852L202.57,38.608L208.897,46.955Z" fill="none" stroke="rgba(255,255,255,0.9)" stroke-width="2"/>
</svg>