<?xml version="1.0" encoding="UTF-8"?>
<svg viewBox="0 0 400 400" xmlns="http://www.w3.org/2000/svg" role="img" aria-label="San Marcos">
  <defs>
    <clipPath id="c"><path d="M158.945,82.723L170.301,70.55L177.726,62.074L183.986,62.229L205.387,46.045L226.351,58.684L236.833,58.376L247.897,52.827L253.138,54.06L255.031,53.752L255.613,53.136L256.196,52.057L259.981,52.365L260.563,53.136L265.222,54.523L268.57,55.293L271.628,60.225L277.742,67.622L284.439,72.091L297.396,90.888L299.434,93.969L312.974,94.431L314.721,94.431L316.759,96.434L318.942,97.82L312.974,117.843L300.89,124.619L297.105,126.466L281.091,127.236L278.47,130.162L277.16,130.162L276.432,131.086L275.849,131.856L276.577,132.934L275.413,133.857L275.558,134.627L274.539,135.397L273.811,136.783L273.811,137.86L272.501,138.014L271.919,139.4L271.191,139.708L270.463,140.632L270.026,142.633L270.172,144.019L270.9,145.25L271.191,146.328L271.919,147.56L272.792,148.483L272.647,151.1L274.248,151.87L275.704,152.947L276.432,153.871L277.742,155.564L278.47,155.718L280.071,156.334L281.673,160.182L283.711,160.952L285.458,161.721L283.711,172.803L280.945,185.421L278.907,195.884L279.489,197.115L280.217,199.884L279.344,200.961L278.907,201.73L278.47,202.499L275.849,204.038L274.539,205.268L273.52,206.807L272.501,207.268L271.191,207.73L270.9,208.499L267.406,210.652L266.095,210.96L264.931,211.268L262.019,211.729L263.184,214.805L264.348,216.036L266.678,218.958L266.387,219.727L263.766,221.419L263.038,222.034L262.601,222.803L262.31,223.265L261.437,223.419L260.854,222.957L260.418,222.803L260.126,223.111L259.981,223.265L259.107,222.803L258.962,222.803L257.36,223.111L257.069,223.726L256.487,226.187L254.885,227.725L251.537,228.955L250.372,230.339L249.935,231.108L249.935,234.645L248.334,236.491L247.897,238.49L245.714,242.334L245.131,243.41L244.549,244.487L243.53,245.87L243.675,247.1L244.549,248.792L242.074,251.867L241.2,252.174L240.909,253.097L241.2,255.095L240.909,258.17L241.492,259.246L242.074,260.015L242.511,260.476L242.511,260.937L241.928,261.552L241.492,263.551L242.219,264.627L242.802,265.549L240.909,268.623L240.472,269.853L240.764,271.236L239.162,274.003L238.725,274.618L238.871,276.001L238.289,278.46L238.143,279.69L237.124,281.073L236.542,281.842L235.086,282.918L233.63,283.84L231.737,283.532L228.389,283.993L227.224,283.993L226.496,284.454L225.768,286.913L224.313,287.682L223.439,288.604L218.78,289.987L217.761,289.987L217.033,288.604L215.286,288.45L213.248,288.296L211.938,288.911L209.317,288.911L207.134,288.911L206.697,288.604L205.387,289.526L203.057,288.911L201.165,288.911L199.854,288.911L199.126,288.604L198.399,289.219L197.816,289.526L197.671,289.065L196.943,288.757L196.36,288.45L195.924,287.682L195.196,287.528L194.322,287.835L193.74,286.913L192.866,286.913L192.43,287.067L191.702,285.991L190.974,286.145L189.227,286.299L188.499,285.377L187.334,284.762L186.461,285.069L185.878,285.684L185.15,285.377L184.422,285.991L183.986,286.606L183.112,286.299L182.093,285.838L181.074,286.452L180.783,287.221L179.909,288.143L178.89,288.604L178.308,289.065L178.017,290.294L178.017,290.755L176.124,291.216L175.105,290.755L173.649,290.755L171.465,290.909L169.718,291.216L168.699,291.524L166.661,291.216L165.496,291.063L164.041,291.063L161.566,290.755L158.363,290.448L153.704,288.911L151.957,289.065L150.21,290.448L148.026,290.602L146.716,292.292L142.931,293.06L141.329,295.519L140.019,297.517L138.272,298.9L135.943,301.973L134.05,301.665L131.575,301.358L129.683,303.202L129.1,305.66L128.081,308.733L126.625,311.191L124.296,310.73L123.131,311.499L122.549,313.803L121.384,315.493L119.637,317.797L111.776,323.174L111.339,323.635L111.048,326.861L130.411,336.23L130.993,333.926L142.203,337.766L141.766,344.063L143.659,346.213L140.602,348.056L139.874,349.13L132.886,352.662L132.158,355.426L123.714,359.265L124.005,360.647L122.258,362.182L122.403,364.639L120.074,367.249L120.22,369.092L119.055,369.552L118.327,368.324L117.745,368.784L117.162,369.092L116.726,368.324L116.58,367.71L116.435,367.71L115.415,367.403L114.688,367.403L113.96,367.249L113.523,366.942L113.377,367.096L113.086,367.71L112.358,367.556L111.776,368.324L111.193,368.17L110.466,369.399L110.029,369.399L109.592,370.473L109.883,370.934L109.883,372.316L110.029,373.083L108.864,373.39L107.845,374.158L106.389,374.465L105.807,374.158L104.933,374.158L104.642,374.465L104.06,374.158L103.623,374.772L102.604,375.539L102.167,376L102.167,375.693L102.022,375.693L101.876,375.693L101.876,375.539L101.731,375.539L101.731,375.386L101.585,375.386L101.585,375.232L101.294,375.232L101.294,375.079L101.148,375.079L101.148,374.925L101.003,374.925L101.003,374.772L100.857,374.772L100.857,374.618L100.566,374.618L100.566,374.465L100.566,374.311L100.42,374.311L100.275,374.311L100.275,374.158L100.129,374.158L100.129,374.004L99.983,374.004L99.838,374.004L99.547,374.004L99.547,373.851L99.547,373.697L99.401,373.697L99.256,373.697L99.256,373.544L99.256,373.39L98.964,373.39L98.819,373.39L98.819,373.237L98.819,373.083L98.673,373.083L98.528,373.083L98.528,372.93L98.382,372.93L98.382,372.776L98.236,372.776L98.236,372.469L98.382,372.469L98.382,372.162L98.528,372.162L98.528,371.855L98.528,371.548L98.382,371.548L98.382,371.394L98.236,371.394L98.236,371.241L98.091,371.241L98.091,371.087L97.945,371.087L97.509,371.087L97.509,370.934L97.363,370.934L97.363,370.78L97.217,370.78L97.217,370.473L97.509,370.473L98.091,370.473L98.091,370.627L98.236,370.627L98.236,370.78L98.382,370.78L98.382,370.934L98.528,370.934L98.528,371.087L98.819,371.087L98.819,370.78L98.673,370.78L98.673,370.627L98.528,370.627L98.528,370.473L98.528,370.166L98.382,370.166L98.382,370.013L97.945,370.013L97.945,369.859L97.072,369.859L97.072,370.013L96.781,370.013L96.781,370.166L96.489,370.166L96.489,370.473L96.489,370.78L96.344,370.78L96.344,371.241L96.198,371.241L96.198,371.394L95.907,371.394L95.616,371.394L95.616,371.241L95.47,371.241L95.47,371.087L95.325,371.087L95.325,370.934L95.179,370.934L95.179,370.78L95.179,370.627L95.034,370.627L95.034,370.473L94.888,370.473L94.742,370.473L94.742,370.32L94.597,370.32L94.597,370.166L94.451,370.166L94.451,370.013L94.306,370.013L94.306,369.859L94.306,369.552L94.16,369.552L94.16,369.399L94.306,369.399L94.306,369.245L94.306,368.784L94.306,368.631L94.451,368.631L94.451,368.477L94.597,368.477L94.597,368.324L94.597,368.17L94.742,368.17L94.888,368.17L94.888,368.017L94.888,367.863L95.034,367.863L95.179,367.863L95.179,367.403L94.597,367.403L94.597,367.556L94.597,367.863L94.451,367.863L94.16,367.863L93.869,367.863L93.869,368.017L93.723,368.017L93.723,368.17L93.578,368.17L93.432,368.17L93.432,368.324L93.287,368.324L93.287,368.477L92.995,368.477L93.141,368.477L93.141,368.784L93.141,369.245L92.85,369.245L92.85,369.092L92.559,369.092L92.268,369.092L92.268,368.938L91.976,368.938L91.976,368.784L91.831,368.784L91.831,368.631L91.54,368.631L91.54,368.477L91.394,368.477L91.248,368.477L91.248,368.17L91.103,368.17L90.957,368.17L90.957,368.017L90.957,367.863L90.812,367.863L90.666,367.863L90.666,367.71L90.52,367.71L90.52,367.556L90.375,367.556L90.375,367.403L90.229,367.403L90.084,367.403L90.084,367.249L89.938,367.249L89.938,367.096L89.938,366.942L89.793,366.942L89.793,366.789L89.647,366.789L89.501,366.789L89.501,366.635L89.21,366.635L89.21,366.482L89.065,366.482L89.065,366.328L88.919,366.328L88.919,366.174L88.773,366.174L88.773,366.021L88.628,366.021L88.628,365.867L88.482,365.867L88.482,365.714L88.337,365.714L88.337,365.56L88.191,365.56L88.046,365.56L88.046,365.407L87.9,365.407L87.9,365.253L87.609,365.253L87.609,365.1L87.609,364.946L87.463,364.946L87.463,364.793L87.318,364.793L87.172,364.793L87.172,364.639L87.026,364.639L87.026,364.486L86.881,364.486L86.881,364.332L86.59,364.332L86.59,364.178L86.444,364.178L86.444,364.025L86.299,364.025L86.299,363.871L86.153,363.871L86.007,363.871L86.007,363.718L85.862,363.718L85.862,363.564L85.716,363.564L85.571,363.564L85.571,363.411L85.425,363.411L85.425,363.257L85.279,363.257L85.279,363.104L85.134,363.104L85.134,362.95L84.988,362.95L84.988,362.797L84.843,362.797L84.843,362.643L84.697,362.643L84.697,362.49L84.552,362.49L84.552,362.336L84.406,362.336L84.406,362.182L84.26,362.182L84.26,362.029L83.969,362.029L83.969,361.875L83.824,361.875L83.824,361.722L83.678,361.722L83.678,361.568L83.532,361.568L83.532,361.415L83.387,361.415L83.387,361.261L83.241,361.261L83.241,361.108L83.096,361.108L83.096,360.954L82.95,360.954L82.95,360.801L82.659,360.801L82.659,360.647L82.513,360.647L82.513,360.494L82.368,360.494L82.368,360.34L82.222,360.34L82.077,360.34L82.077,360.186L81.931,360.186L81.931,360.033L81.931,359.879L81.64,359.879L81.64,359.726L81.494,359.726L81.494,359.572L81.349,359.572L81.349,359.419L81.058,359.419L81.058,359.265L81.058,359.112L81.058,358.805L81.203,358.805L81.203,358.651L81.349,358.651L81.349,358.344L81.349,358.037L81.785,358.037L82.659,357.269L85.279,350.82L86.444,349.438L92.122,347.441L92.85,346.827L92.995,344.063L95.762,339.455L97.8,333.312L97.8,332.851L98.091,331.008L98.091,330.24L97.945,329.779L97.509,324.864L98.091,323.02L98.819,321.331L101.439,318.719L101.585,318.565L102.75,317.336L103.041,317.029L103.332,316.107L103.478,315.493L104.642,313.803L107.263,310.269L108.136,308.119L108.282,307.811L108.282,306.428L108.282,304.738L108.427,302.28L108.573,298.285L108.573,297.978L107.845,291.985L107.845,291.37L107.117,291.37L106.826,288.911L106.68,288.296L106.244,287.067L106.098,286.299L104.933,284.454L104.497,283.84L100.275,279.69L99.692,277.692L99.547,275.387L100.566,274.772L101.294,274.157L101.585,273.849L102.313,272.466L102.458,271.698L102.75,270.775L102.313,268.931L102.313,268.47L102.167,267.547L101.148,264.627L100.275,262.936L99.401,260.937L98.091,258.324L97.945,258.016L97.217,255.557L96.926,253.25L96.344,250.637L96.198,250.483L95.47,247.562L95.325,246.947L95.034,245.717L94.742,244.948L95.179,243.41L95.325,242.488L96.489,240.95L96.926,240.181L98.091,238.028L99.692,236.491L102.458,236.183L103.041,235.722L103.332,235.414L104.205,234.491L107.554,230.954L108.136,230.186L109.446,227.571L109.738,226.341L110.174,224.803L110.174,221.727L109.738,219.42L108.864,215.421L109.01,214.344L109.301,212.96L109.301,212.806L109.738,210.652L109.01,209.114L109.301,207.268L108.573,205.73L107.991,204.191L107.845,203.73L107.845,201.422L108.427,196.499L108.136,192.96L107.991,192.653L107.845,190.806L107.845,190.653L108.136,188.498L108.136,188.191L109.592,185.883L109.738,185.729L110.029,185.267L110.32,184.806L111.776,182.651L111.921,182.19L113.232,178.343L113.377,177.727L114.542,176.804L115.124,176.804L116.435,176.65L117.162,176.496L119.201,177.265L122.84,177.419L124.151,178.804L125.606,178.958L127.353,177.419L127.936,176.65L130.556,172.495L130.847,172.495L130.993,172.495L131.139,172.341L132.303,170.494L133.613,168.493L134.05,166.185L134.196,165.261L135.215,163.414L135.797,163.107L137.108,162.491L137.399,158.951L138.709,157.565L139.146,156.796L139.728,156.026L139.874,155.872L140.165,155.41L137.981,152.64L112.795,119.845L112.649,119.691L111.339,118.151L102.022,105.984L100.129,103.519L99.983,104.443L99.401,103.673L90.812,91.966L90.375,91.35L88.191,88.115L84.988,83.955L84.988,83.801L84.26,83.031L83.824,82.414L83.824,82.26L84.552,80.411L85.279,79.179L85.862,78.254L86.881,76.559L108.573,40.034L108.719,39.725L108.719,39.571L118.182,24L118.473,24.154L118.764,24.308L122.695,29.705L123.859,30.938L132.594,34.021L133.905,78.1L157.926,83.647Z"/></clipPath>
    <pattern id="mesh" width="14" height="14" patternUnits="userSpaceOnUse">
      <path d="M0 14 L14 0 M-2 2 L2 -2 M12 16 L16 12" stroke="rgba(255,255,255,0.2)" stroke-width="0.6" fill="none"/>
    </pattern>
  </defs>
  <g clip-path="url(#c)">
    <rect width="400" height="400" fill="url(#mesh)"/>
    <path d="M158.945,82.723L170.301,70.55L177.726,62.074L183.986,62.229L205.387,46.045L226.351,58.684L236.833,58.376L247.897,52.827L253.138,54.06L255.031,53.752L255.613,53.136L256.196,52.057L259.981,52.365L260.563,53.136L265.222,54.523L268.57,55.293L271.628,60.225L277.742,67.622L284.439,72.091L297.396,90.888L299.434,93.969L312.974,94.431L314.721,94.431L316.759,96.434L318.942,97.82L312.974,117.843L300.89,124.619L297.105,126.466L281.091,127.236L278.47,130.162L277.16,130.162L276.432,131.086L275.849,131.856L276.577,132.934L275.413,133.857L275.558,134.627L274.539,135.397L273.811,136.783L273.811,137.86L272.501,138.014L271.919,139.4L271.191,139.708L270.463,140.632L270.026,142.633L270.172,144.019L270.9,145.25L271.191,146.328L271.919,147.56L272.792,148.483L272.647,151.1L274.248,151.87L275.704,152.947L276.432,153.871L277.742,155.564L278.47,155.718L280.071,156.334L281.673,160.182L283.711,160.952L285.458,161.721L283.711,172.803L280.945,185.421L278.907,195.884L279.489,197.115L280.217,199.884L279.344,200.961L278.907,201.73L278.47,202.499L275.849,204.038L274.539,205.268L273.52,206.807L272.501,207.268L271.191,207.73L270.9,208.499L267.406,210.652L266.095,210.96L264.931,211.268L262.019,211.729L263.184,214.805L264.348,216.036L266.678,218.958L266.387,219.727L263.766,221.419L263.038,222.034L262.601,222.803L262.31,223.265L261.437,223.419L260.854,222.957L260.418,222.803L260.126,223.111L259.981,223.265L259.107,222.803L258.962,222.803L257.36,223.111L257.069,223.726L256.487,226.187L254.885,227.725L251.537,228.955L250.372,230.339L249.935,231.108L249.935,234.645L248.334,236.491L247.897,238.49L245.714,242.334L245.131,243.41L244.549,244.487L243.53,245.87L243.675,247.1L244.549,248.792L242.074,251.867L241.2,252.174L240.909,253.097L241.2,255.095L240.909,258.17L241.492,259.246L242.074,260.015L242.511,260.476L242.511,260.937L241.928,261.552L241.492,263.551L242.219,264.627L242.802,265.549L240.909,268.623L240.472,269.853L240.764,271.236L239.162,274.003L238.725,274.618L238.871,276.001L238.289,278.46L238.143,279.69L237.124,281.073L236.542,281.842L235.086,282.918L233.63,283.84L231.737,283.532L228.389,283.993L227.224,283.993L226.496,284.454L225.768,286.913L224.313,287.682L223.439,288.604L218.78,289.987L217.761,289.987L217.033,288.604L215.286,288.45L213.248,288.296L211.938,288.911L209.317,288.911L207.134,288.911L206.697,288.604L205.387,289.526L203.057,288.911L201.165,288.911L199.854,288.911L199.126,288.604L198.399,289.219L197.816,289.526L197.671,289.065L196.943,288.757L196.36,288.45L195.924,287.682L195.196,287.528L194.322,287.835L193.74,286.913L192.866,286.913L192.43,287.067L191.702,285.991L190.974,286.145L189.227,286.299L188.499,285.377L187.334,284.762L186.461,285.069L185.878,285.684L185.15,285.377L184.422,285.991L183.986,286.606L183.112,286.299L182.093,285.838L181.074,286.452L180.783,287.221L179.909,288.143L178.89,288.604L178.308,289.065L178.017,290.294L178.017,290.755L176.124,291.216L175.105,290.755L173.649,290.755L171.465,290.909L169.718,291.216L168.699,291.524L166.661,291.216L165.496,291.063L164.041,291.063L161.566,290.755L158.363,290.448L153.704,288.911L151.957,289.065L150.21,290.448L148.026,290.602L146.716,292.292L142.931,293.06L141.329,295.519L140.019,297.517L138.272,298.9L135.943,301.973L134.05,301.665L131.575,301.358L129.683,303.202L129.1,305.66L128.081,308.733L126.625,311.191L124.296,310.73L123.131,311.499L122.549,313.803L121.384,315.493L119.637,317.797L111.776,323.174L111.339,323.635L111.048,326.861L130.411,336.23L130.993,333.926L142.203,337.766L141.766,344.063L143.659,346.213L140.602,348.056L139.874,349.13L132.886,352.662L132.158,355.426L123.714,359.265L124.005,360.647L122.258,362.182L122.403,364.639L120.074,367.249L120.22,369.092L119.055,369.552L118.327,368.324L117.745,368.784L117.162,369.092L116.726,368.324L116.58,367.71L116.435,367.71L115.415,367.403L114.688,367.403L113.96,367.249L113.523,366.942L113.377,367.096L113.086,367.71L112.358,367.556L111.776,368.324L111.193,368.17L110.466,369.399L110.029,369.399L109.592,370.473L109.883,370.934L109.883,372.316L110.029,373.083L108.864,373.39L107.845,374.158L106.389,374.465L105.807,374.158L104.933,374.158L104.642,374.465L104.06,374.158L103.623,374.772L102.604,375.539L102.167,376L102.167,375.693L102.022,375.693L101.876,375.693L101.876,375.539L101.731,375.539L101.731,375.386L101.585,375.386L101.585,375.232L101.294,375.232L101.294,375.079L101.148,375.079L101.148,374.925L101.003,374.925L101.003,374.772L100.857,374.772L100.857,374.618L100.566,374.618L100.566,374.465L100.566,374.311L100.42,374.311L100.275,374.311L100.275,374.158L100.129,374.158L100.129,374.004L99.983,374.004L99.838,374.004L99.547,374.004L99.547,373.851L99.547,373.697L99.401,373.697L99.256,373.697L99.256,373.544L99.256,373.39L98.964,373.39L98.819,373.39L98.819,373.237L98.819,373.083L98.673,373.083L98.528,373.083L98.528,372.93L98.382,372.93L98.382,372.776L98.236,372.776L98.236,372.469L98.382,372.469L98.382,372.162L98.528,372.162L98.528,371.855L98.528,371.548L98.382,371.548L98.382,371.394L98.236,371.394L98.236,371.241L98.091,371.241L98.091,371.087L97.945,371.087L97.509,371.087L97.509,370.934L97.363,370.934L97.363,370.78L97.217,370.78L97.217,370.473L97.509,370.473L98.091,370.473L98.091,370.627L98.236,370.627L98.236,370.78L98.382,370.78L98.382,370.934L98.528,370.934L98.528,371.087L98.819,371.087L98.819,370.78L98.673,370.78L98.673,370.627L98.528,370.627L98.528,370.473L98.528,370.166L98.382,370.166L98.382,370.013L97.945,370.013L97.945,369.859L97.072,369.859L97.072,370.013L96.781,370.013L96.781,370.166L96.489,370.166L96.489,370.473L96.489,370.78L96.344,370.78L96.344,371.241L96.198,371.241L96.198,371.394L95.907,371.394L95.616,371.394L95.616,371.241L95.47,371.241L95.47,371.087L95.325,371.087L95.325,370.934L95.179,370.934L95.179,370.78L95.179,370.627L95.034,370.627L95.034,370.473L94.888,370.473L94.742,370.473L94.742,370.32L94.597,370.32L94.597,370.166L94.451,370.166L94.451,370.013L94.306,370.013L94.306,369.859L94.306,369.552L94.16,369.552L94.16,369.399L94.306,369.399L94.306,369.245L94.306,368.784L94.306,368.631L94.451,368.631L94.451,368.477L94.597,368.477L94.597,368.324L94.597,368.17L94.742,368.17L94.888,368.17L94.888,368.017L94.888,367.863L95.034,367.863L95.179,367.863L95.179,367.403L94.597,367.403L94.597,367.556L94.597,367.863L94.451,367.863L94.16,367.863L93.869,367.863L93.869,368.017L93.723,368.017L93.723,368.17L93.578,368.17L93.432,368.17L93.432,368.324L93.287,368.324L93.287,368.477L92.995,368.477L93.141,368.477L93.141,368.784L93.141,369.245L92.85,369.245L92.85,369.092L92.559,369.092L92.268,369.092L92.268,368.938L91.976,368.938L91.976,368.784L91.831,368.784L91.831,368.631L91.54,368.631L91.54,368.477L91.394,368.477L91.248,368.477L91.248,368.17L91.103,368.17L90.957,368.17L90.957,368.017L90.957,367.863L90.812,367.863L90.666,367.863L90.666,367.71L90.52,367.71L90.52,367.556L90.375,367.556L90.375,367.403L90.229,367.403L90.084,367.403L90.084,367.249L89.938,367.249L89.938,367.096L89.938,366.942L89.793,366.942L89.793,366.789L89.647,366.789L89.501,366.789L89.501,366.635L89.21,366.635L89.21,366.482L89.065,366.482L89.065,366.328L88.919,366.328L88.919,366.174L88.773,366.174L88.773,366.021L88.628,366.021L88.628,365.867L88.482,365.867L88.482,365.714L88.337,365.714L88.337,365.56L88.191,365.56L88.046,365.56L88.046,365.407L87.9,365.407L87.9,365.253L87.609,365.253L87.609,365.1L87.609,364.946L87.463,364.946L87.463,364.793L87.318,364.793L87.172,364.793L87.172,364.639L87.026,364.639L87.026,364.486L86.881,364.486L86.881,364.332L86.59,364.332L86.59,364.178L86.444,364.178L86.444,364.025L86.299,364.025L86.299,363.871L86.153,363.871L86.007,363.871L86.007,363.718L85.862,363.718L85.862,363.564L85.716,363.564L85.571,363.564L85.571,363.411L85.425,363.411L85.425,363.257L85.279,363.257L85.279,363.104L85.134,363.104L85.134,362.95L84.988,362.95L84.988,362.797L84.843,362.797L84.843,362.643L84.697,362.643L84.697,362.49L84.552,362.49L84.552,362.336L84.406,362.336L84.406,362.182L84.26,362.182L84.26,362.029L83.969,362.029L83.969,361.875L83.824,361.875L83.824,361.722L83.678,361.722L83.678,361.568L83.532,361.568L83.532,361.415L83.387,361.415L83.387,361.261L83.241,361.261L83.241,361.108L83.096,361.108L83.096,360.954L82.95,360.954L82.95,360.801L82.659,360.801L82.659,360.647L82.513,360.647L82.513,360.494L82.368,360.494L82.368,360.34L82.222,360.34L82.077,360.34L82.077,360.186L81.931,360.186L81.931,360.033L81.931,359.879L81.64,359.879L81.64,359.726L81.494,359.726L81.494,359.572L81.349,359.572L81.349,359.419L81.058,359.419L81.058,359.265L81.058,359.112L81.058,358.805L81.203,358.805L81.203,358.651L81.349,358.651L81.349,358.344L81.349,358.037L81.785,358.037L82.659,357.269L85.279,350.82L86.444,349.438L92.122,347.441L92.85,346.827L92.995,344.063L95.762,339.455L97.8,333.312L97.8,332.851L98.091,331.008L98.091,330.24L97.945,329.779L97.509,324.864L98.091,323.02L98.819,321.331L101.439,318.719L101.585,318.565L102.75,317.336L103.041,317.029L103.332,316.107L103.478,315.493L104.642,313.803L107.263,310.269L108.136,308.119L108.282,307.811L108.282,306.428L108.282,304.738L108.427,302.28L108.573,298.285L108.573,297.978L107.845,291.985L107.845,291.37L107.117,291.37L106.826,288.911L106.68,288.296L106.244,287.067L106.098,286.299L104.933,284.454L104.497,283.84L100.275,279.69L99.692,277.692L99.547,275.387L100.566,274.772L101.294,274.157L101.585,273.849L102.313,272.466L102.458,271.698L102.75,270.775L102.313,268.931L102.313,268.47L102.167,267.547L101.148,264.627L100.275,262.936L99.401,260.937L98.091,258.324L97.945,258.016L97.217,255.557L96.926,253.25L96.344,250.637L96.198,250.483L95.47,247.562L95.325,246.947L95.034,245.717L94.742,244.948L95.179,243.41L95.325,242.488L96.489,240.95L96.926,240.181L98.091,238.028L99.692,236.491L102.458,236.183L103.041,235.722L103.332,235.414L104.205,234.491L107.554,230.954L108.136,230.186L109.446,227.571L109.738,226.341L110.174,224.803L110.174,221.727L109.738,219.42L108.864,215.421L109.01,214.344L109.301,212.96L109.301,212.806L109.738,210.652L109.01,209.114L109.301,207.268L108.573,205.73L107.991,204.191L107.845,203.73L107.845,201.422L108.427,196.499L108.136,192.96L107.991,192.653L107.845,190.806L107.845,190.653L108.136,188.498L108.136,188.191L109.592,185.883L109.738,185.729L110.029,185.267L110.32,184.806L111.776,182.651L111.921,182.19L113.232,178.343L113.377,177.727L114.542,176.804L115.124,176.804L116.435,176.65L117.162,176.496L119.201,177.265L122.84,177.419L124.151,178.804L125.606,178.958L127.353,177.419L127.936,176.65L130.556,172.495L130.847,172.495L130.993,172.495L131.139,172.341L132.303,170.494L133.613,168.493L134.05,166.185L134.196,165.261L135.215,163.414L135.797,163.107L137.108,162.491L137.399,158.951L138.709,157.565L139.146,156.796L139.728,156.026L139.874,155.872L140.165,155.41L137.981,152.64L112.795,119.845L112.649,119.691L111.339,118.151L102.022,105.984L100.129,103.519L99.983,104.443L99.401,103.673L90.812,91.966L90.375,91.35L88.191,88.115L84.988,83.955L84.988,83.801L84.26,83.031L83.824,82.414L83.824,82.26L84.552,80.411L85.279,79.179L85.862,78.254L86.881,76.559L108.573,40.034L108.719,39.725L108.719,39.571L118.182,24L118.473,24.154L118.764,24.308L122.695,29.705L123.859,30.938L132.594,34.021L133.905,78.1L157.926,83.647Z" fill="rgba(180,200,195,0.35)"/>
  </g>
  <path d="M158.945,82.723L170.301,70.55L177.726,62.074L183.986,62.229L205.387,46.045L226.351,58.684L236.833,58.376L247.897,52.827L253.138,54.06L255.031,53.752L255.613,53.136L256.196,52.057L259.981,52.365L260.563,53.136L265.222,54.523L268.57,55.293L271.628,60.225L277.742,67.622L284.439,72.091L297.396,90.888L299.434,93.969L312.974,94.431L314.721,94.431L316.759,96.434L318.942,97.82L312.974,117.843L300.89,124.619L297.105,126.466L281.091,127.236L278.47,130.162L277.16,130.162L276.432,131.086L275.849,131.856L276.577,132.934L275.413,133.857L275.558,134.627L274.539,135.397L273.811,136.783L273.811,137.86L272.501,138.014L271.919,139.4L271.191,139.708L270.463,140.632L270.026,142.633L270.172,144.019L270.9,145.25L271.191,146.328L271.919,147.56L272.792,148.483L272.647,151.1L274.248,151.87L275.704,152.947L276.432,153.871L277.742,155.564L278.47,155.718L280.071,156.334L281.673,160.182L283.711,160.952L285.458,161.721L283.711,172.803L280.945,185.421L278.907,195.884L279.489,197.115L280.217,199.884L279.344,200.961L278.907,201.73L278.47,202.499L275.849,204.038L274.539,205.268L273.52,206.807L272.501,207.268L271.191,207.73L270.9,208.499L267.406,210.652L266.095,210.96L264.931,211.268L262.019,211.729L263.184,214.805L264.348,216.036L266.678,218.958L266.387,219.727L263.766,221.419L263.038,222.034L262.601,222.803L262.31,223.265L261.437,223.419L260.854,222.957L260.418,222.803L260.126,223.111L259.981,223.265L259.107,222.803L258.962,222.803L257.36,223.111L257.069,223.726L256.487,226.187L254.885,227.725L251.537,228.955L250.372,230.339L249.935,231.108L249.935,234.645L248.334,236.491L247.897,238.49L245.714,242.334L245.131,243.41L244.549,244.487L243.53,245.87L243.675,247.1L244.549,248.792L242.074,251.867L241.2,252.174L240.909,253.097L241.2,255.095L240.909,258.17L241.492,259.246L242.074,260.015L242.511,260.476L242.511,260.937L241.928,261.552L241.492,263.551L242.219,264.627L242.802,265.549L240.909,268.623L240.472,269.853L240.764,271.236L239.162,274.003L238.725,274.618L238.871,276.001L238.289,278.46L238.143,279.69L237.124,281.073L236.542,281.842L235.086,282.918L233.63,283.84L231.737,283.532L228.389,283.993L227.224,283.993L226.496,284.454L225.768,286.913L224.313,287.682L223.439,288.604L218.78,289.987L217.761,289.987L217.033,288.604L215.286,288.45L213.248,288.296L211.938,288.911L209.317,288.911L207.134,288.911L206.697,288.604L205.387,289.526L203.057,288.911L201.165,288.911L199.854,288.911L199.126,288.604L198.399,289.219L197.816,289.526L197.671,289.065L196.943,288.757L196.36,288.45L195.924,287.682L195.196,287.528L194.322,287.835L193.74,286.913L192.866,286.913L192.43,287.067L191.702,285.991L190.974,286.145L189.227,286.299L188.499,285.377L187.334,284.762L186.461,285.069L185.878,285.684L185.15,285.377L184.422,285.991L183.986,286.606L183.112,286.299L182.093,285.838L181.074,286.452L180.783,287.221L179.909,288.143L178.89,288.604L178.308,289.065L178.017,290.294L178.017,290.755L176.124,291.216L175.105,290.755L173.649,290.755L171.465,290.909L169.718,291.216L168.699,291.524L166.661,291.216L165.496,291.063L164.041,291.063L161.566,290.755L158.363,290.448L153.704,288.911L151.957,289.065L150.21,290.448L148.026,290.602L146.716,292.292L142.931,293.06L141.329,295.519L140.019,297.517L138.272,298.9L135.943,301.973L134.05,301.665L131.575,301.358L129.683,303.202L129.1,305.66L128.081,308.733L126.625,311.191L124.296,310.73L123.131,311.499L122.549,313.803L121.384,315.493L119.637,317.797L111.776,323.174L111.339,323.635L111.048,326.861L130.411,336.23L130.993,333.926L142.203,337.766L141.766,344.063L143.659,346.213L140.602,348.056L139.874,349.13L132.886,352.662L132.158,355.426L123.714,359.265L124.005,360.647L122.258,362.182L122.403,364.639L120.074,367.249L120.22,369.092L119.055,369.552L118.327,368.324L117.745,368.784L117.162,369.092L116.726,368.324L116.58,367.71L116.435,367.71L115.415,367.403L114.688,367.403L113.96,367.249L113.523,366.942L113.377,367.096L113.086,367.71L112.358,367.556L111.776,368.324L111.193,368.17L110.466,369.399L110.029,369.399L109.592,370.473L109.883,370.934L109.883,372.316L110.029,373.083L108.864,373.39L107.845,374.158L106.389,374.465L105.807,374.158L104.933,374.158L104.642,374.465L104.06,374.158L103.623,374.772L102.604,375.539L102.167,376L102.167,375.693L102.022,375.693L101.876,375.693L101.876,375.539L101.731,375.539L101.731,375.386L101.585,375.386L101.585,375.232L101.294,375.232L101.294,375.079L101.148,375.079L101.148,374.925L101.003,374.925L101.003,374.772L100.857,374.772L100.857,374.618L100.566,374.618L100.566,374.465L100.566,374.311L100.42,374.311L100.275,374.311L100.275,374.158L100.129,374.158L100.129,374.004L99.983,374.004L99.838,374.004L99.547,374.004L99.547,373.851L99.547,373.697L99.401,373.697L99.256,373.697L99.256,373.544L99.256,373.39L98.964,373.39L98.819,373.39L98.819,373.237L98.819,373.083L98.673,373.083L98.528,373.083L98.528,372.93L98.382,372.93L98.382,372.776L98.236,372.776L98.236,372.469L98.382,372.469L98.382,372.162L98.528,372.162L98.528,371.855L98.528,371.548L98.382,371.548L98.382,371.394L98.236,371.394L98.236,371.241L98.091,371.241L98.091,371.087L97.945,371.087L97.509,371.087L97.509,370.934L97.363,370.934L97.363,370.78L97.217,370.78L97.217,370.473L97.509,370.473L98.091,370.473L98.091,370.627L98.236,370.627L98.236,370.78L98.382,370.78L98.382,370.934L98.528,370.934L98.528,371.087L98.819,371.087L98.819,370.78L98.673,370.78L98.673,370.627L98.528,370.627L98.528,370.473L98.528,370.166L98.382,370.166L98.382,370.013L97.945,370.013L97.945,369.859L97.072,369.859L97.072,370.013L96.781,370.013L96.781,370.166L96.489,370.166L96.489,370.473L96.489,370.78L96.344,370.78L96.344,371.241L96.198,371.241L96.198,371.394L95.907,371.394L95.616,371.394L95.616,371.241L95.47,371.241L95.47,371.087L95.325,371.087L95.325,370.934L95.179,370.934L95.179,370.78L95.179,370.627L95.034,370.627L95.034,370.473L94.888,370.473L94.742,370.473L94.742,370.32L94.597,370.32L94.597,370.166L94.451,370.166L94.451,370.013L94.306,370.013L94.306,369.859L94.306,369.552L94.16,369.552L94.16,369.399L94.306,369.399L94.306,369.245L94.306,368.784L94.306,368.631L94.451,368.631L94.451,368.477L94.597,368.477L94.597,368.324L94.597,368.17L94.742,368.17L94.888,368.17L94.888,368.017L94.888,367.863L95.034,367.863L95.179,367.863L95.179,367.403L94.597,367.403L94.597,367.556L94.597,367.863L94.451,367.863L94.16,367.863L93.869,367.863L93.869,368.017L93.723,368.017L93.723,368.17L93.578,368.17L93.432,368.17L93.432,368.324L93.287,368.324L93.287,368.477L92.995,368.477L93.141,368.477L93.141,368.784L93.141,369.245L92.85,369.245L92.85,369.092L92.559,369.092L92.268,369.092L92.268,368.938L91.976,368.938L91.976,368.784L91.831,368.784L91.831,368.631L91.54,368.631L91.54,368.477L91.394,368.477L91.248,368.477L91.248,368.17L91.103,368.17L90.957,368.17L90.957,368.017L90.957,367.863L90.812,367.863L90.666,367.863L90.666,367.71L90.52,367.71L90.52,367.556L90.375,367.556L90.375,367.403L90.229,367.403L90.084,367.403L90.084,367.249L89.938,367.249L89.938,367.096L89.938,366.942L89.793,366.942L89.793,366.789L89.647,366.789L89.501,366.789L89.501,366.635L89.21,366.635L89.21,366.482L89.065,366.482L89.065,366.328L88.919,366.328L88.919,366.174L88.773,366.174L88.773,366.021L88.628,366.021L88.628,365.867L88.482,365.867L88.482,365.714L88.337,365.714L88.337,365.56L88.191,365.56L88.046,365.56L88.046,365.407L87.9,365.407L87.9,365.253L87.609,365.253L87.609,365.1L87.609,364.946L87.463,364.946L87.463,364.793L87.318,364.793L87.172,364.793L87.172,364.639L87.026,364.639L87.026,364.486L86.881,364.486L86.881,364.332L86.59,364.332L86.59,364.178L86.444,364.178L86.444,364.025L86.299,364.025L86.299,363.871L86.153,363.871L86.007,363.871L86.007,363.718L85.862,363.718L85.862,363.564L85.716,363.564L85.571,363.564L85.571,363.411L85.425,363.411L85.425,363.257L85.279,363.257L85.279,363.104L85.134,363.104L85.134,362.95L84.988,362.95L84.988,362.797L84.843,362.797L84.843,362.643L84.697,362.643L84.697,362.49L84.552,362.49L84.552,362.336L84.406,362.336L84.406,362.182L84.26,362.182L84.26,362.029L83.969,362.029L83.969,361.875L83.824,361.875L83.824,361.722L83.678,361.722L83.678,361.568L83.532,361.568L83.532,361.415L83.387,361.415L83.387,361.261L83.241,361.261L83.241,361.108L83.096,361.108L83.096,360.954L82.95,360.954L82.95,360.801L82.659,360.801L82.659,360.647L82.513,360.647L82.513,360.494L82.368,360.494L82.368,360.34L82.222,360.34L82.077,360.34L82.077,360.186L81.931,360.186L81.931,360.033L81.931,359.879L81.64,359.879L81.64,359.726L81.494,359.726L81.494,359.572L81.349,359.572L81.349,359.419L81.058,359.419L81.058,359.265L81.058,359.112L81.058,358.805L81.203,358.805L81.203,358.651L81.349,358.651L81.349,358.344L81.349,358.037L81.785,358.037L82.659,357.269L85.279,350.82L86.444,349.438L92.122,347.441L92.85,346.827L92.995,344.063L95.762,339.455L97.8,333.312L97.8,332.851L98.091,331.008L98.091,330.24L97.945,329.779L97.509,324.864L98.091,323.02L98.819,321.331L101.439,318.719L101.585,318.565L102.75,317.336L103.041,317.029L103.332,316.107L103.478,315.493L104.642,313.803L107.263,310.269L108.136,308.119L108.282,307.811L108.282,306.428L108.282,304.738L108.427,302.28L108.573,298.285L108.573,297.978L107.845,291.985L107.845,291.37L107.117,291.37L106.826,288.911L106.68,288.296L106.244,287.067L106.098,286.299L104.933,284.454L104.497,283.84L100.275,279.69L99.692,277.692L99.547,275.387L100.566,274.772L101.294,274.157L101.585,273.849L102.313,272.466L102.458,271.698L102.75,270.775L102.313,268.931L102.313,268.47L102.167,267.547L101.148,264.627L100.275,262.936L99.401,260.937L98.091,258.324L97.945,258.016L97.217,255.557L96.926,253.25L96.344,250.637L96.198,250.483L95.47,247.562L95.325,246.947L95.034,245.717L94.742,244.948L95.179,243.41L95.325,242.488L96.489,240.95L96.926,240.181L98.091,238.028L99.692,236.491L102.458,236.183L103.041,235.722L103.332,235.414L104.205,234.491L107.554,230.954L108.136,230.186L109.446,227.571L109.738,226.341L110.174,224.803L110.174,221.727L109.738,219.42L108.864,215.421L109.01,214.344L109.301,212.96L109.301,212.806L109.738,210.652L109.01,209.114L109.301,207.268L108.573,205.73L107.991,204.191L107.845,203.73L107.845,201.422L108.427,196.499L108.136,192.96L107.991,192.653L107.845,190.806L107.845,190.653L108.136,188.498L108.136,188.191L109.592,185.883L109.738,185.729L110.029,185.267L110.32,184.806L111.776,182.651L111.921,182.19L113.232,178.343L113.377,177.727L114.542,176.804L115.124,176.804L116.435,176.65L117.162,176.496L119.201,177.265L122.84,177.419L124.151,178.804L125.606,178.958L127.353,177.419L127.936,176.65L130.556,172.495L130.847,172.495L130.993,172.495L131.139,172.341L132.303,170.494L133.613,168.493L134.05,166.185L134.196,165.261L135.215,163.414L135.797,163.107L137.108,162.491L137.399,158.951L138.709,157.565L139.146,156.796L139.728,156.026L139.874,155.872L140.165,155.41L137.981,152.64L112.795,119.845L112.649,119.691L111.339,118.151L102.022,105.984L100.129,103.519L99.983,104.443L99.401,103.673L90.812,91.966L90.375,91.35L88.191,88.115L84.988,83.955L84.988,83.801L84.26,83.031L83.824,82.414L83.824,82.26L84.552,80.411L85.279,79.179L85.862,78.254L86.881,76.559L108.573,40.034L108.719,39.725L108.719,39.571L118.182,24L118.473,24.154L118.764,24.308L122.695,29.705L123.859,30.938L132.594,34.021L133.905,78.1L157.926,83.647Z" fill="none" stroke="rgba(255,255,255,0.9)" stroke-width="2"/>
</svg>