<?xml version="1.0" encoding="UTF-8"?>
<svg viewBox="0 0 400 400" xmlns="http://www.w3.org/2000/svg" role="img" aria-label="Santa Rosa">
  <defs>
    <clipPath id="c"><path d="M237.059,42.839L243.521,48.25L248.082,44.643L291.223,34.222L303.196,37.228L305.287,37.428L306.617,48.65L319.73,57.066L334.174,65.682L337.215,68.888L332.084,88.721L330.373,90.523L329.043,91.725L316.31,105.946L301.106,104.745L304.717,111.754L304.146,115.76L302.056,115.96L302.246,116.16L299.775,115.359L297.495,115.159L292.553,111.754L267.087,120.165L264.996,121.567L264.426,122.769L264.996,125.372L265.187,127.975L263.476,131.78L261.576,134.583L261.766,136.385L262.336,138.387L262.906,140.39L262.526,142.992L263.476,145.996L261.196,150.2L263.476,153.403L265.187,154.404L270.318,154.004L284.762,155.805L323.721,180.426L324.292,181.027L323.911,181.227L329.993,190.233L329.613,190.633L327.712,190.633L326.952,191.434L325.432,192.034L325.052,192.635L326.952,195.636L326.762,197.838L324.482,198.638L323.531,199.839L321.631,199.239L320.871,200.639L332.274,217.247L333.414,215.847L334.364,218.048L328.092,235.053L322.011,250.256L312.318,246.455L303.006,249.856L304.527,255.856L304.336,260.857L302.246,273.656L301.106,274.256L304.146,278.056L304.146,279.655L301.866,281.655L289.703,298.451L288.562,297.851L289.893,295.652L290.273,294.052L290.273,292.253L289.513,291.053L288.182,290.053L287.042,289.254L282.671,288.654L275.639,289.454L269.938,288.454L260.435,284.855L254.924,281.655L251.313,278.456L250.553,277.856L242.381,277.656L230.028,275.656L220.335,274.256L217.484,274.256L217.674,277.256L219.385,279.655L220.335,280.255L219.385,281.855L220.715,283.855L222.046,287.054L222.046,288.454L220.715,290.853L220.145,292.053L220.525,293.253L221.665,294.252L222.236,295.852L224.326,299.651L225.276,302.45L226.607,304.249L228.317,305.649L229.457,307.848L230.408,310.647L231.358,312.246L236.109,311.446L237.059,314.445L238.39,314.445L239.34,313.845L240.29,314.445L239.72,316.244L239.34,318.043L239.91,318.843L242.571,321.441L240.1,325.639L240.29,327.638L238.96,330.636L238.39,331.636L239.34,333.435L240.67,333.634L241.05,333.634L241.621,337.432L241.811,338.431L243.521,339.231L244.281,341.03L244.471,342.628L243.711,343.628L243.141,344.427L243.331,347.625L243.711,349.823L243.141,352.821L242.381,354.22L238.2,356.018L237.249,356.618L236.679,358.017L235.729,359.016L234.019,360.015L234.019,362.013L234.779,365.01L234.969,366.809L235.539,368.008L235.539,369.007L235.539,369.606L235.539,370.006L236.489,371.404L236.299,372.204L234.779,372.204L234.969,373.403L234.969,373.602L237.059,374.601L237.63,374.801L238.77,375.401L238.58,375.8L237.439,376L236.869,375.6L235.539,375.201L235.349,375.201L235.159,375.201L234.969,375.201L234.589,375.201L234.589,375.401L234.399,375.401L234.399,375.201L234.209,375.201L233.829,375.201L233.639,375.001L232.688,374.402L231.358,373.802L230.978,373.602L230.978,373.403L230.788,373.403L230.788,373.203L230.598,373.203L230.598,373.003L230.408,373.003L230.218,373.003L230.218,372.803L230.218,372.603L229.838,372.603L229.457,372.603L229.457,372.404L228.887,372.404L228.887,372.204L227.937,372.204L227.557,372.204L227.557,372.004L227.177,372.004L227.177,371.804L226.987,371.804L226.797,371.804L226.797,371.604L226.037,371.604L226.037,371.404L225.847,371.404L225.086,371.404L225.086,371.205L224.896,371.205L224.896,371.005L224.516,371.005L224.136,371.005L224.136,370.805L223.946,370.805L223.946,370.605L223.756,370.605L223.756,370.405L223.566,370.405L223.566,370.206L223.376,370.206L223.376,370.006L223.186,370.006L222.996,370.006L222.996,369.806L222.996,369.606L222.806,369.606L222.806,369.207L222.616,369.207L222.046,369.207L222.046,370.006L222.046,370.206L222.236,370.206L222.236,370.405L222.426,370.405L222.426,370.605L222.426,370.805L222.616,370.805L222.616,371.005L222.806,371.005L222.806,371.205L222.996,371.205L222.996,371.404L223.186,371.404L223.376,371.404L223.376,371.604L223.376,371.804L223.756,371.804L223.946,371.804L223.946,372.004L224.136,372.004L224.136,372.204L224.326,372.204L224.706,372.204L224.706,372.404L224.706,372.603L225.086,372.603L225.466,372.603L225.466,372.803L225.466,373.003L225.847,373.003L226.797,373.003L227.177,373.003L227.177,372.803L227.747,372.803L227.747,372.603L228.507,372.603L228.507,372.803L229.457,372.803L229.457,373.003L229.648,373.003L229.838,373.003L229.838,373.203L230.028,373.203L230.028,373.403L230.218,373.403L230.218,373.602L229.838,373.602L229.838,374.402L229.838,375.401L229.838,375.201L229.267,375.201L228.887,375.201L228.887,375.001L228.697,375.001L228.697,374.801L228.127,374.801L227.937,374.801L227.937,374.601L227.747,374.601L227.747,374.402L227.177,374.402L226.987,374.402L226.987,374.002L226.417,374.002L226.227,374.002L226.227,373.802L225.847,373.802L225.847,373.602L225.657,373.602L225.657,373.403L225.466,373.403L225.276,373.403L225.276,373.203L224.136,373.203L224.136,373.003L223.946,373.003L223.946,372.803L223.756,372.803L223.756,372.603L223.376,372.603L223.376,372.404L223.186,372.404L223.186,372.204L222.996,372.204L222.616,372.204L222.616,372.004L222.236,372.004L222.236,371.804L222.046,371.804L222.046,371.604L221.665,371.604L221.665,371.404L221.285,371.404L221.095,371.404L221.095,371.205L220.715,371.205L220.715,371.005L220.335,371.005L219.955,371.005L219.955,370.805L219.955,370.605L219.385,370.605L219.385,370.405L218.815,370.405L218.815,370.206L218.625,370.206L218.625,370.006L218.435,370.006L218.055,370.006L218.055,369.806L217.294,369.806L217.294,369.606L217.104,369.606L217.104,369.406L216.914,369.406L216.914,369.207L216.344,369.207L216.344,369.007L215.964,369.007L215.964,368.807L215.774,368.807L215.014,368.807L215.014,368.607L214.634,368.607L214.634,368.407L214.254,368.407L214.254,368.208L214.064,368.208L214.064,368.008L213.874,368.008L213.493,368.008L213.493,367.808L212.923,367.808L212.923,367.608L212.543,367.608L212.543,367.408L212.353,367.408L212.353,367.208L212.163,367.208L211.973,367.208L211.973,367.009L211.213,367.009L211.213,366.809L210.833,366.809L210.833,366.609L210.643,366.609L210.263,366.609L210.263,366.409L210.073,366.409L210.073,366.209L209.883,366.209L209.502,366.209L209.502,366.01L209.122,366.01L209.122,365.81L208.552,365.81L208.552,365.61L208.362,365.61L208.362,365.41L208.172,365.41L207.792,365.41L207.792,365.21L207.412,365.21L207.412,365.01L207.222,365.01L207.032,365.01L207.032,364.811L206.842,364.811L206.842,364.611L206.462,364.611L206.082,364.611L206.082,364.411L205.701,364.411L205.701,364.211L205.131,364.211L204.941,364.211L204.941,364.011L204.751,364.011L204.751,363.812L204.371,363.812L204.371,363.612L203.991,363.612L203.421,363.612L203.421,363.412L203.041,363.412L203.041,363.212L202.851,363.212L202.851,363.012L202.281,363.012L202.281,362.812L201.71,362.812L201.52,362.812L201.52,362.613L200.95,362.613L200.95,362.413L200.76,362.413L200.38,362.413L200.38,362.213L199.81,362.213L199.81,362.013L199.43,362.013L199.05,362.013L199.05,361.813L198.67,361.813L198.67,361.414L198.86,361.414L198.86,361.214L199.05,361.214L199.05,361.014L199.24,361.014L199.24,360.814L199.62,360.814L199.62,360.614L199.05,360.614L199.05,360.814L198.86,360.814L198.67,360.814L198.67,361.014L198.67,361.214L198.48,361.214L198.29,361.214L198.29,361.014L198.1,361.014L198.1,360.814L197.909,360.814L197.719,360.814L197.719,360.415L197.529,360.415L197.529,360.215L196.959,360.215L196.959,359.815L196.769,359.815L196.769,359.415L196.959,359.415L197.149,359.415L197.149,359.016L196.769,359.016L196.579,359.016L196.579,358.816L196.199,358.816L196.199,358.616L195.819,358.616L195.629,358.616L195.629,358.416L195.439,358.416L195.439,358.216L195.059,358.216L194.869,358.216L194.869,358.017L194.679,358.017L194.679,357.817L194.489,357.817L194.299,357.817L194.109,357.817L194.109,357.617L193.918,357.617L193.918,357.417L193.728,357.417L193.538,357.417L193.538,357.217L193.538,357.417L193.538,357.217L193.158,357.217L193.158,357.017L192.778,357.017L192.588,357.017L192.588,356.818L192.398,356.818L192.398,357.017L192.208,357.017L192.208,357.217L192.208,357.417L191.828,357.417L191.828,357.817L191.638,357.817L191.638,358.017L191.258,358.017L191.258,358.216L191.068,358.216L191.068,358.017L190.878,358.017L190.878,357.817L190.498,357.817L190.498,357.617L190.117,357.617L190.117,357.417L189.737,357.417L189.737,357.217L189.547,357.417L189.547,357.217L189.167,357.217L189.167,357.017L189.167,356.818L188.787,356.818L188.597,356.818L188.597,356.618L188.217,356.618L188.217,356.418L187.837,356.418L187.457,356.418L187.457,356.218L187.077,356.218L187.077,356.018L186.887,356.018L186.507,356.018L186.507,355.818L186.126,355.818L186.126,355.619L185.746,355.619L185.746,355.419L185.556,355.419L185.556,355.219L185.366,355.219L184.796,355.219L184.796,355.019L184.226,355.019L184.226,354.819L184.036,354.819L184.036,354.619L183.846,354.619L183.846,354.42L183.466,354.42L183.086,354.42L183.086,354.22L182.516,354.22L182.516,354.02L181.945,354.02L181.945,353.82L181.755,353.82L181.755,354.02L181.755,353.82L181.565,353.82L181.565,353.62L181.375,353.62L181.375,353.42L180.995,353.42L180.995,353.22L180.805,353.22L180.805,353.021L180.425,353.021L179.855,353.021L179.855,352.821L179.665,352.821L179.665,352.621L179.095,352.621L178.715,352.621L178.335,352.621L178.335,352.421L178.144,352.421L178.144,352.221L177.954,352.221L177.764,352.221L177.764,352.021L177.384,352.021L177.384,351.822L177.004,351.822L177.004,351.622L176.624,351.622L176.624,351.422L176.434,351.422L176.244,351.422L176.244,351.222L175.864,351.222L175.864,351.022L175.674,351.022L175.674,350.822L175.294,350.822L175.294,350.623L174.914,350.623L174.914,350.423L174.343,350.423L174.153,350.423L174.153,350.223L173.963,350.223L173.963,350.023L173.393,350.023L173.203,350.023L173.203,349.823L173.013,349.823L173.013,349.623L172.443,349.623L172.253,349.623L172.253,349.423L171.873,349.423L171.873,349.224L171.683,349.224L171.493,349.224L171.493,349.024L170.923,349.024L170.923,348.824L170.733,348.824L170.733,348.624L170.543,348.624L170.543,348.424L169.592,348.424L169.592,348.224L169.212,348.224L169.212,348.025L168.832,348.025L168.832,347.825L168.452,347.825L168.452,347.625L168.452,347.825L168.262,347.825L168.262,347.625L167.692,347.625L167.692,347.425L167.502,347.425L166.932,347.425L166.932,347.225L166.552,347.225L166.552,347.025L165.981,347.025L165.791,347.025L165.791,346.825L165.601,346.825L165.601,346.626L165.031,346.626L164.461,346.626L164.461,346.426L164.461,346.226L164.271,346.226L164.271,346.026L163.891,346.026L163.891,345.826L163.131,345.826L162.751,345.826L162.751,345.626L161.99,345.626L161.99,345.426L161.8,345.426L161.42,345.426L161.42,345.027L161.42,344.827L161.23,344.827L161.23,345.027L160.85,345.027L160.85,344.827L160.47,344.827L160.47,344.627L160.09,344.627L160.09,344.427L159.71,344.427L159.71,344.227L158.76,344.227L158.76,344.027L158.379,344.027L157.999,344.027L157.999,343.628L157.619,343.628L157.619,343.428L157.619,343.228L157.239,343.228L156.669,343.228L156.669,343.028L156.289,343.028L156.289,342.828L155.719,342.828L155.719,343.028L155.719,342.828L155.339,342.828L155.339,342.628L155.149,342.628L155.149,342.429L154.959,342.429L154.578,342.429L154.578,342.229L153.628,342.229L153.628,342.029L153.438,342.029L153.248,342.029L153.248,341.629L152.868,341.629L152.298,341.629L152.298,341.429L152.108,341.429L152.108,341.629L151.918,341.629L151.918,341.229L151.538,341.229L151.538,341.03L150.968,341.03L150.587,341.03L150.587,340.83L150.207,340.83L150.207,340.63L149.827,340.63L149.257,340.63L149.257,340.43L148.877,340.43L148.877,340.23L148.497,340.23L147.547,340.23L147.547,340.03L147.167,340.03L147.167,339.83L146.786,339.83L146.786,339.631L146.216,339.631L146.216,339.431L145.836,339.431L145.646,339.431L145.646,339.231L145.456,339.231L145.456,339.031L145.266,339.031L144.886,339.031L144.886,338.831L143.936,338.831L143.936,338.631L143.746,338.631L143.556,338.631L143.556,338.431L143.176,338.431L143.176,338.231L142.795,338.231L142.415,338.231L142.415,338.032L141.655,338.032L141.655,337.832L141.465,337.832L141.465,337.632L141.085,337.632L140.325,337.632L140.325,337.432L140.135,337.432L140.135,337.232L139.755,337.232L139.185,337.232L139.185,337.032L138.995,337.032L138.995,336.832L138.804,336.832L138.424,336.832L138.424,336.633L137.854,336.633L137.854,336.433L137.474,336.433L136.714,336.433L136.714,336.233L136.334,336.233L136.334,336.033L135.954,336.033L135.764,336.033L135.764,335.833L135.194,335.833L135.194,335.633L134.813,335.633L134.623,335.633L134.243,335.633L134.243,335.433L133.673,335.433L133.673,335.233L133.483,335.233L133.293,335.233L133.293,335.034L132.913,335.034L132.913,334.834L131.963,334.834L131.963,334.634L131.393,334.834L131.393,334.634L131.012,334.634L131.012,334.434L130.822,334.434L130.822,334.234L130.442,334.234L130.062,334.234L130.062,334.034L129.872,334.034L129.872,333.834L129.492,333.834L129.112,333.834L128.922,333.834L128.922,333.634L128.732,333.634L128.732,333.435L127.782,333.435L127.592,333.435L127.592,333.235L127.402,333.235L127.402,332.835L126.831,332.835L126.831,333.035L126.071,333.035L126.071,332.835L125.691,332.835L125.691,332.635L125.501,332.635L125.311,332.635L125.311,332.435L124.741,332.435L124.741,332.235L124.551,332.235L124.361,332.235L124.361,332.035L124.171,332.035L124.171,331.836L123.601,331.836L123.601,332.035L123.411,332.035L123.411,331.836L122.84,331.836L122.08,331.836L122.08,331.636L122.08,331.236L121.89,331.236L121.89,331.036L121.7,331.036L121.7,331.236L121.51,331.236L121.51,331.036L120.94,331.036L120.94,330.836L120.75,330.836L120.37,330.836L119.8,330.836L119.23,330.836L119.23,330.636L118.849,330.636L118.849,330.436L118.659,330.436L118.659,330.237L118.089,330.237L118.089,330.436L117.899,330.436L117.899,330.237L117.709,330.237L117.709,330.037L117.329,330.037L117.139,330.037L117.139,329.837L116.759,329.837L116.759,329.637L116.569,329.637L116.569,329.437L115.999,329.437L115.999,329.637L115.619,329.637L115.619,329.437L115.429,329.437L115.429,329.237L115.238,329.237L115.048,329.237L115.048,329.037L114.858,329.037L114.858,328.837L114.288,328.837L114.288,329.037L113.528,329.037L113.528,328.837L113.718,328.837L113.718,328.637L113.148,328.637L113.148,328.438L112.958,328.438L112.578,328.438L112.578,328.238L112.008,328.238L112.008,328.038L111.628,328.038L111.628,328.238L111.247,328.238L111.247,328.038L110.867,328.038L110.867,327.838L110.107,327.838L109.727,327.838L109.727,327.638L109.537,327.638L109.537,327.438L108.967,327.438L108.967,327.238L108.967,327.038L108.587,327.038L108.587,327.238L108.207,327.238L108.207,327.038L107.827,327.038L107.827,327.238L107.827,327.038L107.447,327.038L107.066,327.038L107.066,326.639L106.876,326.639L106.496,326.639L106.116,326.639L105.926,326.639L105.926,326.439L105.926,326.239L105.546,326.239L105.546,326.039L105.166,326.039L105.166,325.839L105.166,326.039L104.976,326.039L104.976,326.239L104.216,326.239L104.216,326.039L103.836,326.039L103.836,325.839L103.265,325.839L103.075,325.839L103.075,325.639L102.125,325.639L102.125,325.439L101.745,325.439L101.365,325.439L101.365,325.239L101.175,325.239L101.175,325.04L100.795,325.04L100.795,324.84L100.035,324.84L100.035,325.04L99.655,325.04L99.655,324.84L99.274,324.84L99.274,324.64L99.084,324.64L99.084,324.44L98.324,324.44L97.184,324.44L97.184,324.24L96.804,324.24L96.804,324.04L96.614,324.04L96.424,324.04L96.234,324.04L96.234,324.24L96.044,324.24L96.044,324.04L95.854,324.04L95.854,323.84L95.473,323.84L95.473,323.64L94.713,323.64L94.713,323.84L94.143,323.84L94.143,323.64L93.953,323.64L93.953,323.44L93.763,323.44L93.763,323.24L93.383,323.24L93.383,323.44L93.193,323.44L93.193,323.64L93.003,323.64L93.003,323.44L92.623,323.44L92.623,323.24L92.433,323.24L92.433,323.041L91.673,323.041L91.673,322.841L90.912,322.841L90.912,323.041L90.722,323.041L90.722,322.841L89.962,322.841L88.632,322.841L88.632,322.641L88.442,322.641L88.442,322.441L88.252,322.441L87.872,322.441L87.872,322.241L87.111,322.241L87.111,322.041L86.541,322.041L85.211,322.041L85.211,321.841L85.021,321.841L85.021,321.641L84.641,321.641L84.641,321.441L84.451,321.441L84.071,321.441L84.071,321.242L83.881,321.242L83.881,321.441L83.881,321.242L83.5,321.242L83.5,321.441L82.93,321.441L82.93,321.242L82.55,321.242L82.55,321.042L81.79,321.042L80.84,321.042L79.699,321.042L79.699,320.642L79.509,320.642L79.509,320.442L78.559,320.442L78.559,320.642L78.179,320.642L77.609,320.642L77.419,320.642L77.419,320.442L77.419,320.242L77.229,320.242L77.039,320.242L77.039,320.042L76.849,320.042L76.849,320.242L76.089,320.242L76.089,320.042L75.899,320.042L75.899,320.242L75.708,320.242L75.708,320.042L75.328,320.042L75.328,319.842L75.138,319.842L75.138,320.042L74.948,320.042L74.948,319.842L74.378,319.842L73.808,319.842L73.808,319.642L73.618,319.642L73.618,319.442L72.288,319.442L71.908,319.442L70.957,319.442L70.957,319.243L70.387,319.243L70.387,319.043L69.247,319.043L69.247,318.843L67.916,318.843L67.916,318.643L67.536,318.643L66.966,318.643L66.966,318.443L66.966,318.643L66.776,318.643L66.776,318.443L65.256,318.443L65.256,318.243L64.876,318.243L64.876,318.043L64.496,318.043L64.496,318.243L63.925,318.243L63.925,318.043L63.355,318.043L63.165,318.043L63.165,316.444L62.785,278.856L66.016,272.856L65.066,271.456L66.016,245.655L78.939,245.055L79.319,241.055L78.179,239.054L79.129,234.653L81.98,233.853L85.021,232.252L86.351,231.052L90.532,230.452L92.433,231.452L95.854,230.252L96.234,219.848L95.664,218.648L91.292,218.048L90.722,217.047L90.152,214.046L81.98,212.645L77.419,212.445L78.559,202.24L90.152,203.041L98.514,195.436L107.827,191.234L109.537,189.232L111.247,186.631L112.198,185.23L117.519,182.027L112.578,180.426L108.207,173.821L104.026,177.824L102.695,179.225L100.415,181.027L97.184,183.228L94.143,184.029L92.243,183.629L91.102,181.627L86.351,180.426L75.708,183.829L73.238,178.225L73.808,176.223L75.708,173.221L77.039,170.018L76.849,169.217L79.129,166.815L80.84,163.012L79.699,161.01L84.261,158.408L87.111,153.803L88.062,153.603L89.962,152.602L91.673,150.8L92.623,148.999L92.623,148.198L95.283,147.197L95.854,145.996L96.614,144.994L97.754,144.994L98.894,144.394L100.225,143.793L101.555,144.794L102.315,144.394L103.265,143.393L104.216,142.992L106.306,143.193L107.447,142.191L108.777,140.59L111.057,140.59L112.008,139.188L114.668,138.788L115.619,138.988L115.999,137.186L117.329,133.582L119.039,133.382L119.42,131.579L121.13,131.379L123.791,129.777L124.931,128.175L127.782,128.175L130.822,125.772L133.103,125.372L134.053,123.37L136.714,122.969L142.605,123.37L143.556,122.168L142.986,119.765L143.176,117.562L145.266,115.76L147.167,116.761L148.877,116.16L151.348,116.36L151.538,115.559L150.968,113.957L153.438,113.757L154.008,111.754L155.529,110.753L154.959,108.75L155.719,105.746L155.339,104.144L154.769,102.742L153.628,99.737L153.818,97.734L153.058,93.528L152.488,92.126L152.488,90.323L152.678,86.918L150.587,81.509L150.968,78.905L151.728,77.302L153.248,75.699L160.28,68.287L161.99,66.884L162.561,65.281L162.37,60.473L161.99,53.259L162.941,47.448L164.081,45.645L165.981,43.641L168.262,44.643L169.592,43.24L174.534,41.837L173.013,38.831L177.384,36.627L179.095,37.027L180.235,39.633L181.375,40.033L182.516,39.031L183.846,38.43L185.746,37.428L185.556,36.025L188.027,36.226L189.167,35.023L191.258,33.019L199.24,36.426L199.81,41.436L201.33,43.841L202.281,50.254L203.801,50.053L203.991,48.851L205.321,46.446L206.462,46.246L206.652,45.244L207.792,43.841L209.883,43.24L210.263,36.226L214.634,30.013L215.584,28.61L218.055,27.808L218.245,27.006L219.005,25.203L222.046,24L227.557,25.804L234.209,30.414L236.299,28.009L237.249,28.009L237.439,30.013L239.15,30.414Z"/></clipPath>
    <pattern id="mesh" width="14" height="14" patternUnits="userSpaceOnUse">
      <path d="M0 14 L14 0 M-2 2 L2 -2 M12 16 L16 12" stroke="rgba(255,255,255,0.2)" stroke-width="0.6" fill="none"/>
    </pattern>
  </defs>
  <g clip-path="url(#c)">
    <rect width="400" height="400" fill="url(#mesh)"/>
    <path d="M237.059,42.839L243.521,48.25L248.082,44.643L291.223,34.222L303.196,37.228L305.287,37.428L306.617,48.65L319.73,57.066L334.174,65.682L337.215,68.888L332.084,88.721L330.373,90.523L329.043,91.725L316.31,105.946L301.106,104.745L304.717,111.754L304.146,115.76L302.056,115.96L302.246,116.16L299.775,115.359L297.495,115.159L292.553,111.754L267.087,120.165L264.996,121.567L264.426,122.769L264.996,125.372L265.187,127.975L263.476,131.78L261.576,134.583L261.766,136.385L262.336,138.387L262.906,140.39L262.526,142.992L263.476,145.996L261.196,150.2L263.476,153.403L265.187,154.404L270.318,154.004L284.762,155.805L323.721,180.426L324.292,181.027L323.911,181.227L329.993,190.233L329.613,190.633L327.712,190.633L326.952,191.434L325.432,192.034L325.052,192.635L326.952,195.636L326.762,197.838L324.482,198.638L323.531,199.839L321.631,199.239L320.871,200.639L332.274,217.247L333.414,215.847L334.364,218.048L328.092,235.053L322.011,250.256L312.318,246.455L303.006,249.856L304.527,255.856L304.336,260.857L302.246,273.656L301.106,274.256L304.146,278.056L304.146,279.655L301.866,281.655L289.703,298.451L288.562,297.851L289.893,295.652L290.273,294.052L290.273,292.253L289.513,291.053L288.182,290.053L287.042,289.254L282.671,288.654L275.639,289.454L269.938,288.454L260.435,284.855L254.924,281.655L251.313,278.456L250.553,277.856L242.381,277.656L230.028,275.656L220.335,274.256L217.484,274.256L217.674,277.256L219.385,279.655L220.335,280.255L219.385,281.855L220.715,283.855L222.046,287.054L222.046,288.454L220.715,290.853L220.145,292.053L220.525,293.253L221.665,294.252L222.236,295.852L224.326,299.651L225.276,302.45L226.607,304.249L228.317,305.649L229.457,307.848L230.408,310.647L231.358,312.246L236.109,311.446L237.059,314.445L238.39,314.445L239.34,313.845L240.29,314.445L239.72,316.244L239.34,318.043L239.91,318.843L242.571,321.441L240.1,325.639L240.29,327.638L238.96,330.636L238.39,331.636L239.34,333.435L240.67,333.634L241.05,333.634L241.621,337.432L241.811,338.431L243.521,339.231L244.281,341.03L244.471,342.628L243.711,343.628L243.141,344.427L243.331,347.625L243.711,349.823L243.141,352.821L242.381,354.22L238.2,356.018L237.249,356.618L236.679,358.017L235.729,359.016L234.019,360.015L234.019,362.013L234.779,365.01L234.969,366.809L235.539,368.008L235.539,369.007L235.539,369.606L235.539,370.006L236.489,371.404L236.299,372.204L234.779,372.204L234.969,373.403L234.969,373.602L237.059,374.601L237.63,374.801L238.77,375.401L238.58,375.8L237.439,376L236.869,375.6L235.539,375.201L235.349,375.201L235.159,375.201L234.969,375.201L234.589,375.201L234.589,375.401L234.399,375.401L234.399,375.201L234.209,375.201L233.829,375.201L233.639,375.001L232.688,374.402L231.358,373.802L230.978,373.602L230.978,373.403L230.788,373.403L230.788,373.203L230.598,373.203L230.598,373.003L230.408,373.003L230.218,373.003L230.218,372.803L230.218,372.603L229.838,372.603L229.457,372.603L229.457,372.404L228.887,372.404L228.887,372.204L227.937,372.204L227.557,372.204L227.557,372.004L227.177,372.004L227.177,371.804L226.987,371.804L226.797,371.804L226.797,371.604L226.037,371.604L226.037,371.404L225.847,371.404L225.086,371.404L225.086,371.205L224.896,371.205L224.896,371.005L224.516,371.005L224.136,371.005L224.136,370.805L223.946,370.805L223.946,370.605L223.756,370.605L223.756,370.405L223.566,370.405L223.566,370.206L223.376,370.206L223.376,370.006L223.186,370.006L222.996,370.006L222.996,369.806L222.996,369.606L222.806,369.606L222.806,369.207L222.616,369.207L222.046,369.207L222.046,370.006L222.046,370.206L222.236,370.206L222.236,370.405L222.426,370.405L222.426,370.605L222.426,370.805L222.616,370.805L222.616,371.005L222.806,371.005L222.806,371.205L222.996,371.205L222.996,371.404L223.186,371.404L223.376,371.404L223.376,371.604L223.376,371.804L223.756,371.804L223.946,371.804L223.946,372.004L224.136,372.004L224.136,372.204L224.326,372.204L224.706,372.204L224.706,372.404L224.706,372.603L225.086,372.603L225.466,372.603L225.466,372.803L225.466,373.003L225.847,373.003L226.797,373.003L227.177,373.003L227.177,372.803L227.747,372.803L227.747,372.603L228.507,372.603L228.507,372.803L229.457,372.803L229.457,373.003L229.648,373.003L229.838,373.003L229.838,373.203L230.028,373.203L230.028,373.403L230.218,373.403L230.218,373.602L229.838,373.602L229.838,374.402L229.838,375.401L229.838,375.201L229.267,375.201L228.887,375.201L228.887,375.001L228.697,375.001L228.697,374.801L228.127,374.801L227.937,374.801L227.937,374.601L227.747,374.601L227.747,374.402L227.177,374.402L226.987,374.402L226.987,374.002L226.417,374.002L226.227,374.002L226.227,373.802L225.847,373.802L225.847,373.602L225.657,373.602L225.657,373.403L225.466,373.403L225.276,373.403L225.276,373.203L224.136,373.203L224.136,373.003L223.946,373.003L223.946,372.803L223.756,372.803L223.756,372.603L223.376,372.603L223.376,372.404L223.186,372.404L223.186,372.204L222.996,372.204L222.616,372.204L222.616,372.004L222.236,372.004L222.236,371.804L222.046,371.804L222.046,371.604L221.665,371.604L221.665,371.404L221.285,371.404L221.095,371.404L221.095,371.205L220.715,371.205L220.715,371.005L220.335,371.005L219.955,371.005L219.955,370.805L219.955,370.605L219.385,370.605L219.385,370.405L218.815,370.405L218.815,370.206L218.625,370.206L218.625,370.006L218.435,370.006L218.055,370.006L218.055,369.806L217.294,369.806L217.294,369.606L217.104,369.606L217.104,369.406L216.914,369.406L216.914,369.207L216.344,369.207L216.344,369.007L215.964,369.007L215.964,368.807L215.774,368.807L215.014,368.807L215.014,368.607L214.634,368.607L214.634,368.407L214.254,368.407L214.254,368.208L214.064,368.208L214.064,368.008L213.874,368.008L213.493,368.008L213.493,367.808L212.923,367.808L212.923,367.608L212.543,367.608L212.543,367.408L212.353,367.408L212.353,367.208L212.163,367.208L211.973,367.208L211.973,367.009L211.213,367.009L211.213,366.809L210.833,366.809L210.833,366.609L210.643,366.609L210.263,366.609L210.263,366.409L210.073,366.409L210.073,366.209L209.883,366.209L209.502,366.209L209.502,366.01L209.122,366.01L209.122,365.81L208.552,365.81L208.552,365.61L208.362,365.61L208.362,365.41L208.172,365.41L207.792,365.41L207.792,365.21L207.412,365.21L207.412,365.01L207.222,365.01L207.032,365.01L207.032,364.811L206.842,364.811L206.842,364.611L206.462,364.611L206.082,364.611L206.082,364.411L205.701,364.411L205.701,364.211L205.131,364.211L204.941,364.211L204.941,364.011L204.751,364.011L204.751,363.812L204.371,363.812L204.371,363.612L203.991,363.612L203.421,363.612L203.421,363.412L203.041,363.412L203.041,363.212L202.851,363.212L202.851,363.012L202.281,363.012L202.281,362.812L201.71,362.812L201.52,362.812L201.52,362.613L200.95,362.613L200.95,362.413L200.76,362.413L200.38,362.413L200.38,362.213L199.81,362.213L199.81,362.013L199.43,362.013L199.05,362.013L199.05,361.813L198.67,361.813L198.67,361.414L198.86,361.414L198.86,361.214L199.05,361.214L199.05,361.014L199.24,361.014L199.24,360.814L199.62,360.814L199.62,360.614L199.05,360.614L199.05,360.814L198.86,360.814L198.67,360.814L198.67,361.014L198.67,361.214L198.48,361.214L198.29,361.214L198.29,361.014L198.1,361.014L198.1,360.814L197.909,360.814L197.719,360.814L197.719,360.415L197.529,360.415L197.529,360.215L196.959,360.215L196.959,359.815L196.769,359.815L196.769,359.415L196.959,359.415L197.149,359.415L197.149,359.016L196.769,359.016L196.579,359.016L196.579,358.816L196.199,358.816L196.199,358.616L195.819,358.616L195.629,358.616L195.629,358.416L195.439,358.416L195.439,358.216L195.059,358.216L194.869,358.216L194.869,358.017L194.679,358.017L194.679,357.817L194.489,357.817L194.299,357.817L194.109,357.817L194.109,357.617L193.918,357.617L193.918,357.417L193.728,357.417L193.538,357.417L193.538,357.217L193.538,357.417L193.538,357.217L193.158,357.217L193.158,357.017L192.778,357.017L192.588,357.017L192.588,356.818L192.398,356.818L192.398,357.017L192.208,357.017L192.208,357.217L192.208,357.417L191.828,357.417L191.828,357.817L191.638,357.817L191.638,358.017L191.258,358.017L191.258,358.216L191.068,358.216L191.068,358.017L190.878,358.017L190.878,357.817L190.498,357.817L190.498,357.617L190.117,357.617L190.117,357.417L189.737,357.417L189.737,357.217L189.547,357.417L189.547,357.217L189.167,357.217L189.167,357.017L189.167,356.818L188.787,356.818L188.597,356.818L188.597,356.618L188.217,356.618L188.217,356.418L187.837,356.418L187.457,356.418L187.457,356.218L187.077,356.218L187.077,356.018L186.887,356.018L186.507,356.018L186.507,355.818L186.126,355.818L186.126,355.619L185.746,355.619L185.746,355.419L185.556,355.419L185.556,355.219L185.366,355.219L184.796,355.219L184.796,355.019L184.226,355.019L184.226,354.819L184.036,354.819L184.036,354.619L183.846,354.619L183.846,354.42L183.466,354.42L183.086,354.42L183.086,354.22L182.516,354.22L182.516,354.02L181.945,354.02L181.945,353.82L181.755,353.82L181.755,354.02L181.755,353.82L181.565,353.82L181.565,353.62L181.375,353.62L181.375,353.42L180.995,353.42L180.995,353.22L180.805,353.22L180.805,353.021L180.425,353.021L179.855,353.021L179.855,352.821L179.665,352.821L179.665,352.621L179.095,352.621L178.715,352.621L178.335,352.621L178.335,352.421L178.144,352.421L178.144,352.221L177.954,352.221L177.764,352.221L177.764,352.021L177.384,352.021L177.384,351.822L177.004,351.822L177.004,351.622L176.624,351.622L176.624,351.422L176.434,351.422L176.244,351.422L176.244,351.222L175.864,351.222L175.864,351.022L175.674,351.022L175.674,350.822L175.294,350.822L175.294,350.623L174.914,350.623L174.914,350.423L174.343,350.423L174.153,350.423L174.153,350.223L173.963,350.223L173.963,350.023L173.393,350.023L173.203,350.023L173.203,349.823L173.013,349.823L173.013,349.623L172.443,349.623L172.253,349.623L172.253,349.423L171.873,349.423L171.873,349.224L171.683,349.224L171.493,349.224L171.493,349.024L170.923,349.024L170.923,348.824L170.733,348.824L170.733,348.624L170.543,348.624L170.543,348.424L169.592,348.424L169.592,348.224L169.212,348.224L169.212,348.025L168.832,348.025L168.832,347.825L168.452,347.825L168.452,347.625L168.452,347.825L168.262,347.825L168.262,347.625L167.692,347.625L167.692,347.425L167.502,347.425L166.932,347.425L166.932,347.225L166.552,347.225L166.552,347.025L165.981,347.025L165.791,347.025L165.791,346.825L165.601,346.825L165.601,346.626L165.031,346.626L164.461,346.626L164.461,346.426L164.461,346.226L164.271,346.226L164.271,346.026L163.891,346.026L163.891,345.826L163.131,345.826L162.751,345.826L162.751,345.626L161.99,345.626L161.99,345.426L161.8,345.426L161.42,345.426L161.42,345.027L161.42,344.827L161.23,344.827L161.23,345.027L160.85,345.027L160.85,344.827L160.47,344.827L160.47,344.627L160.09,344.627L160.09,344.427L159.71,344.427L159.71,344.227L158.76,344.227L158.76,344.027L158.379,344.027L157.999,344.027L157.999,343.628L157.619,343.628L157.619,343.428L157.619,343.228L157.239,343.228L156.669,343.228L156.669,343.028L156.289,343.028L156.289,342.828L155.719,342.828L155.719,343.028L155.719,342.828L155.339,342.828L155.339,342.628L155.149,342.628L155.149,342.429L154.959,342.429L154.578,342.429L154.578,342.229L153.628,342.229L153.628,342.029L153.438,342.029L153.248,342.029L153.248,341.629L152.868,341.629L152.298,341.629L152.298,341.429L152.108,341.429L152.108,341.629L151.918,341.629L151.918,341.229L151.538,341.229L151.538,341.03L150.968,341.03L150.587,341.03L150.587,340.83L150.207,340.83L150.207,340.63L149.827,340.63L149.257,340.63L149.257,340.43L148.877,340.43L148.877,340.23L148.497,340.23L147.547,340.23L147.547,340.03L147.167,340.03L147.167,339.83L146.786,339.83L146.786,339.631L146.216,339.631L146.216,339.431L145.836,339.431L145.646,339.431L145.646,339.231L145.456,339.231L145.456,339.031L145.266,339.031L144.886,339.031L144.886,338.831L143.936,338.831L143.936,338.631L143.746,338.631L143.556,338.631L143.556,338.431L143.176,338.431L143.176,338.231L142.795,338.231L142.415,338.231L142.415,338.032L141.655,338.032L141.655,337.832L141.465,337.832L141.465,337.632L141.085,337.632L140.325,337.632L140.325,337.432L140.135,337.432L140.135,337.232L139.755,337.232L139.185,337.232L139.185,337.032L138.995,337.032L138.995,336.832L138.804,336.832L138.424,336.832L138.424,336.633L137.854,336.633L137.854,336.433L137.474,336.433L136.714,336.433L136.714,336.233L136.334,336.233L136.334,336.033L135.954,336.033L135.764,336.033L135.764,335.833L135.194,335.833L135.194,335.633L134.813,335.633L134.623,335.633L134.243,335.633L134.243,335.433L133.673,335.433L133.673,335.233L133.483,335.233L133.293,335.233L133.293,335.034L132.913,335.034L132.913,334.834L131.963,334.834L131.963,334.634L131.393,334.834L131.393,334.634L131.012,334.634L131.012,334.434L130.822,334.434L130.822,334.234L130.442,334.234L130.062,334.234L130.062,334.034L129.872,334.034L129.872,333.834L129.492,333.834L129.112,333.834L128.922,333.834L128.922,333.634L128.732,333.634L128.732,333.435L127.782,333.435L127.592,333.435L127.592,333.235L127.402,333.235L127.402,332.835L126.831,332.835L126.831,333.035L126.071,333.035L126.071,332.835L125.691,332.835L125.691,332.635L125.501,332.635L125.311,332.635L125.311,332.435L124.741,332.435L124.741,332.235L124.551,332.235L124.361,332.235L124.361,332.035L124.171,332.035L124.171,331.836L123.601,331.836L123.601,332.035L123.411,332.035L123.411,331.836L122.84,331.836L122.08,331.836L122.08,331.636L122.08,331.236L121.89,331.236L121.89,331.036L121.7,331.036L121.7,331.236L121.51,331.236L121.51,331.036L120.94,331.036L120.94,330.836L120.75,330.836L120.37,330.836L119.8,330.836L119.23,330.836L119.23,330.636L118.849,330.636L118.849,330.436L118.659,330.436L118.659,330.237L118.089,330.237L118.089,330.436L117.899,330.436L117.899,330.237L117.709,330.237L117.709,330.037L117.329,330.037L117.139,330.037L117.139,329.837L116.759,329.837L116.759,329.637L116.569,329.637L116.569,329.437L115.999,329.437L115.999,329.637L115.619,329.637L115.619,329.437L115.429,329.437L115.429,329.237L115.238,329.237L115.048,329.237L115.048,329.037L114.858,329.037L114.858,328.837L114.288,328.837L114.288,329.037L113.528,329.037L113.528,328.837L113.718,328.837L113.718,328.637L113.148,328.637L113.148,328.438L112.958,328.438L112.578,328.438L112.578,328.238L112.008,328.238L112.008,328.038L111.628,328.038L111.628,328.238L111.247,328.238L111.247,328.038L110.867,328.038L110.867,327.838L110.107,327.838L109.727,327.838L109.727,327.638L109.537,327.638L109.537,327.438L108.967,327.438L108.967,327.238L108.967,327.038L108.587,327.038L108.587,327.238L108.207,327.238L108.207,327.038L107.827,327.038L107.827,327.238L107.827,327.038L107.447,327.038L107.066,327.038L107.066,326.639L106.876,326.639L106.496,326.639L106.116,326.639L105.926,326.639L105.926,326.439L105.926,326.239L105.546,326.239L105.546,326.039L105.166,326.039L105.166,325.839L105.166,326.039L104.976,326.039L104.976,326.239L104.216,326.239L104.216,326.039L103.836,326.039L103.836,325.839L103.265,325.839L103.075,325.839L103.075,325.639L102.125,325.639L102.125,325.439L101.745,325.439L101.365,325.439L101.365,325.239L101.175,325.239L101.175,325.04L100.795,325.04L100.795,324.84L100.035,324.84L100.035,325.04L99.655,325.04L99.655,324.84L99.274,324.84L99.274,324.64L99.084,324.64L99.084,324.44L98.324,324.44L97.184,324.44L97.184,324.24L96.804,324.24L96.804,324.04L96.614,324.04L96.424,324.04L96.234,324.04L96.234,324.24L96.044,324.24L96.044,324.04L95.854,324.04L95.854,323.84L95.473,323.84L95.473,323.64L94.713,323.64L94.713,323.84L94.143,323.84L94.143,323.64L93.953,323.64L93.953,323.44L93.763,323.44L93.763,323.24L93.383,323.24L93.383,323.44L93.193,323.44L93.193,323.64L93.003,323.64L93.003,323.44L92.623,323.44L92.623,323.24L92.433,323.24L92.433,323.041L91.673,323.041L91.673,322.841L90.912,322.841L90.912,323.041L90.722,323.041L90.722,322.841L89.962,322.841L88.632,322.841L88.632,322.641L88.442,322.641L88.442,322.441L88.252,322.441L87.872,322.441L87.872,322.241L87.111,322.241L87.111,322.041L86.541,322.041L85.211,322.041L85.211,321.841L85.021,321.841L85.021,321.641L84.641,321.641L84.641,321.441L84.451,321.441L84.071,321.441L84.071,321.242L83.881,321.242L83.881,321.441L83.881,321.242L83.5,321.242L83.5,321.441L82.93,321.441L82.93,321.242L82.55,321.242L82.55,321.042L81.79,321.042L80.84,321.042L79.699,321.042L79.699,320.642L79.509,320.642L79.509,320.442L78.559,320.442L78.559,320.642L78.179,320.642L77.609,320.642L77.419,320.642L77.419,320.442L77.419,320.242L77.229,320.242L77.039,320.242L77.039,320.042L76.849,320.042L76.849,320.242L76.089,320.242L76.089,320.042L75.899,320.042L75.899,320.242L75.708,320.242L75.708,320.042L75.328,320.042L75.328,319.842L75.138,319.842L75.138,320.042L74.948,320.042L74.948,319.842L74.378,319.842L73.808,319.842L73.808,319.642L73.618,319.642L73.618,319.442L72.288,319.442L71.908,319.442L70.957,319.442L70.957,319.243L70.387,319.243L70.387,319.043L69.247,319.043L69.247,318.843L67.916,318.843L67.916,318.643L67.536,318.643L66.966,318.643L66.966,318.443L66.966,318.643L66.776,318.643L66.776,318.443L65.256,318.443L65.256,318.243L64.876,318.243L64.876,318.043L64.496,318.043L64.496,318.243L63.925,318.243L63.925,318.043L63.355,318.043L63.165,318.043L63.165,316.444L62.785,278.856L66.016,272.856L65.066,271.456L66.016,245.655L78.939,245.055L79.319,241.055L78.179,239.054L79.129,234.653L81.98,233.853L85.021,232.252L86.351,231.052L90.532,230.452L92.433,231.452L95.854,230.252L96.234,219.848L95.664,218.648L91.292,218.048L90.722,217.047L90.152,214.046L81.98,212.645L77.419,212.445L78.559,202.24L90.152,203.041L98.514,195.436L107.827,191.234L109.537,189.232L111.247,186.631L112.198,185.23L117.519,182.027L112.578,180.426L108.207,173.821L104.026,177.824L102.695,179.225L100.415,181.027L97.184,183.228L94.143,184.029L92.243,183.629L91.102,181.627L86.351,180.426L75.708,183.829L73.238,178.225L73.808,176.223L75.708,173.221L77.039,170.018L76.849,169.217L79.129,166.815L80.84,163.012L79.699,161.01L84.261,158.408L87.111,153.803L88.062,153.603L89.962,152.602L91.673,150.8L92.623,148.999L92.623,148.198L95.283,147.197L95.854,145.996L96.614,144.994L97.754,144.994L98.894,144.394L100.225,143.793L101.555,144.794L102.315,144.394L103.265,143.393L104.216,142.992L106.306,143.193L107.447,142.191L108.777,140.59L111.057,140.59L112.008,139.188L114.668,138.788L115.619,138.988L115.999,137.186L117.329,133.582L119.039,133.382L119.42,131.579L121.13,131.379L123.791,129.777L124.931,128.175L127.782,128.175L130.822,125.772L133.103,125.372L134.053,123.37L136.714,122.969L142.605,123.37L143.556,122.168L142.986,119.765L143.176,117.562L145.266,115.76L147.167,116.761L148.877,116.16L151.348,116.36L151.538,115.559L150.968,113.957L153.438,113.757L154.008,111.754L155.529,110.753L154.959,108.75L155.719,105.746L155.339,104.144L154.769,102.742L153.628,99.737L153.818,97.734L153.058,93.528L152.488,92.126L152.488,90.323L152.678,86.918L150.587,81.509L150.968,78.905L151.728,77.302L153.248,75.699L160.28,68.287L161.99,66.884L162.561,65.281L162.37,60.473L161.99,53.259L162.941,47.448L164.081,45.645L165.981,43.641L168.262,44.643L169.592,43.24L174.534,41.837L173.013,38.831L177.384,36.627L179.095,37.027L180.235,39.633L181.375,40.033L182.516,39.031L183.846,38.43L185.746,37.428L185.556,36.025L188.027,36.226L189.167,35.023L191.258,33.019L199.24,36.426L199.81,41.436L201.33,43.841L202.281,50.254L203.801,50.053L203.991,48.851L205.321,46.446L206.462,46.246L206.652,45.244L207.792,43.841L209.883,43.24L210.263,36.226L214.634,30.013L215.584,28.61L218.055,27.808L218.245,27.006L219.005,25.203L222.046,24L227.557,25.804L234.209,30.414L236.299,28.009L237.249,28.009L237.439,30.013L239.15,30.414Z" fill="rgba(180,200,195,0.35)"/>
  </g>
  <path d="M237.059,42.839L243.521,48.25L248.082,44.643L291.223,34.222L303.196,37.228L305.287,37.428L306.617,48.65L319.73,57.066L334.174,65.682L337.215,68.888L332.084,88.721L330.373,90.523L329.043,91.725L316.31,105.946L301.106,104.745L304.717,111.754L304.146,115.76L302.056,115.96L302.246,116.16L299.775,115.359L297.495,115.159L292.553,111.754L267.087,120.165L264.996,121.567L264.426,122.769L264.996,125.372L265.187,127.975L263.476,131.78L261.576,134.583L261.766,136.385L262.336,138.387L262.906,140.39L262.526,142.992L263.476,145.996L261.196,150.2L263.476,153.403L265.187,154.404L270.318,154.004L284.762,155.805L323.721,180.426L324.292,181.027L323.911,181.227L329.993,190.233L329.613,190.633L327.712,190.633L326.952,191.434L325.432,192.034L325.052,192.635L326.952,195.636L326.762,197.838L324.482,198.638L323.531,199.839L321.631,199.239L320.871,200.639L332.274,217.247L333.414,215.847L334.364,218.048L328.092,235.053L322.011,250.256L312.318,246.455L303.006,249.856L304.527,255.856L304.336,260.857L302.246,273.656L301.106,274.256L304.146,278.056L304.146,279.655L301.866,281.655L289.703,298.451L288.562,297.851L289.893,295.652L290.273,294.052L290.273,292.253L289.513,291.053L288.182,290.053L287.042,289.254L282.671,288.654L275.639,289.454L269.938,288.454L260.435,284.855L254.924,281.655L251.313,278.456L250.553,277.856L242.381,277.656L230.028,275.656L220.335,274.256L217.484,274.256L217.674,277.256L219.385,279.655L220.335,280.255L219.385,281.855L220.715,283.855L222.046,287.054L222.046,288.454L220.715,290.853L220.145,292.053L220.525,293.253L221.665,294.252L222.236,295.852L224.326,299.651L225.276,302.45L226.607,304.249L228.317,305.649L229.457,307.848L230.408,310.647L231.358,312.246L236.109,311.446L237.059,314.445L238.39,314.445L239.34,313.845L240.29,314.445L239.72,316.244L239.34,318.043L239.91,318.843L242.571,321.441L240.1,325.639L240.29,327.638L238.96,330.636L238.39,331.636L239.34,333.435L240.67,333.634L241.05,333.634L241.621,337.432L241.811,338.431L243.521,339.231L244.281,341.03L244.471,342.628L243.711,343.628L243.141,344.427L243.331,347.625L243.711,349.823L243.141,352.821L242.381,354.22L238.2,356.018L237.249,356.618L236.679,358.017L235.729,359.016L234.019,360.015L234.019,362.013L234.779,365.01L234.969,366.809L235.539,368.008L235.539,369.007L235.539,369.606L235.539,370.006L236.489,371.404L236.299,372.204L234.779,372.204L234.969,373.403L234.969,373.602L237.059,374.601L237.63,374.801L238.77,375.401L238.58,375.8L237.439,376L236.869,375.6L235.539,375.201L235.349,375.201L235.159,375.201L234.969,375.201L234.589,375.201L234.589,375.401L234.399,375.401L234.399,375.201L234.209,375.201L233.829,375.201L233.639,375.001L232.688,374.402L231.358,373.802L230.978,373.602L230.978,373.403L230.788,373.403L230.788,373.203L230.598,373.203L230.598,373.003L230.408,373.003L230.218,373.003L230.218,372.803L230.218,372.603L229.838,372.603L229.457,372.603L229.457,372.404L228.887,372.404L228.887,372.204L227.937,372.204L227.557,372.204L227.557,372.004L227.177,372.004L227.177,371.804L226.987,371.804L226.797,371.804L226.797,371.604L226.037,371.604L226.037,371.404L225.847,371.404L225.086,371.404L225.086,371.205L224.896,371.205L224.896,371.005L224.516,371.005L224.136,371.005L224.136,370.805L223.946,370.805L223.946,370.605L223.756,370.605L223.756,370.405L223.566,370.405L223.566,370.206L223.376,370.206L223.376,370.006L223.186,370.006L222.996,370.006L222.996,369.806L222.996,369.606L222.806,369.606L222.806,369.207L222.616,369.207L222.046,369.207L222.046,370.006L222.046,370.206L222.236,370.206L222.236,370.405L222.426,370.405L222.426,370.605L222.426,370.805L222.616,370.805L222.616,371.005L222.806,371.005L222.806,371.205L222.996,371.205L222.996,371.404L223.186,371.404L223.376,371.404L223.376,371.604L223.376,371.804L223.756,371.804L223.946,371.804L223.946,372.004L224.136,372.004L224.136,372.204L224.326,372.204L224.706,372.204L224.706,372.404L224.706,372.603L225.086,372.603L225.466,372.603L225.466,372.803L225.466,373.003L225.847,373.003L226.797,373.003L227.177,373.003L227.177,372.803L227.747,372.803L227.747,372.603L228.507,372.603L228.507,372.803L229.457,372.803L229.457,373.003L229.648,373.003L229.838,373.003L229.838,373.203L230.028,373.203L230.028,373.403L230.218,373.403L230.218,373.602L229.838,373.602L229.838,374.402L229.838,375.401L229.838,375.201L229.267,375.201L228.887,375.201L228.887,375.001L228.697,375.001L228.697,374.801L228.127,374.801L227.937,374.801L227.937,374.601L227.747,374.601L227.747,374.402L227.177,374.402L226.987,374.402L226.987,374.002L226.417,374.002L226.227,374.002L226.227,373.802L225.847,373.802L225.847,373.602L225.657,373.602L225.657,373.403L225.466,373.403L225.276,373.403L225.276,373.203L224.136,373.203L224.136,373.003L223.946,373.003L223.946,372.803L223.756,372.803L223.756,372.603L223.376,372.603L223.376,372.404L223.186,372.404L223.186,372.204L222.996,372.204L222.616,372.204L222.616,372.004L222.236,372.004L222.236,371.804L222.046,371.804L222.046,371.604L221.665,371.604L221.665,371.404L221.285,371.404L221.095,371.404L221.095,371.205L220.715,371.205L220.715,371.005L220.335,371.005L219.955,371.005L219.955,370.805L219.955,370.605L219.385,370.605L219.385,370.405L218.815,370.405L218.815,370.206L218.625,370.206L218.625,370.006L218.435,370.006L218.055,370.006L218.055,369.806L217.294,369.806L217.294,369.606L217.104,369.606L217.104,369.406L216.914,369.406L216.914,369.207L216.344,369.207L216.344,369.007L215.964,369.007L215.964,368.807L215.774,368.807L215.014,368.807L215.014,368.607L214.634,368.607L214.634,368.407L214.254,368.407L214.254,368.208L214.064,368.208L214.064,368.008L213.874,368.008L213.493,368.008L213.493,367.808L212.923,367.808L212.923,367.608L212.543,367.608L212.543,367.408L212.353,367.408L212.353,367.208L212.163,367.208L211.973,367.208L211.973,367.009L211.213,367.009L211.213,366.809L210.833,366.809L210.833,366.609L210.643,366.609L210.263,366.609L210.263,366.409L210.073,366.409L210.073,366.209L209.883,366.209L209.502,366.209L209.502,366.01L209.122,366.01L209.122,365.81L208.552,365.81L208.552,365.61L208.362,365.61L208.362,365.41L208.172,365.41L207.792,365.41L207.792,365.21L207.412,365.21L207.412,365.01L207.222,365.01L207.032,365.01L207.032,364.811L206.842,364.811L206.842,364.611L206.462,364.611L206.082,364.611L206.082,364.411L205.701,364.411L205.701,364.211L205.131,364.211L204.941,364.211L204.941,364.011L204.751,364.011L204.751,363.812L204.371,363.812L204.371,363.612L203.991,363.612L203.421,363.612L203.421,363.412L203.041,363.412L203.041,363.212L202.851,363.212L202.851,363.012L202.281,363.012L202.281,362.812L201.71,362.812L201.52,362.812L201.52,362.613L200.95,362.613L200.95,362.413L200.76,362.413L200.38,362.413L200.38,362.213L199.81,362.213L199.81,362.013L199.43,362.013L199.05,362.013L199.05,361.813L198.67,361.813L198.67,361.414L198.86,361.414L198.86,361.214L199.05,361.214L199.05,361.014L199.24,361.014L199.24,360.814L199.62,360.814L199.62,360.614L199.05,360.614L199.05,360.814L198.86,360.814L198.67,360.814L198.67,361.014L198.67,361.214L198.48,361.214L198.29,361.214L198.29,361.014L198.1,361.014L198.1,360.814L197.909,360.814L197.719,360.814L197.719,360.415L197.529,360.415L197.529,360.215L196.959,360.215L196.959,359.815L196.769,359.815L196.769,359.415L196.959,359.415L197.149,359.415L197.149,359.016L196.769,359.016L196.579,359.016L196.579,358.816L196.199,358.816L196.199,358.616L195.819,358.616L195.629,358.616L195.629,358.416L195.439,358.416L195.439,358.216L195.059,358.216L194.869,358.216L194.869,358.017L194.679,358.017L194.679,357.817L194.489,357.817L194.299,357.817L194.109,357.817L194.109,357.617L193.918,357.617L193.918,357.417L193.728,357.417L193.538,357.417L193.538,357.217L193.538,357.417L193.538,357.217L193.158,357.217L193.158,357.017L192.778,357.017L192.588,357.017L192.588,356.818L192.398,356.818L192.398,357.017L192.208,357.017L192.208,357.217L192.208,357.417L191.828,357.417L191.828,357.817L191.638,357.817L191.638,358.017L191.258,358.017L191.258,358.216L191.068,358.216L191.068,358.017L190.878,358.017L190.878,357.817L190.498,357.817L190.498,357.617L190.117,357.617L190.117,357.417L189.737,357.417L189.737,357.217L189.547,357.417L189.547,357.217L189.167,357.217L189.167,357.017L189.167,356.818L188.787,356.818L188.597,356.818L188.597,356.618L188.217,356.618L188.217,356.418L187.837,356.418L187.457,356.418L187.457,356.218L187.077,356.218L187.077,356.018L186.887,356.018L186.507,356.018L186.507,355.818L186.126,355.818L186.126,355.619L185.746,355.619L185.746,355.419L185.556,355.419L185.556,355.219L185.366,355.219L184.796,355.219L184.796,355.019L184.226,355.019L184.226,354.819L184.036,354.819L184.036,354.619L183.846,354.619L183.846,354.42L183.466,354.42L183.086,354.42L183.086,354.22L182.516,354.22L182.516,354.02L181.945,354.02L181.945,353.82L181.755,353.82L181.755,354.02L181.755,353.82L181.565,353.82L181.565,353.62L181.375,353.62L181.375,353.42L180.995,353.42L180.995,353.22L180.805,353.22L180.805,353.021L180.425,353.021L179.855,353.021L179.855,352.821L179.665,352.821L179.665,352.621L179.095,352.621L178.715,352.621L178.335,352.621L178.335,352.421L178.144,352.421L178.144,352.221L177.954,352.221L177.764,352.221L177.764,352.021L177.384,352.021L177.384,351.822L177.004,351.822L177.004,351.622L176.624,351.622L176.624,351.422L176.434,351.422L176.244,351.422L176.244,351.222L175.864,351.222L175.864,351.022L175.674,351.022L175.674,350.822L175.294,350.822L175.294,350.623L174.914,350.623L174.914,350.423L174.343,350.423L174.153,350.423L174.153,350.223L173.963,350.223L173.963,350.023L173.393,350.023L173.203,350.023L173.203,349.823L173.013,349.823L173.013,349.623L172.443,349.623L172.253,349.623L172.253,349.423L171.873,349.423L171.873,349.224L171.683,349.224L171.493,349.224L171.493,349.024L170.923,349.024L170.923,348.824L170.733,348.824L170.733,348.624L170.543,348.624L170.543,348.424L169.592,348.424L169.592,348.224L169.212,348.224L169.212,348.025L168.832,348.025L168.832,347.825L168.452,347.825L168.452,347.625L168.452,347.825L168.262,347.825L168.262,347.625L167.692,347.625L167.692,347.425L167.502,347.425L166.932,347.425L166.932,347.225L166.552,347.225L166.552,347.025L165.981,347.025L165.791,347.025L165.791,346.825L165.601,346.825L165.601,346.626L165.031,346.626L164.461,346.626L164.461,346.426L164.461,346.226L164.271,346.226L164.271,346.026L163.891,346.026L163.891,345.826L163.131,345.826L162.751,345.826L162.751,345.626L161.99,345.626L161.99,345.426L161.8,345.426L161.42,345.426L161.42,345.027L161.42,344.827L161.23,344.827L161.23,345.027L160.85,345.027L160.85,344.827L160.47,344.827L160.47,344.627L160.09,344.627L160.09,344.427L159.71,344.427L159.71,344.227L158.76,344.227L158.76,344.027L158.379,344.027L157.999,344.027L157.999,343.628L157.619,343.628L157.619,343.428L157.619,343.228L157.239,343.228L156.669,343.228L156.669,343.028L156.289,343.028L156.289,342.828L155.719,342.828L155.719,343.028L155.719,342.828L155.339,342.828L155.339,342.628L155.149,342.628L155.149,342.429L154.959,342.429L154.578,342.429L154.578,342.229L153.628,342.229L153.628,342.029L153.438,342.029L153.248,342.029L153.248,341.629L152.868,341.629L152.298,341.629L152.298,341.429L152.108,341.429L152.108,341.629L151.918,341.629L151.918,341.229L151.538,341.229L151.538,341.03L150.968,341.03L150.587,341.03L150.587,340.83L150.207,340.83L150.207,340.63L149.827,340.63L149.257,340.63L149.257,340.43L148.877,340.43L148.877,340.23L148.497,340.23L147.547,340.23L147.547,340.03L147.167,340.03L147.167,339.83L146.786,339.83L146.786,339.631L146.216,339.631L146.216,339.431L145.836,339.431L145.646,339.431L145.646,339.231L145.456,339.231L145.456,339.031L145.266,339.031L144.886,339.031L144.886,338.831L143.936,338.831L143.936,338.631L143.746,338.631L143.556,338.631L143.556,338.431L143.176,338.431L143.176,338.231L142.795,338.231L142.415,338.231L142.415,338.032L141.655,338.032L141.655,337.832L141.465,337.832L141.465,337.632L141.085,337.632L140.325,337.632L140.325,337.432L140.135,337.432L140.135,337.232L139.755,337.232L139.185,337.232L139.185,337.032L138.995,337.032L138.995,336.832L138.804,336.832L138.424,336.832L138.424,336.633L137.854,336.633L137.854,336.433L137.474,336.433L136.714,336.433L136.714,336.233L136.334,336.233L136.334,336.033L135.954,336.033L135.764,336.033L135.764,335.833L135.194,335.833L135.194,335.633L134.813,335.633L134.623,335.633L134.243,335.633L134.243,335.433L133.673,335.433L133.673,335.233L133.483,335.233L133.293,335.233L133.293,335.034L132.913,335.034L132.913,334.834L131.963,334.834L131.963,334.634L131.393,334.834L131.393,334.634L131.012,334.634L131.012,334.434L130.822,334.434L130.822,334.234L130.442,334.234L130.062,334.234L130.062,334.034L129.872,334.034L129.872,333.834L129.492,333.834L129.112,333.834L128.922,333.834L128.922,333.634L128.732,333.634L128.732,333.435L127.782,333.435L127.592,333.435L127.592,333.235L127.402,333.235L127.402,332.835L126.831,332.835L126.831,333.035L126.071,333.035L126.071,332.835L125.691,332.835L125.691,332.635L125.501,332.635L125.311,332.635L125.311,332.435L124.741,332.435L124.741,332.235L124.551,332.235L124.361,332.235L124.361,332.035L124.171,332.035L124.171,331.836L123.601,331.836L123.601,332.035L123.411,332.035L123.411,331.836L122.84,331.836L122.08,331.836L122.08,331.636L122.08,331.236L121.89,331.236L121.89,331.036L121.7,331.036L121.7,331.236L121.51,331.236L121.51,331.036L120.94,331.036L120.94,330.836L120.75,330.836L120.37,330.836L119.8,330.836L119.23,330.836L119.23,330.636L118.849,330.636L118.849,330.436L118.659,330.436L118.659,330.237L118.089,330.237L118.089,330.436L117.899,330.436L117.899,330.237L117.709,330.237L117.709,330.037L117.329,330.037L117.139,330.037L117.139,329.837L116.759,329.837L116.759,329.637L116.569,329.637L116.569,329.437L115.999,329.437L115.999,329.637L115.619,329.637L115.619,329.437L115.429,329.437L115.429,329.237L115.238,329.237L115.048,329.237L115.048,329.037L114.858,329.037L114.858,328.837L114.288,328.837L114.288,329.037L113.528,329.037L113.528,328.837L113.718,328.837L113.718,328.637L113.148,328.637L113.148,328.438L112.958,328.438L112.578,328.438L112.578,328.238L112.008,328.238L112.008,328.038L111.628,328.038L111.628,328.238L111.247,328.238L111.247,328.038L110.867,328.038L110.867,327.838L110.107,327.838L109.727,327.838L109.727,327.638L109.537,327.638L109.537,327.438L108.967,327.438L108.967,327.238L108.967,327.038L108.587,327.038L108.587,327.238L108.207,327.238L108.207,327.038L107.827,327.038L107.827,327.238L107.827,327.038L107.447,327.038L107.066,327.038L107.066,326.639L106.876,326.639L106.496,326.639L106.116,326.639L105.926,326.639L105.926,326.439L105.926,326.239L105.546,326.239L105.546,326.039L105.166,326.039L105.166,325.839L105.166,326.039L104.976,326.039L104.976,326.239L104.216,326.239L104.216,326.039L103.836,326.039L103.836,325.839L103.265,325.839L103.075,325.839L103.075,325.639L102.125,325.639L102.125,325.439L101.745,325.439L101.365,325.439L101.365,325.239L101.175,325.239L101.175,325.04L100.795,325.04L100.795,324.84L100.035,324.84L100.035,325.04L99.655,325.04L99.655,324.84L99.274,324.84L99.274,324.64L99.084,324.64L99.084,324.44L98.324,324.44L97.184,324.44L97.184,324.24L96.804,324.24L96.804,324.04L96.614,324.04L96.424,324.04L96.234,324.04L96.234,324.24L96.044,324.24L96.044,324.04L95.854,324.04L95.854,323.84L95.473,323.84L95.473,323.64L94.713,323.64L94.713,323.84L94.143,323.84L94.143,323.64L93.953,323.64L93.953,323.44L93.763,323.44L93.763,323.24L93.383,323.24L93.383,323.44L93.193,323.44L93.193,323.64L93.003,323.64L93.003,323.44L92.623,323.44L92.623,323.24L92.433,323.24L92.433,323.041L91.673,323.041L91.673,322.841L90.912,322.841L90.912,323.041L90.722,323.041L90.722,322.841L89.962,322.841L88.632,322.841L88.632,322.641L88.442,322.641L88.442,322.441L88.252,322.441L87.872,322.441L87.872,322.241L87.111,322.241L87.111,322.041L86.541,322.041L85.211,322.041L85.211,321.841L85.021,321.841L85.021,321.641L84.641,321.641L84.641,321.441L84.451,321.441L84.071,321.441L84.071,321.242L83.881,321.242L83.881,321.441L83.881,321.242L83.5,321.242L83.5,321.441L82.93,321.441L82.93,321.242L82.55,321.242L82.55,321.042L81.79,321.042L80.84,321.042L79.699,321.042L79.699,320.642L79.509,320.642L79.509,320.442L78.559,320.442L78.559,320.642L78.179,320.642L77.609,320.642L77.419,320.642L77.419,320.442L77.419,320.242L77.229,320.242L77.039,320.242L77.039,320.042L76.849,320.042L76.849,320.242L76.089,320.242L76.089,320.042L75.899,320.042L75.899,320.242L75.708,320.242L75.708,320.042L75.328,320.042L75.328,319.842L75.138,319.842L75.138,320.042L74.948,320.042L74.948,319.842L74.378,319.842L73.808,319.842L73.808,319.642L73.618,319.642L73.618,319.442L72.288,319.442L71.908,319.442L70.957,319.442L70.957,319.243L70.387,319.243L70.387,319.043L69.247,319.043L69.247,318.843L67.916,318.843L67.916,318.643L67.536,318.643L66.966,318.643L66.966,318.443L66.966,318.643L66.776,318.643L66.776,318.443L65.256,318.443L65.256,318.243L64.876,318.243L64.876,318.043L64.496,318.043L64.496,318.243L63.925,318.243L63.925,318.043L63.355,318.043L63.165,318.043L63.165,316.444L62.785,278.856L66.016,272.856L65.066,271.456L66.016,245.655L78.939,245.055L79.319,241.055L78.179,239.054L79.129,234.653L81.98,233.853L85.021,232.252L86.351,231.052L90.532,230.452L92.433,231.452L95.854,230.252L96.234,219.848L95.664,218.648L91.292,218.048L90.722,217.047L90.152,214.046L81.98,212.645L77.419,212.445L78.559,202.24L90.152,203.041L98.514,195.436L107.827,191.234L109.537,189.232L111.247,186.631L112.198,185.23L117.519,182.027L112.578,180.426L108.207,173.821L104.026,177.824L102.695,179.225L100.415,181.027L97.184,183.228L94.143,184.029L92.243,183.629L91.102,181.627L86.351,180.426L75.708,183.829L73.238,178.225L73.808,176.223L75.708,173.221L77.039,170.018L76.849,169.217L79.129,166.815L80.84,163.012L79.699,161.01L84.261,158.408L87.111,153.803L88.062,153.603L89.962,152.602L91.673,150.8L92.623,148.999L92.623,148.198L95.283,147.197L95.854,145.996L96.614,144.994L97.754,144.994L98.894,144.394L100.225,143.793L101.555,144.794L102.315,144.394L103.265,143.393L104.216,142.992L106.306,143.193L107.447,142.191L108.777,140.59L111.057,140.59L112.008,139.188L114.668,138.788L115.619,138.988L115.999,137.186L117.329,133.582L119.039,133.382L119.42,131.579L121.13,131.379L123.791,129.777L124.931,128.175L127.782,128.175L130.822,125.772L133.103,125.372L134.053,123.37L136.714,122.969L142.605,123.37L143.556,122.168L142.986,119.765L143.176,117.562L145.266,115.76L147.167,116.761L148.877,116.16L151.348,116.36L151.538,115.559L150.968,113.957L153.438,113.757L154.008,111.754L155.529,110.753L154.959,108.75L155.719,105.746L155.339,104.144L154.769,102.742L153.628,99.737L153.818,97.734L153.058,93.528L152.488,92.126L152.488,90.323L152.678,86.918L150.587,81.509L150.968,78.905L151.728,77.302L153.248,75.699L160.28,68.287L161.99,66.884L162.561,65.281L162.37,60.473L161.99,53.259L162.941,47.448L164.081,45.645L165.981,43.641L168.262,44.643L169.592,43.24L174.534,41.837L173.013,38.831L177.384,36.627L179.095,37.027L180.235,39.633L181.375,40.033L182.516,39.031L183.846,38.43L185.746,37.428L185.556,36.025L188.027,36.226L189.167,35.023L191.258,33.019L199.24,36.426L199.81,41.436L201.33,43.841L202.281,50.254L203.801,50.053L203.991,48.851L205.321,46.446L206.462,46.246L206.652,45.244L207.792,43.841L209.883,43.24L210.263,36.226L214.634,30.013L215.584,28.61L218.055,27.808L218.245,27.006L219.005,25.203L222.046,24L227.557,25.804L234.209,30.414L236.299,28.009L237.249,28.009L237.439,30.013L239.15,30.414Z" fill="none" stroke="rgba(255,255,255,0.9)" stroke-width="2"/>
</svg>