<?xml version="1.0" encoding="UTF-8"?>
<svg viewBox="0 0 400 400" xmlns="http://www.w3.org/2000/svg" role="img" aria-label="Sololá">
  <defs>
    <clipPath id="c"><path d="M360.584,103.427L371.825,116.994L373.431,119.029L373.109,120.046L370.54,124.116L368.934,127.507L375.358,128.186L376,129.881L373.109,136.325L371.182,144.124L369.577,153.619L372.467,163.113L368.934,172.607L372.788,178.371L369.898,181.761L367.971,177.353L362.832,178.371L363.474,189.22L367.007,188.881L369.255,195.322L368.292,199.729L370.54,204.136L367.971,209.899L367.971,214.983L367.971,218.712L366.044,221.763L362.19,225.152L359.62,228.881L358.978,233.965L357.693,234.982L357.693,239.049L357.693,242.777L355.445,247.522L352.234,251.589L351.912,254.639L349.343,257.35L348.058,261.417L344.204,262.433L342.92,267.178L342.599,269.888L344.526,273.277L342.277,278.021L341.314,284.459L343.562,288.864L342.277,294.624L336.818,298.69L338.102,302.078L336.496,304.45L335.533,308.516L340.029,313.259L338.102,315.969L340.35,320.034L338.423,324.1L339.708,331.214L337.46,335.279L339.708,344.086L338.423,346.118L337.781,353.57L335.854,356.957L331.358,355.264L330.715,350.522L328.146,348.828L327.825,343.747L327.182,341.037L325.255,336.972L322.365,332.23L320.438,331.552L318.832,329.859L315.62,327.148L313.051,326.471L311.124,325.455L302.453,321.389L303.095,325.116L292.818,322.406L289.285,322.406L287.358,319.018L279.65,318.002L273.869,317.663L269.372,318.34L263.591,319.696L259.416,321.728L255.562,323.422L251.387,323.083L248.818,324.438L245.606,326.471L243.036,328.842L240.788,330.197L238.54,332.23L235.328,334.94L232.438,336.972L229.869,337.989L229.547,338.327L227.942,340.699L227.942,343.747L228.263,346.457L228.263,347.134L227.299,348.489L226.015,348.151L226.336,346.457L226.657,344.425L225.693,343.07L225.693,342.053L223.445,342.392L220.876,343.747L218.949,344.086L217.343,344.086L215.416,342.731L214.453,341.037L213.489,336.972L212.847,335.279L210.277,333.585L207.708,315.291L204.496,289.203L201.927,281.41L190.365,279.377L189.401,278.021L188.438,276.666L187.796,275.988L179.766,274.633L180.73,269.55L182.015,268.194L185.547,265.483L182.015,260.739L173.343,254.978L167.241,258.705L165.635,250.572L146.686,251.25L145.401,251.589L142.832,254.3L140.584,255.316L138.336,254.3L136.409,253.622L133.839,255.994L131.912,255.655L130.307,257.689L129.343,258.028L117.46,257.35L116.818,255.316L114.569,253.622L111.358,251.589L109.752,252.605L108.146,253.283L105.898,253.283L104.934,253.283L103.328,252.266L101.08,252.605L97.869,256.672L96.584,257.011L92.73,257.689L92.088,257.689L84.701,265.822L71.854,280.732L71.854,283.443L72.496,286.154L72.175,289.203L71.533,289.203L68.321,286.154L57.723,286.831L44.234,284.798L42.628,290.897L24,285.476L36.847,265.144L43.591,257.689L45.197,255.655L43.912,236.676L43.27,233.626L41.664,227.186L38.453,216.339L39.737,207.865L39.416,194.644L40.058,190.915L41.343,188.542L43.591,186.846L46.482,185.151L51.299,183.117L53.869,180.405L55.474,178.371L57.723,174.641L58.686,172.946L60.292,171.59L67.036,170.912L71.212,170.233L72.175,169.216L73.139,167.182L73.139,165.487L73.46,155.314L74.423,150.906L76.35,149.211L104.292,120.046L106.861,103.088L139.62,81.04L139.62,77.987L151.504,67.131L190.044,64.756L191.971,64.417L200,70.863L200.642,71.881L209.635,71.202L211.562,72.22L220.234,86.467L229.226,82.057L233.401,80.022L258.774,72.898L261.664,61.024L263.27,56.614L265.518,54.578L290.248,43.043L291.533,43.721L292.496,44.739L296.993,45.418L300.204,45.757L301.81,45.418L303.416,46.775L304.701,51.525L306.307,57.971L305.985,61.364L309.518,64.756L315.62,68.827L317.547,68.827L318.832,66.792L320.117,65.096L322.686,63.739L324.934,65.096L327.182,70.184L328.788,73.577L330.715,76.63L332.964,79.004L348.38,91.216Z"/></clipPath>
    <pattern id="mesh" width="14" height="14" patternUnits="userSpaceOnUse">
      <path d="M0 14 L14 0 M-2 2 L2 -2 M12 16 L16 12" stroke="rgba(255,255,255,0.2)" stroke-width="0.6" fill="none"/>
    </pattern>
  </defs>
  <g clip-path="url(#c)">
    <rect width="400" height="400" fill="url(#mesh)"/>
    <path d="M360.584,103.427L371.825,116.994L373.431,119.029L373.109,120.046L370.54,124.116L368.934,127.507L375.358,128.186L376,129.881L373.109,136.325L371.182,144.124L369.577,153.619L372.467,163.113L368.934,172.607L372.788,178.371L369.898,181.761L367.971,177.353L362.832,178.371L363.474,189.22L367.007,188.881L369.255,195.322L368.292,199.729L370.54,204.136L367.971,209.899L367.971,214.983L367.971,218.712L366.044,221.763L362.19,225.152L359.62,228.881L358.978,233.965L357.693,234.982L357.693,239.049L357.693,242.777L355.445,247.522L352.234,251.589L351.912,254.639L349.343,257.35L348.058,261.417L344.204,262.433L342.92,267.178L342.599,269.888L344.526,273.277L342.277,278.021L341.314,284.459L343.562,288.864L342.277,294.624L336.818,298.69L338.102,302.078L336.496,304.45L335.533,308.516L340.029,313.259L338.102,315.969L340.35,320.034L338.423,324.1L339.708,331.214L337.46,335.279L339.708,344.086L338.423,346.118L337.781,353.57L335.854,356.957L331.358,355.264L330.715,350.522L328.146,348.828L327.825,343.747L327.182,341.037L325.255,336.972L322.365,332.23L320.438,331.552L318.832,329.859L315.62,327.148L313.051,326.471L311.124,325.455L302.453,321.389L303.095,325.116L292.818,322.406L289.285,322.406L287.358,319.018L279.65,318.002L273.869,317.663L269.372,318.34L263.591,319.696L259.416,321.728L255.562,323.422L251.387,323.083L248.818,324.438L245.606,326.471L243.036,328.842L240.788,330.197L238.54,332.23L235.328,334.94L232.438,336.972L229.869,337.989L229.547,338.327L227.942,340.699L227.942,343.747L228.263,346.457L228.263,347.134L227.299,348.489L226.015,348.151L226.336,346.457L226.657,344.425L225.693,343.07L225.693,342.053L223.445,342.392L220.876,343.747L218.949,344.086L217.343,344.086L215.416,342.731L214.453,341.037L213.489,336.972L212.847,335.279L210.277,333.585L207.708,315.291L204.496,289.203L201.927,281.41L190.365,279.377L189.401,278.021L188.438,276.666L187.796,275.988L179.766,274.633L180.73,269.55L182.015,268.194L185.547,265.483L182.015,260.739L173.343,254.978L167.241,258.705L165.635,250.572L146.686,251.25L145.401,251.589L142.832,254.3L140.584,255.316L138.336,254.3L136.409,253.622L133.839,255.994L131.912,255.655L130.307,257.689L129.343,258.028L117.46,257.35L116.818,255.316L114.569,253.622L111.358,251.589L109.752,252.605L108.146,253.283L105.898,253.283L104.934,253.283L103.328,252.266L101.08,252.605L97.869,256.672L96.584,257.011L92.73,257.689L92.088,257.689L84.701,265.822L71.854,280.732L71.854,283.443L72.496,286.154L72.175,289.203L71.533,289.203L68.321,286.154L57.723,286.831L44.234,284.798L42.628,290.897L24,285.476L36.847,265.144L43.591,257.689L45.197,255.655L43.912,236.676L43.27,233.626L41.664,227.186L38.453,216.339L39.737,207.865L39.416,194.644L40.058,190.915L41.343,188.542L43.591,186.846L46.482,185.151L51.299,183.117L53.869,180.405L55.474,178.371L57.723,174.641L58.686,172.946L60.292,171.59L67.036,170.912L71.212,170.233L72.175,169.216L73.139,167.182L73.139,165.487L73.46,155.314L74.423,150.906L76.35,149.211L104.292,120.046L106.861,103.088L139.62,81.04L139.62,77.987L151.504,67.131L190.044,64.756L191.971,64.417L200,70.863L200.642,71.881L209.635,71.202L211.562,72.22L220.234,86.467L229.226,82.057L233.401,80.022L258.774,72.898L261.664,61.024L263.27,56.614L265.518,54.578L290.248,43.043L291.533,43.721L292.496,44.739L296.993,45.418L300.204,45.757L301.81,45.418L303.416,46.775L304.701,51.525L306.307,57.971L305.985,61.364L309.518,64.756L315.62,68.827L317.547,68.827L318.832,66.792L320.117,65.096L322.686,63.739L324.934,65.096L327.182,70.184L328.788,73.577L330.715,76.63L332.964,79.004L348.38,91.216Z" fill="rgba(180,200,195,0.35)"/>
  </g>
  <path d="M360.584,103.427L371.825,116.994L373.431,119.029L373.109,120.046L370.54,124.116L368.934,127.507L375.358,128.186L376,129.881L373.109,136.325L371.182,144.124L369.577,153.619L372.467,163.113L368.934,172.607L372.788,178.371L369.898,181.761L367.971,177.353L362.832,178.371L363.474,189.22L367.007,188.881L369.255,195.322L368.292,199.729L370.54,204.136L367.971,209.899L367.971,214.983L367.971,218.712L366.044,221.763L362.19,225.152L359.62,228.881L358.978,233.965L357.693,234.982L357.693,239.049L357.693,242.777L355.445,247.522L352.234,251.589L351.912,254.639L349.343,257.35L348.058,261.417L344.204,262.433L342.92,267.178L342.599,269.888L344.526,273.277L342.277,278.021L341.314,284.459L343.562,288.864L342.277,294.624L336.818,298.69L338.102,302.078L336.496,304.45L335.533,308.516L340.029,313.259L338.102,315.969L340.35,320.034L338.423,324.1L339.708,331.214L337.46,335.279L339.708,344.086L338.423,346.118L337.781,353.57L335.854,356.957L331.358,355.264L330.715,350.522L328.146,348.828L327.825,343.747L327.182,341.037L325.255,336.972L322.365,332.23L320.438,331.552L318.832,329.859L315.62,327.148L313.051,326.471L311.124,325.455L302.453,321.389L303.095,325.116L292.818,322.406L289.285,322.406L287.358,319.018L279.65,318.002L273.869,317.663L269.372,318.34L263.591,319.696L259.416,321.728L255.562,323.422L251.387,323.083L248.818,324.438L245.606,326.471L243.036,328.842L240.788,330.197L238.54,332.23L235.328,334.94L232.438,336.972L229.869,337.989L229.547,338.327L227.942,340.699L227.942,343.747L228.263,346.457L228.263,347.134L227.299,348.489L226.015,348.151L226.336,346.457L226.657,344.425L225.693,343.07L225.693,342.053L223.445,342.392L220.876,343.747L218.949,344.086L217.343,344.086L215.416,342.731L214.453,341.037L213.489,336.972L212.847,335.279L210.277,333.585L207.708,315.291L204.496,289.203L201.927,281.41L190.365,279.377L189.401,278.021L188.438,276.666L187.796,275.988L179.766,274.633L180.73,269.55L182.015,268.194L185.547,265.483L182.015,260.739L173.343,254.978L167.241,258.705L165.635,250.572L146.686,251.25L145.401,251.589L142.832,254.3L140.584,255.316L138.336,254.3L136.409,253.622L133.839,255.994L131.912,255.655L130.307,257.689L129.343,258.028L117.46,257.35L116.818,255.316L114.569,253.622L111.358,251.589L109.752,252.605L108.146,253.283L105.898,253.283L104.934,253.283L103.328,252.266L101.08,252.605L97.869,256.672L96.584,257.011L92.73,257.689L92.088,257.689L84.701,265.822L71.854,280.732L71.854,283.443L72.496,286.154L72.175,289.203L71.533,289.203L68.321,286.154L57.723,286.831L44.234,284.798L42.628,290.897L24,285.476L36.847,265.144L43.591,257.689L45.197,255.655L43.912,236.676L43.27,233.626L41.664,227.186L38.453,216.339L39.737,207.865L39.416,194.644L40.058,190.915L41.343,188.542L43.591,186.846L46.482,185.151L51.299,183.117L53.869,180.405L55.474,178.371L57.723,174.641L58.686,172.946L60.292,171.59L67.036,170.912L71.212,170.233L72.175,169.216L73.139,167.182L73.139,165.487L73.46,155.314L74.423,150.906L76.35,149.211L104.292,120.046L106.861,103.088L139.62,81.04L139.62,77.987L151.504,67.131L190.044,64.756L191.971,64.417L200,70.863L200.642,71.881L209.635,71.202L211.562,72.22L220.234,86.467L229.226,82.057L233.401,80.022L258.774,72.898L261.664,61.024L263.27,56.614L265.518,54.578L290.248,43.043L291.533,43.721L292.496,44.739L296.993,45.418L300.204,45.757L301.81,45.418L303.416,46.775L304.701,51.525L306.307,57.971L305.985,61.364L309.518,64.756L315.62,68.827L317.547,68.827L318.832,66.792L320.117,65.096L322.686,63.739L324.934,65.096L327.182,70.184L328.788,73.577L330.715,76.63L332.964,79.004L348.38,91.216Z" fill="none" stroke="rgba(255,255,255,0.9)" stroke-width="2"/>
</svg>