<?xml version="1.0" encoding="UTF-8"?>
<svg viewBox="0 0 400 400" xmlns="http://www.w3.org/2000/svg" role="img" aria-label="Suchitepéquez">
  <defs>
    <clipPath id="c"><path d="M148.533,81.445L157.128,82.74L163.881,82.308L165.927,84.251L166.336,84.251L166.541,82.308L166.132,80.581L166.132,78.854L174.317,69.353L179.024,64.171L179.434,64.171L181.889,63.739L182.708,63.523L184.754,60.932L186.187,60.716L187.21,61.364L187.824,61.364L189.256,61.364L190.28,60.932L191.303,60.284L193.349,61.58L194.782,62.659L195.191,63.955L202.763,64.387L203.377,64.171L204.4,62.875L205.628,63.091L207.265,61.58L208.493,62.012L209.925,62.659L211.358,62.012L212.995,60.284L213.813,60.068L225.887,59.636L226.91,64.819L230.799,62.443L236.324,66.114L238.575,69.137L236.324,70.865L235.505,71.728L234.891,74.967L240.007,75.831L240.417,76.263L241.031,77.126L241.645,77.99L249.012,79.285L250.649,84.251L252.695,100.874L254.332,112.53L255.97,113.61L256.379,114.689L256.993,117.279L257.607,118.358L258.834,119.221L259.858,119.221L261.086,119.006L262.723,118.142L264.155,117.926L264.155,118.574L264.769,119.437L264.564,120.732L264.36,121.811L265.178,122.027L265.792,121.164L265.792,120.732L265.588,119.006L265.588,117.063L266.611,115.552L266.816,115.336L268.453,114.689L270.294,113.394L272.341,111.667L273.773,110.372L275.206,109.509L276.843,107.998L278.889,106.702L280.527,105.839L283.187,106.055L285.643,104.976L288.303,103.68L291.986,102.817L294.851,102.385L298.535,102.601L303.446,103.249L304.674,105.407L306.925,105.407L313.474,107.134L313.065,104.76L318.59,107.35L319.818,107.998L321.455,108.429L323.501,110.156L324.524,111.235L325.752,111.667L327.594,114.689L328.822,117.279L329.231,119.006L329.436,122.243L331.073,123.322L331.482,126.344L334.347,127.423L330.664,130.013L331.278,137.134L333.324,141.019L332.096,144.471L331.892,147.708L330.254,149.65L330.664,152.455L328.208,158.281L340.282,160.87L342.533,162.596L346.012,162.596L346.83,165.401L346.421,167.558L346.216,169.5L345.807,171.226L343.761,173.815L344.375,175.972L345.193,178.992L343.556,182.012L340.077,183.306L337.212,186.111L334.757,189.346L334.143,190.641L332.915,194.307L330.868,195.602L329.845,197.759L327.799,199.053L326.162,200.131L324.729,201.857L327.594,204.445L327.594,207.033L327.594,208.543L329.845,210.915L330.868,211.131L330.05,213.071L329.641,214.797L329.231,217.169L328.822,219.11L329.231,221.698L329.845,224.717L329.027,226.01L329.027,227.736L328.003,230.108L326.571,230.539L324.524,230.108L324.729,232.264L324.115,233.558L322.069,233.773L323.092,235.714L320.432,238.517L320.432,240.242L319.613,242.182L320.636,244.123L320.227,248.435L318.999,250.375L316.339,247.788L314.292,249.297L305.902,247.572L267.02,240.673L259.448,239.164L259.858,237.007L260.881,234.851L260.472,231.401L261.29,229.676L263.132,225.148L263.951,223.854L263.746,222.56L258.016,222.129L257.811,226.01L253.718,226.657L251.672,229.892L251.877,233.773L250.853,236.576L231.208,231.833L225.069,229.461L219.748,232.048L218.315,227.304L220.566,224.07L222.408,220.188L221.794,216.738L220.771,213.718L221.18,211.131L223.431,206.386L223.841,203.151L225.478,200.994L223.636,199.484L224.659,196.896L226.501,193.66L229.571,190.425L229.366,189.346L227.524,189.562L225.478,190.856L221.999,193.876L216.678,198.19L215.041,198.406L210.539,198.837L208.493,200.562L203.991,201.857L203.377,203.366L203.581,205.523L202.558,206.817L202.353,209.837L198.874,210.915L198.261,212.209L198.056,216.091L197.237,217.6L197.033,220.835L196.214,222.129L192.94,221.913L189.052,227.736L185.573,229.029L184.959,230.108L193.145,245.416L179.638,253.178L174.113,242.613L176.159,230.97L174.113,230.539L170.429,231.833L169.815,230.97L164.699,234.851L163.471,237.007L158.765,237.223L157.946,238.948L159.174,240.026L158.355,241.535L156.923,243.691L158.969,246.494L159.993,246.71L162.039,246.71L161.016,254.256L158.969,257.921L159.174,259.645L162.244,259.43L164.699,266.975L163.267,270.208L164.495,273.872L163.676,276.459L163.062,282.063L165.927,290.038L163.062,291.115L163.062,293.486L165.109,294.348L164.699,295.857L162.448,297.581L160.606,302.537L158.765,308.356L157.332,309.002L151.602,313.527L146.895,318.699L144.849,323.654L143.621,330.764L141.37,333.35L136.459,337.012L135.026,343.906L133.594,346.276L129.501,349.938L125.613,353.384L120.906,356.831L121.111,358.339L122.748,360.062L122.543,361.354L119.269,364.37L119.064,366.308L120.497,369.539L120.701,371.693L121.52,372.769L119.883,373.631L120.087,374.708L120.906,375.139L120.906,376L120.497,376L120.292,376L120.292,375.785L120.087,375.785L120.087,375.569L119.883,375.569L119.473,375.569L119.473,375.354L119.269,375.354L119.269,374.923L119.269,374.708L119.473,374.708L119.473,374.492L119.678,374.492L119.678,374.277L119.883,374.277L119.883,374.062L119.473,374.062L119.269,374.062L119.269,373.631L118.86,373.631L118.86,373.846L117.427,373.846L117.427,373.631L117.222,373.631L117.222,373.416L117.018,373.416L117.018,373.631L116.609,373.631L116.609,373.416L116.199,373.416L116.199,373.2L115.995,373.2L115.995,372.985L115.585,372.985L115.585,372.769L115.176,372.769L115.176,372.554L115.176,372.339L114.767,372.339L114.562,372.339L114.562,372.123L114.153,372.123L114.153,371.908L113.948,371.908L113.948,371.693L113.539,371.693L113.539,372.339L113.744,372.339L113.744,372.554L113.744,372.769L112.925,372.769L112.925,372.554L112.516,372.554L112.516,372.339L112.311,372.339L111.902,372.339L111.902,372.123L111.697,372.123L111.697,371.908L111.492,371.908L111.492,371.693L111.697,371.693L111.492,371.693L111.492,371.262L111.288,371.262L111.288,371.046L111.083,371.046L111.083,370.831L110.879,370.831L110.674,370.831L110.674,370.616L110.469,370.616L110.469,370.4L110.06,370.4L110.06,370.185L109.855,370.185L109.855,369.97L109.651,369.97L109.241,369.97L109.241,369.754L109.037,369.754L109.037,369.539L108.832,369.539L108.627,369.539L108.627,369.323L108.423,369.323L108.423,369.108L108.218,369.108L107.809,369.108L107.809,368.893L107.604,368.893L107.604,368.677L107.4,368.677L107.195,368.677L107.195,368.462L106.99,368.462L106.99,368.247L106.786,368.247L106.786,368.031L106.376,368.031L106.172,368.031L106.172,367.816L105.762,367.816L105.762,367.6L105.353,367.6L105.353,367.385L105.149,367.385L105.149,367.17L104.944,367.17L104.125,367.17L104.125,366.954L103.921,366.954L103.921,366.523L103.307,366.523L103.307,366.739L102.898,366.739L102.898,366.523L102.693,366.523L102.693,366.308L102.488,366.308L102.488,366.093L102.488,365.877L102.284,365.877L102.284,365.662L102.079,365.662L102.079,365.447L101.874,365.447L101.67,365.447L101.26,365.447L101.26,365.662L100.851,365.662L100.851,365.447L100.646,365.447L100.646,365.016L100.851,365.016L100.851,364.8L100.646,364.8L100.646,364.585L100.646,364.37L100.442,364.37L100.237,364.37L99.623,364.37L99.214,364.37L99.214,364.154L99.009,364.154L99.009,363.939L98.6,363.939L98.395,363.939L98.395,363.723L97.986,363.723L97.986,363.508L97.577,363.508L97.372,363.508L97.372,363.293L97.168,363.293L97.168,363.077L96.963,363.077L96.758,363.077L96.758,362.646L96.963,362.646L96.963,362.431L96.758,362.431L96.758,362.216L96.554,362.216L96.554,362L96.349,362L96.144,362L96.144,361.785L95.94,361.785L95.94,362L95.53,362L95.53,362.216L95.326,362.216L95.326,362L95.121,362L95.121,361.785L95.121,361.57L94.712,361.57L94.712,361.354L94.712,361.139L94.098,361.139L93.689,361.139L93.689,360.923L93.075,360.923L93.075,360.277L93.279,360.277L93.279,360.062L93.075,360.062L93.075,359.846L92.461,359.846L92.461,359.631L92.256,359.631L92.256,359.416L91.233,359.416L91.028,359.416L91.028,359.2L90.824,359.2L90.824,358.985L90.619,358.985L90.619,358.769L90.414,358.769L90.414,358.554L90.005,358.554L89.8,358.554L89.8,358.339L89.596,358.339L89.596,358.123L88.982,358.123L88.982,357.908L88.573,357.908L88.573,357.692L88.573,357.477L88.368,357.477L88.368,357.262L88.163,357.262L88.163,357.046L87.959,357.046L87.754,357.046L87.754,356.831L87.549,356.831L87.549,356.615L87.345,356.615L87.345,356.4L87.14,356.4L87.14,356.185L86.935,356.185L86.731,356.185L86.731,356.4L86.322,356.4L86.322,356.185L85.912,356.185L85.912,355.754L85.708,355.754L85.708,355.538L85.503,355.538L85.503,355.323L85.094,355.323L84.684,355.323L84.684,355.108L84.275,355.108L84.275,354.892L84.07,354.892L84.07,354.677L83.866,354.677L83.866,354.246L83.457,354.246L83.457,354.03L83.047,354.03L83.047,353.815L82.638,353.815L82.433,353.815L82.433,353.6L82.433,353.384L82.229,353.384L82.024,353.384L82.024,353.169L82.024,352.953L82.433,352.953L82.433,352.738L82.433,352.523L82.638,352.523L83.047,352.523L83.457,352.523L83.457,352.307L83.457,352.092L83.252,352.092L83.252,351.661L83.047,351.661L83.047,351.015L83.047,350.799L83.047,350.584L83.457,350.584L83.457,350.799L83.457,351.23L83.661,351.23L83.866,351.23L83.866,351.661L84.07,351.661L84.07,351.876L84.48,351.876L84.48,352.092L84.889,352.092L84.889,352.307L85.094,352.307L85.094,352.523L85.503,352.523L85.708,352.523L85.708,352.738L86.322,352.738L86.322,352.523L86.322,352.738L86.935,352.738L86.935,352.953L87.549,352.953L87.549,352.523L87.959,352.523L87.959,352.307L88.163,352.307L88.163,352.092L88.368,352.092L88.368,352.307L88.982,352.307L88.982,351.661L88.982,351.23L88.777,351.23L88.777,351.015L88.573,351.015L88.573,350.799L88.368,350.799L88.163,350.799L88.163,350.584L87.959,350.584L87.754,350.584L87.754,350.369L87.549,350.369L87.549,349.722L87.754,349.722L87.959,349.722L87.959,349.507L87.345,349.507L87.345,349.722L87.14,349.722L87.14,349.938L87.14,350.153L86.935,350.153L86.731,350.153L86.731,350.369L86.526,350.369L86.526,350.584L86.322,350.584L86.322,351.015L86.322,351.661L86.117,351.661L86.117,351.876L86.117,352.092L85.298,352.092L85.298,351.876L85.298,351.661L85.298,351.446L85.298,351.23L85.094,351.23L85.094,350.799L84.889,350.799L84.889,350.584L84.684,350.584L84.684,350.799L84.275,350.799L84.275,350.584L84.07,350.584L84.07,350.369L83.866,350.369L83.866,350.153L83.661,350.153L83.661,349.938L83.457,349.938L83.457,349.722L82.843,349.722L82.638,349.722L82.638,348.645L82.843,348.645L82.843,348.43L83.047,348.43L83.252,348.43L83.252,348.214L83.457,348.214L83.457,347.999L83.866,347.999L83.866,348.214L84.07,348.214L84.07,348.43L84.275,348.43L84.48,348.43L84.48,348.645L84.684,348.645L84.684,348.43L84.889,348.43L84.889,347.999L84.684,347.999L84.889,347.999L84.889,347.568L84.889,347.353L85.094,347.353L85.094,347.137L85.298,347.137L85.298,347.353L85.708,347.353L86.117,347.353L86.117,347.568L86.322,347.568L86.322,347.784L86.322,347.568L86.731,347.568L86.731,347.784L86.731,347.568L87.14,347.568L87.14,347.353L87.345,347.353L87.549,347.353L87.549,346.922L87.754,346.922L87.754,346.706L87.959,346.706L87.959,346.491L88.163,346.491L88.163,345.845L88.163,345.629L88.163,345.198L87.549,345.198L87.549,345.414L87.549,345.629L87.345,345.629L87.345,345.845L87.14,345.845L87.14,346.06L87.14,346.706L86.935,346.706L86.935,346.922L86.526,346.922L86.526,346.706L86.322,346.706L86.322,346.491L85.912,346.491L85.912,346.706L85.708,346.706L85.298,346.706L85.298,346.491L85.298,346.276L85.094,346.276L85.094,345.629L84.889,345.629L84.889,345.414L84.889,345.198L84.889,344.983L84.889,344.768L84.889,344.337L84.684,344.337L84.684,343.906L84.48,343.906L84.48,343.691L84.48,343.26L84.275,343.26L84.275,342.829L84.48,342.829L84.48,342.398L84.275,342.398L84.275,341.752L84.07,341.752L84.07,340.675L84.275,340.675L84.275,340.459L84.48,340.459L84.48,338.736L84.48,338.52L84.48,337.874L84.684,337.874L84.684,337.658L84.889,337.658L84.889,337.443L84.684,337.443L84.48,337.443L84.48,337.228L84.275,337.228L84.275,337.443L84.07,337.443L84.07,338.089L83.866,338.089L83.866,338.305L83.866,338.951L83.661,338.951L83.661,339.167L83.457,339.167L83.457,339.597L83.252,339.597L83.047,339.597L83.047,339.813L83.047,340.028L82.638,340.028L82.638,340.244L82.433,340.244L82.433,340.459L82.433,340.675L82.229,340.675L81.819,340.675L81.819,340.89L81.615,340.89L81.615,341.105L81.41,341.105L81.41,341.321L81.615,341.321L81.615,341.536L81.819,341.536L82.433,341.536L82.433,341.752L82.433,342.398L82.433,343.26L82.638,343.26L82.638,343.691L82.843,343.691L82.843,343.906L82.638,343.906L82.638,344.337L82.433,344.337L82.433,346.491L82.229,346.491L82.229,346.922L82.024,346.922L82.024,347.999L82.024,348.43L81.615,348.43L81.615,348.645L81.615,348.861L81.615,349.076L82.024,349.076L82.024,349.507L82.229,349.507L82.229,350.153L82.433,350.153L82.433,351.015L82.433,352.092L82.229,352.092L82.024,352.092L81.615,352.092L81.615,351.876L81.615,351.661L81.41,351.661L81.41,351.23L81.205,351.23L80.592,351.23L80.592,351.015L80.387,351.015L80.387,350.799L80.182,350.799L80.182,350.584L79.773,350.584L79.364,350.584L79.364,350.369L79.159,350.369L79.159,350.153L78.954,350.153L78.954,349.938L78.75,349.938L78.75,349.722L78.545,349.722L78.545,350.584L78.75,350.584L78.75,350.799L78.341,350.799L78.341,350.584L77.727,350.584L77.522,350.584L77.522,350.369L77.317,350.369L77.317,350.153L77.113,350.153L77.113,349.938L76.908,349.938L76.908,349.722L76.703,349.722L76.499,349.722L76.499,349.507L76.499,349.291L76.089,349.291L75.885,349.291L75.885,349.076L75.68,349.076L75.68,348.43L75.476,348.43L75.476,348.214L75.271,348.214L75.271,347.999L75.066,347.999L74.862,347.999L74.862,347.784L74.657,347.784L74.657,347.999L74.452,347.999L73.634,347.999L73.634,347.784L73.429,347.784L73.429,347.353L73.224,347.353L73.224,347.137L73.224,346.922L73.02,346.922L73.02,346.491L73.224,346.491L73.224,346.276L73.224,346.06L73.634,346.06L73.838,346.06L73.838,345.198L73.634,345.198L73.634,344.552L73.429,344.552L73.429,344.983L73.224,344.983L73.224,345.198L73.224,345.414L73.02,345.414L73.02,346.06L72.815,346.06L72.815,346.276L72.611,346.276L72.611,346.491L72.201,346.491L72.201,346.06L72.201,345.629L71.178,345.629L71.178,345.414L70.973,345.414L70.973,345.198L70.769,345.198L70.564,345.198L70.564,344.983L70.359,344.983L70.359,344.768L70.155,344.768L69.746,344.768L69.746,344.552L69.541,344.552L69.541,344.337L69.336,344.337L68.927,344.337L68.313,344.337L68.313,343.906L68.108,343.906L68.108,343.691L68.313,343.691L68.313,343.26L67.904,343.26L67.699,343.26L67.699,343.044L67.699,342.829L67.494,342.829L67.29,342.829L67.29,342.613L67.085,342.613L67.085,342.398L66.881,342.398L66.676,342.398L66.267,342.398L66.267,342.183L66.267,341.967L66.062,341.967L65.653,341.967L65.653,341.752L65.243,341.752L65.243,341.536L64.63,341.536L64.63,341.321L64.22,341.321L64.22,340.89L64.425,340.89L64.425,340.675L64.425,340.459L64.22,340.459L64.22,340.028L64.016,340.028L64.016,340.244L63.606,340.244L63.606,340.459L63.402,340.459L63.402,340.244L63.402,340.028L62.788,340.028L62.583,340.028L62.583,339.813L61.969,339.813L61.969,339.597L61.56,339.597L61.151,339.597L61.151,339.382L60.946,339.382L60.946,339.167L60.741,339.167L60.537,339.167L60.537,338.951L60.537,338.736L60.332,338.736L60.127,338.736L60.127,338.52L59.923,338.52L59.923,338.305L59.513,338.305L59.104,338.305L59.104,338.089L58.695,338.089L58.695,337.874L58.49,337.874L58.49,337.658L58.286,337.658L58.286,337.443L58.081,337.443L58.081,337.228L57.876,337.228L57.876,337.012L57.262,337.012L57.262,336.797L57.058,336.797L57.058,336.581L56.853,336.581L56.853,336.366L56.444,336.366L56.239,336.366L56.239,336.15L56.035,336.15L56.035,335.935L55.625,335.935L55.421,335.935L55.421,335.72L55.216,335.72L55.216,335.504L54.602,335.504L54.602,334.858L54.602,334.642L54.807,334.642L55.011,334.642L55.011,334.211L54.807,334.211L54.807,333.996L54.602,333.996L54.602,333.781L54.397,333.781L54.193,333.781L54.193,333.565L53.988,333.565L53.988,333.35L55.011,332.272L55.216,330.98L55.216,330.118L53.17,328.394L53.374,326.886L55.625,323.439L57.262,321.284L58.286,320.638L58.081,319.13L59.513,318.268L59.923,317.406L59.923,316.544L59.309,315.682L60.741,314.174L61.969,311.157L62.378,310.295L64.016,310.295L64.425,309.433L65.243,308.14L63.197,307.494L63.811,307.278L64.016,306.632L64.63,306.201L64.834,305.554L63.606,304.908L64.016,303.83L65.653,303.184L65.039,300.167L65.448,299.736L65.243,298.443L66.881,298.012L67.904,296.934L69.541,297.15L69.95,295.857L69.541,295.21L69.95,294.779L71.587,293.917L73.429,291.977L73.838,289.822L74.862,287.236L75.476,286.158L75.885,285.512L75.68,284.218L75.885,283.356L75.066,282.925L75.68,280.123L75.885,279.692L76.089,276.028L75.271,275.381L74.862,273.872L75.885,271.286L75.68,271.07L74.043,271.07L74.657,268.268L74.248,265.681L74.657,264.603L74.452,263.526L73.838,262.017L74.248,261.37L74.657,261.154L74.452,259.645L74.657,258.783L75.066,257.705L75.476,257.489L76.089,256.843L75.68,255.118L76.908,255.765L77.317,255.549L76.499,254.04L76.703,253.178L77.727,252.315L77.317,251.453L77.113,251.237L76.908,251.237L77.317,249.513L79.773,248.65L79.364,247.572L78.954,246.494L79.568,246.063L79.978,246.71L80.796,246.925L81.205,246.063L81.615,244.554L81.205,243.907L81.819,241.967L83.252,241.32L83.457,240.242L81.41,238.301L82.024,237.439L83.457,236.361L82.843,235.714L83.252,234.851L84.684,234.42L84.684,232.479L86.526,232.479L89.8,229.461L88.368,227.736L88.368,227.089L88.982,226.226L89.596,225.795L89.596,225.148L89.391,224.285L90.619,221.698L91.233,221.266L92.256,221.482L92.87,220.619L92.256,219.972L91.028,219.757L89.8,219.972L89.187,219.541L87.549,218.463L87.549,217.816L87.959,217.169L87.549,216.306L88.368,215.444L88.982,215.012L88.573,214.365L88.163,214.15L87.754,212.64L87.14,212.425L87.345,211.131L88.163,210.484L88.777,209.837L88.163,208.974L88.573,207.896L90.005,205.092L89.8,203.582L91.233,200.778L90.824,199.915L90.005,198.621L89.391,196.249L88.982,195.17L90.619,193.876L92.052,191.719L92.87,190.425L92.052,189.778L92.461,188.268L94.303,186.542L94.712,184.169L94.712,181.796L94.916,179.855L95.53,178.776L94.507,175.972L94.303,174.678L95.326,173.599L95.326,170.794L95.735,167.99L96.554,165.616L96.963,161.086L96.144,157.634L96.144,155.044L96.349,152.024L96.349,150.082L96.144,147.492L96.554,144.903L97.168,143.177L96.758,142.529L95.94,141.882L95.326,137.134L95.94,136.487L95.735,134.329L95.326,127.639L92.461,116.2L93.484,114.905L96.349,107.35L97.577,105.407L97.986,99.795L99.828,96.557L100.851,93.75L101.67,92.455L101.67,90.08L102.079,88.353L102.079,84.251L102.898,80.581L104.125,78.638L105.353,77.126L105.967,70.865L106.786,66.762L107.809,64.819L110.06,62.012L111.697,59.204L113.13,56.181L115.381,53.374L116.404,52.726L117.836,52.726L121.929,49.27L124.999,47.759L127.25,46.463L128.887,44.951L130.115,42.791L127.455,39.12L128.273,37.824L131.343,37.176L131.752,37.176L133.389,36.528L135.231,34.8L137.073,32.856L145.463,24L145.668,32.424L144.849,37.824L146.895,44.735L147.919,48.839L148.328,50.782L149.147,62.875L148.123,64.171L143.826,68.921L135.64,81.876L147.509,85.331Z"/></clipPath>
    <pattern id="mesh" width="14" height="14" patternUnits="userSpaceOnUse">
      <path d="M0 14 L14 0 M-2 2 L2 -2 M12 16 L16 12" stroke="rgba(255,255,255,0.2)" stroke-width="0.6" fill="none"/>
    </pattern>
  </defs>
  <g clip-path="url(#c)">
    <rect width="400" height="400" fill="url(#mesh)"/>
    <path d="M148.533,81.445L157.128,82.74L163.881,82.308L165.927,84.251L166.336,84.251L166.541,82.308L166.132,80.581L166.132,78.854L174.317,69.353L179.024,64.171L179.434,64.171L181.889,63.739L182.708,63.523L184.754,60.932L186.187,60.716L187.21,61.364L187.824,61.364L189.256,61.364L190.28,60.932L191.303,60.284L193.349,61.58L194.782,62.659L195.191,63.955L202.763,64.387L203.377,64.171L204.4,62.875L205.628,63.091L207.265,61.58L208.493,62.012L209.925,62.659L211.358,62.012L212.995,60.284L213.813,60.068L225.887,59.636L226.91,64.819L230.799,62.443L236.324,66.114L238.575,69.137L236.324,70.865L235.505,71.728L234.891,74.967L240.007,75.831L240.417,76.263L241.031,77.126L241.645,77.99L249.012,79.285L250.649,84.251L252.695,100.874L254.332,112.53L255.97,113.61L256.379,114.689L256.993,117.279L257.607,118.358L258.834,119.221L259.858,119.221L261.086,119.006L262.723,118.142L264.155,117.926L264.155,118.574L264.769,119.437L264.564,120.732L264.36,121.811L265.178,122.027L265.792,121.164L265.792,120.732L265.588,119.006L265.588,117.063L266.611,115.552L266.816,115.336L268.453,114.689L270.294,113.394L272.341,111.667L273.773,110.372L275.206,109.509L276.843,107.998L278.889,106.702L280.527,105.839L283.187,106.055L285.643,104.976L288.303,103.68L291.986,102.817L294.851,102.385L298.535,102.601L303.446,103.249L304.674,105.407L306.925,105.407L313.474,107.134L313.065,104.76L318.59,107.35L319.818,107.998L321.455,108.429L323.501,110.156L324.524,111.235L325.752,111.667L327.594,114.689L328.822,117.279L329.231,119.006L329.436,122.243L331.073,123.322L331.482,126.344L334.347,127.423L330.664,130.013L331.278,137.134L333.324,141.019L332.096,144.471L331.892,147.708L330.254,149.65L330.664,152.455L328.208,158.281L340.282,160.87L342.533,162.596L346.012,162.596L346.83,165.401L346.421,167.558L346.216,169.5L345.807,171.226L343.761,173.815L344.375,175.972L345.193,178.992L343.556,182.012L340.077,183.306L337.212,186.111L334.757,189.346L334.143,190.641L332.915,194.307L330.868,195.602L329.845,197.759L327.799,199.053L326.162,200.131L324.729,201.857L327.594,204.445L327.594,207.033L327.594,208.543L329.845,210.915L330.868,211.131L330.05,213.071L329.641,214.797L329.231,217.169L328.822,219.11L329.231,221.698L329.845,224.717L329.027,226.01L329.027,227.736L328.003,230.108L326.571,230.539L324.524,230.108L324.729,232.264L324.115,233.558L322.069,233.773L323.092,235.714L320.432,238.517L320.432,240.242L319.613,242.182L320.636,244.123L320.227,248.435L318.999,250.375L316.339,247.788L314.292,249.297L305.902,247.572L267.02,240.673L259.448,239.164L259.858,237.007L260.881,234.851L260.472,231.401L261.29,229.676L263.132,225.148L263.951,223.854L263.746,222.56L258.016,222.129L257.811,226.01L253.718,226.657L251.672,229.892L251.877,233.773L250.853,236.576L231.208,231.833L225.069,229.461L219.748,232.048L218.315,227.304L220.566,224.07L222.408,220.188L221.794,216.738L220.771,213.718L221.18,211.131L223.431,206.386L223.841,203.151L225.478,200.994L223.636,199.484L224.659,196.896L226.501,193.66L229.571,190.425L229.366,189.346L227.524,189.562L225.478,190.856L221.999,193.876L216.678,198.19L215.041,198.406L210.539,198.837L208.493,200.562L203.991,201.857L203.377,203.366L203.581,205.523L202.558,206.817L202.353,209.837L198.874,210.915L198.261,212.209L198.056,216.091L197.237,217.6L197.033,220.835L196.214,222.129L192.94,221.913L189.052,227.736L185.573,229.029L184.959,230.108L193.145,245.416L179.638,253.178L174.113,242.613L176.159,230.97L174.113,230.539L170.429,231.833L169.815,230.97L164.699,234.851L163.471,237.007L158.765,237.223L157.946,238.948L159.174,240.026L158.355,241.535L156.923,243.691L158.969,246.494L159.993,246.71L162.039,246.71L161.016,254.256L158.969,257.921L159.174,259.645L162.244,259.43L164.699,266.975L163.267,270.208L164.495,273.872L163.676,276.459L163.062,282.063L165.927,290.038L163.062,291.115L163.062,293.486L165.109,294.348L164.699,295.857L162.448,297.581L160.606,302.537L158.765,308.356L157.332,309.002L151.602,313.527L146.895,318.699L144.849,323.654L143.621,330.764L141.37,333.35L136.459,337.012L135.026,343.906L133.594,346.276L129.501,349.938L125.613,353.384L120.906,356.831L121.111,358.339L122.748,360.062L122.543,361.354L119.269,364.37L119.064,366.308L120.497,369.539L120.701,371.693L121.52,372.769L119.883,373.631L120.087,374.708L120.906,375.139L120.906,376L120.497,376L120.292,376L120.292,375.785L120.087,375.785L120.087,375.569L119.883,375.569L119.473,375.569L119.473,375.354L119.269,375.354L119.269,374.923L119.269,374.708L119.473,374.708L119.473,374.492L119.678,374.492L119.678,374.277L119.883,374.277L119.883,374.062L119.473,374.062L119.269,374.062L119.269,373.631L118.86,373.631L118.86,373.846L117.427,373.846L117.427,373.631L117.222,373.631L117.222,373.416L117.018,373.416L117.018,373.631L116.609,373.631L116.609,373.416L116.199,373.416L116.199,373.2L115.995,373.2L115.995,372.985L115.585,372.985L115.585,372.769L115.176,372.769L115.176,372.554L115.176,372.339L114.767,372.339L114.562,372.339L114.562,372.123L114.153,372.123L114.153,371.908L113.948,371.908L113.948,371.693L113.539,371.693L113.539,372.339L113.744,372.339L113.744,372.554L113.744,372.769L112.925,372.769L112.925,372.554L112.516,372.554L112.516,372.339L112.311,372.339L111.902,372.339L111.902,372.123L111.697,372.123L111.697,371.908L111.492,371.908L111.492,371.693L111.697,371.693L111.492,371.693L111.492,371.262L111.288,371.262L111.288,371.046L111.083,371.046L111.083,370.831L110.879,370.831L110.674,370.831L110.674,370.616L110.469,370.616L110.469,370.4L110.06,370.4L110.06,370.185L109.855,370.185L109.855,369.97L109.651,369.97L109.241,369.97L109.241,369.754L109.037,369.754L109.037,369.539L108.832,369.539L108.627,369.539L108.627,369.323L108.423,369.323L108.423,369.108L108.218,369.108L107.809,369.108L107.809,368.893L107.604,368.893L107.604,368.677L107.4,368.677L107.195,368.677L107.195,368.462L106.99,368.462L106.99,368.247L106.786,368.247L106.786,368.031L106.376,368.031L106.172,368.031L106.172,367.816L105.762,367.816L105.762,367.6L105.353,367.6L105.353,367.385L105.149,367.385L105.149,367.17L104.944,367.17L104.125,367.17L104.125,366.954L103.921,366.954L103.921,366.523L103.307,366.523L103.307,366.739L102.898,366.739L102.898,366.523L102.693,366.523L102.693,366.308L102.488,366.308L102.488,366.093L102.488,365.877L102.284,365.877L102.284,365.662L102.079,365.662L102.079,365.447L101.874,365.447L101.67,365.447L101.26,365.447L101.26,365.662L100.851,365.662L100.851,365.447L100.646,365.447L100.646,365.016L100.851,365.016L100.851,364.8L100.646,364.8L100.646,364.585L100.646,364.37L100.442,364.37L100.237,364.37L99.623,364.37L99.214,364.37L99.214,364.154L99.009,364.154L99.009,363.939L98.6,363.939L98.395,363.939L98.395,363.723L97.986,363.723L97.986,363.508L97.577,363.508L97.372,363.508L97.372,363.293L97.168,363.293L97.168,363.077L96.963,363.077L96.758,363.077L96.758,362.646L96.963,362.646L96.963,362.431L96.758,362.431L96.758,362.216L96.554,362.216L96.554,362L96.349,362L96.144,362L96.144,361.785L95.94,361.785L95.94,362L95.53,362L95.53,362.216L95.326,362.216L95.326,362L95.121,362L95.121,361.785L95.121,361.57L94.712,361.57L94.712,361.354L94.712,361.139L94.098,361.139L93.689,361.139L93.689,360.923L93.075,360.923L93.075,360.277L93.279,360.277L93.279,360.062L93.075,360.062L93.075,359.846L92.461,359.846L92.461,359.631L92.256,359.631L92.256,359.416L91.233,359.416L91.028,359.416L91.028,359.2L90.824,359.2L90.824,358.985L90.619,358.985L90.619,358.769L90.414,358.769L90.414,358.554L90.005,358.554L89.8,358.554L89.8,358.339L89.596,358.339L89.596,358.123L88.982,358.123L88.982,357.908L88.573,357.908L88.573,357.692L88.573,357.477L88.368,357.477L88.368,357.262L88.163,357.262L88.163,357.046L87.959,357.046L87.754,357.046L87.754,356.831L87.549,356.831L87.549,356.615L87.345,356.615L87.345,356.4L87.14,356.4L87.14,356.185L86.935,356.185L86.731,356.185L86.731,356.4L86.322,356.4L86.322,356.185L85.912,356.185L85.912,355.754L85.708,355.754L85.708,355.538L85.503,355.538L85.503,355.323L85.094,355.323L84.684,355.323L84.684,355.108L84.275,355.108L84.275,354.892L84.07,354.892L84.07,354.677L83.866,354.677L83.866,354.246L83.457,354.246L83.457,354.03L83.047,354.03L83.047,353.815L82.638,353.815L82.433,353.815L82.433,353.6L82.433,353.384L82.229,353.384L82.024,353.384L82.024,353.169L82.024,352.953L82.433,352.953L82.433,352.738L82.433,352.523L82.638,352.523L83.047,352.523L83.457,352.523L83.457,352.307L83.457,352.092L83.252,352.092L83.252,351.661L83.047,351.661L83.047,351.015L83.047,350.799L83.047,350.584L83.457,350.584L83.457,350.799L83.457,351.23L83.661,351.23L83.866,351.23L83.866,351.661L84.07,351.661L84.07,351.876L84.48,351.876L84.48,352.092L84.889,352.092L84.889,352.307L85.094,352.307L85.094,352.523L85.503,352.523L85.708,352.523L85.708,352.738L86.322,352.738L86.322,352.523L86.322,352.738L86.935,352.738L86.935,352.953L87.549,352.953L87.549,352.523L87.959,352.523L87.959,352.307L88.163,352.307L88.163,352.092L88.368,352.092L88.368,352.307L88.982,352.307L88.982,351.661L88.982,351.23L88.777,351.23L88.777,351.015L88.573,351.015L88.573,350.799L88.368,350.799L88.163,350.799L88.163,350.584L87.959,350.584L87.754,350.584L87.754,350.369L87.549,350.369L87.549,349.722L87.754,349.722L87.959,349.722L87.959,349.507L87.345,349.507L87.345,349.722L87.14,349.722L87.14,349.938L87.14,350.153L86.935,350.153L86.731,350.153L86.731,350.369L86.526,350.369L86.526,350.584L86.322,350.584L86.322,351.015L86.322,351.661L86.117,351.661L86.117,351.876L86.117,352.092L85.298,352.092L85.298,351.876L85.298,351.661L85.298,351.446L85.298,351.23L85.094,351.23L85.094,350.799L84.889,350.799L84.889,350.584L84.684,350.584L84.684,350.799L84.275,350.799L84.275,350.584L84.07,350.584L84.07,350.369L83.866,350.369L83.866,350.153L83.661,350.153L83.661,349.938L83.457,349.938L83.457,349.722L82.843,349.722L82.638,349.722L82.638,348.645L82.843,348.645L82.843,348.43L83.047,348.43L83.252,348.43L83.252,348.214L83.457,348.214L83.457,347.999L83.866,347.999L83.866,348.214L84.07,348.214L84.07,348.43L84.275,348.43L84.48,348.43L84.48,348.645L84.684,348.645L84.684,348.43L84.889,348.43L84.889,347.999L84.684,347.999L84.889,347.999L84.889,347.568L84.889,347.353L85.094,347.353L85.094,347.137L85.298,347.137L85.298,347.353L85.708,347.353L86.117,347.353L86.117,347.568L86.322,347.568L86.322,347.784L86.322,347.568L86.731,347.568L86.731,347.784L86.731,347.568L87.14,347.568L87.14,347.353L87.345,347.353L87.549,347.353L87.549,346.922L87.754,346.922L87.754,346.706L87.959,346.706L87.959,346.491L88.163,346.491L88.163,345.845L88.163,345.629L88.163,345.198L87.549,345.198L87.549,345.414L87.549,345.629L87.345,345.629L87.345,345.845L87.14,345.845L87.14,346.06L87.14,346.706L86.935,346.706L86.935,346.922L86.526,346.922L86.526,346.706L86.322,346.706L86.322,346.491L85.912,346.491L85.912,346.706L85.708,346.706L85.298,346.706L85.298,346.491L85.298,346.276L85.094,346.276L85.094,345.629L84.889,345.629L84.889,345.414L84.889,345.198L84.889,344.983L84.889,344.768L84.889,344.337L84.684,344.337L84.684,343.906L84.48,343.906L84.48,343.691L84.48,343.26L84.275,343.26L84.275,342.829L84.48,342.829L84.48,342.398L84.275,342.398L84.275,341.752L84.07,341.752L84.07,340.675L84.275,340.675L84.275,340.459L84.48,340.459L84.48,338.736L84.48,338.52L84.48,337.874L84.684,337.874L84.684,337.658L84.889,337.658L84.889,337.443L84.684,337.443L84.48,337.443L84.48,337.228L84.275,337.228L84.275,337.443L84.07,337.443L84.07,338.089L83.866,338.089L83.866,338.305L83.866,338.951L83.661,338.951L83.661,339.167L83.457,339.167L83.457,339.597L83.252,339.597L83.047,339.597L83.047,339.813L83.047,340.028L82.638,340.028L82.638,340.244L82.433,340.244L82.433,340.459L82.433,340.675L82.229,340.675L81.819,340.675L81.819,340.89L81.615,340.89L81.615,341.105L81.41,341.105L81.41,341.321L81.615,341.321L81.615,341.536L81.819,341.536L82.433,341.536L82.433,341.752L82.433,342.398L82.433,343.26L82.638,343.26L82.638,343.691L82.843,343.691L82.843,343.906L82.638,343.906L82.638,344.337L82.433,344.337L82.433,346.491L82.229,346.491L82.229,346.922L82.024,346.922L82.024,347.999L82.024,348.43L81.615,348.43L81.615,348.645L81.615,348.861L81.615,349.076L82.024,349.076L82.024,349.507L82.229,349.507L82.229,350.153L82.433,350.153L82.433,351.015L82.433,352.092L82.229,352.092L82.024,352.092L81.615,352.092L81.615,351.876L81.615,351.661L81.41,351.661L81.41,351.23L81.205,351.23L80.592,351.23L80.592,351.015L80.387,351.015L80.387,350.799L80.182,350.799L80.182,350.584L79.773,350.584L79.364,350.584L79.364,350.369L79.159,350.369L79.159,350.153L78.954,350.153L78.954,349.938L78.75,349.938L78.75,349.722L78.545,349.722L78.545,350.584L78.75,350.584L78.75,350.799L78.341,350.799L78.341,350.584L77.727,350.584L77.522,350.584L77.522,350.369L77.317,350.369L77.317,350.153L77.113,350.153L77.113,349.938L76.908,349.938L76.908,349.722L76.703,349.722L76.499,349.722L76.499,349.507L76.499,349.291L76.089,349.291L75.885,349.291L75.885,349.076L75.68,349.076L75.68,348.43L75.476,348.43L75.476,348.214L75.271,348.214L75.271,347.999L75.066,347.999L74.862,347.999L74.862,347.784L74.657,347.784L74.657,347.999L74.452,347.999L73.634,347.999L73.634,347.784L73.429,347.784L73.429,347.353L73.224,347.353L73.224,347.137L73.224,346.922L73.02,346.922L73.02,346.491L73.224,346.491L73.224,346.276L73.224,346.06L73.634,346.06L73.838,346.06L73.838,345.198L73.634,345.198L73.634,344.552L73.429,344.552L73.429,344.983L73.224,344.983L73.224,345.198L73.224,345.414L73.02,345.414L73.02,346.06L72.815,346.06L72.815,346.276L72.611,346.276L72.611,346.491L72.201,346.491L72.201,346.06L72.201,345.629L71.178,345.629L71.178,345.414L70.973,345.414L70.973,345.198L70.769,345.198L70.564,345.198L70.564,344.983L70.359,344.983L70.359,344.768L70.155,344.768L69.746,344.768L69.746,344.552L69.541,344.552L69.541,344.337L69.336,344.337L68.927,344.337L68.313,344.337L68.313,343.906L68.108,343.906L68.108,343.691L68.313,343.691L68.313,343.26L67.904,343.26L67.699,343.26L67.699,343.044L67.699,342.829L67.494,342.829L67.29,342.829L67.29,342.613L67.085,342.613L67.085,342.398L66.881,342.398L66.676,342.398L66.267,342.398L66.267,342.183L66.267,341.967L66.062,341.967L65.653,341.967L65.653,341.752L65.243,341.752L65.243,341.536L64.63,341.536L64.63,341.321L64.22,341.321L64.22,340.89L64.425,340.89L64.425,340.675L64.425,340.459L64.22,340.459L64.22,340.028L64.016,340.028L64.016,340.244L63.606,340.244L63.606,340.459L63.402,340.459L63.402,340.244L63.402,340.028L62.788,340.028L62.583,340.028L62.583,339.813L61.969,339.813L61.969,339.597L61.56,339.597L61.151,339.597L61.151,339.382L60.946,339.382L60.946,339.167L60.741,339.167L60.537,339.167L60.537,338.951L60.537,338.736L60.332,338.736L60.127,338.736L60.127,338.52L59.923,338.52L59.923,338.305L59.513,338.305L59.104,338.305L59.104,338.089L58.695,338.089L58.695,337.874L58.49,337.874L58.49,337.658L58.286,337.658L58.286,337.443L58.081,337.443L58.081,337.228L57.876,337.228L57.876,337.012L57.262,337.012L57.262,336.797L57.058,336.797L57.058,336.581L56.853,336.581L56.853,336.366L56.444,336.366L56.239,336.366L56.239,336.15L56.035,336.15L56.035,335.935L55.625,335.935L55.421,335.935L55.421,335.72L55.216,335.72L55.216,335.504L54.602,335.504L54.602,334.858L54.602,334.642L54.807,334.642L55.011,334.642L55.011,334.211L54.807,334.211L54.807,333.996L54.602,333.996L54.602,333.781L54.397,333.781L54.193,333.781L54.193,333.565L53.988,333.565L53.988,333.35L55.011,332.272L55.216,330.98L55.216,330.118L53.17,328.394L53.374,326.886L55.625,323.439L57.262,321.284L58.286,320.638L58.081,319.13L59.513,318.268L59.923,317.406L59.923,316.544L59.309,315.682L60.741,314.174L61.969,311.157L62.378,310.295L64.016,310.295L64.425,309.433L65.243,308.14L63.197,307.494L63.811,307.278L64.016,306.632L64.63,306.201L64.834,305.554L63.606,304.908L64.016,303.83L65.653,303.184L65.039,300.167L65.448,299.736L65.243,298.443L66.881,298.012L67.904,296.934L69.541,297.15L69.95,295.857L69.541,295.21L69.95,294.779L71.587,293.917L73.429,291.977L73.838,289.822L74.862,287.236L75.476,286.158L75.885,285.512L75.68,284.218L75.885,283.356L75.066,282.925L75.68,280.123L75.885,279.692L76.089,276.028L75.271,275.381L74.862,273.872L75.885,271.286L75.68,271.07L74.043,271.07L74.657,268.268L74.248,265.681L74.657,264.603L74.452,263.526L73.838,262.017L74.248,261.37L74.657,261.154L74.452,259.645L74.657,258.783L75.066,257.705L75.476,257.489L76.089,256.843L75.68,255.118L76.908,255.765L77.317,255.549L76.499,254.04L76.703,253.178L77.727,252.315L77.317,251.453L77.113,251.237L76.908,251.237L77.317,249.513L79.773,248.65L79.364,247.572L78.954,246.494L79.568,246.063L79.978,246.71L80.796,246.925L81.205,246.063L81.615,244.554L81.205,243.907L81.819,241.967L83.252,241.32L83.457,240.242L81.41,238.301L82.024,237.439L83.457,236.361L82.843,235.714L83.252,234.851L84.684,234.42L84.684,232.479L86.526,232.479L89.8,229.461L88.368,227.736L88.368,227.089L88.982,226.226L89.596,225.795L89.596,225.148L89.391,224.285L90.619,221.698L91.233,221.266L92.256,221.482L92.87,220.619L92.256,219.972L91.028,219.757L89.8,219.972L89.187,219.541L87.549,218.463L87.549,217.816L87.959,217.169L87.549,216.306L88.368,215.444L88.982,215.012L88.573,214.365L88.163,214.15L87.754,212.64L87.14,212.425L87.345,211.131L88.163,210.484L88.777,209.837L88.163,208.974L88.573,207.896L90.005,205.092L89.8,203.582L91.233,200.778L90.824,199.915L90.005,198.621L89.391,196.249L88.982,195.17L90.619,193.876L92.052,191.719L92.87,190.425L92.052,189.778L92.461,188.268L94.303,186.542L94.712,184.169L94.712,181.796L94.916,179.855L95.53,178.776L94.507,175.972L94.303,174.678L95.326,173.599L95.326,170.794L95.735,167.99L96.554,165.616L96.963,161.086L96.144,157.634L96.144,155.044L96.349,152.024L96.349,150.082L96.144,147.492L96.554,144.903L97.168,143.177L96.758,142.529L95.94,141.882L95.326,137.134L95.94,136.487L95.735,134.329L95.326,127.639L92.461,116.2L93.484,114.905L96.349,107.35L97.577,105.407L97.986,99.795L99.828,96.557L100.851,93.75L101.67,92.455L101.67,90.08L102.079,88.353L102.079,84.251L102.898,80.581L104.125,78.638L105.353,77.126L105.967,70.865L106.786,66.762L107.809,64.819L110.06,62.012L111.697,59.204L113.13,56.181L115.381,53.374L116.404,52.726L117.836,52.726L121.929,49.27L124.999,47.759L127.25,46.463L128.887,44.951L130.115,42.791L127.455,39.12L128.273,37.824L131.343,37.176L131.752,37.176L133.389,36.528L135.231,34.8L137.073,32.856L145.463,24L145.668,32.424L144.849,37.824L146.895,44.735L147.919,48.839L148.328,50.782L149.147,62.875L148.123,64.171L143.826,68.921L135.64,81.876L147.509,85.331Z" fill="rgba(180,200,195,0.35)"/>
  </g>
  <path d="M148.533,81.445L157.128,82.74L163.881,82.308L165.927,84.251L166.336,84.251L166.541,82.308L166.132,80.581L166.132,78.854L174.317,69.353L179.024,64.171L179.434,64.171L181.889,63.739L182.708,63.523L184.754,60.932L186.187,60.716L187.21,61.364L187.824,61.364L189.256,61.364L190.28,60.932L191.303,60.284L193.349,61.58L194.782,62.659L195.191,63.955L202.763,64.387L203.377,64.171L204.4,62.875L205.628,63.091L207.265,61.58L208.493,62.012L209.925,62.659L211.358,62.012L212.995,60.284L213.813,60.068L225.887,59.636L226.91,64.819L230.799,62.443L236.324,66.114L238.575,69.137L236.324,70.865L235.505,71.728L234.891,74.967L240.007,75.831L240.417,76.263L241.031,77.126L241.645,77.99L249.012,79.285L250.649,84.251L252.695,100.874L254.332,112.53L255.97,113.61L256.379,114.689L256.993,117.279L257.607,118.358L258.834,119.221L259.858,119.221L261.086,119.006L262.723,118.142L264.155,117.926L264.155,118.574L264.769,119.437L264.564,120.732L264.36,121.811L265.178,122.027L265.792,121.164L265.792,120.732L265.588,119.006L265.588,117.063L266.611,115.552L266.816,115.336L268.453,114.689L270.294,113.394L272.341,111.667L273.773,110.372L275.206,109.509L276.843,107.998L278.889,106.702L280.527,105.839L283.187,106.055L285.643,104.976L288.303,103.68L291.986,102.817L294.851,102.385L298.535,102.601L303.446,103.249L304.674,105.407L306.925,105.407L313.474,107.134L313.065,104.76L318.59,107.35L319.818,107.998L321.455,108.429L323.501,110.156L324.524,111.235L325.752,111.667L327.594,114.689L328.822,117.279L329.231,119.006L329.436,122.243L331.073,123.322L331.482,126.344L334.347,127.423L330.664,130.013L331.278,137.134L333.324,141.019L332.096,144.471L331.892,147.708L330.254,149.65L330.664,152.455L328.208,158.281L340.282,160.87L342.533,162.596L346.012,162.596L346.83,165.401L346.421,167.558L346.216,169.5L345.807,171.226L343.761,173.815L344.375,175.972L345.193,178.992L343.556,182.012L340.077,183.306L337.212,186.111L334.757,189.346L334.143,190.641L332.915,194.307L330.868,195.602L329.845,197.759L327.799,199.053L326.162,200.131L324.729,201.857L327.594,204.445L327.594,207.033L327.594,208.543L329.845,210.915L330.868,211.131L330.05,213.071L329.641,214.797L329.231,217.169L328.822,219.11L329.231,221.698L329.845,224.717L329.027,226.01L329.027,227.736L328.003,230.108L326.571,230.539L324.524,230.108L324.729,232.264L324.115,233.558L322.069,233.773L323.092,235.714L320.432,238.517L320.432,240.242L319.613,242.182L320.636,244.123L320.227,248.435L318.999,250.375L316.339,247.788L314.292,249.297L305.902,247.572L267.02,240.673L259.448,239.164L259.858,237.007L260.881,234.851L260.472,231.401L261.29,229.676L263.132,225.148L263.951,223.854L263.746,222.56L258.016,222.129L257.811,226.01L253.718,226.657L251.672,229.892L251.877,233.773L250.853,236.576L231.208,231.833L225.069,229.461L219.748,232.048L218.315,227.304L220.566,224.07L222.408,220.188L221.794,216.738L220.771,213.718L221.18,211.131L223.431,206.386L223.841,203.151L225.478,200.994L223.636,199.484L224.659,196.896L226.501,193.66L229.571,190.425L229.366,189.346L227.524,189.562L225.478,190.856L221.999,193.876L216.678,198.19L215.041,198.406L210.539,198.837L208.493,200.562L203.991,201.857L203.377,203.366L203.581,205.523L202.558,206.817L202.353,209.837L198.874,210.915L198.261,212.209L198.056,216.091L197.237,217.6L197.033,220.835L196.214,222.129L192.94,221.913L189.052,227.736L185.573,229.029L184.959,230.108L193.145,245.416L179.638,253.178L174.113,242.613L176.159,230.97L174.113,230.539L170.429,231.833L169.815,230.97L164.699,234.851L163.471,237.007L158.765,237.223L157.946,238.948L159.174,240.026L158.355,241.535L156.923,243.691L158.969,246.494L159.993,246.71L162.039,246.71L161.016,254.256L158.969,257.921L159.174,259.645L162.244,259.43L164.699,266.975L163.267,270.208L164.495,273.872L163.676,276.459L163.062,282.063L165.927,290.038L163.062,291.115L163.062,293.486L165.109,294.348L164.699,295.857L162.448,297.581L160.606,302.537L158.765,308.356L157.332,309.002L151.602,313.527L146.895,318.699L144.849,323.654L143.621,330.764L141.37,333.35L136.459,337.012L135.026,343.906L133.594,346.276L129.501,349.938L125.613,353.384L120.906,356.831L121.111,358.339L122.748,360.062L122.543,361.354L119.269,364.37L119.064,366.308L120.497,369.539L120.701,371.693L121.52,372.769L119.883,373.631L120.087,374.708L120.906,375.139L120.906,376L120.497,376L120.292,376L120.292,375.785L120.087,375.785L120.087,375.569L119.883,375.569L119.473,375.569L119.473,375.354L119.269,375.354L119.269,374.923L119.269,374.708L119.473,374.708L119.473,374.492L119.678,374.492L119.678,374.277L119.883,374.277L119.883,374.062L119.473,374.062L119.269,374.062L119.269,373.631L118.86,373.631L118.86,373.846L117.427,373.846L117.427,373.631L117.222,373.631L117.222,373.416L117.018,373.416L117.018,373.631L116.609,373.631L116.609,373.416L116.199,373.416L116.199,373.2L115.995,373.2L115.995,372.985L115.585,372.985L115.585,372.769L115.176,372.769L115.176,372.554L115.176,372.339L114.767,372.339L114.562,372.339L114.562,372.123L114.153,372.123L114.153,371.908L113.948,371.908L113.948,371.693L113.539,371.693L113.539,372.339L113.744,372.339L113.744,372.554L113.744,372.769L112.925,372.769L112.925,372.554L112.516,372.554L112.516,372.339L112.311,372.339L111.902,372.339L111.902,372.123L111.697,372.123L111.697,371.908L111.492,371.908L111.492,371.693L111.697,371.693L111.492,371.693L111.492,371.262L111.288,371.262L111.288,371.046L111.083,371.046L111.083,370.831L110.879,370.831L110.674,370.831L110.674,370.616L110.469,370.616L110.469,370.4L110.06,370.4L110.06,370.185L109.855,370.185L109.855,369.97L109.651,369.97L109.241,369.97L109.241,369.754L109.037,369.754L109.037,369.539L108.832,369.539L108.627,369.539L108.627,369.323L108.423,369.323L108.423,369.108L108.218,369.108L107.809,369.108L107.809,368.893L107.604,368.893L107.604,368.677L107.4,368.677L107.195,368.677L107.195,368.462L106.99,368.462L106.99,368.247L106.786,368.247L106.786,368.031L106.376,368.031L106.172,368.031L106.172,367.816L105.762,367.816L105.762,367.6L105.353,367.6L105.353,367.385L105.149,367.385L105.149,367.17L104.944,367.17L104.125,367.17L104.125,366.954L103.921,366.954L103.921,366.523L103.307,366.523L103.307,366.739L102.898,366.739L102.898,366.523L102.693,366.523L102.693,366.308L102.488,366.308L102.488,366.093L102.488,365.877L102.284,365.877L102.284,365.662L102.079,365.662L102.079,365.447L101.874,365.447L101.67,365.447L101.26,365.447L101.26,365.662L100.851,365.662L100.851,365.447L100.646,365.447L100.646,365.016L100.851,365.016L100.851,364.8L100.646,364.8L100.646,364.585L100.646,364.37L100.442,364.37L100.237,364.37L99.623,364.37L99.214,364.37L99.214,364.154L99.009,364.154L99.009,363.939L98.6,363.939L98.395,363.939L98.395,363.723L97.986,363.723L97.986,363.508L97.577,363.508L97.372,363.508L97.372,363.293L97.168,363.293L97.168,363.077L96.963,363.077L96.758,363.077L96.758,362.646L96.963,362.646L96.963,362.431L96.758,362.431L96.758,362.216L96.554,362.216L96.554,362L96.349,362L96.144,362L96.144,361.785L95.94,361.785L95.94,362L95.53,362L95.53,362.216L95.326,362.216L95.326,362L95.121,362L95.121,361.785L95.121,361.57L94.712,361.57L94.712,361.354L94.712,361.139L94.098,361.139L93.689,361.139L93.689,360.923L93.075,360.923L93.075,360.277L93.279,360.277L93.279,360.062L93.075,360.062L93.075,359.846L92.461,359.846L92.461,359.631L92.256,359.631L92.256,359.416L91.233,359.416L91.028,359.416L91.028,359.2L90.824,359.2L90.824,358.985L90.619,358.985L90.619,358.769L90.414,358.769L90.414,358.554L90.005,358.554L89.8,358.554L89.8,358.339L89.596,358.339L89.596,358.123L88.982,358.123L88.982,357.908L88.573,357.908L88.573,357.692L88.573,357.477L88.368,357.477L88.368,357.262L88.163,357.262L88.163,357.046L87.959,357.046L87.754,357.046L87.754,356.831L87.549,356.831L87.549,356.615L87.345,356.615L87.345,356.4L87.14,356.4L87.14,356.185L86.935,356.185L86.731,356.185L86.731,356.4L86.322,356.4L86.322,356.185L85.912,356.185L85.912,355.754L85.708,355.754L85.708,355.538L85.503,355.538L85.503,355.323L85.094,355.323L84.684,355.323L84.684,355.108L84.275,355.108L84.275,354.892L84.07,354.892L84.07,354.677L83.866,354.677L83.866,354.246L83.457,354.246L83.457,354.03L83.047,354.03L83.047,353.815L82.638,353.815L82.433,353.815L82.433,353.6L82.433,353.384L82.229,353.384L82.024,353.384L82.024,353.169L82.024,352.953L82.433,352.953L82.433,352.738L82.433,352.523L82.638,352.523L83.047,352.523L83.457,352.523L83.457,352.307L83.457,352.092L83.252,352.092L83.252,351.661L83.047,351.661L83.047,351.015L83.047,350.799L83.047,350.584L83.457,350.584L83.457,350.799L83.457,351.23L83.661,351.23L83.866,351.23L83.866,351.661L84.07,351.661L84.07,351.876L84.48,351.876L84.48,352.092L84.889,352.092L84.889,352.307L85.094,352.307L85.094,352.523L85.503,352.523L85.708,352.523L85.708,352.738L86.322,352.738L86.322,352.523L86.322,352.738L86.935,352.738L86.935,352.953L87.549,352.953L87.549,352.523L87.959,352.523L87.959,352.307L88.163,352.307L88.163,352.092L88.368,352.092L88.368,352.307L88.982,352.307L88.982,351.661L88.982,351.23L88.777,351.23L88.777,351.015L88.573,351.015L88.573,350.799L88.368,350.799L88.163,350.799L88.163,350.584L87.959,350.584L87.754,350.584L87.754,350.369L87.549,350.369L87.549,349.722L87.754,349.722L87.959,349.722L87.959,349.507L87.345,349.507L87.345,349.722L87.14,349.722L87.14,349.938L87.14,350.153L86.935,350.153L86.731,350.153L86.731,350.369L86.526,350.369L86.526,350.584L86.322,350.584L86.322,351.015L86.322,351.661L86.117,351.661L86.117,351.876L86.117,352.092L85.298,352.092L85.298,351.876L85.298,351.661L85.298,351.446L85.298,351.23L85.094,351.23L85.094,350.799L84.889,350.799L84.889,350.584L84.684,350.584L84.684,350.799L84.275,350.799L84.275,350.584L84.07,350.584L84.07,350.369L83.866,350.369L83.866,350.153L83.661,350.153L83.661,349.938L83.457,349.938L83.457,349.722L82.843,349.722L82.638,349.722L82.638,348.645L82.843,348.645L82.843,348.43L83.047,348.43L83.252,348.43L83.252,348.214L83.457,348.214L83.457,347.999L83.866,347.999L83.866,348.214L84.07,348.214L84.07,348.43L84.275,348.43L84.48,348.43L84.48,348.645L84.684,348.645L84.684,348.43L84.889,348.43L84.889,347.999L84.684,347.999L84.889,347.999L84.889,347.568L84.889,347.353L85.094,347.353L85.094,347.137L85.298,347.137L85.298,347.353L85.708,347.353L86.117,347.353L86.117,347.568L86.322,347.568L86.322,347.784L86.322,347.568L86.731,347.568L86.731,347.784L86.731,347.568L87.14,347.568L87.14,347.353L87.345,347.353L87.549,347.353L87.549,346.922L87.754,346.922L87.754,346.706L87.959,346.706L87.959,346.491L88.163,346.491L88.163,345.845L88.163,345.629L88.163,345.198L87.549,345.198L87.549,345.414L87.549,345.629L87.345,345.629L87.345,345.845L87.14,345.845L87.14,346.06L87.14,346.706L86.935,346.706L86.935,346.922L86.526,346.922L86.526,346.706L86.322,346.706L86.322,346.491L85.912,346.491L85.912,346.706L85.708,346.706L85.298,346.706L85.298,346.491L85.298,346.276L85.094,346.276L85.094,345.629L84.889,345.629L84.889,345.414L84.889,345.198L84.889,344.983L84.889,344.768L84.889,344.337L84.684,344.337L84.684,343.906L84.48,343.906L84.48,343.691L84.48,343.26L84.275,343.26L84.275,342.829L84.48,342.829L84.48,342.398L84.275,342.398L84.275,341.752L84.07,341.752L84.07,340.675L84.275,340.675L84.275,340.459L84.48,340.459L84.48,338.736L84.48,338.52L84.48,337.874L84.684,337.874L84.684,337.658L84.889,337.658L84.889,337.443L84.684,337.443L84.48,337.443L84.48,337.228L84.275,337.228L84.275,337.443L84.07,337.443L84.07,338.089L83.866,338.089L83.866,338.305L83.866,338.951L83.661,338.951L83.661,339.167L83.457,339.167L83.457,339.597L83.252,339.597L83.047,339.597L83.047,339.813L83.047,340.028L82.638,340.028L82.638,340.244L82.433,340.244L82.433,340.459L82.433,340.675L82.229,340.675L81.819,340.675L81.819,340.89L81.615,340.89L81.615,341.105L81.41,341.105L81.41,341.321L81.615,341.321L81.615,341.536L81.819,341.536L82.433,341.536L82.433,341.752L82.433,342.398L82.433,343.26L82.638,343.26L82.638,343.691L82.843,343.691L82.843,343.906L82.638,343.906L82.638,344.337L82.433,344.337L82.433,346.491L82.229,346.491L82.229,346.922L82.024,346.922L82.024,347.999L82.024,348.43L81.615,348.43L81.615,348.645L81.615,348.861L81.615,349.076L82.024,349.076L82.024,349.507L82.229,349.507L82.229,350.153L82.433,350.153L82.433,351.015L82.433,352.092L82.229,352.092L82.024,352.092L81.615,352.092L81.615,351.876L81.615,351.661L81.41,351.661L81.41,351.23L81.205,351.23L80.592,351.23L80.592,351.015L80.387,351.015L80.387,350.799L80.182,350.799L80.182,350.584L79.773,350.584L79.364,350.584L79.364,350.369L79.159,350.369L79.159,350.153L78.954,350.153L78.954,349.938L78.75,349.938L78.75,349.722L78.545,349.722L78.545,350.584L78.75,350.584L78.75,350.799L78.341,350.799L78.341,350.584L77.727,350.584L77.522,350.584L77.522,350.369L77.317,350.369L77.317,350.153L77.113,350.153L77.113,349.938L76.908,349.938L76.908,349.722L76.703,349.722L76.499,349.722L76.499,349.507L76.499,349.291L76.089,349.291L75.885,349.291L75.885,349.076L75.68,349.076L75.68,348.43L75.476,348.43L75.476,348.214L75.271,348.214L75.271,347.999L75.066,347.999L74.862,347.999L74.862,347.784L74.657,347.784L74.657,347.999L74.452,347.999L73.634,347.999L73.634,347.784L73.429,347.784L73.429,347.353L73.224,347.353L73.224,347.137L73.224,346.922L73.02,346.922L73.02,346.491L73.224,346.491L73.224,346.276L73.224,346.06L73.634,346.06L73.838,346.06L73.838,345.198L73.634,345.198L73.634,344.552L73.429,344.552L73.429,344.983L73.224,344.983L73.224,345.198L73.224,345.414L73.02,345.414L73.02,346.06L72.815,346.06L72.815,346.276L72.611,346.276L72.611,346.491L72.201,346.491L72.201,346.06L72.201,345.629L71.178,345.629L71.178,345.414L70.973,345.414L70.973,345.198L70.769,345.198L70.564,345.198L70.564,344.983L70.359,344.983L70.359,344.768L70.155,344.768L69.746,344.768L69.746,344.552L69.541,344.552L69.541,344.337L69.336,344.337L68.927,344.337L68.313,344.337L68.313,343.906L68.108,343.906L68.108,343.691L68.313,343.691L68.313,343.26L67.904,343.26L67.699,343.26L67.699,343.044L67.699,342.829L67.494,342.829L67.29,342.829L67.29,342.613L67.085,342.613L67.085,342.398L66.881,342.398L66.676,342.398L66.267,342.398L66.267,342.183L66.267,341.967L66.062,341.967L65.653,341.967L65.653,341.752L65.243,341.752L65.243,341.536L64.63,341.536L64.63,341.321L64.22,341.321L64.22,340.89L64.425,340.89L64.425,340.675L64.425,340.459L64.22,340.459L64.22,340.028L64.016,340.028L64.016,340.244L63.606,340.244L63.606,340.459L63.402,340.459L63.402,340.244L63.402,340.028L62.788,340.028L62.583,340.028L62.583,339.813L61.969,339.813L61.969,339.597L61.56,339.597L61.151,339.597L61.151,339.382L60.946,339.382L60.946,339.167L60.741,339.167L60.537,339.167L60.537,338.951L60.537,338.736L60.332,338.736L60.127,338.736L60.127,338.52L59.923,338.52L59.923,338.305L59.513,338.305L59.104,338.305L59.104,338.089L58.695,338.089L58.695,337.874L58.49,337.874L58.49,337.658L58.286,337.658L58.286,337.443L58.081,337.443L58.081,337.228L57.876,337.228L57.876,337.012L57.262,337.012L57.262,336.797L57.058,336.797L57.058,336.581L56.853,336.581L56.853,336.366L56.444,336.366L56.239,336.366L56.239,336.15L56.035,336.15L56.035,335.935L55.625,335.935L55.421,335.935L55.421,335.72L55.216,335.72L55.216,335.504L54.602,335.504L54.602,334.858L54.602,334.642L54.807,334.642L55.011,334.642L55.011,334.211L54.807,334.211L54.807,333.996L54.602,333.996L54.602,333.781L54.397,333.781L54.193,333.781L54.193,333.565L53.988,333.565L53.988,333.35L55.011,332.272L55.216,330.98L55.216,330.118L53.17,328.394L53.374,326.886L55.625,323.439L57.262,321.284L58.286,320.638L58.081,319.13L59.513,318.268L59.923,317.406L59.923,316.544L59.309,315.682L60.741,314.174L61.969,311.157L62.378,310.295L64.016,310.295L64.425,309.433L65.243,308.14L63.197,307.494L63.811,307.278L64.016,306.632L64.63,306.201L64.834,305.554L63.606,304.908L64.016,303.83L65.653,303.184L65.039,300.167L65.448,299.736L65.243,298.443L66.881,298.012L67.904,296.934L69.541,297.15L69.95,295.857L69.541,295.21L69.95,294.779L71.587,293.917L73.429,291.977L73.838,289.822L74.862,287.236L75.476,286.158L75.885,285.512L75.68,284.218L75.885,283.356L75.066,282.925L75.68,280.123L75.885,279.692L76.089,276.028L75.271,275.381L74.862,273.872L75.885,271.286L75.68,271.07L74.043,271.07L74.657,268.268L74.248,265.681L74.657,264.603L74.452,263.526L73.838,262.017L74.248,261.37L74.657,261.154L74.452,259.645L74.657,258.783L75.066,257.705L75.476,257.489L76.089,256.843L75.68,255.118L76.908,255.765L77.317,255.549L76.499,254.04L76.703,253.178L77.727,252.315L77.317,251.453L77.113,251.237L76.908,251.237L77.317,249.513L79.773,248.65L79.364,247.572L78.954,246.494L79.568,246.063L79.978,246.71L80.796,246.925L81.205,246.063L81.615,244.554L81.205,243.907L81.819,241.967L83.252,241.32L83.457,240.242L81.41,238.301L82.024,237.439L83.457,236.361L82.843,235.714L83.252,234.851L84.684,234.42L84.684,232.479L86.526,232.479L89.8,229.461L88.368,227.736L88.368,227.089L88.982,226.226L89.596,225.795L89.596,225.148L89.391,224.285L90.619,221.698L91.233,221.266L92.256,221.482L92.87,220.619L92.256,219.972L91.028,219.757L89.8,219.972L89.187,219.541L87.549,218.463L87.549,217.816L87.959,217.169L87.549,216.306L88.368,215.444L88.982,215.012L88.573,214.365L88.163,214.15L87.754,212.64L87.14,212.425L87.345,211.131L88.163,210.484L88.777,209.837L88.163,208.974L88.573,207.896L90.005,205.092L89.8,203.582L91.233,200.778L90.824,199.915L90.005,198.621L89.391,196.249L88.982,195.17L90.619,193.876L92.052,191.719L92.87,190.425L92.052,189.778L92.461,188.268L94.303,186.542L94.712,184.169L94.712,181.796L94.916,179.855L95.53,178.776L94.507,175.972L94.303,174.678L95.326,173.599L95.326,170.794L95.735,167.99L96.554,165.616L96.963,161.086L96.144,157.634L96.144,155.044L96.349,152.024L96.349,150.082L96.144,147.492L96.554,144.903L97.168,143.177L96.758,142.529L95.94,141.882L95.326,137.134L95.94,136.487L95.735,134.329L95.326,127.639L92.461,116.2L93.484,114.905L96.349,107.35L97.577,105.407L97.986,99.795L99.828,96.557L100.851,93.75L101.67,92.455L101.67,90.08L102.079,88.353L102.079,84.251L102.898,80.581L104.125,78.638L105.353,77.126L105.967,70.865L106.786,66.762L107.809,64.819L110.06,62.012L111.697,59.204L113.13,56.181L115.381,53.374L116.404,52.726L117.836,52.726L121.929,49.27L124.999,47.759L127.25,46.463L128.887,44.951L130.115,42.791L127.455,39.12L128.273,37.824L131.343,37.176L131.752,37.176L133.389,36.528L135.231,34.8L137.073,32.856L145.463,24L145.668,32.424L144.849,37.824L146.895,44.735L147.919,48.839L148.328,50.782L149.147,62.875L148.123,64.171L143.826,68.921L135.64,81.876L147.509,85.331Z" fill="none" stroke="rgba(255,255,255,0.9)" stroke-width="2"/>
</svg>