<?xml version="1.0" encoding="UTF-8"?>
<svg viewBox="0 0 400 400" xmlns="http://www.w3.org/2000/svg" role="img" aria-label="Totonicapán">
  <defs>
    <clipPath id="c"><path d="M238.09,59.937L237.773,61.952L237.773,63.967L243.486,64.639L245.073,65.31L245.708,68.668L249.517,72.362L251.104,74.377L253.326,75.049L253.644,81.093L254.913,83.779L256.818,85.458L259.04,86.801L260.31,90.83L264.753,94.524L268.88,96.874L273.324,98.217L277.133,98.889L279.037,96.203L282.212,96.203L284.433,99.896L285.703,101.239L289.195,103.589L289.512,106.611L290.464,110.304L293.321,110.975L296.495,111.982L299.352,111.647L299.67,113.997L301.574,116.011L303.479,116.347L303.796,119.033L304.431,121.047L305.701,123.061L307.922,125.075L309.827,128.097L313.636,131.118L316.175,132.461L319.984,134.139L322.841,135.146L325.38,135.817L327.285,136.153L328.237,137.831L327.285,139.51L324.746,141.86L322.841,144.209L320.937,146.559L312.049,144.209L293.321,137.831L292.052,136.153L291.417,134.475L291.099,131.453L289.83,127.425L287.925,126.418L286.021,126.082L285.386,130.782L281.259,188.176L275.228,199.921L281.577,211.329L281.259,228.105L282.212,232.802L288.877,245.55L302.844,241.189L306.335,248.234L302.209,253.266L299.352,258.298L299.987,262.323L300.939,264.671L300.622,269.703L301.257,274.063L313.001,277.082L319.35,284.461L351.726,316.656L327.285,328.057L325.063,330.069L323.476,334.428L320.619,346.163L295.543,353.203L291.417,355.215L282.529,359.573L273.959,345.492L272.054,344.486L263.166,345.157L262.532,344.151L254.596,337.78L252.692,338.116L214.601,340.463L202.857,351.192L202.857,354.209L170.48,376L157.466,356.221L140.96,346.498L143.182,339.122L144.134,333.422L143.499,326.045L144.452,319.003L136.834,316.32L132.39,314.979L126.994,311.961L122.867,312.296L117.471,314.979L112.71,316.32L114.614,319.674L115.249,320.344L113.979,324.033L110.17,326.38L107.631,329.063L99.061,329.063L98.109,329.063L94.934,325.374L89.856,316.656L85.094,305.589L81.603,298.547L80.016,292.51L75.254,285.131L74.62,283.119L74.937,280.771L74.937,275.74L74.302,273.392L72.715,273.057L51.448,279.765L48.274,279.765L67.954,263.329L66.684,261.317L68.271,258.298L67.319,252.931L61.923,248.905L59.066,203.947L55.257,137.496L80.968,112.99L84.777,109.297L120.645,118.697L182.542,116.011L187.938,55.571L191.43,55.236L194.286,54.564L195.556,54.228L196.826,51.205L198.73,49.862L200.635,47.175L204.126,43.145L208.888,40.122L212.062,39.451L215.236,38.443L218.728,36.092L220.95,37.099L230.79,36.428L232.694,33.405L233.329,31.39L234.599,28.702L236.821,24L244.121,28.367L243.486,31.054L241.264,35.084L241.264,39.451L239.043,41.802L238.408,48.183L237.138,51.205L236.186,53.892L238.09,55.907L239.043,56.915Z"/></clipPath>
    <pattern id="mesh" width="14" height="14" patternUnits="userSpaceOnUse">
      <path d="M0 14 L14 0 M-2 2 L2 -2 M12 16 L16 12" stroke="rgba(255,255,255,0.2)" stroke-width="0.6" fill="none"/>
    </pattern>
  </defs>
  <g clip-path="url(#c)">
    <rect width="400" height="400" fill="url(#mesh)"/>
    <path d="M238.09,59.937L237.773,61.952L237.773,63.967L243.486,64.639L245.073,65.31L245.708,68.668L249.517,72.362L251.104,74.377L253.326,75.049L253.644,81.093L254.913,83.779L256.818,85.458L259.04,86.801L260.31,90.83L264.753,94.524L268.88,96.874L273.324,98.217L277.133,98.889L279.037,96.203L282.212,96.203L284.433,99.896L285.703,101.239L289.195,103.589L289.512,106.611L290.464,110.304L293.321,110.975L296.495,111.982L299.352,111.647L299.67,113.997L301.574,116.011L303.479,116.347L303.796,119.033L304.431,121.047L305.701,123.061L307.922,125.075L309.827,128.097L313.636,131.118L316.175,132.461L319.984,134.139L322.841,135.146L325.38,135.817L327.285,136.153L328.237,137.831L327.285,139.51L324.746,141.86L322.841,144.209L320.937,146.559L312.049,144.209L293.321,137.831L292.052,136.153L291.417,134.475L291.099,131.453L289.83,127.425L287.925,126.418L286.021,126.082L285.386,130.782L281.259,188.176L275.228,199.921L281.577,211.329L281.259,228.105L282.212,232.802L288.877,245.55L302.844,241.189L306.335,248.234L302.209,253.266L299.352,258.298L299.987,262.323L300.939,264.671L300.622,269.703L301.257,274.063L313.001,277.082L319.35,284.461L351.726,316.656L327.285,328.057L325.063,330.069L323.476,334.428L320.619,346.163L295.543,353.203L291.417,355.215L282.529,359.573L273.959,345.492L272.054,344.486L263.166,345.157L262.532,344.151L254.596,337.78L252.692,338.116L214.601,340.463L202.857,351.192L202.857,354.209L170.48,376L157.466,356.221L140.96,346.498L143.182,339.122L144.134,333.422L143.499,326.045L144.452,319.003L136.834,316.32L132.39,314.979L126.994,311.961L122.867,312.296L117.471,314.979L112.71,316.32L114.614,319.674L115.249,320.344L113.979,324.033L110.17,326.38L107.631,329.063L99.061,329.063L98.109,329.063L94.934,325.374L89.856,316.656L85.094,305.589L81.603,298.547L80.016,292.51L75.254,285.131L74.62,283.119L74.937,280.771L74.937,275.74L74.302,273.392L72.715,273.057L51.448,279.765L48.274,279.765L67.954,263.329L66.684,261.317L68.271,258.298L67.319,252.931L61.923,248.905L59.066,203.947L55.257,137.496L80.968,112.99L84.777,109.297L120.645,118.697L182.542,116.011L187.938,55.571L191.43,55.236L194.286,54.564L195.556,54.228L196.826,51.205L198.73,49.862L200.635,47.175L204.126,43.145L208.888,40.122L212.062,39.451L215.236,38.443L218.728,36.092L220.95,37.099L230.79,36.428L232.694,33.405L233.329,31.39L234.599,28.702L236.821,24L244.121,28.367L243.486,31.054L241.264,35.084L241.264,39.451L239.043,41.802L238.408,48.183L237.138,51.205L236.186,53.892L238.09,55.907L239.043,56.915Z" fill="rgba(180,200,195,0.35)"/>
  </g>
  <path d="M238.09,59.937L237.773,61.952L237.773,63.967L243.486,64.639L245.073,65.31L245.708,68.668L249.517,72.362L251.104,74.377L253.326,75.049L253.644,81.093L254.913,83.779L256.818,85.458L259.04,86.801L260.31,90.83L264.753,94.524L268.88,96.874L273.324,98.217L277.133,98.889L279.037,96.203L282.212,96.203L284.433,99.896L285.703,101.239L289.195,103.589L289.512,106.611L290.464,110.304L293.321,110.975L296.495,111.982L299.352,111.647L299.67,113.997L301.574,116.011L303.479,116.347L303.796,119.033L304.431,121.047L305.701,123.061L307.922,125.075L309.827,128.097L313.636,131.118L316.175,132.461L319.984,134.139L322.841,135.146L325.38,135.817L327.285,136.153L328.237,137.831L327.285,139.51L324.746,141.86L322.841,144.209L320.937,146.559L312.049,144.209L293.321,137.831L292.052,136.153L291.417,134.475L291.099,131.453L289.83,127.425L287.925,126.418L286.021,126.082L285.386,130.782L281.259,188.176L275.228,199.921L281.577,211.329L281.259,228.105L282.212,232.802L288.877,245.55L302.844,241.189L306.335,248.234L302.209,253.266L299.352,258.298L299.987,262.323L300.939,264.671L300.622,269.703L301.257,274.063L313.001,277.082L319.35,284.461L351.726,316.656L327.285,328.057L325.063,330.069L323.476,334.428L320.619,346.163L295.543,353.203L291.417,355.215L282.529,359.573L273.959,345.492L272.054,344.486L263.166,345.157L262.532,344.151L254.596,337.78L252.692,338.116L214.601,340.463L202.857,351.192L202.857,354.209L170.48,376L157.466,356.221L140.96,346.498L143.182,339.122L144.134,333.422L143.499,326.045L144.452,319.003L136.834,316.32L132.39,314.979L126.994,311.961L122.867,312.296L117.471,314.979L112.71,316.32L114.614,319.674L115.249,320.344L113.979,324.033L110.17,326.38L107.631,329.063L99.061,329.063L98.109,329.063L94.934,325.374L89.856,316.656L85.094,305.589L81.603,298.547L80.016,292.51L75.254,285.131L74.62,283.119L74.937,280.771L74.937,275.74L74.302,273.392L72.715,273.057L51.448,279.765L48.274,279.765L67.954,263.329L66.684,261.317L68.271,258.298L67.319,252.931L61.923,248.905L59.066,203.947L55.257,137.496L80.968,112.99L84.777,109.297L120.645,118.697L182.542,116.011L187.938,55.571L191.43,55.236L194.286,54.564L195.556,54.228L196.826,51.205L198.73,49.862L200.635,47.175L204.126,43.145L208.888,40.122L212.062,39.451L215.236,38.443L218.728,36.092L220.95,37.099L230.79,36.428L232.694,33.405L233.329,31.39L234.599,28.702L236.821,24L244.121,28.367L243.486,31.054L241.264,35.084L241.264,39.451L239.043,41.802L238.408,48.183L237.138,51.205L236.186,53.892L238.09,55.907L239.043,56.915Z" fill="none" stroke="rgba(255,255,255,0.9)" stroke-width="2"/>
</svg>