<?xml version="1.0" encoding="UTF-8"?>
<svg viewBox="0 0 400 400" xmlns="http://www.w3.org/2000/svg" role="img" aria-label="Zacapa">
  <defs>
    <clipPath id="c"><path d="M340.894,64.938L342.593,67.335L343.159,70.731L344.858,73.328L351.464,71.929L354.106,70.731L357.315,69.133L358.825,69.932L359.202,74.726L360.712,75.725L364.298,75.924L365.053,82.516L365.431,104.484L363.354,107.08L349.388,113.869L347.689,115.866L345.235,117.064L344.669,117.663L346.745,118.661L347.312,119.859L351.275,120.258L352.03,119.66L353.162,119.859L352.974,121.057L355.239,122.055L355.239,122.654L354.295,125.25L356.371,125.649L356.937,129.842L358.07,130.441L357.881,134.433L359.202,135.232L360.712,136.43L361.656,136.629L363.166,140.223L361.845,141.62L363.166,142.618L362.977,144.415L363.921,145.612L363.166,151.201L360.523,153.996L360.146,155.193L363.543,158.985L365.431,164.574L368.639,166.968L368.828,168.765L370.715,168.565L371.848,170.361L373.169,170.96L375.811,173.354L376,173.754L375.434,173.953L372.791,175.949L370.904,181.935L367.695,187.123L365.808,190.316L365.242,191.114L364.676,196.102L364.487,197.698L361.467,200.89L361.09,202.286L360.523,205.478L361.845,205.478L362.411,205.279L363.921,207.872L363.921,209.668L368.639,211.264L369.205,214.455L374.113,215.253L374.113,217.846L371.282,221.836L371.47,221.836L372.036,222.634L369.772,233.604L367.129,234.8L365.808,235.997L365.619,237.592L366.374,238.191L366.94,239.587L366.94,240.983L366.563,241.98L365.808,243.176L365.053,243.974L364.109,246.168L362.411,243.176L359.391,238.59L353.162,231.809L344.48,232.008L342.782,231.011L342.216,231.609L325.795,256.338L313.905,258.332L297.107,249.757L282.574,255.341L268.984,259.129L257.471,255.739L246.336,251.751L241.428,255.341L236.71,256.138L225.763,258.73L216.892,261.123L212.74,273.883L211.419,275.877L211.041,276.674L208.588,277.472L206.134,274.681L150.078,274.083L140.453,270.494L133.469,268.899L120.446,280.063L114.973,284.449L112.33,294.217L111.387,297.207L116.671,315.144L114.595,318.133L113.463,329.093L102.516,334.673L99.873,334.473L79.49,338.458L57.973,295.213L50.424,295.811L27.397,284.649L29.096,283.452L35.702,281.459L39.288,278.867L40.42,276.076L40.798,272.288L44.006,271.89L46.649,269.896L48.159,266.307L49.102,264.114L54.576,259.927L58.917,257.733L62.125,255.141L64.202,251.153L65.145,245.769L62.88,241.382L60.427,240.983L58.539,238.59L36.834,197.698L37.212,197.299L55.331,201.688L77.036,201.887L63.447,183.93L54.387,175.749L24,139.224L25.321,137.428L24.944,134.433L26.642,133.435L28.152,135.432L36.646,135.831L38.91,129.243L47.215,127.646L51.367,128.644L56.275,125.849L58.917,123.653L62.503,123.653L66.466,126.647L70.808,124.651L75.337,124.052L78.546,124.651L81.566,131.439L83.831,134.833L90.625,135.432L93.268,137.029L99.496,136.03L104.592,133.635L108.367,135.432L111.953,139.224L113.274,140.223L120.069,139.823L121.39,140.422L124.221,146.211L125.731,148.008L131.204,149.205L132.714,147.808L131.771,144.215L131.959,140.023L130.449,137.029L131.204,135.232L145.549,129.442L147.625,128.844L151.966,131.239L157.25,130.041L178.578,121.656L180.277,118.661L181.975,118.462L184.995,121.057L185.939,122.055L192.545,122.854L202.171,121.257L208.399,117.663L214.061,115.866L225.952,111.872L248.412,102.088L253.13,99.092L255.395,96.097L256.716,93.501L258.415,90.705L259.925,92.502L261.057,91.503L261.435,88.508L265.965,79.32L268.229,76.324L271.249,75.325L273.514,74.526L276.345,72.728L277.289,72.329L282.762,73.328L285.216,73.328L287.67,72.529L289.368,71.53L294.087,74.726L298.805,73.927L301.07,74.326L302.203,73.927L303.146,71.929L304.845,67.535L306.732,65.138L317.113,64.139L321.832,65.138L325.606,61.542L328.438,62.141L327.683,66.736L328.438,68.733L330.325,69.133L334.1,64.738L335.987,62.94L338.063,62.74Z"/></clipPath>
    <pattern id="mesh" width="14" height="14" patternUnits="userSpaceOnUse">
      <path d="M0 14 L14 0 M-2 2 L2 -2 M12 16 L16 12" stroke="rgba(255,255,255,0.2)" stroke-width="0.6" fill="none"/>
    </pattern>
  </defs>
  <g clip-path="url(#c)">
    <rect width="400" height="400" fill="url(#mesh)"/>
    <path d="M340.894,64.938L342.593,67.335L343.159,70.731L344.858,73.328L351.464,71.929L354.106,70.731L357.315,69.133L358.825,69.932L359.202,74.726L360.712,75.725L364.298,75.924L365.053,82.516L365.431,104.484L363.354,107.08L349.388,113.869L347.689,115.866L345.235,117.064L344.669,117.663L346.745,118.661L347.312,119.859L351.275,120.258L352.03,119.66L353.162,119.859L352.974,121.057L355.239,122.055L355.239,122.654L354.295,125.25L356.371,125.649L356.937,129.842L358.07,130.441L357.881,134.433L359.202,135.232L360.712,136.43L361.656,136.629L363.166,140.223L361.845,141.62L363.166,142.618L362.977,144.415L363.921,145.612L363.166,151.201L360.523,153.996L360.146,155.193L363.543,158.985L365.431,164.574L368.639,166.968L368.828,168.765L370.715,168.565L371.848,170.361L373.169,170.96L375.811,173.354L376,173.754L375.434,173.953L372.791,175.949L370.904,181.935L367.695,187.123L365.808,190.316L365.242,191.114L364.676,196.102L364.487,197.698L361.467,200.89L361.09,202.286L360.523,205.478L361.845,205.478L362.411,205.279L363.921,207.872L363.921,209.668L368.639,211.264L369.205,214.455L374.113,215.253L374.113,217.846L371.282,221.836L371.47,221.836L372.036,222.634L369.772,233.604L367.129,234.8L365.808,235.997L365.619,237.592L366.374,238.191L366.94,239.587L366.94,240.983L366.563,241.98L365.808,243.176L365.053,243.974L364.109,246.168L362.411,243.176L359.391,238.59L353.162,231.809L344.48,232.008L342.782,231.011L342.216,231.609L325.795,256.338L313.905,258.332L297.107,249.757L282.574,255.341L268.984,259.129L257.471,255.739L246.336,251.751L241.428,255.341L236.71,256.138L225.763,258.73L216.892,261.123L212.74,273.883L211.419,275.877L211.041,276.674L208.588,277.472L206.134,274.681L150.078,274.083L140.453,270.494L133.469,268.899L120.446,280.063L114.973,284.449L112.33,294.217L111.387,297.207L116.671,315.144L114.595,318.133L113.463,329.093L102.516,334.673L99.873,334.473L79.49,338.458L57.973,295.213L50.424,295.811L27.397,284.649L29.096,283.452L35.702,281.459L39.288,278.867L40.42,276.076L40.798,272.288L44.006,271.89L46.649,269.896L48.159,266.307L49.102,264.114L54.576,259.927L58.917,257.733L62.125,255.141L64.202,251.153L65.145,245.769L62.88,241.382L60.427,240.983L58.539,238.59L36.834,197.698L37.212,197.299L55.331,201.688L77.036,201.887L63.447,183.93L54.387,175.749L24,139.224L25.321,137.428L24.944,134.433L26.642,133.435L28.152,135.432L36.646,135.831L38.91,129.243L47.215,127.646L51.367,128.644L56.275,125.849L58.917,123.653L62.503,123.653L66.466,126.647L70.808,124.651L75.337,124.052L78.546,124.651L81.566,131.439L83.831,134.833L90.625,135.432L93.268,137.029L99.496,136.03L104.592,133.635L108.367,135.432L111.953,139.224L113.274,140.223L120.069,139.823L121.39,140.422L124.221,146.211L125.731,148.008L131.204,149.205L132.714,147.808L131.771,144.215L131.959,140.023L130.449,137.029L131.204,135.232L145.549,129.442L147.625,128.844L151.966,131.239L157.25,130.041L178.578,121.656L180.277,118.661L181.975,118.462L184.995,121.057L185.939,122.055L192.545,122.854L202.171,121.257L208.399,117.663L214.061,115.866L225.952,111.872L248.412,102.088L253.13,99.092L255.395,96.097L256.716,93.501L258.415,90.705L259.925,92.502L261.057,91.503L261.435,88.508L265.965,79.32L268.229,76.324L271.249,75.325L273.514,74.526L276.345,72.728L277.289,72.329L282.762,73.328L285.216,73.328L287.67,72.529L289.368,71.53L294.087,74.726L298.805,73.927L301.07,74.326L302.203,73.927L303.146,71.929L304.845,67.535L306.732,65.138L317.113,64.139L321.832,65.138L325.606,61.542L328.438,62.141L327.683,66.736L328.438,68.733L330.325,69.133L334.1,64.738L335.987,62.94L338.063,62.74Z" fill="rgba(180,200,195,0.35)"/>
  </g>
  <path d="M340.894,64.938L342.593,67.335L343.159,70.731L344.858,73.328L351.464,71.929L354.106,70.731L357.315,69.133L358.825,69.932L359.202,74.726L360.712,75.725L364.298,75.924L365.053,82.516L365.431,104.484L363.354,107.08L349.388,113.869L347.689,115.866L345.235,117.064L344.669,117.663L346.745,118.661L347.312,119.859L351.275,120.258L352.03,119.66L353.162,119.859L352.974,121.057L355.239,122.055L355.239,122.654L354.295,125.25L356.371,125.649L356.937,129.842L358.07,130.441L357.881,134.433L359.202,135.232L360.712,136.43L361.656,136.629L363.166,140.223L361.845,141.62L363.166,142.618L362.977,144.415L363.921,145.612L363.166,151.201L360.523,153.996L360.146,155.193L363.543,158.985L365.431,164.574L368.639,166.968L368.828,168.765L370.715,168.565L371.848,170.361L373.169,170.96L375.811,173.354L376,173.754L375.434,173.953L372.791,175.949L370.904,181.935L367.695,187.123L365.808,190.316L365.242,191.114L364.676,196.102L364.487,197.698L361.467,200.89L361.09,202.286L360.523,205.478L361.845,205.478L362.411,205.279L363.921,207.872L363.921,209.668L368.639,211.264L369.205,214.455L374.113,215.253L374.113,217.846L371.282,221.836L371.47,221.836L372.036,222.634L369.772,233.604L367.129,234.8L365.808,235.997L365.619,237.592L366.374,238.191L366.94,239.587L366.94,240.983L366.563,241.98L365.808,243.176L365.053,243.974L364.109,246.168L362.411,243.176L359.391,238.59L353.162,231.809L344.48,232.008L342.782,231.011L342.216,231.609L325.795,256.338L313.905,258.332L297.107,249.757L282.574,255.341L268.984,259.129L257.471,255.739L246.336,251.751L241.428,255.341L236.71,256.138L225.763,258.73L216.892,261.123L212.74,273.883L211.419,275.877L211.041,276.674L208.588,277.472L206.134,274.681L150.078,274.083L140.453,270.494L133.469,268.899L120.446,280.063L114.973,284.449L112.33,294.217L111.387,297.207L116.671,315.144L114.595,318.133L113.463,329.093L102.516,334.673L99.873,334.473L79.49,338.458L57.973,295.213L50.424,295.811L27.397,284.649L29.096,283.452L35.702,281.459L39.288,278.867L40.42,276.076L40.798,272.288L44.006,271.89L46.649,269.896L48.159,266.307L49.102,264.114L54.576,259.927L58.917,257.733L62.125,255.141L64.202,251.153L65.145,245.769L62.88,241.382L60.427,240.983L58.539,238.59L36.834,197.698L37.212,197.299L55.331,201.688L77.036,201.887L63.447,183.93L54.387,175.749L24,139.224L25.321,137.428L24.944,134.433L26.642,133.435L28.152,135.432L36.646,135.831L38.91,129.243L47.215,127.646L51.367,128.644L56.275,125.849L58.917,123.653L62.503,123.653L66.466,126.647L70.808,124.651L75.337,124.052L78.546,124.651L81.566,131.439L83.831,134.833L90.625,135.432L93.268,137.029L99.496,136.03L104.592,133.635L108.367,135.432L111.953,139.224L113.274,140.223L120.069,139.823L121.39,140.422L124.221,146.211L125.731,148.008L131.204,149.205L132.714,147.808L131.771,144.215L131.959,140.023L130.449,137.029L131.204,135.232L145.549,129.442L147.625,128.844L151.966,131.239L157.25,130.041L178.578,121.656L180.277,118.661L181.975,118.462L184.995,121.057L185.939,122.055L192.545,122.854L202.171,121.257L208.399,117.663L214.061,115.866L225.952,111.872L248.412,102.088L253.13,99.092L255.395,96.097L256.716,93.501L258.415,90.705L259.925,92.502L261.057,91.503L261.435,88.508L265.965,79.32L268.229,76.324L271.249,75.325L273.514,74.526L276.345,72.728L277.289,72.329L282.762,73.328L285.216,73.328L287.67,72.529L289.368,71.53L294.087,74.726L298.805,73.927L301.07,74.326L302.203,73.927L303.146,71.929L304.845,67.535L306.732,65.138L317.113,64.139L321.832,65.138L325.606,61.542L328.438,62.141L327.683,66.736L328.438,68.733L330.325,69.133L334.1,64.738L335.987,62.94L338.063,62.74Z" fill="none" stroke="rgba(255,255,255,0.9)" stroke-width="2"/>
</svg>